<svg xmlns="http://www.w3.org/2000/svg" xmlns:xlink="http://www.w3.org/1999/xlink" width="20.256" height="20.252" viewBox="0 0 20.256 20.252">
  <defs>
    <linearGradient id="linear-gradient" x1="-0.294" x2="2.872" y2="5.051" gradientUnits="objectBoundingBox">
      <stop offset="0" stop-color="#e84a06"/>
      <stop offset="0.191" stop-color="#2c0f38"/>
      <stop offset="1" stop-color="#050349"/>
    </linearGradient>
  </defs>
  <g id="home" transform="translate(-1 -0.053)">
    <g id="Group_68" data-name="Group 68" transform="translate(1 0.053)">
      <g id="Group_67" data-name="Group 67" transform="translate(0 0)">
        <path id="Path_584" data-name="Path 584" d="M47.137,34.321a.5.5,0,0,0-.652.005l-1.359,1.216v-.159a.338.338,0,0,0-.675,0v.764l-.563.5a.338.338,0,0,0,.45.5l2.475-2.216,2.475,2.216a.338.338,0,1,0,.45-.5Z" transform="translate(-42.086 -32.851)" fill="url(#linear-gradient)"/>
        <path id="Path_585" data-name="Path 585" d="M65.175,119.52a.338.338,0,0,0-.338.338v2.363H61.462v-2.363a.338.338,0,0,0-.675,0v2.577a.467.467,0,0,0,.473.461h3.78a.468.468,0,0,0,.473-.462v-2.576A.338.338,0,0,0,65.175,119.52Z" transform="translate(-58.422 -114.795)" fill="url(#linear-gradient)"/>
        <path id="Path_586" data-name="Path 586" d="M63.15,221.92a2.363,2.363,0,1,0,2.363,2.363A2.363,2.363,0,0,0,63.15,221.92Zm-1.688,2.363a1.691,1.691,0,0,1,1.35-1.654v1.463l-1.249.749A1.664,1.664,0,0,1,61.462,224.283Zm.449,1.136,1.186-.712.982.982A1.671,1.671,0,0,1,61.911,225.419Zm2.645-.207-1.069-1.069v-1.514a1.685,1.685,0,0,1,1.069,2.583Z" transform="translate(-58.422 -213.144)" fill="url(#linear-gradient)"/>
        <path id="Path_587" data-name="Path 587" d="M248.763,38.912V37.757a.533.533,0,0,0-.532-.532h-.961a.533.533,0,0,0-.532.532v1.155h-.675V36.8a.585.585,0,0,0-.584-.584h-.857a.585.585,0,0,0-.584.584v2.116h-.675V35.2a.675.675,0,0,0-.675-.675h-.675a.675.675,0,0,0-.675.675v3.713H241a.338.338,0,0,1-.338-.338v-4.05a.338.338,0,1,0-.675,0v4.05A1.013,1.013,0,0,0,241,39.587h7.763a.338.338,0,0,0,0-.675Zm-6.075,0h-.675V35.2h.675Zm2.7,0h-.675V36.887h.675Zm2.7,0h-.675V37.9h.675v1.013Z" transform="translate(-230.534 -32.837)" fill="url(#linear-gradient)"/>
        <path id="Path_588" data-name="Path 588" d="M248.763,209.579H241a.337.337,0,0,1-.338-.338v-.535l1.111-1.111a.345.345,0,0,1,.477,0l.4.4a1.013,1.013,0,0,0,1.432,0l1.408-1.408a.345.345,0,0,1,.477,0l.4.4a1.015,1.015,0,0,0,1.432,0l1.21-1.21a.338.338,0,0,0-.477-.477l-1.21,1.21a.338.338,0,0,1-.477,0l-.4-.4a1.037,1.037,0,0,0-1.432,0l-1.408,1.408a.338.338,0,0,1-.477,0l-.4-.4a1.037,1.037,0,0,0-1.432,0l-.634.634v-2.56a.338.338,0,0,0-.675,0v4.05A1.013,1.013,0,0,0,241,210.254h7.763a.338.338,0,0,0,0-.675Z" transform="translate(-230.534 -196.753)" fill="url(#linear-gradient)"/>
        <path id="Path_589" data-name="Path 589" d="M21.254,15.732V1.925A1.789,1.789,0,0,0,19.566.053H2.69A1.789,1.789,0,0,0,1,1.925V15.732A1.789,1.789,0,0,0,2.69,17.6h5.4v.675H6.74a1.35,1.35,0,0,0-1.35,1.35v.338a.337.337,0,0,0,.338.338h10.8a.337.337,0,0,0,.338-.338V19.63a1.35,1.35,0,0,0-1.35-1.35h-1.35V17.6h5.4A1.789,1.789,0,0,0,21.254,15.732Zm-5.738,3.222a.675.675,0,0,1,.675.675H6.065a.675.675,0,0,1,.675-.675Zm-6.751-.675V17.6h4.725v.675Zm10.8-1.35H2.69a1.118,1.118,0,0,1-1.013-1.2V14.9h18.9v.828A1.118,1.118,0,0,1,19.566,16.929Zm1.013-15v12.3H1.677V1.925A1.118,1.118,0,0,1,2.69.728H19.566A1.118,1.118,0,0,1,20.579,1.925Z" transform="translate(-1 -0.053)" fill="url(#linear-gradient)"/>
      </g>
    </g>
  </g>
</svg>
