<svg width="23" height="29" viewBox="0 0 23 29" fill="none" xmlns="http://www.w3.org/2000/svg">
<g clip-path="url(#clip0_684_5946)">
<path d="M8.54527 0.481445C6.30963 0.481445 4.28562 1.43235 2.82038 2.96889C1.35567 4.50598 0.449219 6.62926 0.449219 8.97453C0.449219 11.3198 1.35567 13.4431 2.82038 14.9802C3.08101 15.253 3.35884 15.5078 3.65282 15.7419C3.95306 15.4422 4.10162 15.2973 4.23141 15.1705L4.32784 15.0764C4.02134 14.8424 3.73257 14.5843 3.46517 14.3038C2.16517 12.94 1.36141 11.0557 1.36141 8.97453C1.36141 6.89337 2.16569 5.00905 3.46517 3.6453C4.76517 2.28155 6.5614 1.43837 8.54527 1.43837C10.5292 1.43837 12.3254 2.28155 13.6254 3.6453C14.1456 4.19102 14.586 4.8204 14.9275 5.51212C15.3174 5.54055 15.6973 5.63515 16.0523 5.7888C15.6416 4.72471 15.0312 3.76779 14.2702 2.96889C12.8049 1.43235 10.7809 0.481445 8.54527 0.481445ZM5.82226 25.8541C6.63593 25.7753 8.90337 25.5714 9.61436 24.4214C9.68577 24.305 10.2795 23.2731 10.2795 23.2677L12.7278 24.2459C12.7804 24.527 11.3449 26.63 11.0843 26.8575C10.7517 27.1473 10.4327 27.3064 10.0949 27.4404C8.96123 27.8877 7.98597 28.2486 6.70057 28.476L5.82226 25.8541ZM9.83954 19.3202C9.59038 20.6063 9.85987 21.6956 11.0139 22.4463C11.616 22.8384 11.7848 22.8187 12.4734 23.0276L15.6536 23.7931C15.8428 23.838 19.6208 27.0467 19.9758 27.3671L21.6073 25.8251C21.8444 25.6015 17.8428 21.8973 17.1454 21.5343C13.8344 19.8118 13.6947 21.7814 14.941 16.8109C15.5733 17.4583 16.0523 18.1807 17.2528 18.6744C18.7138 19.066 19.5291 18.5257 20.7446 18.1129L22.5502 17.431L21.7709 15.1223L19.9653 15.8037C19.9143 15.8217 19.785 15.8715 19.5582 15.954C18.9953 16.0968 18.4975 16.4724 18.141 16.292C16.9598 15.6927 16.2587 13.1637 12.9597 12.8881C12.4635 12.8471 11.5409 12.7164 10.8216 12.695C8.14652 12.5321 7.23433 13.5842 5.76962 15.1617C5.09616 15.8447 5.08574 15.8376 4.40551 16.5156L6.13606 18.3217C6.8215 17.6388 6.83662 17.6421 7.51528 16.952C8.13088 16.3346 8.55205 15.6981 9.18485 15.4264C9.61957 15.2388 10.4035 15.3219 10.8862 15.3422L9.83954 19.3202ZM13.8506 7.01694C15.1803 6.56473 16.609 7.32808 17.0422 8.72519C17.4738 10.1201 16.7456 11.6189 15.4138 12.0733C14.0841 12.5261 12.6553 11.7622 12.2222 10.3651C11.7906 8.96852 12.5203 7.46971 13.8506 7.01694ZM8.12932 8.10893C7.96921 8.19394 7.83597 8.32574 7.74568 8.48842H6.44047C6.48842 8.3703 6.47591 8.22868 6.39512 8.11932C6.3382 8.04213 6.25441 7.99181 6.16214 7.9794C6.06988 7.967 5.97669 7.99352 5.90306 8.05315L5.12744 8.68089C5.08528 8.71499 5.05108 8.75871 5.02742 8.80873C5.00376 8.85876 4.99126 8.91377 4.99087 8.96961V8.98C4.99139 9.08882 5.0383 9.19654 5.12744 9.26817L5.90306 9.89646C6.0563 10.0211 6.27679 9.99106 6.39512 9.83029C6.47539 9.72093 6.48842 9.57985 6.44047 9.46119H7.7462C7.90622 9.74991 8.20438 9.94403 8.54527 9.94403C9.05558 9.94403 9.46945 9.50986 9.46945 8.97453C9.46945 8.63934 9.30682 8.34351 9.05975 8.16963L9.0488 6.29625C9.16504 6.35038 9.30578 6.33562 9.41107 6.24539C9.44686 6.215 9.47658 6.1775 9.49855 6.13505C9.52051 6.09259 9.53428 6.04601 9.53908 5.99797C9.54387 5.94993 9.53959 5.90137 9.52648 5.85506C9.51337 5.80876 9.49169 5.76562 9.46267 5.72811L8.84656 4.92867C8.81493 4.8876 8.77522 4.85418 8.73015 4.83068C8.68508 4.80718 8.63571 4.79416 8.58541 4.79251H8.57707C8.46656 4.79033 8.3571 4.84227 8.28725 4.94289L7.70554 5.77021C7.59139 5.93371 7.62527 6.16446 7.78112 6.28476C7.8291 6.3216 7.8852 6.34508 7.94417 6.35302C8.00315 6.36096 8.06308 6.35309 8.11837 6.33015L8.12932 8.10893ZM11.862 3.76451C11.9688 3.56929 11.9047 3.3194 11.7186 3.2073C11.532 3.09521 11.2943 3.16247 11.1875 3.35768L10.8966 3.88644C10.7898 4.08166 10.8539 4.331 11.04 4.44365C11.2261 4.55574 11.4643 4.48848 11.5711 4.29273L11.862 3.76451ZM3.18943 11.7463C3.00334 11.8595 2.93975 12.11 3.04765 12.3046C3.15555 12.5004 3.39428 12.5665 3.58037 12.4539L4.08389 12.1482C4.2705 12.0356 4.33357 11.7851 4.2262 11.5899C4.17429 11.4962 4.08908 11.4278 3.98923 11.3999C3.88938 11.3719 3.78304 11.3865 3.69348 11.4407L3.18943 11.7463ZM2.58686 8.56661C2.37211 8.56661 2.19749 8.74925 2.19749 8.97453C2.19749 9.19982 2.37211 9.38245 2.58686 9.38245H3.16858C3.27171 9.38245 3.37062 9.33948 3.44354 9.26298C3.51646 9.18648 3.55743 9.08272 3.55743 8.97453C3.55743 8.74925 3.38333 8.56606 3.16858 8.56606L2.58686 8.56661ZM3.5788 5.49517C3.48942 5.44131 3.38332 5.4269 3.28381 5.4551C3.1843 5.4833 3.09954 5.5518 3.04817 5.64554C2.94079 5.84075 3.00543 6.09064 3.19099 6.20274L3.69504 6.50786C3.88113 6.61996 4.11934 6.5527 4.2262 6.35749C4.33305 6.16228 4.26894 5.91238 4.08285 5.80029L3.5788 5.49517ZM5.90358 3.35604C5.79568 3.16083 5.55695 3.09411 5.37086 3.2073C5.18477 3.32049 5.12118 3.57093 5.22908 3.76615L5.51994 4.29437C5.62784 4.49013 5.86657 4.55629 6.05266 4.44365C6.23874 4.33046 6.30233 4.08002 6.19444 3.8848L5.90358 3.35604ZM8.93465 2.72392C8.93465 2.61559 8.89362 2.51169 8.8206 2.43509C8.74758 2.35849 8.64854 2.31545 8.54527 2.31545C8.33052 2.31545 8.15642 2.49864 8.15642 2.72392V3.33416C8.15642 3.55945 8.33104 3.74209 8.54579 3.74209C8.64892 3.74209 8.74783 3.69911 8.82075 3.62261C8.89368 3.54611 8.93465 3.44235 8.93465 3.33416V2.72392Z" fill="#333333"/>
</g>
<defs>
<clipPath id="clip0_684_5946">
<rect width="22.101" height="27.9946" fill="white" transform="translate(0.449219 0.481445)"/>
</clipPath>
</defs>
</svg>
