<svg width="23" height="29" viewBox="0 0 23 29" fill="none" xmlns="http://www.w3.org/2000/svg">
<path d="M0.449219 14.4787C0.449219 14.85 0.59475 15.206 0.853796 15.4685C1.11284 15.731 1.46418 15.8785 1.83053 15.8785H12.3147L9.13767 19.0839C9.00821 19.214 8.90544 19.3688 8.83532 19.5394C8.76519 19.7099 8.72908 19.8929 8.72908 20.0777C8.72908 20.2624 8.76519 20.4454 8.83532 20.616C8.90544 20.7865 9.00821 20.9413 9.13767 21.0715C9.26608 21.2027 9.41886 21.3068 9.58718 21.3779C9.75551 21.4489 9.93606 21.4855 10.1184 21.4855C10.3008 21.4855 10.4813 21.4489 10.6496 21.3779C10.818 21.3068 10.9707 21.2027 11.0991 21.0715L16.6244 15.4726C16.7501 15.3394 16.8487 15.1825 16.9145 15.0106C17.0526 14.6699 17.0526 14.2876 16.9145 13.9468C16.8487 13.775 16.7501 13.6181 16.6244 13.4849L11.0991 7.88602C10.9703 7.75551 10.8174 7.65198 10.6492 7.58135C10.4809 7.51072 10.3005 7.47437 10.1184 7.47437C9.93627 7.47437 9.75591 7.51072 9.58764 7.58135C9.41936 7.65198 9.26647 7.75551 9.13767 7.88602C9.00888 8.01652 8.90672 8.17146 8.83702 8.34198C8.76732 8.5125 8.73144 8.69526 8.73144 8.87982C8.73144 9.06439 8.76732 9.24715 8.83702 9.41767C8.90672 9.58819 9.00888 9.74312 9.13767 9.87363L12.3147 13.079H1.83053C1.46418 13.079 1.11284 13.2265 0.853796 13.489C0.59475 13.7515 0.449219 14.1075 0.449219 14.4787ZM18.4063 0.481445H4.59316C3.49412 0.481445 2.44009 0.923859 1.66295 1.71136C0.885811 2.49886 0.449219 3.56694 0.449219 4.68063V8.87982C0.449219 9.25106 0.59475 9.60708 0.853796 9.86958C1.11284 10.1321 1.46418 10.2796 1.83053 10.2796C2.19688 10.2796 2.54822 10.1321 2.80727 9.86958C3.06631 9.60708 3.21184 9.25106 3.21184 8.87982V4.68063C3.21184 4.3094 3.35737 3.95338 3.61642 3.69088C3.87547 3.42838 4.22681 3.28091 4.59316 3.28091H18.4063C18.7726 3.28091 19.124 3.42838 19.383 3.69088C19.6421 3.95338 19.7876 4.3094 19.7876 4.68063V24.2769C19.7876 24.6481 19.6421 25.0041 19.383 25.2666C19.124 25.5291 18.7726 25.6766 18.4063 25.6766H4.59316C4.22681 25.6766 3.87547 25.5291 3.61642 25.2666C3.35737 25.0041 3.21184 24.6481 3.21184 24.2769V20.0777C3.21184 19.7064 3.06631 19.3504 2.80727 19.0879C2.54822 18.8254 2.19688 18.6779 1.83053 18.6779C1.46418 18.6779 1.11284 18.8254 0.853796 19.0879C0.59475 19.3504 0.449219 19.7064 0.449219 20.0777V24.2769C0.449219 25.3905 0.885811 26.4586 1.66295 27.2461C2.44009 28.0336 3.49412 28.476 4.59316 28.476H18.4063C19.5053 28.476 20.5593 28.0336 21.3365 27.2461C22.1136 26.4586 22.5502 25.3905 22.5502 24.2769V4.68063C22.5502 3.56694 22.1136 2.49886 21.3365 1.71136C20.5593 0.923859 19.5053 0.481445 18.4063 0.481445Z" fill="#333333"/>
</svg>
