<svg xmlns="http://www.w3.org/2000/svg" width="19.811" height="20.127" viewBox="0 0 19.811 20.127">
  <g id="Group_34159" data-name="Group 34159" transform="translate(-30.25 -492.249)">
    <path id="Path_15918" data-name="Path 15918" d="M14,2.312h3a2,2,0,0,1,2,2v1m-5,13h3a2,2,0,0,0,2-2v-1m-12-5H7m7,0h5m0,0-2-2m2,2-2,2M2.425,17.74l6,1.8A2,2,0,0,0,11,17.624V3A2,2,0,0,0,8.425,1.084l-6,1.8A2,2,0,0,0,1,4.8V15.824A2,2,0,0,0,2.425,17.74Z" transform="translate(30 492)" fill="none" stroke="#340000" stroke-linecap="round" stroke-linejoin="round" stroke-width="1.5"/>
  </g>
</svg>
