<svg xmlns="http://www.w3.org/2000/svg" width="23.494" height="23.353" viewBox="0 0 23.494 23.353">
  <g id="megaphone" transform="translate(0 -1.529)">
    <g id="Group_3534" data-name="Group 3534" transform="translate(0 1.529)">
      <g id="Group_3533" data-name="Group 3533" transform="translate(0 0)">
        <circle id="Ellipse_256" data-name="Ellipse 256" cx="0.7" cy="0.7" r="0.7" transform="translate(2.962 7.04)" fill="#aea0af"/>
        <path id="Path_2943" data-name="Path 2943" d="M20.054,7.188V3.86a2.317,2.317,0,0,0-3.422-2.034l-6.116,3.78h-8.2A2.32,2.32,0,0,0,0,7.923V14.9a2.32,2.32,0,0,0,2.317,2.317H3.369v6.809a.854.854,0,0,0,.854.854H8.063a.854.854,0,0,0,.854-.854V17.219h1.6c6.486,4.009,6.129,3.79,6.182,3.817a2.317,2.317,0,0,0,3.356-2.071V15.637A4.314,4.314,0,0,0,20.054,7.188ZM7.21,23.174H5.076V17.219H7.21Zm7.2-5.556-3.2-1.979a.854.854,0,0,0-.449-.128H2.317a.61.61,0,0,1-.609-.609V7.923a.61.61,0,0,1,.609-.609h8.441a.854.854,0,0,0,.449-.128l3.2-1.979Zm3.081,1.9-1.373-.849V4.152L17.491,3.3a.609.609,0,0,1,.855.557c0,.642,0,14.47,0,15.1A.609.609,0,0,1,17.491,19.522Zm2.563-5.651V8.954A2.605,2.605,0,0,1,20.054,13.871Z" transform="translate(0 -1.529)" fill="#aea0af"/>
      </g>
    </g>
  </g>
</svg>
