<svg xmlns="http://www.w3.org/2000/svg" width="18.798" height="22.911" viewBox="0 0 18.798 22.911">
  <path id="ic_notifications_none_24px" d="M13.4,25.411a2.357,2.357,0,0,0,2.35-2.35h-4.7A2.357,2.357,0,0,0,13.4,25.411Zm7.049-7.049V12.487c0-3.607-1.915-6.626-5.287-7.425v-.8a1.762,1.762,0,0,0-3.525,0v.8c-3.36.8-5.287,3.807-5.287,7.425v5.875L4,20.711v1.175H22.8V20.711ZM18.1,19.536H8.7V12.487C8.7,9.573,10.474,7.2,13.4,7.2s4.7,2.373,4.7,5.287Z" transform="translate(-4 -2.5)" fill="#361338" opacity="0.4"/>
</svg>
