<svg xmlns="http://www.w3.org/2000/svg" xmlns:xlink="http://www.w3.org/1999/xlink" width="22.365" height="22.365" viewBox="0 0 22.365 22.365">
  <defs>
    <linearGradient id="linear-gradient" x1="0.261" y1="0.06" x2="1" y2="1.058" gradientUnits="objectBoundingBox">
      <stop offset="0" stop-color="#350039"/>
      <stop offset="1" stop-color="#4b1717"/>
    </linearGradient>
  </defs>
  <g id="crm" transform="translate(-1 -1)">
    <path id="Path_539" data-name="Path 539" d="M21.427,18.953a2.16,2.16,0,0,0-.947-3.852v-.393a1.806,1.806,0,0,0-1.8-1.8H12.543V11.59a1.118,1.118,0,0,0,1.8-.854,1.123,1.123,0,0,0,1.082-1.082,1.123,1.123,0,0,0,1.082-1.082,1.124,1.124,0,0,0,.756-1.918l-.075-.075a3.42,3.42,0,0,0-5.006-4.639A3.418,3.418,0,0,0,7.358,6.78a1.118,1.118,0,0,0,.861,1.791A1.123,1.123,0,0,0,9.3,9.654a1.123,1.123,0,0,0,1.082,1.082,1.108,1.108,0,0,0,1.439,1.036V12.9H5.689a1.806,1.806,0,0,0-1.8,1.8V15.1a2.16,2.16,0,0,0-.947,3.852A3.25,3.25,0,0,0,1,21.922v1.443H7.493V21.922a3.25,3.25,0,0,0-1.939-2.969A2.16,2.16,0,0,0,4.607,15.1v-.393a1.084,1.084,0,0,1,1.082-1.082h6.132V15.1a2.16,2.16,0,0,0-.947,3.852,3.25,3.25,0,0,0-1.939,2.969v1.443h6.493V21.922a3.25,3.25,0,0,0-1.939-2.969,2.16,2.16,0,0,0-.947-3.852V13.626h6.132a1.084,1.084,0,0,1,1.082,1.082V15.1a2.16,2.16,0,0,0-.947,3.852,3.25,3.25,0,0,0-1.939,2.969v1.443h6.493V21.922a3.25,3.25,0,0,0-1.939-2.969ZM14.533,1.721a2.7,2.7,0,0,1,2.141,4.341L15.015,4.4a2.913,2.913,0,0,0,.309-.263l-.51-.51a2.09,2.09,0,0,1-1.487.616h-.572l-.616.616a.359.359,0,0,1-.255.106H10.528a.149.149,0,0,1-.106-.255l2.2-2.2a2.683,2.683,0,0,1,1.909-.791Zm-4.7,0a2.679,2.679,0,0,1,1.836.725L9.912,4.2a.871.871,0,0,0,.616,1.487h1.355a1.076,1.076,0,0,0,.765-.317l.4-.4h.273a2.82,2.82,0,0,0,1.035-.2l2.392,2.392a.4.4,0,0,1-.572.572l-.858-.858-.51.51.858.858a.4.4,0,0,1-.572.572l-.858-.858-.51.51.858.858a.4.4,0,0,1-.572.572l-.858-.858-.51.51.858.858a.4.4,0,0,1-.572.572l-.12-.12a1.122,1.122,0,0,0-1-1.561,1.123,1.123,0,0,0-1.082-1.082A1.123,1.123,0,0,0,9.654,7.136,1.125,1.125,0,0,0,8.532,6.05a1.113,1.113,0,0,0-.663.22A2.7,2.7,0,0,1,9.832,1.721ZM7.854,7.449a.4.4,0,0,1,.118-.286l.273-.273a.4.4,0,0,1,.572.572l-.273.273a.4.4,0,0,1-.69-.286ZM8.936,8.532a.4.4,0,0,1,.118-.286l.273-.273a.4.4,0,0,1,.572.572l-.273.273a.4.4,0,0,1-.69-.286Zm1.082,1.082a.4.4,0,0,1,.118-.286l.273-.273a.4.4,0,0,1,.572.572l-.273.273a.4.4,0,0,1-.69-.286ZM11.5,11.1a.4.4,0,0,1-.286-.69l.273-.273a.4.4,0,0,1,.572.572l-.273.273A.4.4,0,0,1,11.5,11.1ZM6.772,21.922v.721H6.05V21.2H5.329v1.443H3.164V21.2H2.443v1.443H1.721v-.721a2.525,2.525,0,1,1,5.05,0ZM5.689,17.233A1.443,1.443,0,1,1,4.247,15.79,1.444,1.444,0,0,1,5.689,17.233Zm9.018,4.689v.721h-.721V21.2h-.721v1.443H11.1V21.2h-.721v1.443H9.658v-.721a2.525,2.525,0,1,1,5.05,0Zm-1.082-4.689a1.443,1.443,0,1,1-1.443-1.443A1.444,1.444,0,0,1,13.626,17.233Zm5.05,0a1.443,1.443,0,1,1,1.443,1.443A1.444,1.444,0,0,1,18.676,17.233Zm3.968,5.411h-.721V21.2H21.2v1.443H19.036V21.2h-.721v1.443h-.721v-.721a2.525,2.525,0,0,1,5.05,0Z" fill="url(#linear-gradient)"/>
    <path id="Path_540" data-name="Path 540" d="M38,38h.721v.721H38Z" transform="translate(-23.653 -23.653)" fill="url(#linear-gradient)"/>
    <path id="Path_541" data-name="Path 541" d="M42,38h.721v.721H42Z" transform="translate(-26.21 -23.653)" fill="url(#linear-gradient)"/>
    <path id="Path_542" data-name="Path 542" d="M46,38h.721v.721H46Z" transform="translate(-28.767 -23.653)" fill="url(#linear-gradient)"/>
    <path id="Path_543" data-name="Path 543" d="M16,38h.721v.721H16Z" transform="translate(-9.589 -23.653)" fill="url(#linear-gradient)"/>
    <path id="Path_544" data-name="Path 544" d="M20,38h.721v.721H20Z" transform="translate(-12.146 -23.653)" fill="url(#linear-gradient)"/>
    <path id="Path_545" data-name="Path 545" d="M24,38h.721v.721H24Z" transform="translate(-14.703 -23.653)" fill="url(#linear-gradient)"/>
  </g>
</svg>
