<svg xmlns="http://www.w3.org/2000/svg" xmlns:xlink="http://www.w3.org/1999/xlink" width="23" height="23" viewBox="0 0 23 23">
  <defs>
    <linearGradient id="linear-gradient" x1="0.5" x2="0.5" y2="1" gradientUnits="objectBoundingBox">
      <stop offset="0" stop-color="#805e02"/>
      <stop offset="1" stop-color="#3f3d3d"/>
    </linearGradient>
    <linearGradient id="linear-gradient-12" x1="0.5" x2="0.5" y2="1" gradientUnits="objectBoundingBox">
      <stop offset="0" stop-color="#7b5b05"/>
      <stop offset="1" stop-color="#545454"/>
    </linearGradient>
  </defs>
  <g id="supplier" transform="translate(-1 -1)">
    <path id="Path_546" data-name="Path 546" d="M45.532,24.935a1.107,1.107,0,0,0-.377.07A2.413,2.413,0,0,0,43.9,23a2.225,2.225,0,1,0-2.53.1,2.594,2.594,0,0,0-1.215,1.978L40,26.79H38.113a1.113,1.113,0,1,0,0,2.226h.2a2.217,2.217,0,0,0-.568,1.484v3.524a1.3,1.3,0,0,0,2.6,0V32.355h1.484v2.226H40.339v.742h5.194v-.742H44.048V32.329a2.971,2.971,0,0,0,2.6-2.942V26.048A1.114,1.114,0,0,0,45.532,24.935Zm-4.452-3.71a1.484,1.484,0,1,1,1.484,1.484A1.485,1.485,0,0,1,41.081,21.226ZM39.6,31.242v2.782a.556.556,0,0,1-1.113,0V30.5a1.485,1.485,0,0,1,1.484-1.484h.5a1.845,1.845,0,0,0,1.847-1.687l.248-2.731-.739-.068-.248,2.731a1.107,1.107,0,0,1-1.108,1.012H38.113a.371.371,0,0,1,0-.742H40a.739.739,0,0,0,.739-.674l.155-1.711a1.854,1.854,0,0,1,1.856-1.695,1.671,1.671,0,0,1,1.669,1.669v3.524a1.485,1.485,0,0,1-1.484,1.484H40.71A1.114,1.114,0,0,0,39.6,31.242Zm3.71,3.339h-.742V32.355h.742Zm2.6-5.194a2.228,2.228,0,0,1-2.226,2.226H40.339v-.371a.371.371,0,0,1,.371-.371h2.226a2.228,2.228,0,0,0,2.226-2.226v-2.6a.371.371,0,1,1,.742,0Z" transform="translate(-22.645 -11.323)" fill="url(#linear-gradient)"/>
    <path id="Path_547" data-name="Path 547" d="M9.532,26.79H7.646L7.49,25.079A2.594,2.594,0,0,0,6.276,23.1a2.227,2.227,0,1,0-2.53-.1,2.413,2.413,0,0,0-1.255,2,1.1,1.1,0,0,0-.377-.07A1.114,1.114,0,0,0,1,26.048v3.339a2.971,2.971,0,0,0,2.6,2.942v2.251H2.113v.742H7.306v-.742H5.823V32.355H7.306v1.669a1.3,1.3,0,0,0,2.6,0V30.5a2.217,2.217,0,0,0-.568-1.484h.2a1.113,1.113,0,1,0,0-2.226ZM3.6,21.226A1.484,1.484,0,1,1,5.081,22.71,1.485,1.485,0,0,1,3.6,21.226ZM5.081,34.581H4.339V32.355h.742Zm2.226-2.968H3.968a2.228,2.228,0,0,1-2.226-2.226V26.048a.371.371,0,1,1,.742,0v2.6A2.228,2.228,0,0,0,4.71,30.871H6.935a.371.371,0,0,1,.371.371Zm2.226-3.339H7.178A1.107,1.107,0,0,1,6.07,27.262l-.248-2.731-.739.068.248,2.731a1.845,1.845,0,0,0,1.847,1.687h.5A1.485,1.485,0,0,1,9.161,30.5v3.524a.556.556,0,0,1-1.113,0V31.242a1.114,1.114,0,0,0-1.113-1.113H4.71a1.485,1.485,0,0,1-1.484-1.484V25.121A1.671,1.671,0,0,1,4.9,23.452a1.854,1.854,0,0,1,1.856,1.695l.155,1.711a.739.739,0,0,0,.739.675H9.532a.371.371,0,0,1,0,.742Z" transform="translate(0 -11.323)" fill="url(#linear-gradient)"/>
    <path id="Path_548" data-name="Path 548" d="M26.935,8.711a4.081,4.081,0,1,0-3.71,0V14.1l1.855,2.782L26.935,14.1Zm-5.194-3.63a3.339,3.339,0,1,1,3.339,3.339,3.343,3.343,0,0,1-3.339-3.339ZM23.968,9a4.077,4.077,0,0,0,.742.139v4.47h-.742Zm1.113,6.538-.791-1.186h1.581Zm1.113-1.928h-.742V9.142A4.014,4.014,0,0,0,26.194,9Z" transform="translate(-12.581)" fill="url(#linear-gradient)"/>
    <path id="Path_549" data-name="Path 549" d="M51.677,8.855A1.857,1.857,0,0,0,49.823,7H46.855A1.857,1.857,0,0,0,45,8.855V10.71h4.823A1.857,1.857,0,0,0,51.677,8.855Zm-5.935,0a1.114,1.114,0,0,1,1.113-1.113h2.968a1.113,1.113,0,1,1,0,2.226H45.742Z" transform="translate(-27.677 -3.774)" fill="url(#linear-gradient)"/>
    <path id="Path_550" data-name="Path 550" d="M49,11h.742v.742H49Z" transform="translate(-30.194 -6.29)" fill="url(#linear-gradient)"/>
    <path id="Path_551" data-name="Path 551" d="M53,11h.742v.742H53Z" transform="translate(-32.71 -6.29)" fill="url(#linear-gradient)"/>
    <path id="Path_552" data-name="Path 552" d="M57,11h.742v.742H57Z" transform="translate(-35.226 -6.29)" fill="url(#linear-gradient)"/>
    <path id="Path_553" data-name="Path 553" d="M2.855,10.71H7.677V8.855A1.857,1.857,0,0,0,5.823,7H2.855a1.855,1.855,0,1,0,0,3.71Zm0-2.968H5.823A1.114,1.114,0,0,1,6.935,8.855V9.968H2.855a1.113,1.113,0,1,1,0-2.226Z" transform="translate(0 -3.774)" fill="url(#linear-gradient)"/>
    <path id="Path_554" data-name="Path 554" d="M13,11h.742v.742H13Z" transform="translate(-7.548 -6.29)" fill="url(#linear-gradient)"/>
    <path id="Path_555" data-name="Path 555" d="M9,11h.742v.742H9Z" transform="translate(-5.032 -6.29)" fill="url(#linear-gradient)"/>
    <path id="Path_556" data-name="Path 556" d="M5,11h.742v.742H5Z" transform="translate(-2.516 -6.29)" fill="url(#linear-gradient)"/>
    <path id="rupee" d="M1.82.693V.9a.062.062,0,0,1-.065.065h-.34a.757.757,0,0,1-.261.474,1.028,1.028,0,0,1-.559.223q.338.361.93,1.086a.055.055,0,0,1,.008.069.059.059,0,0,1-.059.036h-.4a.06.06,0,0,1-.051-.024Q.407,2.085.018,1.672A.061.061,0,0,1,0,1.627V1.37a.062.062,0,0,1,.019-.046.062.062,0,0,1,.046-.019H.292a.915.915,0,0,0,.431-.087A.4.4,0,0,0,.93.965H.065A.062.062,0,0,1,0,.9V.693A.062.062,0,0,1,.065.628H.9Q.786.4.359.4H.065A.062.062,0,0,1,.019.38.062.062,0,0,1,0,.334V.065A.062.062,0,0,1,.065,0H1.751a.062.062,0,0,1,.065.065V.272a.062.062,0,0,1-.065.065H1.279a.7.7,0,0,1,.13.292h.347A.062.062,0,0,1,1.82.693Z" transform="translate(11.627 3.712)" fill="url(#linear-gradient-12)"/>
  </g>
</svg>
