<svg xmlns="http://www.w3.org/2000/svg" xmlns:xlink="http://www.w3.org/1999/xlink" width="22.8" height="23.896" viewBox="0 0 22.8 23.896">
  <defs>
    <linearGradient id="linear-gradient" y1="-0.198" x2="1" y2="1.223" gradientUnits="objectBoundingBox">
      <stop offset="0" stop-color="#11bb2d"/>
      <stop offset="1" stop-color="#232020"/>
    </linearGradient>
  </defs>
  <g id="Goals" transform="translate(0 -0.001)">
    <path id="Path_15919" data-name="Path 15919" d="M24.5,19.839l-.019-.035c-.077-.158-.166-.3-.255-.455l-.17-.278h0c-.1-.147-.216-.3-.336-.44l-.054-.062-.386.425-.436.467.911.189h0c.089.147.174.293.251.448l-.772-.154h0l.081.135a3.112,3.112,0,0,1,.151.274,5.172,5.172,0,0,1,.567,2.374,5.257,5.257,0,1,1-5.265-5.249,5.2,5.2,0,0,1,1.637.262,3.292,3.292,0,0,1,.386.143l-.22-.7a3.859,3.859,0,0,1,.459.17l.278.892.482-.5.386-.428-.1-.066a5.909,5.909,0,0,0-.822-.421c-.17-.069-.317-.127-.452-.17l-.058-.019a6.419,6.419,0,1,0,3.744,3.208Z" transform="translate(-7.577 -10.022)" fill="url(#linear-gradient)"/>
    <path id="Path_15920" data-name="Path 15920" d="M21.148,9.97l-.845.923a9.9,9.9,0,0,1,.942,4.246A10.036,10.036,0,1,1,11.209,5.1a9.862,9.862,0,0,1,2.652.359l.872-.977a11.032,11.032,0,0,0-3.54-.575,11.174,11.174,0,1,0,9.955,6.06Z" transform="translate(0 -2.4)" fill="url(#linear-gradient)"/>
    <path id="Path_15921" data-name="Path 15921" d="M37.951,18.78l-.031.035.031.05Z" transform="translate(-23.283 -11.531)" fill="url(#linear-gradient)"/>
    <path id="Path_15922" data-name="Path 15922" d="M37.089,20.5l-.436.467.911.189A5.55,5.55,0,0,0,37.089,20.5ZM36.078,18.78l-.031.035.031.05Zm-1.208.085.278.892.479-.506A5.558,5.558,0,0,0,34.87,18.865Z" transform="translate(-21.411 -11.531)" fill="url(#linear-gradient)"/>
    <path id="Path_15923" data-name="Path 15923" d="M37.089,20.5l-.436.467.911.189A5.55,5.55,0,0,0,37.089,20.5ZM36.078,18.78l-.031.035.031.05Zm-1.208.085.278.892.479-.506A5.558,5.558,0,0,0,34.87,18.865Z" transform="translate(-21.411 -11.531)" fill="url(#linear-gradient)"/>
    <path id="Path_15924" data-name="Path 15924" d="M39.3,4.632a.973.973,0,0,0-.629-.683l-1.339-.475-.386-.135-.695-.228a.575.575,0,0,1-.347-.336h0L35.75,2.39,35.056.622a.957.957,0,0,0-.71-.6.969.969,0,0,0-.9.289l-1.787,1.93-.849.907-1.2,1.289a.977.977,0,0,0-.228.969l.386,1.235c.135.042.282.1.452.17a5.909,5.909,0,0,1,.826.409l.1.066.031-.035-.664-2.1L31.956,3.6l.826-.9,1.312-1.4.73,1.9a.475.475,0,0,0,.046.1l-.282.3-.143.158-.8.853L31.478,6.921l-.3.32.019.093-.05-.031-.386.428-.494.49-.3.324L27.178,11.53a.965.965,0,0,0,.046,1.363.946.946,0,0,0,.656.259.961.961,0,0,0,.706-.3l2.876-3.088.309-.332.436-.467.386-.425.054.062c.12.143.232.293.336.44h0l.17.278c.089.151.178.3.255.455l.876.189a.8.8,0,0,0,.193.023.977.977,0,0,0,.714-.313L36.65,8.106l.834-.892,1.575-1.687A.969.969,0,0,0,39.3,4.632ZM36.847,6.211l-.807.865L34.419,8.813,32.7,8.458l.309-.332L35.1,5.895l.772-.849.3-.32.289-.309L38,4.949Z" transform="translate(-16.528 0)" fill="url(#linear-gradient)"/>
    <path id="Path_15925" data-name="Path 15925" d="M35.678,17.82l-.386.428a5.559,5.559,0,0,0-.772-.386l-.22-.7c.135.042.282.1.452.17a5.909,5.909,0,0,1,.822.425Z" transform="translate(-21.061 -10.536)" fill="url(#linear-gradient)"/>
    <path id="Path_15926" data-name="Path 15926" d="M41.854,23.375l-.749-.154h0a5.551,5.551,0,0,0-.475-.656l.386-.425.054.062c.12.143.232.293.336.44h0l.17.278A2.824,2.824,0,0,1,41.854,23.375Z" transform="translate(-24.947 -13.594)" fill="url(#linear-gradient)"/>
  </g>
</svg>
