<svg id="laptop" xmlns="http://www.w3.org/2000/svg" xmlns:xlink="http://www.w3.org/1999/xlink" width="22.596" height="22.596" viewBox="0 0 22.596 22.596">
  <defs>
    <linearGradient id="linear-gradient" x1="0.5" x2="0.5" y2="1" gradientUnits="objectBoundingBox">
      <stop offset="0" stop-color="#3d016c"/>
      <stop offset="1" stop-color="#181619"/>
    </linearGradient>
  </defs>
  <path id="Path_624" data-name="Path 624" d="M48,448h.729v.729H48Zm0,0" transform="translate(-45.813 -427.591)" fill="url(#linear-gradient)"/>
  <path id="Path_625" data-name="Path 625" d="M80,448h.729v.729H80Zm0,0" transform="translate(-76.356 -427.591)" fill="url(#linear-gradient)"/>
  <path id="Path_626" data-name="Path 626" d="M112,448h.729v.729H112Zm0,0" transform="translate(-106.898 -427.591)" fill="url(#linear-gradient)"/>
  <path id="Path_627" data-name="Path 627" d="M384,448h2.916v.729H384Zm0,0" transform="translate(-366.507 -427.591)" fill="url(#linear-gradient)"/>
  <path id="Path_628" data-name="Path 628" d="M21.867,18.951V6.924A1.824,1.824,0,0,0,20.045,5.1H18.951a5.1,5.1,0,0,0-10.2,0h-6.2A1.824,1.824,0,0,0,.729,6.924V18.951H0v1.822A1.824,1.824,0,0,0,1.822,22.6H20.773A1.824,1.824,0,0,0,22.6,20.773V18.951ZM20.045,5.831a1.1,1.1,0,0,1,1.093,1.093V18.951h-.729V7.289a.73.73,0,0,0-.729-.729h-.944a5.066,5.066,0,0,0,.157-.729ZM9.687,3.763l3.868,1.612L14.88,9.348A4.367,4.367,0,0,1,9.687,3.763ZM15.572,9.12,14.266,5.2l2.919-2.919A4.365,4.365,0,0,1,15.572,9.12ZM13.849.729A4.353,4.353,0,0,1,16.67,1.766L13.764,4.672,9.97,3.091A4.374,4.374,0,0,1,13.849.729ZM1.458,6.925A1.1,1.1,0,0,1,2.551,5.831H8.805a5.019,5.019,0,0,0,.157.729H2.916a.73.73,0,0,0-.729.729V18.951H1.458ZM21.867,20.773a1.1,1.1,0,0,1-1.093,1.093H1.822A1.1,1.1,0,0,1,.729,20.773V19.68H8.237a2.832,2.832,0,0,0,1.9.729h2.312a2.832,2.832,0,0,0,1.9-.729h4.592v-.729H14.062l-.107.107a2.11,2.11,0,0,1-1.5.622H10.142a2.11,2.11,0,0,1-1.5-.622l-.106-.107H2.916V7.289h6.33a5.091,5.091,0,0,0,9.206,0H19.68V19.68h2.187Zm0,0" fill="url(#linear-gradient)"/>
  <path id="Path_629" data-name="Path 629" d="M94.213,290.187a1.087,1.087,0,0,0-.605.184l-1.271-.953a1.077,1.077,0,0,0,.055-.324,1.093,1.093,0,1,0-2.187,0,1.082,1.082,0,0,0,.064.356l-2.041,1.633a1.072,1.072,0,0,0-1.226.054l-1.572-1.048a1.069,1.069,0,0,0,.037-.266,1.093,1.093,0,0,0-2.187,0,1.069,1.069,0,0,0,.037.266l-1.572,1.048a1.082,1.082,0,0,0-.652-.221,1.093,1.093,0,1,0,1.093,1.093,1.069,1.069,0,0,0-.037-.266l1.571-1.048a1.073,1.073,0,0,0,1.3,0l1.571,1.048a1.071,1.071,0,0,0-.037.266,1.093,1.093,0,1,0,2.187,0,1.082,1.082,0,0,0-.064-.356l2.041-1.633A1.079,1.079,0,0,0,91.9,290l1.271.953a1.077,1.077,0,0,0-.055.324,1.093,1.093,0,1,0,1.093-1.093Zm-13.12,2.187a.364.364,0,1,1,.364-.364A.365.365,0,0,1,81.093,292.373Zm3.28-2.187a.364.364,0,1,1,.364-.364A.365.365,0,0,1,84.373,290.187Zm3.28,2.187a.364.364,0,1,1,.364-.364A.365.365,0,0,1,87.653,292.373Zm3.644-2.916a.364.364,0,1,1,.364-.364A.365.365,0,0,1,91.3,289.458Zm2.916,2.187a.364.364,0,1,1,.364-.364A.365.365,0,0,1,94.213,291.644Zm0,0" transform="translate(-76.355 -274.88)" fill="url(#linear-gradient)"/>
  <path id="Path_630" data-name="Path 630" d="M85.831,176H80v5.1h5.831Zm-.729,4.373H80.729v-3.644H85.1Zm0,0" transform="translate(-76.356 -167.982)" fill="url(#linear-gradient)"/>
  <path id="Path_631" data-name="Path 631" d="M112,208h2.916v.729H112Zm0,0" transform="translate(-106.898 -198.524)" fill="url(#linear-gradient)"/>
  <path id="Path_632" data-name="Path 632" d="M112,240h2.916v.729H112Zm0,0" transform="translate(-106.898 -229.067)" fill="url(#linear-gradient)"/>
  <path id="Path_633" data-name="Path 633" d="M224,256h.729v.729H224Zm0,0" transform="translate(-213.795 -244.338)" fill="url(#linear-gradient)"/>
  <path id="Path_634" data-name="Path 634" d="M256,256h7.289v.729H256Zm0,0" transform="translate(-244.338 -244.338)" fill="url(#linear-gradient)"/>
</svg>
