<svg xmlns="http://www.w3.org/2000/svg" xmlns:xlink="http://www.w3.org/1999/xlink" width="21.656" height="21.727" viewBox="0 0 21.656 21.727">
  <defs>
    <linearGradient id="linear-gradient" x1="0.5" x2="0.5" y2="1" gradientUnits="objectBoundingBox">
      <stop offset="0" stop-color="#00197c"/>
      <stop offset="1" stop-color="#201f1f"/>
    </linearGradient>
  </defs>
  <g id="feedback" transform="translate(-0.784)">
    <g id="Group_70" data-name="Group 70" transform="translate(0.784)">
      <g id="Group_69" data-name="Group 69" transform="translate(0)">
        <path id="Path_590" data-name="Path 590" d="M21.028,2.169H13.8V1.446A1.45,1.45,0,0,0,12.352,0H2.23A1.45,1.45,0,0,0,.784,1.446V9.4c0,3.977,3.8,3.977,5.061,3.977a.362.362,0,1,0,0-.723A1.45,1.45,0,0,1,4.4,11.207v-.145a1.521,1.521,0,0,1,1.518-1.3h4.989v.723H7.653a.342.342,0,0,0-.362.362,3.246,3.246,0,0,0,.868,2.205A3.5,3.5,0,0,0,8.014,14.1a3.653,3.653,0,0,0,2.169,3.326c0,.217-.108.651-1.085.651a1.79,1.79,0,0,0-1.808,1.808V21.69h.723V19.883A1.074,1.074,0,0,1,9.026,18.8l1.771.868a2.51,2.51,0,0,0,.47.181V21.69h.723V19.847a1.79,1.79,0,0,0,.47-.145l1.771-.868a1.074,1.074,0,0,1,1.012,1.085v1.808h.723V19.919a1.79,1.79,0,0,0-1.808-1.808c-.976,0-1.085-.434-1.085-.651a3.6,3.6,0,0,0,2.169-3.434v-.253a2.865,2.865,0,0,0-.362-1.446H17.3a1.521,1.521,0,0,1,1.518,1.3,1.458,1.458,0,0,1-1.3,1.591h-.145a.362.362,0,1,0,0,.723c1.265,0,5.061,0,5.061-3.977V3.615A1.4,1.4,0,0,0,21.028,2.169ZM5.917,9.038A2.26,2.26,0,0,0,3.676,10.99a2.273,2.273,0,0,0,.434,1.518A2.846,2.846,0,0,1,1.507,9.4V1.446A.725.725,0,0,1,2.23.723H12.352a.725.725,0,0,1,.723.723V8.315a.725.725,0,0,1-.723.723ZM8.05,11.207h3.94a2.529,2.529,0,0,1,2.494,2.169h-3.94A2.529,2.529,0,0,1,8.05,11.207Zm4.555,5.6a.347.347,0,0,0-.253.325v.217a1.272,1.272,0,0,0,.723,1.229l-.94.47a1.321,1.321,0,0,1-1.048,0l-.9-.47a1.272,1.272,0,0,0,.723-1.229v-.181a.347.347,0,0,0-.253-.325A2.927,2.927,0,0,1,8.737,14.1a2.223,2.223,0,0,1,.036-.506,3.274,3.274,0,0,0,1.771.506h3.977A2.846,2.846,0,0,1,12.605,16.81Zm9.146-4.88a2.846,2.846,0,0,1-2.6,3.109,2.273,2.273,0,0,0,.434-1.518,2.233,2.233,0,0,0-2.241-1.952H14.413a3.232,3.232,0,0,0-2.422-1.085h-.362V9.761h.723A1.45,1.45,0,0,0,13.8,8.315V2.892h7.23a.725.725,0,0,1,.723.723V11.93Z" transform="translate(-0.784)" fill="url(#linear-gradient)"/>
      </g>
    </g>
    <g id="Group_72" data-name="Group 72" transform="translate(3.676 1.446)">
      <g id="Group_71" data-name="Group 71">
        <path id="Path_591" data-name="Path 591" d="M70.207,34.531h-.362a.342.342,0,0,1-.362-.362V33.085a1.085,1.085,0,1,0-2.169,0v1.085a.342.342,0,0,1-.362.362.342.342,0,0,0-.362-.362H65.146a.342.342,0,0,0-.362.362v3.977a.342.342,0,0,0,.362.362h1.446a.342.342,0,0,0,.362-.362h3.254a1.065,1.065,0,0,0,1.085-1.085V35.615A1.065,1.065,0,0,0,70.207,34.531ZM66.23,38.146h-.723V34.892h.723Zm4.338-.723a.342.342,0,0,1-.362.362H66.953V35.254a1.065,1.065,0,0,0,1.085-1.085V33.085a.362.362,0,1,1,.723,0v1.085a1.065,1.065,0,0,0,1.085,1.085h.362a.342.342,0,0,1,.362.362Z" transform="translate(-64.784 -32)" fill="url(#linear-gradient)"/>
      </g>
    </g>
    <g id="Group_74" data-name="Group 74" transform="translate(14.521 3.615)">
      <g id="Group_73" data-name="Group 73">
        <path id="Path_592" data-name="Path 592" d="M310.93,80h-1.446a.342.342,0,0,0-.362.362h-3.254a1.065,1.065,0,0,0-1.085,1.085v1.808a1.065,1.065,0,0,0,1.085,1.085h.362a.342.342,0,0,1,.361.362v1.085a1.085,1.085,0,1,0,2.169,0V84.7a.342.342,0,0,1,.362-.362.342.342,0,0,0,.362.362h1.446a.342.342,0,0,0,.362-.362V80.362A.342.342,0,0,0,310.93,80Zm-1.808,3.615a1.065,1.065,0,0,0-1.085,1.085v1.085a.362.362,0,0,1-.723,0V84.7a1.065,1.065,0,0,0-1.085-1.085h-.362a.342.342,0,0,1-.362-.362V81.446a.342.342,0,0,1,.362-.362h3.254Zm1.446.362h-.723V80.723h.723Z" transform="translate(-304.784 -80)" fill="url(#linear-gradient)"/>
      </g>
    </g>
    <g id="Group_76" data-name="Group 76" transform="translate(14.16 9.399)">
      <g id="Group_75" data-name="Group 75">
        <rect id="Rectangle_1514" data-name="Rectangle 1514" width="1.446" height="0.723" fill="url(#linear-gradient)"/>
      </g>
    </g>
    <g id="Group_78" data-name="Group 78" transform="translate(9.46 1.446)">
      <g id="Group_77" data-name="Group 77">
        <path id="Path_593" data-name="Path 593" d="M193.869,32.362V32h-.723v.362h-.362v.723h.362v.362h.723v-.362h.362v-.723Z" transform="translate(-192.784 -32)" fill="url(#linear-gradient)"/>
      </g>
    </g>
  </g>
</svg>
