<svg width="24" height="24" viewBox="0 0 24 24" fill="none" xmlns="http://www.w3.org/2000/svg">
<path d="M14.5859 0H4.00043C2.93945 0 1.92193 0.316096 1.1717 0.878751C0.421473 1.44141 0 2.20453 0 3.00024V20.9998C0 21.7955 0.421473 22.5586 1.1717 23.1212C1.92193 23.6839 2.93945 24 4.00043 24H19.9996C20.5249 24 21.0451 23.9224 21.5305 23.7716C22.0158 23.6208 22.4568 23.3998 22.8283 23.1212C23.1998 22.8426 23.4944 22.5119 23.6955 22.1479C23.8965 21.7839 24 21.3938 24 20.9998V7.06037C24 6.66289 23.7896 6.28167 23.415 6.00049L16.0043 0.442675C15.8185 0.302396 15.5975 0.191066 15.3541 0.115094C15.1106 0.0391214 14.8496 6.30485e-06 14.5859 0ZM14.9994 5.2497V2.24945L20.9994 6.74933H17.0002C16.7375 6.74946 16.4774 6.71076 16.2346 6.63546C15.9919 6.56015 15.7713 6.44971 15.5855 6.31044C15.3997 6.17118 15.2523 6.00581 15.1517 5.82381C15.0511 5.6418 14.9994 5.44671 14.9994 5.2497ZM4.99892 15.0002H14.9994C15.2645 15.0002 15.5188 15.0792 15.7063 15.2199C15.8938 15.3605 15.9991 15.5512 15.9991 15.7501C15.9991 15.9489 15.8938 16.1396 15.7063 16.2803C15.5188 16.4209 15.2645 16.4999 14.9994 16.4999H5.00022C4.73506 16.4999 4.48076 16.4209 4.29326 16.2803C4.10577 16.1396 4.00043 15.9489 4.00043 15.7501C4.00043 15.5512 4.10577 15.3605 4.29326 15.2199C4.48076 15.0792 4.73506 15.0002 5.00022 15.0002H4.99892ZM4.99892 18.0005H14.9994C15.2645 18.0005 15.5188 18.0795 15.7063 18.2201C15.8938 18.3607 15.9991 18.5514 15.9991 18.7503C15.9991 18.9492 15.8938 19.1399 15.7063 19.2805C15.5188 19.4211 15.2645 19.5001 14.9994 19.5001H5.00022C4.73506 19.5001 4.48076 19.4211 4.29326 19.2805C4.10577 19.1399 4.00043 18.9492 4.00043 18.7503C4.00043 18.5514 4.10577 18.3607 4.29326 18.2201C4.48076 18.0795 4.73506 18.0005 5.00022 18.0005H4.99892Z" fill="white"/>
</svg>
