<svg width="24" height="24" viewBox="0 0 24 24" fill="none" xmlns="http://www.w3.org/2000/svg">
<path d="M13.3974 1.09016C13.3191 0.778666 13.139 0.502244 12.8857 0.30475C12.6324 0.107256 12.3204 0 11.9993 0C11.6781 0 11.3661 0.107256 11.1128 0.30475C10.8595 0.502244 10.6794 0.778666 10.6011 1.09016L10.5006 1.5192C10.4383 1.76854 10.3104 1.99665 10.1301 2.17988C9.94993 2.3631 9.72395 2.49476 9.47568 2.56119C9.22741 2.62762 8.96588 2.6264 8.71824 2.55766C8.4706 2.48892 8.24586 2.35516 8.06736 2.17027L7.76733 1.85373C7.54407 1.62305 7.25013 1.47358 6.93221 1.42905C6.61428 1.38453 6.29059 1.44751 6.01255 1.60799C5.73452 1.76847 5.51807 2.01725 5.39759 2.31481C5.27711 2.61237 5.25951 2.94166 5.34758 3.25037L5.4676 3.67642C5.53921 3.9245 5.5428 4.18727 5.478 4.43722C5.4132 4.68716 5.2824 4.91509 5.09928 5.09714C4.91616 5.27918 4.68747 5.40865 4.43714 5.47197C4.18682 5.5353 3.92407 5.53016 3.67642 5.45709L3.25037 5.33558C2.94166 5.24751 2.61237 5.26511 2.31481 5.38559C2.01725 5.50607 1.76847 5.72251 1.60799 6.00055C1.44751 6.27859 1.38453 6.60228 1.42905 6.92021C1.47358 7.23813 1.62305 7.53207 1.85373 7.75533L2.17027 8.05536C2.35835 8.23349 2.4949 8.45905 2.56554 8.70829C2.63618 8.95752 2.63828 9.22119 2.57163 9.47152C2.50498 9.72185 2.37204 9.94956 2.18682 10.1307C2.0016 10.3118 1.77096 10.4396 1.5192 10.5006L1.09016 10.6071C0.778666 10.6854 0.502244 10.8655 0.30475 11.1188C0.107256 11.3721 0 11.6841 0 12.0052C0 12.3264 0.107256 12.6384 0.30475 12.8917C0.502244 13.145 0.778666 13.3251 1.09016 13.4034L1.5192 13.5009C1.76854 13.5632 1.99665 13.6911 2.17988 13.8714C2.3631 14.0516 2.49476 14.2775 2.56119 14.5258C2.62762 14.7741 2.6264 15.0356 2.55766 15.2833C2.48892 15.5309 2.35516 15.7556 2.17027 15.9341L1.85373 16.2342C1.62305 16.4574 1.47358 16.7514 1.42905 17.0693C1.38453 17.3872 1.44751 17.7109 1.60799 17.9889C1.76847 18.267 2.01725 18.4834 2.31481 18.6039C2.61237 18.7244 2.94166 18.742 3.25037 18.6539L3.67642 18.5339C3.92341 18.4632 4.18481 18.46 4.43352 18.5244C4.68222 18.5888 4.90916 18.7185 5.09082 18.9002C5.27248 19.0818 5.40224 19.3088 5.46664 19.5575C5.53104 19.8062 5.52775 20.0676 5.45709 20.3146L5.33558 20.7391C5.24751 21.0478 5.26511 21.3771 5.38559 21.6747C5.50607 21.9723 5.72251 22.221 6.00055 22.3815C6.27859 22.542 6.60228 22.605 6.92021 22.5604C7.23813 22.5159 7.53207 22.3664 7.75533 22.1358L8.05536 21.8192C8.2342 21.6312 8.46055 21.4949 8.71046 21.4249C8.96037 21.3549 9.22456 21.3537 9.47509 21.4215C9.72561 21.4893 9.95317 21.6235 10.1337 21.8099C10.3142 21.9964 10.441 22.2282 10.5006 22.4808L10.6071 22.9098C10.6854 23.2213 10.8655 23.4978 11.1188 23.6952C11.3721 23.8927 11.6841 24 12.0052 24C12.3264 24 12.6384 23.8927 12.8917 23.6952C13.145 23.4978 13.3251 23.2213 13.4034 22.9098L13.5009 22.4808C13.5632 22.2315 13.6911 22.0033 13.8714 21.8201C14.0516 21.6369 14.2775 21.5052 14.5258 21.4388C14.7741 21.3724 15.0356 21.3736 15.2833 21.4423C15.5309 21.5111 15.7556 21.6448 15.9341 21.8297L16.2342 22.1463C16.4574 22.3769 16.7514 22.5264 17.0693 22.5709C17.3872 22.6155 17.7109 22.5525 17.9889 22.392C18.267 22.2315 18.4834 21.9828 18.6039 21.6852C18.7244 21.3876 18.742 21.0583 18.6539 20.7496L18.5339 20.3236C18.4632 20.0766 18.46 19.8152 18.5244 19.5665C18.5888 19.3178 18.7185 19.0908 18.9002 18.9092C19.0818 18.7275 19.3088 18.5978 19.5575 18.5334C19.8062 18.469 20.0676 18.4723 20.3146 18.5429L20.7391 18.6644C21.0478 18.7525 21.3771 18.7349 21.6747 18.6144C21.9723 18.4939 22.221 18.2775 22.3815 17.9994C22.542 17.7214 22.605 17.3977 22.5604 17.0798C22.5159 16.7619 22.3664 16.4679 22.1358 16.2447L21.8192 15.9446C21.6316 15.7657 21.4957 15.5395 21.4259 15.2898C21.3561 15.0401 21.355 14.7762 21.4228 14.5259C21.4906 14.2756 21.6246 14.0483 21.8108 13.8679C21.997 13.6875 22.2285 13.5607 22.4808 13.5009L22.9098 13.3944C23.2213 13.3161 23.4978 13.136 23.6952 12.8827C23.8927 12.6294 24 12.3174 24 11.9963C24 11.6751 23.8927 11.3631 23.6952 11.1098C23.4978 10.8565 23.2213 10.6764 22.9098 10.5981L22.4808 10.5006C22.2315 10.4383 22.0033 10.3104 21.8201 10.1301C21.6369 9.94993 21.5052 9.72395 21.4388 9.47568C21.3724 9.22741 21.3736 8.96588 21.4423 8.71824C21.5111 8.4706 21.6448 8.24586 21.8297 8.06736L22.1463 7.76733C22.3769 7.54407 22.5264 7.25013 22.5709 6.93221C22.6155 6.61428 22.5525 6.29059 22.392 6.01255C22.2315 5.73452 21.9828 5.51807 21.6852 5.39759C21.3876 5.27711 21.0583 5.25951 20.7496 5.34758L20.3236 5.4676C20.0767 5.53812 19.8155 5.54137 19.567 5.47702C19.3185 5.41268 19.0917 5.28307 18.9101 5.10162C18.7285 4.92017 18.5987 4.69347 18.5341 4.445C18.4696 4.19653 18.4726 3.93532 18.5429 3.68842L18.6644 3.26237C18.7525 2.95366 18.7349 2.62438 18.6144 2.32681C18.4939 2.02925 18.2775 1.78047 17.9994 1.61999C17.7214 1.45951 17.3977 1.39653 17.0798 1.44105C16.7619 1.48558 16.4679 1.63505 16.2447 1.86574L15.9446 2.18227C15.7656 2.36994 15.5393 2.50579 15.2895 2.57548C15.0397 2.64516 14.7757 2.6461 14.5254 2.57819C14.2751 2.51027 14.0478 2.37603 13.8675 2.18964C13.6871 2.00324 13.5605 1.77161 13.5009 1.5192L13.3974 1.09016ZM12.0008 19.5015C10.5172 19.5015 9.06705 19.0616 7.83356 18.2374C6.60006 17.4132 5.63867 16.2417 5.07096 14.8712C4.50325 13.5006 4.35471 11.9924 4.64412 10.5374C4.93354 9.08242 5.64792 7.74592 6.69692 6.69692C7.74592 5.64792 9.08242 4.93354 10.5374 4.64412C11.9924 4.35471 13.5006 4.50325 14.8712 5.07096C16.2417 5.63867 17.4132 6.60006 18.2374 7.83356C19.0616 9.06705 19.5015 10.5172 19.5015 12.0008C19.5015 13.9901 18.7112 15.8979 17.3046 17.3046C15.8979 18.7112 13.9901 19.5015 12.0008 19.5015Z" fill="#F3FAFF"/>
</svg>
