<svg width="24" height="25" viewBox="0 0 24 25" fill="none" xmlns="http://www.w3.org/2000/svg">
<path d="M23.8005 14.6955C23.6703 14.471 23.5062 14.2812 23.3178 14.1371C23.1294 13.993 22.9203 13.8973 22.7026 13.8557C22.4848 13.8141 22.2628 13.8274 22.0491 13.8947C21.8354 13.962 21.6344 14.082 21.4575 14.2479L16.443 18.9178H11.3925C11.3066 18.9161 11.2218 18.8927 11.1431 18.8489C11.0644 18.8051 10.9935 18.7418 10.9345 18.6628C10.8755 18.5837 10.8296 18.4906 10.7996 18.3887C10.7695 18.2869 10.7559 18.1785 10.7595 18.0699C10.7589 17.8529 10.8242 17.6439 10.942 17.4861C11.0599 17.3283 11.2211 17.2337 11.3925 17.2221H14.67C14.9952 17.2241 15.3112 17.0855 15.5655 16.8291C15.8198 16.5728 15.9971 16.2141 16.068 15.8128C16.0992 15.5695 16.0883 15.3206 16.0362 15.0831C15.9841 14.8457 15.892 14.6253 15.7661 14.4372C15.6403 14.249 15.4837 14.0976 15.3072 13.9932C15.1307 13.8888 14.9384 13.834 14.7435 13.8325H8.00401C6.87465 13.84 5.78044 14.33 4.89901 15.2229L2.94902 17.2221L0.633019 17.1746C0.458399 17.1977 0.296834 17.3022 0.179812 17.4677C0.0627895 17.6332 -0.0013048 17.8479 2.01387e-05 18.0699V23.1533C-0.000981084 23.3705 0.064245 23.5798 0.182137 23.7377C0.300029 23.8956 0.461515 23.9899 0.633019 24.0012H15.1305C16.0602 23.9985 16.9652 23.6225 17.715 22.9276C24.189 16.9622 24.348 15.6382 23.8005 14.6955Z" fill="white"/>
<path d="M14.6145 1.20446V0H9.375V1.20446H11.043C11.3375 1.20562 11.6245 1.32202 11.8646 1.53767C12.1047 1.75333 12.2861 2.05767 12.384 2.40891H9.375V3.61337H12.384C12.2861 3.96462 12.1047 4.26896 11.8646 4.48462C11.6245 4.70027 11.3375 4.81667 11.043 4.81783H9.375V6.27266L12.036 9.63756H13.386L10.5255 6.02418H11.043C11.5918 6.02354 12.1237 5.78357 12.5489 5.34474C12.9741 4.90591 13.2665 4.29508 13.377 3.61527H14.616V2.40891H13.377C13.3041 1.97069 13.1539 1.55895 12.9375 1.20446H14.6145Z" fill="white"/>
</svg>
