<svg width="755" height="562" viewBox="0 0 755 562" fill="none" xmlns="http://www.w3.org/2000/svg">
<path d="M754.241 493.876H0V494.254H754.241V493.876Z" fill="#EBEBEB"/>
<path d="M248.285 517.138H198.324V517.515H248.285V517.138Z" fill="#EBEBEB"/>
<path d="M390.452 513.05H377.344V513.427H390.452V513.05Z" fill="#EBEBEB"/>
<path d="M108.084 506.684H79.1367V507.061H108.084V506.684Z" fill="#EBEBEB"/>
<path d="M627.197 504.15H587.855V504.527H627.197V504.15Z" fill="#EBEBEB"/>
<path d="M574.414 504.15H539.055V504.527H574.414V504.15Z" fill="#EBEBEB"/>
<path d="M678.678 522.252H537.363V522.629H678.678V522.252Z" fill="#EBEBEB"/>
<path d="M357.508 426.599H66.2351C63.9533 426.595 61.7663 425.685 60.1542 424.07C58.5421 422.456 57.6367 420.267 57.6367 417.985V8.53801C57.6566 6.26929 58.5708 4.10002 60.1807 2.50139C61.7906 0.902763 63.9663 0.00388643 66.2351 0H357.508C359.792 0 361.983 0.907484 363.598 2.52282C365.214 4.13815 366.121 6.32901 366.121 8.61343V417.985C366.121 420.27 365.214 422.461 363.598 424.076C361.983 425.691 359.792 426.599 357.508 426.599ZM66.2351 0.301697C64.0533 0.305693 61.9622 1.17521 60.4209 2.71938C58.8795 4.26356 58.0138 6.35621 58.0138 8.53801V417.985C58.0138 420.167 58.8795 422.26 60.4209 423.804C61.9622 425.348 64.0533 426.217 66.2351 426.221H357.508C359.691 426.217 361.784 425.348 363.327 423.805C364.871 422.261 365.74 420.168 365.744 417.985V8.53801C365.74 6.35483 364.871 4.2622 363.327 2.71846C361.784 1.17472 359.691 0.305685 357.508 0.301697H66.2351Z" fill="#EBEBEB"/>
<path d="M683.807 426.599H392.52C390.236 426.595 388.048 425.686 386.433 424.071C384.819 422.457 383.91 420.268 383.906 417.985V8.53801C383.93 6.26791 384.848 4.09866 386.46 2.50045C388.072 0.902236 390.249 0.00384405 392.52 0H683.807C686.074 0.00785089 688.245 0.908482 689.852 2.50669C691.459 4.10489 692.371 6.27189 692.391 8.53801V417.985C692.391 420.264 691.487 422.451 689.879 424.065C688.27 425.68 686.087 426.591 683.807 426.599ZM392.52 0.301697C390.336 0.305685 388.244 1.17472 386.7 2.71846C385.156 4.2622 384.287 6.35483 384.283 8.53801V417.985C384.287 420.168 385.156 422.261 386.7 423.805C388.244 425.348 390.336 426.217 392.52 426.221H683.807C685.991 426.217 688.083 425.348 689.627 423.805C691.171 422.261 692.04 420.168 692.044 417.985V8.53801C692.04 6.35483 691.171 4.2622 689.627 2.71846C688.083 1.17472 685.991 0.305685 683.807 0.301697H392.52Z" fill="#EBEBEB"/>
<path d="M480.6 489.382H516.125V333.948H480.6V489.382Z" fill="#F0F0F0"/>
<path d="M352.906 493.876H509.32V489.381H352.906V493.876Z" fill="#F0F0F0"/>
<path d="M480.605 333.948H346.078V489.382H480.605V333.948Z" fill="#F5F5F5"/>
<path d="M466.636 342.667H360.047V408.195H466.636V342.667Z" fill="#F0F0F0"/>
<path d="M466.636 415.134H360.047V480.662H466.636V415.134Z" fill="#F0F0F0"/>
<path d="M440.973 354.086H385.718C383.99 354.088 382.279 353.748 380.683 353.087C379.086 352.425 377.637 351.454 376.417 350.231C375.198 349.007 374.232 347.554 373.576 345.956C372.92 344.357 372.586 342.645 372.594 340.917H454.052C454.06 342.641 453.728 344.35 453.074 345.945C452.421 347.54 451.459 348.991 450.245 350.215C449.03 351.438 447.585 352.409 445.995 353.074C444.404 353.738 442.697 354.082 440.973 354.086Z" fill="#F5F5F5"/>
<path d="M440.978 426.554H385.722C382.245 426.554 378.911 425.172 376.453 422.714C373.994 420.256 372.613 416.921 372.613 413.445H454.071C454.071 416.919 452.692 420.251 450.237 422.709C447.782 425.167 444.452 426.55 440.978 426.554Z" fill="#F5F5F5"/>
<path d="M625.686 489.382H661.211V333.948H625.686V489.382Z" fill="#F0F0F0"/>
<path d="M497.98 493.876H654.395V489.381H497.98V493.876Z" fill="#F0F0F0"/>
<path d="M625.69 333.948H491.164V489.382H625.69V333.948Z" fill="#F5F5F5"/>
<path d="M611.722 342.667H505.133V408.195H611.722V342.667Z" fill="#F0F0F0"/>
<path d="M611.722 415.134H505.133V480.662H611.722V415.134Z" fill="#F0F0F0"/>
<path d="M586.048 354.086H530.792C527.316 354.086 523.981 352.705 521.523 350.247C519.065 347.788 517.684 344.454 517.684 340.978H599.142C599.142 344.452 597.763 347.784 595.308 350.241C592.852 352.699 589.522 354.082 586.048 354.086Z" fill="#F5F5F5"/>
<path d="M586.048 426.554H530.792C527.316 426.554 523.981 425.172 521.523 422.714C519.065 420.256 517.684 416.921 517.684 413.445H599.142C599.142 416.919 597.763 420.251 595.308 422.709C592.852 425.167 589.522 426.55 586.048 426.554Z" fill="#F5F5F5"/>
<path d="M168.074 125.113L228.926 125.113V54.7728L168.074 54.7728V125.113Z" fill="#E6E6E6"/>
<path d="M161.135 125.113L227.297 125.113V54.7728L161.135 54.7728V125.113Z" fill="#F5F5F5"/>
<path d="M221.746 119.577V60.3237H166.671V119.577H221.746Z" fill="white"/>
<path d="M208.41 105.217V103.06C208.406 95.5354 205.415 88.3206 200.095 83.0002C194.774 77.6798 187.559 74.6891 180.035 74.6851V76.8422C180.035 84.3676 183.025 91.5848 188.346 96.906C193.667 102.227 200.884 105.217 208.41 105.217Z" fill="#F5F5F5"/>
<path d="M432.394 257.875H661.23V43.8219L432.394 43.8219V257.875Z" fill="#E6E6E6"/>
<path d="M425.302 257.875L657.91 257.875V43.8219L425.302 43.8219V257.875Z" fill="#F0F0F0"/>
<path d="M432.394 265.508H661.23V257.875H432.394V265.508Z" fill="#E6E6E6"/>
<path d="M413.474 265.508L646.082 265.508V257.875H413.474V265.508Z" fill="#F0F0F0"/>
<path d="M647.969 246.38V55.3159L435.212 55.3159V246.38H647.969Z" fill="#FAFAFA"/>
<path d="M587.645 246.395L552.21 55.3159H493.832L529.266 246.395H587.645Z" fill="white"/>
<path d="M643.382 181.561C643.584 181.546 643.771 181.452 643.904 181.299C644.036 181.147 644.104 180.948 644.091 180.747V62.7983C644.091 62.6103 644.017 62.43 643.884 62.297C643.751 62.164 643.57 62.0894 643.382 62.0894C643.194 62.0894 643.014 62.164 642.881 62.297C642.748 62.43 642.673 62.6103 642.673 62.7983V180.747C642.661 180.948 642.728 181.147 642.861 181.299C642.994 181.452 643.181 181.546 643.382 181.561Z" fill="#F0F0F0"/>
<path d="M516.717 246.395L481.298 55.3159H458.535L493.954 246.395H516.717Z" fill="white"/>
<path d="M436.48 246.38V55.3159H435.213V246.38H436.48Z" fill="#E6E6E6"/>
<path opacity="0.4" d="M422.945 70.0234H651.767L652.687 59.7959H423.85L422.945 70.0234Z" fill="#E6E6E6"/>
<path opacity="0.4" d="M422.945 81.8051H651.767L652.687 71.5625H423.85L422.945 81.8051Z" fill="#E6E6E6"/>
<path opacity="0.4" d="M422.945 93.5708H651.767L652.687 83.3433H423.85L422.945 93.5708Z" fill="#E6E6E6"/>
<path opacity="0.4" d="M422.945 105.352H651.767L652.687 95.1099H423.85L422.945 105.352Z" fill="#E6E6E6"/>
<path opacity="0.4" d="M422.945 117.118H651.767L652.687 106.891H423.85L422.945 117.118Z" fill="#E6E6E6"/>
<path opacity="0.4" d="M422.945 128.9H651.767L652.687 118.657H423.85L422.945 128.9Z" fill="#E6E6E6"/>
<path opacity="0.4" d="M422.945 140.666H651.767L652.687 130.438H423.85L422.945 140.666Z" fill="#E6E6E6"/>
<path opacity="0.4" d="M422.945 152.447H651.767L652.687 142.205H423.85L422.945 152.447Z" fill="#E6E6E6"/>
<path opacity="0.4" d="M422.945 164.213H651.767L652.687 153.985H423.85L422.945 164.213Z" fill="#E6E6E6"/>
<path d="M124.93 239.863H172.402V185.392H124.93V239.863Z" fill="#E6E6E6"/>
<path d="M119.562 239.863H170.805V185.392H119.562V239.863Z" fill="#F5F5F5"/>
<path d="M166.523 235.565V189.677H123.864V235.565H166.523Z" fill="white"/>
<path d="M156.176 213.465V211.791C156.176 210.347 155.892 208.918 155.339 207.585C154.786 206.251 153.976 205.04 152.954 204.02C151.933 203 150.72 202.192 149.386 201.641C148.052 201.09 146.623 200.807 145.179 200.809C142.277 200.825 139.499 201.989 137.453 204.047C135.406 206.105 134.258 208.889 134.258 211.791V213.465C134.258 216.378 135.415 219.171 137.474 221.231C139.534 223.29 142.327 224.447 145.24 224.447C148.144 224.435 150.926 223.273 152.976 221.215C155.025 219.156 156.176 216.37 156.176 213.465Z" fill="#F5F5F5"/>
<path d="M243.33 220.344H308.512V145.252H243.33V220.344Z" fill="#E6E6E6"/>
<path d="M235.943 220.344H306.57V145.252H235.943V220.344Z" fill="#F5F5F5"/>
<path d="M300.656 214.445V151.195H241.856V214.445H300.656Z" fill="white"/>
<path d="M273.71 171.077L284.873 190.416C285.122 190.847 285.253 191.336 285.253 191.834C285.253 192.332 285.122 192.822 284.872 193.253C284.623 193.684 284.265 194.042 283.833 194.291C283.402 194.539 282.912 194.67 282.414 194.67H260.089C259.591 194.67 259.101 194.539 258.67 194.291C258.238 194.042 257.88 193.684 257.631 193.253C257.381 192.822 257.25 192.332 257.25 191.834C257.25 191.336 257.381 190.847 257.63 190.416L268.793 171.077C269.044 170.648 269.404 170.293 269.835 170.046C270.266 169.799 270.755 169.669 271.252 169.669C271.749 169.669 272.237 169.799 272.668 170.046C273.1 170.293 273.459 170.648 273.71 171.077Z" fill="#F5F5F5"/>
<path d="M135.795 493.862H171.621V380.907H135.795V493.862Z" fill="#E6E6E6"/>
<path d="M142.596 493.877H135.793V474.523H149.731L142.596 493.877Z" fill="#F0F0F0"/>
<path d="M269.674 493.862H305.5V380.907H269.674V493.862Z" fill="#E6E6E6"/>
<path d="M135.811 481.99H275.617V380.907H135.811V481.99Z" fill="#F0F0F0"/>
<path d="M141.07 387.257V457.809H203.416V387.257H141.07Z" fill="#E6E6E6"/>
<path d="M207.992 387.257V457.809H270.338V387.257H207.992Z" fill="#E6E6E6"/>
<path d="M232.998 392.673H245.322C247.969 392.681 250.59 392.15 253.025 391.112C255.46 390.075 257.659 388.553 259.487 386.639H218.758C220.594 388.564 222.804 390.092 225.253 391.13C227.702 392.168 230.338 392.693 232.998 392.673Z" fill="#F0F0F0"/>
<path d="M165.452 392.673H177.791C180.438 392.68 183.058 392.148 185.493 391.111C187.928 390.074 190.127 388.552 191.956 386.639H151.227C153.062 388.56 155.27 390.087 157.716 391.124C160.162 392.162 162.795 392.689 165.452 392.673Z" fill="#F0F0F0"/>
<path d="M268.815 493.877H275.618V474.523H261.68L268.815 493.877Z" fill="#F0F0F0"/>
<path d="M231.93 365.777C231.927 367.314 232.38 368.818 233.232 370.097C234.083 371.377 235.296 372.375 236.715 372.965C238.134 373.555 239.697 373.711 241.205 373.413C242.713 373.115 244.098 372.377 245.186 371.291C246.274 370.205 247.016 368.821 247.317 367.313C247.618 365.806 247.465 364.243 246.877 362.823C246.29 361.402 245.294 360.188 244.016 359.334C242.738 358.479 241.236 358.023 239.698 358.023C237.642 358.027 235.67 358.845 234.215 360.298C232.759 361.751 231.938 363.721 231.93 365.777Z" fill="#E0E0E0"/>
<path d="M243.215 368.492C247.497 368.492 250.968 365.02 250.968 360.738C250.968 356.456 247.497 352.984 243.215 352.984C238.932 352.984 235.461 356.456 235.461 360.738C235.461 365.02 238.932 368.492 243.215 368.492Z" fill="#E0E0E0"/>
<path d="M193.086 367.028C193.086 368.562 193.541 370.061 194.393 371.336C195.245 372.611 196.456 373.605 197.872 374.192C199.289 374.779 200.848 374.932 202.352 374.633C203.856 374.334 205.238 373.595 206.322 372.511C207.407 371.427 208.145 370.045 208.444 368.541C208.743 367.037 208.59 365.478 208.003 364.061C207.416 362.645 206.422 361.434 205.147 360.582C203.872 359.73 202.373 359.275 200.84 359.275C198.783 359.275 196.811 360.092 195.357 361.546C193.903 363 193.086 364.972 193.086 367.028Z" fill="#E0E0E0"/>
<path d="M253.589 371.524C258.846 371.524 263.107 367.263 263.107 362.006C263.107 356.749 258.846 352.487 253.589 352.487C248.332 352.487 244.07 356.749 244.07 362.006C244.07 367.263 248.332 371.524 253.589 371.524Z" fill="#E0E0E0"/>
<path d="M225.215 353.241C225.212 355.124 225.768 356.966 226.812 358.533C227.856 360.1 229.341 361.323 231.08 362.045C232.819 362.768 234.734 362.959 236.581 362.593C238.428 362.228 240.126 361.322 241.459 359.992C242.791 358.661 243.699 356.965 244.068 355.118C244.436 353.272 244.249 351.357 243.529 349.617C242.809 347.877 241.589 346.389 240.023 345.343C238.458 344.296 236.617 343.737 234.733 343.737C232.213 343.741 229.796 344.743 228.012 346.524C226.229 348.305 225.223 350.72 225.215 353.241Z" fill="#E0E0E0"/>
<path d="M210.129 355.669C210.126 357.553 210.682 359.394 211.726 360.962C212.77 362.529 214.255 363.751 215.994 364.474C217.733 365.197 219.648 365.388 221.495 365.022C223.343 364.656 225.04 363.751 226.373 362.42C227.705 361.09 228.613 359.394 228.982 357.547C229.35 355.7 229.163 353.786 228.443 352.045C227.723 350.305 226.503 348.818 224.937 347.771C223.372 346.725 221.531 346.166 219.647 346.166C217.126 346.166 214.707 347.167 212.922 348.949C211.138 350.73 210.133 353.148 210.129 355.669Z" fill="#E0E0E0"/>
<path d="M216.512 363.348C216.512 365.138 217.043 366.888 218.037 368.376C219.032 369.865 220.445 371.025 222.099 371.71C223.753 372.395 225.573 372.574 227.328 372.225C229.084 371.876 230.697 371.014 231.963 369.748C233.228 368.482 234.09 366.869 234.44 365.113C234.789 363.358 234.61 361.538 233.925 359.884C233.239 358.23 232.079 356.817 230.591 355.822C229.103 354.828 227.353 354.297 225.563 354.297C223.162 354.297 220.86 355.25 219.163 356.948C217.465 358.645 216.512 360.947 216.512 363.348Z" fill="#E0E0E0"/>
<path d="M200.766 362.759C200.766 364.693 201.339 366.583 202.413 368.19C203.487 369.798 205.014 371.05 206.8 371.79C208.586 372.53 210.551 372.724 212.448 372.346C214.344 371.969 216.085 371.038 217.453 369.671C218.82 368.304 219.751 366.562 220.128 364.666C220.505 362.77 220.311 360.805 219.571 359.019C218.832 357.232 217.579 355.706 215.971 354.632C214.364 353.558 212.474 352.984 210.541 352.984C207.948 352.984 205.462 354.014 203.629 355.847C201.795 357.681 200.766 360.167 200.766 362.759Z" fill="#E0E0E0"/>
<path d="M268.765 365.777C268.765 365.777 267.709 380.862 226.874 380.862C186.04 380.862 184.969 365.777 184.969 365.777H268.765Z" fill="#F0F0F0"/>
<path d="M377.124 562C538.656 562 669.604 554.355 669.604 544.924C669.604 535.493 538.656 527.848 377.124 527.848C215.592 527.848 84.6445 535.493 84.6445 544.924C84.6445 554.355 215.592 562 377.124 562Z" fill="#F5F5F5"/>
<path d="M464.27 97.9007C463.044 93.8472 461.417 89.9259 459.413 86.1949L462.43 76.3143L442.925 56.7946L433.045 59.8115C429.314 57.808 425.392 56.1808 421.339 54.9542L416.482 45.9033H388.876L384.034 54.9542C379.98 56.178 376.058 57.8052 372.328 59.8115L362.448 56.7946L342.928 76.3143L345.945 86.1949C343.953 89.9295 342.331 93.8501 341.103 97.9007L331.977 102.758V130.363L341.103 135.205C342.328 139.257 343.95 143.178 345.945 146.911L342.928 156.792L362.448 176.312L372.328 173.295C376.062 175.29 379.983 176.912 384.034 178.137L388.876 187.188H416.482L421.339 178.137C425.39 176.909 429.31 175.287 433.045 173.295L442.925 176.312L462.445 156.792L459.428 146.911C461.434 143.181 463.062 139.26 464.285 135.205L473.412 130.363V102.758L464.27 97.9007ZM402.679 155.766C394.922 155.766 387.339 153.466 380.889 149.156C374.44 144.847 369.413 138.721 366.444 131.555C363.476 124.388 362.699 116.502 364.212 108.894C365.725 101.286 369.461 94.2975 374.946 88.8124C380.431 83.3273 387.419 79.5919 395.028 78.0786C402.636 76.5653 410.522 77.342 417.688 80.3105C424.855 83.279 430.98 88.306 435.29 94.7558C439.599 101.206 441.9 108.788 441.9 116.546C441.9 126.947 437.767 136.923 430.412 144.279C423.057 151.634 413.081 155.766 402.679 155.766Z" fill="black"/>
<path opacity="0.2" d="M464.27 97.9007C463.044 93.8472 461.417 89.9259 459.413 86.1949L462.43 76.3143L442.925 56.7946L433.045 59.8115C429.314 57.808 425.392 56.1808 421.339 54.9542L416.482 45.9033H388.876L384.034 54.9542C379.98 56.178 376.058 57.8052 372.328 59.8115L362.448 56.7946L342.928 76.3143L345.945 86.1949C343.953 89.9295 342.331 93.8501 341.103 97.9007L331.977 102.758V130.363L341.103 135.205C342.328 139.257 343.95 143.178 345.945 146.911L342.928 156.792L362.448 176.312L372.328 173.295C376.062 175.29 379.983 176.912 384.034 178.137L388.876 187.188H416.482L421.339 178.137C425.39 176.909 429.31 175.287 433.045 173.295L442.925 176.312L462.445 156.792L459.428 146.911C461.434 143.181 463.062 139.26 464.285 135.205L473.412 130.363V102.758L464.27 97.9007ZM402.679 155.766C394.922 155.766 387.339 153.466 380.889 149.156C374.44 144.847 369.413 138.721 366.444 131.555C363.476 124.388 362.699 116.502 364.212 108.894C365.725 101.286 369.461 94.2975 374.946 88.8124C380.431 83.3273 387.419 79.5919 395.028 78.0786C402.636 76.5653 410.522 77.342 417.688 80.3105C424.855 83.279 430.98 88.306 435.29 94.7558C439.599 101.206 441.9 108.788 441.9 116.546C441.9 126.947 437.767 136.923 430.412 144.279C423.057 151.634 413.081 155.766 402.679 155.766Z" fill="white"/>
<path d="M402.675 103.558C400.103 103.558 397.589 104.32 395.451 105.749C393.312 107.178 391.646 109.209 390.662 111.585C389.678 113.961 389.42 116.575 389.922 119.098C390.423 121.62 391.662 123.937 393.48 125.755C395.299 127.574 397.616 128.812 400.138 129.314C402.661 129.816 405.275 129.558 407.651 128.574C410.027 127.59 412.058 125.923 413.487 123.785C414.915 121.647 415.678 119.133 415.678 116.561C415.678 113.112 414.308 109.805 411.87 107.366C409.431 104.928 406.124 103.558 402.675 103.558Z" fill="#333333"/>
<path d="M660.719 141.692C658.966 135.897 656.647 130.288 653.795 124.948L658.109 110.828L630.247 82.9667L616.113 87.296C610.791 84.4116 605.185 82.0862 599.384 80.357L592.46 67.3237H553.013L546.074 80.357C540.275 82.0917 534.669 84.4169 529.345 87.296L515.226 82.9667L487.334 110.859L491.648 124.978C488.784 130.313 486.464 135.922 484.724 141.722L471.676 148.646V188.093L484.709 195.032C486.446 200.828 488.766 206.433 491.633 211.761L487.319 225.865L515.211 253.757L529.33 249.443C534.66 252.313 540.271 254.628 546.074 256.352L553.013 269.4H592.46L599.384 256.367C605.18 254.624 610.785 252.3 616.113 249.428L630.247 253.742L658.139 225.85L653.825 211.731C656.669 206.395 658.978 200.792 660.719 195.002L673.752 188.063V148.616L660.719 141.692ZM572.729 239.849C558.584 239.849 544.757 235.654 532.996 227.796C521.235 219.938 512.069 208.768 506.656 195.7C501.243 182.632 499.827 168.252 502.586 154.379C505.346 140.506 512.157 127.763 522.159 117.761C532.161 107.76 544.904 100.948 558.777 98.1887C572.65 95.4292 587.029 96.8455 600.097 102.258C613.165 107.671 624.335 116.838 632.193 128.599C640.052 140.36 644.246 154.187 644.246 168.332C644.246 177.723 642.396 187.023 638.802 195.7C635.208 204.377 629.94 212.261 623.299 218.902C616.658 225.543 608.774 230.811 600.097 234.405C591.421 237.999 582.121 239.849 572.729 239.849Z" fill="#333333"/>
<path d="M572.728 106.846C560.565 106.849 548.676 110.459 538.564 117.218C528.452 123.978 520.572 133.584 515.919 144.822C511.267 156.06 510.051 168.425 512.426 180.354C514.801 192.283 520.659 203.24 529.261 211.84C537.862 220.439 548.821 226.295 560.75 228.667C572.68 231.039 585.045 229.82 596.282 225.165C607.519 220.51 617.123 212.627 623.88 202.513C630.637 192.4 634.244 180.51 634.244 168.347C634.224 152.039 627.736 136.406 616.203 124.876C604.671 113.346 589.035 106.862 572.728 106.846ZM572.728 221.657C562.184 221.66 551.875 218.536 543.106 212.68C534.338 206.824 527.503 198.499 523.465 188.758C519.428 179.017 518.37 168.298 520.426 157.956C522.481 147.614 527.557 138.114 535.012 130.657C542.467 123.2 551.966 118.121 562.307 116.063C572.649 114.005 583.368 115.059 593.11 119.094C602.852 123.128 611.179 129.961 617.037 138.728C622.896 147.495 626.023 157.803 626.023 168.347C626.007 182.478 620.387 196.026 610.396 206.02C600.405 216.013 586.859 221.637 572.728 221.657Z" fill="#333333"/>
<path opacity="0.2" d="M572.728 106.846C560.565 106.849 548.676 110.459 538.564 117.218C528.452 123.978 520.572 133.584 515.919 144.822C511.267 156.06 510.051 168.425 512.426 180.354C514.801 192.283 520.659 203.24 529.261 211.84C537.862 220.439 548.821 226.295 560.75 228.667C572.68 231.039 585.045 229.82 596.282 225.165C607.519 220.51 617.123 212.627 623.88 202.513C630.637 192.4 634.244 180.51 634.244 168.347C634.224 152.039 627.736 136.406 616.203 124.876C604.671 113.346 589.035 106.862 572.728 106.846ZM572.728 221.657C562.184 221.66 551.875 218.536 543.106 212.68C534.338 206.824 527.503 198.499 523.465 188.758C519.428 179.017 518.37 168.298 520.426 157.956C522.481 147.614 527.557 138.114 535.012 130.657C542.467 123.2 551.966 118.121 562.307 116.063C572.649 114.005 583.368 115.059 593.11 119.094C602.852 123.128 611.179 129.961 617.037 138.728C622.896 147.495 626.023 157.803 626.023 168.347C626.007 182.478 620.387 196.026 610.396 206.02C600.405 216.013 586.859 221.637 572.728 221.657Z" fill="#333333"/>
<path d="M431.43 273.277C431.03 273.277 430.647 273.118 430.364 272.835C430.081 272.552 429.922 272.169 429.922 271.769V268.752C429.922 268.352 430.081 267.968 430.364 267.685C430.647 267.402 431.03 267.243 431.43 267.243C431.83 267.243 432.214 267.402 432.497 267.685C432.78 267.968 432.939 268.352 432.939 268.752V271.769C432.939 272.169 432.78 272.552 432.497 272.835C432.214 273.118 431.83 273.277 431.43 273.277Z" fill="black"/>
<path d="M407.947 234.298C406.562 233.407 405.479 232.119 404.84 230.602C404.681 230.234 404.384 229.944 404.012 229.795C403.64 229.647 403.224 229.652 402.856 229.81C402.488 229.968 402.198 230.266 402.049 230.638C401.901 231.01 401.906 231.426 402.064 231.794C402.95 233.854 404.425 235.607 406.303 236.832C406.546 236.989 406.828 237.073 407.117 237.073C407.444 237.076 407.762 236.972 408.025 236.778C408.288 236.584 408.48 236.31 408.574 235.997C408.667 235.684 408.657 235.349 408.544 235.043C408.431 234.736 408.221 234.475 407.947 234.298Z" fill="black"/>
<path d="M402.68 215.457C403.08 215.457 403.464 215.298 403.747 215.015C404.03 214.732 404.189 214.348 404.189 213.948V208.171C404.189 207.771 404.03 207.387 403.747 207.104C403.464 206.821 403.08 206.662 402.68 206.662C402.28 206.662 401.897 206.821 401.614 207.104C401.331 207.387 401.172 207.771 401.172 208.171V213.948C401.172 214.348 401.331 214.732 401.614 215.015C401.897 215.298 402.28 215.457 402.68 215.457Z" fill="black"/>
<path d="M418.387 235.625H412.594C412.194 235.625 411.811 235.784 411.528 236.067C411.245 236.35 411.086 236.733 411.086 237.133C411.086 237.534 411.245 237.917 411.528 238.2C411.811 238.483 412.194 238.642 412.594 238.642H418.387C418.787 238.642 419.171 238.483 419.454 238.2C419.737 237.917 419.895 237.534 419.895 237.133C419.895 236.733 419.737 236.35 419.454 236.067C419.171 235.784 418.787 235.625 418.387 235.625Z" fill="black"/>
<path d="M404.189 225.518V219.741C404.189 219.341 404.03 218.957 403.747 218.674C403.464 218.391 403.08 218.232 402.68 218.232C402.28 218.232 401.897 218.391 401.614 218.674C401.331 218.957 401.172 219.341 401.172 219.741V225.518C401.172 225.918 401.331 226.302 401.614 226.585C401.897 226.868 402.28 227.027 402.68 227.027C403.08 227.027 403.464 226.868 403.747 226.585C404.03 226.302 404.189 225.918 404.189 225.518Z" fill="black"/>
<path d="M432.852 245.43C432.799 245.035 432.592 244.676 432.275 244.433C431.958 244.189 431.558 244.082 431.162 244.133C430.966 244.166 430.778 244.237 430.609 244.343C430.44 244.449 430.294 244.588 430.179 244.75C430.064 244.913 429.982 245.097 429.939 245.291C429.895 245.486 429.891 245.687 429.925 245.883C429.973 246.233 429.999 246.586 430.001 246.939V251.464C430.001 251.864 430.16 252.248 430.443 252.531C430.725 252.814 431.109 252.973 431.509 252.973C431.909 252.973 432.293 252.814 432.576 252.531C432.859 252.248 433.018 251.864 433.018 251.464V246.939C432.995 246.433 432.94 245.929 432.852 245.43Z" fill="black"/>
<path d="M431.43 255.673C431.03 255.673 430.647 255.832 430.364 256.115C430.081 256.398 429.922 256.781 429.922 257.181V262.974C429.922 263.374 430.081 263.758 430.364 264.041C430.647 264.323 431.03 264.482 431.43 264.482C431.83 264.482 432.214 264.323 432.497 264.041C432.78 263.758 432.939 263.374 432.939 262.974V257.181C432.939 256.781 432.78 256.398 432.497 256.115C432.214 255.832 431.83 255.673 431.43 255.673Z" fill="black"/>
<path d="M430.117 239.442C428.641 237.755 426.691 236.551 424.521 235.987C424.329 235.938 424.129 235.927 423.932 235.954C423.736 235.982 423.547 236.048 423.376 236.149C423.205 236.25 423.056 236.384 422.936 236.542C422.817 236.701 422.73 236.881 422.681 237.073C422.631 237.266 422.62 237.466 422.648 237.662C422.675 237.859 422.742 238.048 422.843 238.218C422.943 238.389 423.077 238.539 423.236 238.658C423.394 238.777 423.575 238.864 423.767 238.914C425.352 239.323 426.777 240.201 427.855 241.433C427.996 241.594 428.17 241.723 428.365 241.811C428.56 241.9 428.772 241.945 428.986 241.946C429.276 241.945 429.56 241.862 429.803 241.704C430.047 241.547 430.24 241.323 430.359 241.058C430.478 240.794 430.519 240.501 430.476 240.215C430.433 239.928 430.309 239.659 430.117 239.442Z" fill="black"/>
<path d="M402.68 203.826C402.28 203.826 401.897 203.667 401.614 203.385C401.331 203.102 401.172 202.718 401.172 202.318V199.301C401.172 198.901 401.331 198.517 401.614 198.234C401.897 197.951 402.28 197.792 402.68 197.792C403.08 197.792 403.464 197.951 403.747 198.234C404.03 198.517 404.189 198.901 404.189 199.301V202.318C404.189 202.718 404.03 203.102 403.747 203.385C403.464 203.667 403.08 203.826 402.68 203.826Z" fill="black"/>
<path d="M502.883 349.229H153.609V354.825H502.883V349.229Z" fill="#534F47"/>
<path d="M502.882 354.825H578.668V349.228H502.882V354.825Z" fill="#534F47"/>
<path opacity="0.2" d="M502.882 354.825H578.668V349.228H502.882V354.825Z" fill="#534F47"/>
<path d="M553.358 360.813H178.923L166.402 354.825H565.879L553.358 360.813Z" fill="#EDD29E"/>
<path opacity="0.6" d="M553.358 360.813H178.923L166.402 354.825H565.879L553.358 360.813Z" fill="#AF9E7B"/>
<path d="M190.234 360.813V539.327H195.031L201.065 360.813H190.234Z" fill="#AF9E7B"/>
<path d="M246.867 360.813V539.327H251.664L257.698 360.813H246.867Z" fill="#AF9E7B"/>
<path d="M553.354 360.813V539.327H548.572L542.523 360.813H553.354Z" fill="#AF9E7B"/>
<path d="M496.745 360.813V539.327H491.948L485.914 360.813H496.745Z" fill="#AF9E7B"/>
<path d="M382.764 281.467L367 345.683L366.562 349.228H475.294L475.746 345.683L491.495 281.467H382.764Z" fill="#EDD29E"/>
<path opacity="0.3" d="M382.764 281.467L367 345.683L366.562 349.228H475.294L475.746 345.683L491.495 281.467H382.764Z" fill="black"/>
<path d="M488.159 281.467H379.413L363.664 345.683H472.395L488.159 281.467Z" fill="black"/>
<path d="M470.089 342.742L484.419 284.409H381.722L367.406 342.742H470.089Z" fill="white"/>
<path d="M444.067 345.683L443.615 349.228H323.887L324.324 345.683H444.067Z" fill="#EDD29E"/>
<path opacity="0.6" d="M444.067 345.683L443.615 349.228H323.887L324.324 345.683H444.067Z" fill="white"/>
<path d="M217.888 337.553C217.812 335.255 216.912 333.061 215.353 331.372C213.794 329.683 211.679 328.61 209.395 328.351V326.616C209.393 326.516 209.371 326.417 209.33 326.325C209.29 326.233 209.231 326.151 209.158 326.082C209.085 326.013 208.999 325.959 208.905 325.924C208.811 325.889 208.711 325.873 208.611 325.877H192.319C192.218 325.873 192.117 325.889 192.022 325.924C191.927 325.959 191.84 326.012 191.766 326.081C191.692 326.15 191.632 326.232 191.589 326.324C191.547 326.416 191.523 326.515 191.52 326.616V349.243H209.395V346.77C211.683 346.513 213.801 345.439 215.362 343.746C216.922 342.053 217.819 339.854 217.888 337.553ZM209.395 343.843V331.277C210.903 331.5 212.28 332.257 213.276 333.41C214.272 334.563 214.82 336.036 214.82 337.56C214.82 339.084 214.272 340.557 213.276 341.711C212.28 342.864 210.903 343.621 209.395 343.843Z" fill="#EDD29E"/>
<path d="M522.777 349.228H537.923L533.442 316.057H522.777V349.228Z" fill="#263238"/>
<path d="M500.578 349.228H529.269L534.594 310.4H505.918L500.578 349.228Z" fill="#EDD29E"/>
<path opacity="0.3" d="M500.578 349.228H529.269L534.594 310.4H505.918L500.578 349.228Z" fill="#EDD29E"/>
<path d="M496.742 349.228H526.595L531.935 310.4H502.082L496.742 349.228Z" fill="#EDD29E"/>
<path opacity="0.4" d="M523.955 346.166L528.45 313.462H504.722L500.227 346.166H523.955Z" fill="white"/>
<path d="M297.981 291.906L296.744 293.234L295.416 294.742C294.526 295.768 293.636 296.809 292.792 297.88C291.102 300.022 289.473 302.209 287.949 304.457C284.918 308.804 282.388 313.48 280.407 318.395C279.484 320.732 278.768 323.144 278.265 325.606C278.024 326.993 277.873 327.597 277.797 328.185C277.714 328.654 277.714 329.134 277.797 329.603C278.05 330.34 278.447 331.02 278.965 331.603C279.483 332.186 280.112 332.66 280.814 332.997C281.833 333.625 282.902 334.165 284.012 334.611C284.596 334.853 285.199 335.079 285.822 335.29C286.396 335.501 287.12 335.712 287.572 335.893V344.205C286.516 344.356 285.747 344.477 284.857 344.537C283.967 344.597 283.107 344.612 282.217 344.537C280.387 344.5 278.567 344.268 276.787 343.843C274.781 343.372 272.858 342.599 271.085 341.55C268.999 340.33 267.207 338.667 265.835 336.678C264.423 334.561 263.486 332.162 263.09 329.648C262.989 329.059 262.923 328.465 262.894 327.868C262.864 327.296 262.864 326.721 262.894 326.149V325.304C262.877 325.078 262.877 324.851 262.894 324.625L263.014 323.298C263.4 319.85 264.128 316.449 265.186 313.146C267.229 306.8 270.105 300.753 273.739 295.164C275.486 292.42 277.384 289.776 279.426 287.245C280.437 285.978 281.478 284.741 282.564 283.519C283.092 282.9 283.65 282.297 284.223 281.694C284.797 281.09 285.325 280.562 286.109 279.808L297.981 291.906Z" fill="#B55B52"/>
<path d="M284.57 335.713L291.6 330.554L295.597 345.005C295.597 345.005 289.367 347.313 284.616 344.205L284.57 335.713Z" fill="#B55B52"/>
<path d="M301.361 327.084L304.107 339.183L295.599 345.005L291.602 330.554L301.361 327.084Z" fill="#B55B52"/>
<path d="M345.819 236.455C345.502 237.345 345.729 238.235 346.317 238.431C346.905 238.627 347.629 238.084 347.931 237.194C348.233 236.304 348.022 235.399 347.448 235.203C346.875 235.006 346.136 235.549 345.819 236.455Z" fill="#263238"/>
<path d="M345.65 238.205C345.767 241.311 346.31 244.387 347.264 247.346C346.504 247.564 345.706 247.614 344.925 247.495C344.144 247.375 343.398 247.087 342.738 246.652L345.65 238.205Z" fill="#A02724"/>
<path d="M344.366 230.391C344.479 230.429 344.601 230.429 344.713 230.391C345.375 230.17 346.08 230.109 346.77 230.214C347.46 230.319 348.114 230.587 348.681 230.994C348.794 231.076 348.935 231.113 349.074 231.097C349.213 231.08 349.341 231.012 349.432 230.906C349.523 230.799 349.571 230.662 349.566 230.522C349.561 230.382 349.504 230.249 349.405 230.149C348.697 229.622 347.873 229.271 347.001 229.127C346.13 228.982 345.237 229.049 344.397 229.32C344.287 229.357 344.191 229.429 344.124 229.523C344.056 229.618 344.02 229.731 344.02 229.848C344.02 229.964 344.056 230.077 344.124 230.172C344.191 230.267 344.287 230.338 344.397 230.376L344.366 230.391Z" fill="#263238"/>
<path d="M312.734 239.743C314.423 248.326 316.098 264.06 310.094 269.792C310.094 269.792 312.447 278.496 328.407 278.496C345.95 278.496 336.794 269.792 336.794 269.792C327.215 267.499 327.456 260.394 329.131 253.727L312.734 239.743Z" fill="#B55B52"/>
<path d="M307.8 272.779C306.533 270.018 305.16 266.865 308.011 265.885C311.164 264.799 328.421 263.682 334.364 265.719C335.15 265.933 335.886 266.301 336.527 266.802C337.169 267.304 337.704 267.928 338.102 268.639C338.499 269.35 338.751 270.133 338.842 270.942C338.934 271.751 338.863 272.57 338.633 273.352L307.8 272.779Z" fill="#263238"/>
<path d="M368.066 287.502C371.761 294.154 375.729 301.003 379.741 307.58C383.754 314.157 387.962 320.704 392.458 326.677C393.574 328.186 394.736 329.619 395.882 331.052C396.455 331.791 397.059 332.394 397.647 333.073L398.522 334.069L398.748 334.325L398.854 334.446L398.959 334.582C399.662 335.261 400.507 335.777 401.433 336.09C402.859 336.586 404.329 336.945 405.823 337.161C413.156 337.901 420.548 337.815 427.862 336.905L430.155 344.9C428.118 345.805 426.218 346.408 424.196 347.162C422.175 347.917 420.184 348.414 418.162 348.927C413.878 350.002 409.485 350.589 405.069 350.677C402.589 350.717 400.114 350.469 397.692 349.938C394.719 349.348 391.915 348.1 389.486 346.287L388.475 345.458L388.234 345.247L388.083 345.096L387.797 344.809L386.62 343.648C385.851 342.878 385.006 342.139 384.312 341.325C382.803 339.741 381.385 338.157 380.073 336.528C374.803 330.159 369.941 323.463 365.516 316.48C363.314 313.041 361.192 309.566 359.15 306.056C357.099 302.511 355.123 299.042 353.207 295.301L368.066 287.502Z" fill="#B55B52"/>
<path d="M289.08 272.447C278.068 274.967 265.457 304.97 265.457 304.97L287.556 320.055C293.053 312.173 297.93 303.877 302.143 295.241C308.675 281.574 300.333 269.868 289.08 272.447Z" fill="#EDD29E"/>
<path opacity="0.2" d="M296.958 291.574L286.52 319.391L287.545 320.115C287.545 320.115 292.071 313.764 296.958 305.196V291.574Z" fill="#EDD29E"/>
<path d="M354.852 273.036C354.852 273.036 367.342 287.155 355.546 374.496H292.748C292.325 364.857 298.374 317.853 289.082 272.432C296.022 271.096 303.041 270.209 310.095 269.777C318.988 269.257 327.903 269.257 336.795 269.777C342.89 270.391 348.927 271.48 354.852 273.036Z" fill="#EDD29E"/>
<path opacity="0.2" d="M347.871 298.302C349.509 308.215 353.793 317.502 360.271 325.183C360.527 319.557 360.633 314.503 360.618 309.993L347.871 298.302Z" fill="#EDD29E"/>
<path d="M342.422 282.569C340.914 293.686 362.787 322.076 362.787 322.076L384.795 306.991C384.795 306.991 378.686 291.348 368.413 281.09C356.708 269.324 344.142 270.471 342.422 282.569Z" fill="#EDD29E"/>
<path d="M425.387 336.98L434.347 333.299L443.564 340.268C443.564 340.268 434.769 348.052 426.775 345.02L425.387 336.98Z" fill="#B55B52"/>
<path d="M440.259 332.937L447.017 337.764L443.518 340.268L434.301 333.299L440.259 332.937Z" fill="#B55B52"/>
<path d="M316.642 224.175C313.504 235.398 311.09 241.809 314.681 249.367C320.066 260.756 335.377 260.439 341.833 250.393C347.626 241.342 351.789 224.507 342.557 216.407C340.53 214.606 338.077 213.354 335.43 212.769C332.783 212.184 330.03 212.285 327.433 213.064C324.836 213.842 322.481 215.272 320.593 217.216C318.704 219.161 317.344 221.557 316.642 224.175Z" fill="#B55B52"/>
<path d="M340.536 224.296C336.011 237.179 330.686 251.328 317.683 248.643C309.296 246.908 308.632 233.408 305.615 227.268C302.945 221.883 303.111 211.052 308.632 210.916C306.158 207.326 318.663 194.187 327.201 201.126C329.389 198.109 345.152 189.224 356.828 203.328C367.825 216.663 362.44 227.781 340.536 224.296Z" fill="#263238"/>
<path d="M330.354 232.533C330.052 235.41 330.698 238.308 332.194 240.784C334.2 244.012 337.142 242.775 338.228 239.472C339.194 236.455 339.299 231.25 336.508 229.154C333.718 227.057 330.776 229.063 330.354 232.533Z" fill="#B55B52"/>
<path d="M426.719 530.805C428.227 530.805 429.735 530.594 430.173 529.915C430.298 529.735 430.364 529.522 430.364 529.304C430.364 529.086 430.298 528.872 430.173 528.693C429.972 528.375 429.66 528.144 429.298 528.044C427.337 527.516 423.264 529.855 423.068 529.96C423.016 529.986 422.975 530.028 422.95 530.08C422.926 530.132 422.919 530.191 422.932 530.247C422.942 530.301 422.967 530.351 423.005 530.391C423.042 530.431 423.09 530.459 423.143 530.473C424.323 530.688 425.519 530.799 426.719 530.805ZM428.589 528.527C428.764 528.502 428.942 528.502 429.117 528.527C429.231 528.548 429.339 528.594 429.432 528.662C429.526 528.73 429.604 528.818 429.66 528.919C429.856 529.266 429.796 529.432 429.66 529.523C429.117 530.292 426.145 530.307 423.958 529.99C425.392 529.207 426.965 528.71 428.589 528.527Z" fill="#EDD29E"/>
<path d="M423.173 530.473H423.294C424.712 529.839 427.517 527.305 427.291 525.947C427.291 525.631 427.02 525.253 426.265 525.163C425.994 525.139 425.722 525.17 425.463 525.253C425.204 525.336 424.964 525.469 424.757 525.646C423.248 526.868 422.947 530.035 422.932 530.171C422.926 530.219 422.933 530.268 422.951 530.313C422.97 530.358 422.999 530.397 423.037 530.428C423.079 530.452 423.125 530.467 423.173 530.473ZM426.039 525.721H426.205C426.703 525.721 426.733 525.978 426.748 526.038C426.884 526.837 424.968 528.829 423.52 529.688C423.64 528.36 424.167 527.101 425.028 526.083C425.309 525.843 425.669 525.714 426.039 525.721Z" fill="#EDD29E"/>
<path d="M409.516 530.201H421.252L423.922 503.003H412.186L409.516 530.201Z" fill="#B55B52"/>
<path d="M421.917 528.844H409.11C408.874 528.845 408.646 528.926 408.462 529.074C408.279 529.222 408.151 529.428 408.099 529.658L405.776 540.037C405.716 540.29 405.715 540.553 405.773 540.806C405.83 541.059 405.945 541.296 406.108 541.499C406.271 541.701 406.478 541.863 406.713 541.973C406.949 542.083 407.206 542.138 407.466 542.134C412.082 542.058 418.764 541.787 424.572 541.787C431.375 541.787 437.243 542.149 445.208 542.149C450.035 542.149 451.378 537.276 449.356 536.839C440.17 534.832 432.673 534.621 424.738 529.719C423.896 529.173 422.92 528.87 421.917 528.844Z" fill="#263238"/>
<path opacity="0.2" d="M423.909 503.019L422.552 517.032H410.801L412.174 503.019H423.909Z" fill="#EDD29E"/>
<path d="M379.662 530.79C380.16 530.855 380.666 530.82 381.15 530.688C381.634 530.556 382.087 530.329 382.483 530.02C382.622 529.829 382.696 529.6 382.696 529.364C382.696 529.128 382.622 528.899 382.483 528.708C382.394 528.542 382.269 528.398 382.118 528.286C381.967 528.174 381.793 528.096 381.608 528.059C379.888 527.652 376.645 529.869 376.509 529.96C376.466 529.993 376.433 530.037 376.412 530.087C376.39 530.138 376.383 530.192 376.389 530.246C376.4 530.298 376.425 530.346 376.463 530.384C376.5 530.421 376.548 530.447 376.6 530.458C377.606 530.677 378.633 530.788 379.662 530.79ZM381.171 528.557C381.281 528.541 381.392 528.541 381.503 528.557C381.61 528.573 381.713 528.614 381.802 528.677C381.891 528.74 381.964 528.823 382.015 528.919C382.272 529.387 382.121 529.568 382.015 529.643C381.518 530.292 379.119 530.307 377.354 530.02C378.489 529.252 379.784 528.752 381.141 528.557H381.171Z" fill="#EDD29E"/>
<path d="M376.677 530.473H376.798C378.02 529.809 380.373 527.245 380.117 525.948C380.078 525.74 379.968 525.552 379.805 525.417C379.643 525.282 379.438 525.208 379.227 525.208C379.016 525.183 378.802 525.202 378.6 525.264C378.397 525.326 378.21 525.431 378.05 525.57C376.692 526.687 376.406 530.096 376.391 530.217C376.39 530.267 376.402 530.317 376.426 530.362C376.449 530.407 376.484 530.445 376.526 530.473C376.576 530.488 376.628 530.488 376.677 530.473ZM379.046 525.721H379.166C379.528 525.721 379.558 525.933 379.574 526.008C379.724 526.777 378.216 528.723 377.009 529.643C377.09 528.305 377.574 527.022 378.397 525.963C378.577 525.807 378.807 525.722 379.046 525.721Z" fill="#EDD29E"/>
<path d="M363.219 530.201H374.955L380.853 503.003H369.117L363.219 530.201Z" fill="#B55B52"/>
<path d="M375.787 528.844H362.603C362.369 528.846 362.143 528.928 361.962 529.076C361.781 529.224 361.656 529.43 361.607 529.659L359.284 540.037C359.23 540.292 359.234 540.555 359.295 540.809C359.357 541.062 359.474 541.298 359.64 541.499C359.805 541.701 360.013 541.862 360.249 541.972C360.486 542.082 360.744 542.137 361.004 542.134C365.605 542.058 367.853 541.787 373.645 541.787C377.22 541.787 381.791 542.149 386.724 542.149C391.656 542.149 392.29 537.276 390.269 536.839C381.218 534.863 380.599 532.132 377.703 529.523C377.169 529.07 376.487 528.829 375.787 528.844Z" fill="#263238"/>
<g opacity="0.2">
<path d="M369.117 503.019H380.853L377.806 517.032H366.07L369.117 503.019Z" fill="#EDD29E"/>
</g>
<path d="M355.545 374.511C355.545 374.511 443.489 383.819 442.524 428.681C441.901 456.856 436.483 484.718 426.504 511.074H409.066C409.066 511.074 409.956 482.609 409.368 436.676C409.187 422.903 381.385 418.363 354.217 416.764C342.713 416.04 331.639 412.116 322.246 405.434C312.853 398.752 305.515 389.577 301.059 378.946L299.203 374.511H355.545Z" fill="#263238"/>
<path d="M430.771 506.397C430.861 506.397 429.639 514.649 429.639 514.649H405.504L404.84 507.287L430.771 506.397Z" fill="#EDD29E"/>
<path d="M336.722 374.511C336.722 374.511 400.47 395.63 402.084 421.817C405.101 469.998 381.403 511.074 381.403 511.074H363.799C363.799 511.074 370.482 490.71 372.85 447.054C375.867 392.221 273.547 446.964 292.719 374.511H336.722Z" fill="#263238"/>
<path d="M386.728 506.397C386.819 506.397 384.511 514.649 384.511 514.649H360.375L360.812 507.287L386.728 506.397Z" fill="#EDD29E"/>
<path d="M382.7 420.701H284.648C284.648 417.732 285.828 414.885 287.927 412.786C290.026 410.687 292.873 409.508 295.841 409.508H371.507C374.475 409.508 377.322 410.687 379.421 412.786C381.521 414.885 382.7 417.732 382.7 420.701Z" fill="#534F47"/>
<path d="M289.185 420.686L274.402 544.623H277.57L296.321 420.686H289.185Z" fill="#EDD29E"/>
<path opacity="0.4" d="M289.185 420.686L274.402 544.623H277.57L296.321 420.686H289.185Z" fill="#534F47"/>
<path d="M308.962 420.686L308.676 544.623H311.829L316.098 420.686H308.962Z" fill="#EDD29E"/>
<path opacity="0.4" d="M308.962 420.686L308.676 544.623H311.829L316.098 420.686H308.962Z" fill="#534F47"/>
<path d="M378.155 420.686L392.938 544.623H389.771L371.035 420.686H378.155Z" fill="#EDD29E"/>
<path opacity="0.4" d="M378.155 420.686L392.938 544.623H389.771L371.035 420.686H378.155Z" fill="#534F47"/>
<path d="M358.381 420.686L358.668 544.623H355.515L351.246 420.686H358.381Z" fill="#EDD29E"/>
<path opacity="0.4" d="M358.381 420.686L358.668 544.623H355.515L351.246 420.686H358.381Z" fill="#534F47"/>
</svg>
