<svg width="24" height="24" viewBox="0 0 24 24" fill="none" xmlns="http://www.w3.org/2000/svg">
<path d="M8.60439 7.98128C11.0399 7.98128 13.0213 6.19106 13.0213 3.99064C13.0214 1.79015 11.0399 0 8.60439 0C6.16886 0 4.1875 1.79015 4.1875 3.99064C4.1875 6.19114 6.16895 7.98128 8.60439 7.98128Z" fill="white"/>
<path d="M19.0027 14.9746C16.2485 14.9746 14.0078 16.9991 14.0078 19.4874C14.0078 21.9758 16.2485 24.0003 19.0027 24.0003C21.7568 24.0003 23.9975 21.9758 23.9975 19.4874C23.9975 16.9991 21.7569 14.9746 19.0027 14.9746ZM22.0451 18.5501L18.7811 21.4992C18.6169 21.6474 18.4018 21.7216 18.1866 21.7216C17.9714 21.7216 17.7563 21.6474 17.5921 21.4992L15.9601 20.0246C15.6318 19.728 15.6318 19.247 15.9601 18.9504C16.2885 18.6538 16.8207 18.6538 17.1491 18.9504L18.1866 19.8878L20.8561 17.4759C21.1845 17.1793 21.7167 17.1793 22.0451 17.4759C22.3735 17.7725 22.3735 18.2535 22.0451 18.5501Z" fill="white"/>
<path d="M17.2101 13.9563V13.2523C17.2101 11.7336 16.1299 10.387 14.5327 9.91431L14.5253 9.91213L12.189 9.56263C11.9902 9.50736 11.7777 9.60247 11.7062 9.77968L9.05541 16.3509C8.90247 16.73 8.30904 16.73 8.1561 16.3509L5.50528 9.77968C5.4475 9.63657 5.29805 9.54688 5.13786 9.54688C5.09985 9.54688 2.68632 9.91164 2.68632 9.91164C1.07596 10.3965 0 11.7453 0 13.2704V18.7383C0 19.5577 0.735194 20.2219 1.64211 20.2219H12.6794C12.6453 19.9808 12.6257 19.7357 12.6257 19.4863C12.6258 16.8713 14.5639 14.6588 17.2101 13.9563Z" fill="white"/>
<path d="M9.58139 9.1629C9.47791 9.06108 9.32667 9.00977 9.17373 9.00977H8.03257C7.87953 9.00977 7.72829 9.061 7.6249 9.1629C7.46471 9.32055 7.44146 9.54827 7.55523 9.72629L8.1652 10.5572L7.87962 12.7337L8.44193 14.0852C8.49676 14.2211 8.70953 14.2211 8.76436 14.0852L9.32667 12.7337L9.04109 10.5572L9.65107 9.72629C9.76483 9.54827 9.74158 9.32055 9.58139 9.1629Z" fill="white"/>
</svg>
