<svg width="24" height="24" viewBox="0 0 24 24" fill="none" xmlns="http://www.w3.org/2000/svg">
<path d="M21 24H3C2.33061 23.9997 1.68054 23.7756 1.15323 23.3633C0.625918 22.9509 0.251657 22.3741 0.09 21.7245L12 15.108L23.9115 21.726C23.7495 22.3755 23.3749 22.9522 22.8473 23.3643C22.3197 23.7764 21.6694 24.0002 21 24ZM24 20.0595L15.4605 15.315L24 10.3095V20.0595ZM1.50058e-08 20.0595V10.3095L8.5395 15.315L1.50058e-08 20.0565V20.0595ZM9.75 14.25L4.5 11.25V2.25C4.5 1.65326 4.73705 1.08097 5.15901 0.65901C5.58097 0.237053 6.15326 0 6.75 0L17.25 0C17.8467 0 18.419 0.237053 18.841 0.65901C19.2629 1.08097 19.5 1.65326 19.5 2.25V11.25L14.25 14.25L12 13.125L9.75 14.25ZM10.0245 7.3725V8.241L12.0315 10.248H13.05L10.8915 8.0925H11.2815C11.6953 8.09169 12.0961 7.94836 12.4166 7.68663C12.737 7.4249 12.9576 7.06076 13.041 6.6555H13.9755V5.937H13.041C12.9859 5.67562 12.8726 5.43002 12.7095 5.2185H13.9755V4.5H10.023V5.22H11.2815C11.5034 5.22138 11.7195 5.29109 11.9004 5.41965C12.0813 5.54821 12.2182 5.72937 12.2925 5.9385H10.023V6.657H12.3C12.2261 6.86637 12.0893 7.04778 11.9083 7.17639C11.7273 7.30501 11.511 7.37455 11.289 7.3755L10.0245 7.3725ZM21 10.329V4.6995L22.4115 5.4495C22.8918 5.70561 23.2934 6.08759 23.5732 6.5545C23.8531 7.02141 24.0006 7.55566 24 8.1V8.5695L21 10.329ZM3 10.329L1.50058e-08 8.5695V8.1C-5.437e-05 7.55617 0.147721 7.02255 0.427521 6.55621C0.707321 6.08988 1.10862 5.70837 1.5885 5.4525L3 4.6995V10.329Z" fill="white"/>
</svg>
