<svg width="24" height="24" viewBox="0 0 24 24" fill="none" xmlns="http://www.w3.org/2000/svg">
<path d="M23.5902 0.1275C23.7161 0.195956 23.8194 0.288554 23.8909 0.397119C23.9623 0.505684 23.9998 0.626877 24 0.75V12C24 12.1498 23.9447 12.2961 23.8414 12.4202C23.7381 12.5442 23.5914 12.6403 23.4203 12.696L23.4148 12.6975L23.4037 12.702L23.3612 12.7155C23.1185 12.7939 22.8742 12.8689 22.6283 12.9405C22.1409 13.083 21.4634 13.275 20.6954 13.4655C19.1889 13.8435 17.2265 14.25 15.6923 14.25C14.1286 14.25 12.8345 13.83 11.7083 13.4625L11.6566 13.4475C10.4862 13.065 9.48923 12.75 8.30769 12.75C7.01538 12.75 5.28369 13.095 3.80862 13.4655C3.14816 13.6327 2.49374 13.8153 1.84615 14.013V23.25C1.84615 23.4489 1.7489 23.6397 1.57579 23.7803C1.40268 23.921 1.16789 24 0.923077 24C0.678262 24 0.443474 23.921 0.270363 23.7803C0.0972527 23.6397 0 23.4489 0 23.25V0.75C0 0.551088 0.0972527 0.360322 0.270363 0.21967C0.443474 0.0790176 0.678262 0 0.923077 0C1.16789 0 1.40268 0.0790176 1.57579 0.21967C1.7489 0.360322 1.84615 0.551088 1.84615 0.75V1.173C2.26338 1.0545 2.76185 0.918 3.30462 0.783C4.81108 0.408 6.77538 0 8.30769 0C9.85846 0 11.1212 0.4155 12.2234 0.7785L12.3028 0.8055C13.4511 1.182 14.4517 1.5 15.6923 1.5C16.9846 1.5 18.7163 1.155 20.1914 0.7845C21.032 0.571218 21.8627 0.33306 22.6818 0.0705L22.7169 0.06L22.7243 0.057H22.7262" fill="white"/>
</svg>
