<svg xmlns="http://www.w3.org/2000/svg" width="18.46" height="18.46" viewBox="0 0 18.46 18.46">
  <path id="bxs-dashboard" d="M5.526,14.756h6.153A1.026,1.026,0,0,0,12.7,13.73v-8.2A1.026,1.026,0,0,0,11.679,4.5H5.526A1.026,1.026,0,0,0,4.5,5.526v8.2A1.026,1.026,0,0,0,5.526,14.756ZM4.5,21.935A1.026,1.026,0,0,0,5.526,22.96h6.153A1.026,1.026,0,0,0,12.7,21.935v-4.1a1.026,1.026,0,0,0-1.026-1.026H5.526A1.026,1.026,0,0,0,4.5,17.832Zm10.256,0a1.026,1.026,0,0,0,1.026,1.026h6.153a1.026,1.026,0,0,0,1.026-1.026V14.756a1.026,1.026,0,0,0-1.026-1.026H15.781a1.026,1.026,0,0,0-1.026,1.026Zm1.026-10.256h6.153a1.026,1.026,0,0,0,1.026-1.026V5.526A1.026,1.026,0,0,0,21.935,4.5H15.781a1.026,1.026,0,0,0-1.026,1.026v5.128A1.026,1.026,0,0,0,15.781,11.679Z" transform="translate(-4.5 -4.5)" fill="#686363"/>
</svg>
