<svg xmlns="http://www.w3.org/2000/svg" width="18.46" height="24.613" viewBox="0 0 18.46 24.613">
  <g id="Group_34506" data-name="Group 34506" transform="translate(-9251 -13713)">
    <path id="file-earmark-medical-fill" d="M13.219,0H5.077A3.077,3.077,0,0,0,2,3.077v18.46a3.077,3.077,0,0,0,3.077,3.077H17.383a3.077,3.077,0,0,0,3.077-3.077V7.241a1.538,1.538,0,0,0-.45-1.087l-5.7-5.7A1.538,1.538,0,0,0,13.219,0Zm.318,5.384V2.307l4.615,4.615H15.076A1.538,1.538,0,0,1,13.537,5.384Zm-7.692,10h7.692a.769.769,0,0,1,0,1.538H5.846a.769.769,0,0,1,0-1.538Zm0,3.077h7.692a.769.769,0,0,1,0,1.538H5.846a.769.769,0,0,1,0-1.538Z" transform="translate(9249 13713)" fill="#686363"/>
    <path id="rupee" d="M3.257,1.24v.37a.112.112,0,0,1-.116.116H2.532a1.356,1.356,0,0,1-.468.849,1.84,1.84,0,0,1-1,.4q.606.646,1.665,1.944a.1.1,0,0,1,.014.123.105.105,0,0,1-.105.065H1.929a.107.107,0,0,1-.091-.044Q.729,3.732.033,2.992A.109.109,0,0,1,0,2.912V2.452A.111.111,0,0,1,.034,2.37a.111.111,0,0,1,.082-.034H.522a1.637,1.637,0,0,0,.771-.156.709.709,0,0,0,.372-.454H.116A.112.112,0,0,1,0,1.61V1.24a.112.112,0,0,1,.116-.116h1.5Q1.407.715.642.715H.116A.111.111,0,0,1,.034.68.111.111,0,0,1,0,.6V.116A.112.112,0,0,1,.116,0H3.134A.112.112,0,0,1,3.25.116v.37A.112.112,0,0,1,3.134.6H2.289a1.254,1.254,0,0,1,.232.522h.62a.112.112,0,0,1,.116.116Z" transform="translate(9256.973 13720.691)" fill="#fff"/>
  </g>
</svg>
