<svg xmlns="http://www.w3.org/2000/svg" width="17.48" height="23.307" viewBox="0 0 17.48 23.307">
  <path id="clipboard-user-solid" d="M15.295,2.913H12.842a4.344,4.344,0,0,0-8.2,0H2.185A2.185,2.185,0,0,0,0,5.1V21.122a2.186,2.186,0,0,0,2.185,2.185h13.11a2.185,2.185,0,0,0,2.185-2.185V5.1A2.185,2.185,0,0,0,15.295,2.913Zm-6.555,0A1.457,1.457,0,1,1,7.283,4.37,1.457,1.457,0,0,1,8.74,2.913Zm0,5.827a2.913,2.913,0,1,1-2.913,2.913A2.913,2.913,0,0,1,8.74,8.74Zm4.37,11.653H4.37a.728.728,0,0,1-.728-.728,3.641,3.641,0,0,1,3.642-3.642H10.2a3.642,3.642,0,0,1,3.642,3.642A.73.73,0,0,1,13.11,20.393Z" fill="#686363"/>
</svg>
