<svg xmlns="http://www.w3.org/2000/svg" width="16" height="16" viewBox="0 0 16 16">
  <g id="Group_34352" data-name="Group 34352" transform="translate(2635 -5134)">
    <path id="handshake-angle-solid_1_" data-name="handshake-angle-solid (1)" d="M5.792,2.187h-1.8V2.8a.889.889,0,0,1-.766.9.855.855,0,0,1-.943-.85V1.419l-.291.175a1.751,1.751,0,0,0-.848,1.5l-.95.55a.379.379,0,0,0-.139.518L1,5.806a.382.382,0,0,0,.519.139l1.227-.709H4.368a.761.761,0,0,0,.76-.76.57.57,0,0,0,.57-.57v-.57h.095a.285.285,0,0,0,.285-.285v-.57A.294.294,0,0,0,5.792,2.187Zm1.753-.434L6.6.107a.382.382,0,0,0-.519-.139L4.85.677H4.107a2.406,2.406,0,0,0-1.271.364.382.382,0,0,0-.177.321v1.5a.475.475,0,0,0,.95,0V1.807H5.792a.665.665,0,0,1,.665.665V2.81l.95-.549A.366.366,0,0,0,7.546,1.752Z" transform="translate(-2630.798 5139.144)" fill="#686363"/>
    <path id="gear-wide" d="M8.931.727a.961.961,0,0,0-1.864,0L7,1.013a.96.96,0,0,1-1.622.434l-.2-.211a.96.96,0,0,0-1.613.931l.08.284A.96.96,0,0,1,2.451,3.638l-.284-.081A.96.96,0,0,0,1.236,5.17l.211.2A.96.96,0,0,1,1.013,7l-.286.071a.961.961,0,0,0,0,1.864L1.013,9a.96.96,0,0,1,.434,1.622l-.211.2a.96.96,0,0,0,.931,1.613l.284-.08a.96.96,0,0,1,1.187,1.187l-.081.283a.96.96,0,0,0,1.613.931l.2-.211A.96.96,0,0,1,7,14.986l.071.286a.961.961,0,0,0,1.864,0L9,14.986a.96.96,0,0,1,1.622-.434l.2.211a.96.96,0,0,0,1.613-.931l-.08-.284a.96.96,0,0,1,1.187-1.187l.283.081a.96.96,0,0,0,.931-1.613l-.211-.2A.96.96,0,0,1,14.986,9l.286-.071a.961.961,0,0,0,0-1.864L14.986,7a.96.96,0,0,1-.434-1.622l.211-.2a.96.96,0,0,0-.931-1.613l-.284.08a.96.96,0,0,1-1.187-1.186l.081-.284a.96.96,0,0,0-1.613-.931l-.2.211A.96.96,0,0,1,9,1.013ZM8,13a5,5,0,1,1,5-5,5,5,0,0,1-5,5Z" transform="translate(-2635 5134)" fill="#686363"/>
  </g>
</svg>
