<svg xmlns="http://www.w3.org/2000/svg" width="18.46" height="18.46" viewBox="0 0 18.46 18.46">
  <path id="flag-solid_1_" data-name="flag-solid (1)" d="M2.308,17.883a.58.58,0,0,1-.577.577H.577A.58.58,0,0,1,0,17.883V1.154a1.154,1.154,0,0,1,2.308,0ZM17.173,0a1.686,1.686,0,0,0-.7.153A9.327,9.327,0,0,1,12.589,1.16C10.427,1.16,9.171.011,6.68.011A11.134,11.134,0,0,0,3.461.568V13.205A10.225,10.225,0,0,1,6.521,12.7c2.655,0,4.5,1.146,7.161,1.146a10.684,10.684,0,0,0,4.006-.833,1.114,1.114,0,0,0,.773-1.036V1.108A1.162,1.162,0,0,0,17.173,0Z" fill="#686363"/>
</svg>
