<svg xmlns="http://www.w3.org/2000/svg" width="20.736" height="22" viewBox="0 0 20.736 22">
  <path id="gear-solid_1_" data-name="gear-solid (1)" d="M35.378,7.159a.975.975,0,0,1-.271,1.057L33.247,9.909a8.19,8.19,0,0,1,0,2.183l1.861,1.693a.975.975,0,0,1,.271,1.057,10.907,10.907,0,0,1-.675,1.474l-.2.348a11.321,11.321,0,0,1-.95,1.345A.983.983,0,0,1,32.5,18.3l-2.393-.765a9.4,9.4,0,0,1-1.891,1.1l-.537,2.454a1.03,1.03,0,0,1-.782.765,11.228,11.228,0,0,1-1.865.15,10.99,10.99,0,0,1-1.788-.15,1.03,1.03,0,0,1-.782-.765l-.537-2.454a8.445,8.445,0,0,1-1.891-1.1l-2.392.765a.981.981,0,0,1-1.053-.292,11.275,11.275,0,0,1-.95-1.345l-.2-.348a10.717,10.717,0,0,1-.678-1.474.976.976,0,0,1,.273-1.057l1.859-1.693a8.336,8.336,0,0,1,0-2.183L15.033,8.216a.974.974,0,0,1-.273-1.057,10.768,10.768,0,0,1,.678-1.474l.2-.348a11.131,11.131,0,0,1,.95-1.343A.976.976,0,0,1,17.643,3.7l2.392.763A8.263,8.263,0,0,1,21.925,3.37L22.462.917a.975.975,0,0,1,.782-.766,11.131,11.131,0,0,1,3.652,0,.975.975,0,0,1,.782.766l.537,2.454a9.175,9.175,0,0,1,1.891,1.094L32.5,3.7a.978.978,0,0,1,1.053.293,11.125,11.125,0,0,1,.95,1.343l.2.348a10.907,10.907,0,0,1,.675,1.474ZM25.07,14.437a3.457,3.457,0,1,0-3.438-3.476A3.445,3.445,0,0,0,25.07,14.437Z" transform="translate(-14.702)" fill="#686363"/>
</svg>
