<svg xmlns="http://www.w3.org/2000/svg" width="21.946" height="17.354" viewBox="0 0 21.946 17.354">
  <g id="Group_34184" data-name="Group 34184" transform="translate(-18 -404.98)">
    <path id="hand-holding-dollar-solid_1_" data-name="hand-holding-dollar-solid (1)" d="M21.763,12.881a1.528,1.528,0,0,0-2.142-.324l-4.585,3.377H10.417a.588.588,0,0,1-.578-.612.611.611,0,0,1,.578-.613h3a1.3,1.3,0,0,0,1.278-1.02,1.228,1.228,0,0,0-1.211-1.432H7.32a4.58,4.58,0,0,0-2.839,1.005L2.7,14.708.578,14.674A.646.646,0,0,0,0,15.321V19a.61.61,0,0,0,.578.614H13.835a4.014,4.014,0,0,0,2.363-.776C22.12,14.52,22.265,13.563,21.763,12.881Z" transform="translate(18 402.724)" fill="#686363"/>
    <path id="bx-rupee" d="M13.792,6.871V6H9v.871h1.525a1.3,1.3,0,0,1,1.226.871H9v.871h2.751a1.3,1.3,0,0,1-1.226.871H9v1.052l2.433,2.433h1.232l-2.614-2.614h.473a2.181,2.181,0,0,0,2.134-1.742h1.133V7.742H12.658a2.149,2.149,0,0,0-.4-.871Z" transform="translate(17.577 398.98)" fill="#686363"/>
  </g>
</svg>
