<svg xmlns="http://www.w3.org/2000/svg" width="20.736" height="20.736" viewBox="0 0 20.736 20.736">
  <g id="Group_34191" data-name="Group 34191" transform="translate(-18 -625)">
    <path id="envelope-open-solid" d="M19.991,6.6c-1.008-.795-1.843-1.432-6.654-4.925C12.664,1.183,11.328,0,10.384,0h-.032C9.408,0,8.072,1.183,7.4,1.676,2.584,5.169,1.75,5.77.741,6.6A1.943,1.943,0,0,0,0,8.132v10.66a1.944,1.944,0,0,0,1.944,1.944H18.792a1.937,1.937,0,0,0,1.944-1.908V8.132A1.926,1.926,0,0,0,19.991,6.6ZM12.28,14.884a3.068,3.068,0,0,1-3.822,0L2.592,10.323V8.444C3.449,7.772,4.474,7,8.926,3.766c.129-.094.279-.21.445-.338.224-.17.665-.513,1-.721.332.208.775.551,1,.723.166.128.316.244.452.343,4.42,3.213,5.461,3.991,6.328,4.671V10.32Z" transform="translate(18 625)" fill="#686363"/>
    <path id="bx-rupee" d="M13.792,6.871V6H9v.871h1.525a1.3,1.3,0,0,1,1.226.871H9v.871h2.751a1.3,1.3,0,0,1-1.226.871H9v1.052l2.433,2.433h1.232l-2.614-2.614h.473a2.181,2.181,0,0,0,2.134-1.742h1.133V7.742H12.658a2.149,2.149,0,0,0-.4-.871Z" transform="translate(16.972 625.883)" fill="#686363"/>
  </g>
</svg>
