<svg xmlns="http://www.w3.org/2000/svg" width="21.946" height="17.549" viewBox="0 0 21.946 17.549">
  <path id="money-bill-transfer-solid" d="M18.346.241a.788.788,0,0,1,1.135,0l2.195,2.194a.741.741,0,0,1,.271.582.645.645,0,0,1-.271.552L19.481,5.764a.745.745,0,0,1-1.135,0,.793.793,0,0,1,0-1.135l.792-.82h-5.97a.8.8,0,0,1-.823-.792.822.822,0,0,1,.823-.823l5.97-.031-.792-.759a.827.827,0,0,1,0-1.164ZM3.57,12.9l-.76.82,5.938-.031a.821.821,0,0,1,.823.823.787.787,0,0,1-.823.823l-5.938.031.76.789a.745.745,0,0,1,0,1.135.744.744,0,0,1-1.134,0L.241,15.092A.727.727,0,0,1,0,14.509a.808.808,0,0,1,.241-.552l2.195-2.195a.791.791,0,0,1,1.134,0,.745.745,0,0,1,0,1.135Zm-.309-10.7h8.326a1.723,1.723,0,0,0-.2.792A1.765,1.765,0,0,0,13.168,4.77H16.5a2.195,2.195,0,0,0,.97,1.468,2.138,2.138,0,0,0,.2.237,1.786,1.786,0,0,0,2.524,0l.658-.662v7.355a2.2,2.2,0,0,1-2.195,2.195h-8.3a1.856,1.856,0,0,0-1.612-2.637l-3.3.031a2.216,2.216,0,0,0-.97-1.437,2.138,2.138,0,0,0-.2-.237,1.785,1.785,0,0,0-2.523,0l-.69.662V4.389A2.214,2.214,0,0,1,3.261,2.195Zm0,4.389A2.177,2.177,0,0,0,5.456,4.389H3.261Zm15.393,6.584V10.973a2.2,2.2,0,0,0-2.195,2.195Zm-7.712-1.1A3.292,3.292,0,1,0,7.65,8.779,3.3,3.3,0,0,0,10.942,12.071Z" transform="translate(0 0)" fill="#686363"/>
</svg>
