<svg xmlns="http://www.w3.org/2000/svg" width="16" height="16" viewBox="0 0 16 16">
  <path id="Subtraction_5" data-name="Subtraction 5" d="M14,16H2a2,2,0,0,1-1.94-1.517L8,10.072l7.941,4.412A2,2,0,0,1,14,16Zm2-2.627h0L10.307,10.21,16,6.873v6.5Zm-16,0v-6.5L5.693,10.21,0,13.371ZM6.5,9.5h0L3,7.5v-6A1.5,1.5,0,0,1,4.5,0h7A1.5,1.5,0,0,1,13,1.5v6l-3.5,2L8,8.75,6.5,9.5Zm.183-4.585v.579L8.021,6.832H8.7L7.261,5.395h.26a1.2,1.2,0,0,0,1.173-.958h.623V3.958H8.694a1.184,1.184,0,0,0-.221-.479h.844V3H6.682v.48h.839a.72.72,0,0,1,.674.479H6.682v.479H8.2a.718.718,0,0,1-.674.479ZM14,6.886V3.133l.941.5A2,2,0,0,1,16,5.4v.313L14,6.885Zm-12,0H2L0,5.713V5.4A2,2,0,0,1,1.059,3.635L2,3.133V6.886Z" fill="#686363"/>
</svg>
