<svg xmlns="http://www.w3.org/2000/svg" width="22.058" height="15.44" viewBox="0 0 22.058 15.44">
  <path id="people-group-solid" d="M6.342,33.93A1.93,1.93,0,1,1,4.412,32,1.931,1.931,0,0,1,6.342,33.93Zm.841,3.733a4.954,4.954,0,0,0-1.668,3.712,4.768,4.768,0,0,0,1.1,3.119v.741a1.1,1.1,0,0,1-1.1,1.1H3.309a1.1,1.1,0,0,1-1.1-1.1v-.924A3.86,3.86,0,0,1,3.86,36.963h1.1a3.917,3.917,0,0,1,2.22.7Zm-4.977,1.7a2.2,2.2,0,0,0,0,2.916Zm13.235,5.869v-.741a4.963,4.963,0,0,0-.565-6.831,3.843,3.843,0,0,1,2.22-.7h1.1a3.86,3.86,0,0,1,1.654,7.348v.924a1.1,1.1,0,0,1-1.1,1.1H16.543A1.1,1.1,0,0,1,15.441,45.235Zm4.412-2.954a2.2,2.2,0,0,0,0-2.916Zm-.276-8.351A1.93,1.93,0,1,1,17.646,32,1.931,1.931,0,0,1,19.576,33.93Zm-10.753.276a2.206,2.206,0,1,1,2.206,2.206A2.207,2.207,0,0,1,8.823,34.206Zm6.617,7.169a3.862,3.862,0,0,1-2.206,3.488v1.475a1.1,1.1,0,0,1-1.1,1.1H9.926a1.1,1.1,0,0,1-1.1-1.1V44.862a3.86,3.86,0,0,1,1.654-7.348h1.1A3.858,3.858,0,0,1,15.441,41.375ZM8.823,42.832V39.917a2.2,2.2,0,0,0,0,2.916Zm4.412-2.916v2.916a2.2,2.2,0,0,0,0-2.916Z" transform="translate(0 -32)" fill="#686363"/>
</svg>
