<svg xmlns="http://www.w3.org/2000/svg" width="20.227" height="17.699" viewBox="0 0 20.227 17.699">
  <path id="right-from-bracket-solid" d="M3.793,49.7H6.321a1.264,1.264,0,1,0,0-2.528H3.793a1.264,1.264,0,0,1-1.264-1.264V35.793a1.264,1.264,0,0,1,1.264-1.264H6.321a1.264,1.264,0,0,0,0-2.528H3.793A3.793,3.793,0,0,0,0,35.793V45.906A3.793,3.793,0,0,0,3.793,49.7Zm16.15-9.541L14.25,34.785a.949.949,0,0,0-1.6.69l0,2.844H7.589a1.265,1.265,0,0,0-1.265,1.264v2.528a1.265,1.265,0,0,0,1.265,1.264h5.057l0,2.809a.949.949,0,0,0,1.6.69L19.943,41.5A.935.935,0,0,0,19.943,40.158Z" transform="translate(0 -32)" fill="#686363"/>
</svg>
