<svg xmlns="http://www.w3.org/2000/svg" width="20.79" height="13.86" viewBox="0 0 20.79 13.86">
  <path id="ticket-solid" d="M4.62,67.465H16.17v6.93H4.62ZM18.48,64a2.311,2.311,0,0,1,2.31,2.31V69.2a1.732,1.732,0,0,0,0,3.465V75.55a2.312,2.312,0,0,1-2.31,2.31H2.31A2.311,2.311,0,0,1,0,75.55V72.662A1.733,1.733,0,0,0,1.732,70.93,1.733,1.733,0,0,0,0,69.2V66.31A2.31,2.31,0,0,1,2.31,64ZM3.465,74.395A1.154,1.154,0,0,0,4.62,75.55H16.17a1.154,1.154,0,0,0,1.155-1.155v-6.93A1.154,1.154,0,0,0,16.17,66.31H4.62a1.154,1.154,0,0,0-1.155,1.155Z" transform="translate(0 -64)" fill="#686363"/>
</svg>
