<svg xmlns="http://www.w3.org/2000/svg" xmlns:xlink="http://www.w3.org/1999/xlink" width="440.095" height="730.86" viewBox="0 0 440.095 730.86">
  <defs>
    <linearGradient id="linear-gradient" y1="0.5" x2="1" y2="0.5" gradientUnits="objectBoundingBox">
      <stop offset="0" stop-color="#ff4d00"/>
      <stop offset="0.92" stop-color="#ff5b00"/>
    </linearGradient>
    <linearGradient id="linear-gradient-2" x1="-0.342" y1="1.12" x2="1" y2="0.5" gradientUnits="objectBoundingBox">
      <stop offset="0" stop-color="#f54a00"/>
      <stop offset="1" stop-color="#ff7122"/>
    </linearGradient>
    <linearGradient id="linear-gradient-3" x1="0" y1="0.5" x2="1" y2="0.5" xlink:href="#linear-gradient"/>
  </defs>
  <g id="Chat_support" data-name="Chat support" transform="translate(0 3.325)">
    <g id="BACKGROUND" transform="translate(162.609 158.114)">
      <line id="Line_3" data-name="Line 3" y2="4.313" transform="translate(2.997 0.367)" fill="none" stroke="#2e97e6" stroke-linecap="round" stroke-miterlimit="10" stroke-width="0.7"/>
      <line id="Line_4" data-name="Line 4" y2="136.301" transform="translate(2.997 11.935)" fill="none" stroke="#2e97e6" stroke-linecap="round" stroke-miterlimit="10" stroke-width="0.7" stroke-dasharray="7.69 6.73"/>
      <line id="Line_5" data-name="Line 5" y2="4.313" transform="translate(2.997 151.859)" fill="none" stroke="#2e97e6" stroke-linecap="round" stroke-miterlimit="10" stroke-width="0.7"/>
      <path id="Path_257" data-name="Path 257" d="M150.82,149.17l2.986-2.76,2.749,2.76" transform="translate(-150.82 -146.41)" fill="none" stroke="#2e97e6" stroke-linecap="round" stroke-miterlimit="10" stroke-width="0.7" stroke-dasharray="8 7"/>
      <path id="Path_258" data-name="Path 258" d="M150.82,150.989l2.986-2.749,2.749,2.749" transform="translate(-150.82 -146.267)" fill="none" stroke="#2e97e6" stroke-linecap="round" stroke-miterlimit="10" stroke-width="0.7" stroke-dasharray="8 7"/>
      <line id="Line_6" data-name="Line 6" y2="4.313" transform="translate(33.143 0.183)" fill="none" stroke="#2e97e6" stroke-linecap="round" stroke-miterlimit="10" stroke-width="0.7"/>
      <line id="Line_7" data-name="Line 7" y2="136.301" transform="translate(33.143 11.752)" fill="none" stroke="#2e97e6" stroke-linecap="round" stroke-miterlimit="10" stroke-width="0.7" stroke-dasharray="7.69 6.73"/>
      <line id="Line_8" data-name="Line 8" y2="4.313" transform="translate(33.143 151.676)" fill="none" stroke="#2e97e6" stroke-linecap="round" stroke-miterlimit="10" stroke-width="0.7"/>
      <path id="Path_259" data-name="Path 259" d="M178.9,185.849l2.987-2.749,2.749,2.749" transform="translate(-148.625 -143.542)" fill="none" stroke="#2e97e6" stroke-linecap="round" stroke-miterlimit="10" stroke-width="0.7" stroke-dasharray="8 7"/>
      <path id="Path_260" data-name="Path 260" d="M178.9,187.669l2.987-2.749,2.749,2.749" transform="translate(-148.625 -143.4)" fill="none" stroke="#2e97e6" stroke-linecap="round" stroke-miterlimit="10" stroke-width="0.7" stroke-dasharray="8 7"/>
      <line id="Line_9" data-name="Line 9" y2="4.313" transform="translate(63.407 0.183)" fill="none" stroke="#2e97e6" stroke-linecap="round" stroke-miterlimit="10" stroke-width="0.7"/>
      <line id="Line_10" data-name="Line 10" y2="136.301" transform="translate(63.407 11.752)" fill="none" stroke="#2e97e6" stroke-linecap="round" stroke-miterlimit="10" stroke-width="0.7" stroke-dasharray="7.69 6.73"/>
      <line id="Line_11" data-name="Line 11" y2="4.313" transform="translate(63.407 151.676)" fill="none" stroke="#2e97e6" stroke-linecap="round" stroke-miterlimit="10" stroke-width="0.7"/>
      <path id="Path_261" data-name="Path 261" d="M206.97,208.83l3,2.749,2.739-2.749" transform="translate(-146.431 -141.531)" fill="none" stroke="#2e97e6" stroke-linecap="round" stroke-miterlimit="10" stroke-width="0.7" stroke-dasharray="8 7"/>
      <path id="Path_262" data-name="Path 262" d="M206.97,207.01l3,2.749,2.739-2.749" transform="translate(-146.431 -141.673)" fill="none" stroke="#2e97e6" stroke-linecap="round" stroke-miterlimit="10" stroke-width="0.7" stroke-dasharray="8 7"/>
      <line id="Line_12" data-name="Line 12" y2="4.313" transform="translate(93.682 0.183)" fill="none" stroke="#2e97e6" stroke-linecap="round" stroke-miterlimit="10" stroke-width="0.7"/>
      <line id="Line_13" data-name="Line 13" y2="136.301" transform="translate(93.682 11.752)" fill="none" stroke="#2e97e6" stroke-linecap="round" stroke-miterlimit="10" stroke-width="0.7" stroke-dasharray="7.69 6.73"/>
      <line id="Line_14" data-name="Line 14" y2="4.313" transform="translate(93.682 151.676)" fill="none" stroke="#2e97e6" stroke-linecap="round" stroke-miterlimit="10" stroke-width="0.7"/>
      <path id="Path_263" data-name="Path 263" d="M235.05,186.22l3-2.76,2.739,2.76" transform="translate(-144.236 -143.514)" fill="none" stroke="#2e97e6" stroke-linecap="round" stroke-miterlimit="10" stroke-width="0.7" stroke-dasharray="8 7"/>
      <path id="Path_264" data-name="Path 264" d="M235.05,188.039l3-2.749,2.739,2.749" transform="translate(-144.236 -143.371)" fill="none" stroke="#2e97e6" stroke-linecap="round" stroke-miterlimit="10" stroke-width="0.7" stroke-dasharray="8 7"/>
    </g>
    <g id="OBJECT" transform="translate(0 -3.325)">
      <path id="Path_265" data-name="Path 265" d="M444.354,330.591c69.5,76.237,25.412,161.8-53.768,244.107C269.832,700.2,216.4,675.409,143.449,602.461S22.027,427.367,98.76,361.75c36.442-31.18,130.867-13.509,178.2-23.655C342.327,324.1,392.149,273.319,444.354,330.591Z" transform="translate(-38.857 27.343)" fill="#e9f4ff"/>
      <path id="Path_266" data-name="Path 266" d="M229,412.32l-6.544,10.393H236.4Z" transform="translate(17.388 35.813)" fill="none" stroke="#4570b4" stroke-miterlimit="10" stroke-width="1" opacity="0.42"/>
      <path id="Path_267" data-name="Path 267" d="M143.5,322.53l-8.744,13.887h18.62Z" transform="translate(10.533 28.795)" fill="#4570b4" opacity="0.42"/>
      <circle id="Ellipse_59" data-name="Ellipse 59" cx="25.294" cy="25.294" r="25.294" transform="translate(185.584 327.433)" fill="#fafbfc" stroke="#b8b7bc" stroke-miterlimit="10" stroke-width="2" opacity="0.76"/>
      <path id="Path_268" data-name="Path 268" d="M236.336,322.1l-1.423-2.728a3.569,3.569,0,0,1,1.509-4.819h0a2.426,2.426,0,0,0,1.078-3.234l-2.156-4.075a2.426,2.426,0,0,0-3.235-1.024l-1.854.96a9.639,9.639,0,0,0-4.075,4.1l-.539,1.078a6.221,6.221,0,0,0,0,5.747l3.978,7.612,2.652,5.078,3.978,7.612a6.2,6.2,0,0,0,4.712,3.234l1.164.162a9.628,9.628,0,0,0,5.693-1.013l1.854-.97a2.426,2.426,0,0,0,1.024-3.234l-2.156-4.076a2.437,2.437,0,0,0-3.288-1.078h0a3.569,3.569,0,0,1-4.819-1.509l-1.412-2.738Z" transform="translate(-25.954 27.5)" fill="#b4b4b5"/>
      <circle id="Ellipse_60" data-name="Ellipse 60" cx="9.682" cy="9.682" r="9.682" transform="translate(81.876 343.045)" fill="#fff" opacity="0.42"/>
      <circle id="Ellipse_61" data-name="Ellipse 61" cx="9.682" cy="9.682" r="9.682" transform="translate(346.166 477.578)" fill="none" stroke="#4570b4" stroke-miterlimit="10" stroke-width="1" opacity="0.42"/>
      <circle id="Ellipse_62" data-name="Ellipse 62" cx="9.434" cy="9.434" r="9.434" transform="translate(41.606 533.222)" fill="#4570b4" opacity="0.42"/>
      <circle id="Ellipse_63" data-name="Ellipse 63" cx="3.978" cy="3.978" r="3.978" transform="translate(107.493 112.447)" fill="#ff4d00"/>
      <circle id="Ellipse_65" data-name="Ellipse 65" cx="3.978" cy="3.978" r="3.978" transform="translate(54.932 47.024)" fill="none" stroke="#ff4d00" stroke-miterlimit="10" stroke-width="1"/>
      <path id="Path_269" data-name="Path 269" d="M295.378,47.67H179.41a8.97,8.97,0,0,0-8.97,8.981v70.081a8.97,8.97,0,0,0,8.97,8.97h73.951v17.66a3.472,3.472,0,0,0,5.714,2.652l24.1-20.345h12.162a8.981,8.981,0,0,0,8.97-8.97V56.651a8.981,8.981,0,0,0-8.927-8.981Z" transform="translate(-30.214 7.311)" fill="#002f56" opacity="0.84"/>
      <path id="Path_277" data-name="Path 277" d="M425.093,565.486a2.7,2.7,0,0,1-.28.615q-3.073,4.453-6.469,8.625h0C344.317,665.669,154,665.669,154,665.669V557.13H424.813S425.848,563.038,425.093,565.486Z" transform="translate(-31.499 47.132)" fill="#a6d6f7"/>
      <path id="Path_278" data-name="Path 278" d="M425.093,564.88a2.7,2.7,0,0,1-.28.615q-3.073,4.453-6.469,8.625h0L154,604.2V564.88Z" transform="translate(-31.499 47.738)" fill="#237c9b"/>
      <path id="Path_279" data-name="Path 279" d="M271.535,489.48l-13.1,13.887a83.434,83.434,0,0,1-5.9-6.987,76.743,76.743,0,0,1-4.7-6.943,44.96,44.96,0,0,1-4.809-10.685c-3.45-12.345-2.038-38.383-2.038-38.383s5.585.6,7.493,2.728C259.233,455.065,271.535,489.48,271.535,489.48Z" transform="translate(-24.722 38.006)" fill="url(#linear-gradient)"/>
      <path id="Path_280" data-name="Path 280" d="M231.049,535.178h-93.8l-8.561-72.129a15.094,15.094,0,0,1,12.873-16.819l5.639-.744,71.676-9.315Z" transform="translate(-33.487 37.677)" fill="#ff9117"/>
      <path id="Path_281" data-name="Path 281" d="M204.723,438.423s-30.523,9.822-32.183,12.345,12.679,47.256,12.679,47.256l-2.749,37.035h62.145l3.137-35.331a32.183,32.183,0,0,0,7.062-19.407c.42-12.054-8.5-39.773-8.5-39.773l-21.682-2.857Z" transform="translate(-30.06 37.796)" fill="url(#linear-gradient-2)"/>
      <path id="Path_282" data-name="Path 282" d="M213.594,374.061s-21.272-9.143-36.377,12.2.539,54.9.539,54.9,38.544-5.035,49.207-6.059,12.83-1.078,12.83-1.078,5.5-33.714-6.232-46.113S213.594,374.061,213.594,374.061Z" transform="translate(-30.198 32.671)" fill="#002f66"/>
      <path id="Path_283" data-name="Path 283" d="M219.135,453.12l-17.962-12.313a28.6,28.6,0,0,0,1.078-9.423,14.8,14.8,0,0,0-.561-3.084,11.857,11.857,0,0,0-.55-1.456l17.962-.895s.119,1.456.453,3.332a25.112,25.112,0,0,0,1.272,4.69,8.2,8.2,0,0,0,1.725,2.814C225.248,439.535,219.135,453.12,219.135,453.12Z" transform="translate(-27.814 36.879)" fill="#fff"/>
      <path id="Path_284" data-name="Path 284" d="M220.817,433.8c-2.307.075-12.216.226-18.577-2.588a14.805,14.805,0,0,0-.561-3.083s12.108,1.477,17.865.981a25.111,25.111,0,0,0,1.272,4.69Z" transform="translate(-27.772 37.049)" fill="#d9d9d9"/>
      <path id="Path_285" data-name="Path 285" d="M230.362,381.82l3,24.8s3.925,25.509-16.658,28.032-27.525-21.412-27.525-21.412l-2.437-26.275S208.465,367.535,230.362,381.82Z" transform="translate(-28.94 33.019)" fill="#fff"/>
      <path id="Path_286" data-name="Path 286" d="M221.159,384.088s-2.7,6.62-11.558,11.321a54.166,54.166,0,0,1-15.213,5.315s-1.186,6.965-5.154,11.342c0,0-6.879-13.046-4.075-24.28s17.315-16.658,30.07-15.515,17.3,5.8,18.986,13.229-1.132,17.445-1.132,17.445S230.323,386.395,221.159,384.088Z" transform="translate(-29.116 32.671)" fill="#002f66"/>
      <path id="Path_287" data-name="Path 287" d="M187.008,406.71s-2.447-18.825,12.065-28.819c9.455-6.469,21.358-4.776,21.358-4.776s-7.547-5.65-22.286.873-15.536,21.272-14.016,32.722Z" transform="translate(-29.187 32.571)" fill="#68a8de"/>
      <path id="Path_288" data-name="Path 288" d="M158.651,534.5h-21.4l-8.561-72.129a15.094,15.094,0,0,1,12.873-16.819l5.639-.744Z" transform="translate(-33.487 38.353)" fill="#d9790d"/>
      <path id="Path_289" data-name="Path 289" d="M206.644,426.772c-9.822,0-17.11-6.836-17.434-7.148l1.315-1.434c.086.075,8.054,7.547,18.005,6.523l.194,1.951a19.487,19.487,0,0,1-2.081.108Z" transform="translate(-28.747 36.272)" fill="#375c93"/>
      <path id="Path_290" data-name="Path 290" d="M455.285,568.642H160.946a28.032,28.032,0,0,1-20.571-8.927L124.2,542.184c-6.275-6.8-1.283-17.574,8.14-17.574H419.619A39.019,39.019,0,0,1,446.228,535l16.593,15.5C469.915,557.1,465.1,568.642,455.285,568.642Z" transform="translate(-34.046 44.59)" fill="#80b1ff"/>
      <path id="Path_291" data-name="Path 291" d="M310.825,444.887c-.539.291-1.369.776-2.275,1.315l-.173-.28c2.7-1.714,6.685-4.4,6.415-5.046-.41-.981-2.426-.474-3.935.345-.863.474-2.437,1.4-3.957,2.318l-.108-.173c2.674-1.693,7.127-4.636,6.836-5.326-.4-.981-2.426-.464-3.925.345-.949.518-2.749,1.6-4.4,2.588l-.119-.2c2.642-1.7,6.1-4.075,5.844-4.69-.4-.981-2.426-.464-3.925.345-2.027,1.078-7.9,4.733-7.9,4.744l-4.313,1.553c.916-1.5,3.526-7.04,2.307-7.04s-4.561,3.871-5.951,7.849a21.431,21.431,0,0,0-1.164,6.792L252.55,498.009s.895,1.4,2.232,3.234c3.892,5.391,12.938,6.566,18.2,2.48,4.129-3.234,7.4-7.547,10.588-11.86,6.027-8.216,15.008-30.027,17.121-35.245l8.485-7.957c2.329-1.509,5.3-3.558,5.078-4.086C313.93,443.712,312.151,444.165,310.825,444.887Z" transform="translate(-23.796 37.628)" fill="#fff"/>
      <path id="Path_292" data-name="Path 292" d="M216.875,535.618s4.388,3.234,6.124,7.623-9.358,7.224-27.871.938C181.694,539.6,204.433,525.527,216.875,535.618Z" transform="translate(-28.606 45.172)" fill="#00496a"/>
      <path id="Path_293" data-name="Path 293" d="M208.855,427.587h-2.48a1.606,1.606,0,0,1-1.6-1.628v-1.52a1.617,1.617,0,0,1,1.6-1.639h2.48a1.628,1.628,0,0,1,1.606,1.639v1.52a1.617,1.617,0,0,1-1.606,1.628Z" transform="translate(-27.53 36.632)" fill="#00496a"/>
      <path id="Path_294" data-name="Path 294" d="M198.138,410.047c1.369,6.857-2.156,13.391-7.978,14.588s-11.569-3.4-12.938-10.253,2.156-13.391,7.978-14.588S196.758,403.19,198.138,410.047Z" transform="translate(-29.707 34.819)" fill="#4570b4"/>
      <path id="Path_295" data-name="Path 295" d="M192.108,410.857c.809,4.043-1.3,7.892-4.712,8.625s-6.825-2.005-7.633-6.048,1.294-7.9,4.7-8.625S191.3,406.8,192.108,410.857Z" transform="translate(-29.499 35.217)" fill="#68a8de"/>
      <path id="Path_296" data-name="Path 296" d="M179.682,447.32s-5.251.787-7.375,4.172C163.2,466,145.44,510.382,145.44,510.382l17.121,7.547s22.512-26.081,24.571-38.5S179.682,447.32,179.682,447.32Z" transform="translate(-32.168 38.549)" fill="url(#linear-gradient-3)"/>
      <path id="Path_297" data-name="Path 297" d="M161.051,509.607l35.137,22.857-4.96,11.008s-31.633-11.364-41.348-18.728-4.313-18.933-4.313-18.933S150.916,505.187,161.051,509.607Z" transform="translate(-32.275 43.118)" fill="#fff"/>
      <path id="Path_298" data-name="Path 298" d="M191.781,530.241s11.86-.561,16.172-.561,11.709,7.019,10.879,9.261-9.369-4.636-9.369-4.636l-.474.916s7.547,4.625,7.989,6.383-1.315,1.466-3.8.42a55.252,55.252,0,0,1-6.2-3.439l-.41.5s7.159,4.41,7.159,6.027-5.164-.216-8.949-2.739l-.485.776s4.69,2.383,5.024,3.925-2.156.916-5.024-.421-5.445-1.477-9.1-2.038a26.244,26.244,0,0,1-7.978-3.235Z" transform="translate(-28.902 44.986)" fill="#fff"/>
      <path id="Path_299" data-name="Path 299" d="M403.8,470.915l-16.862,84.528H262.09l16.755-84.032a3.752,3.752,0,0,1,3.666-3.051H401.734a2.156,2.156,0,0,1,2.07,2.555Z" transform="translate(-23.05 40.193)" fill="#4570b4"/>
      <path id="Path_300" data-name="Path 300" d="M264.724,550.356l-34.3-11.159a2.954,2.954,0,0,1-2.038-2.8h0a2.943,2.943,0,0,1,2.943-2.943H268.1Z" transform="translate(-25.685 45.281)" fill="#00496a"/>
      <path id="Path_301" data-name="Path 301" d="M178.61,450.5s7.677,21.714,3.019,36.658C181.629,487.125,197.359,469.67,178.61,450.5Z" transform="translate(-29.575 38.797)" fill="#d3662f"/>
      <path id="Path_302" data-name="Path 302" d="M252.326,495.736a76.754,76.754,0,0,1-4.7-6.943c3.17-12.453-4.2-40.183-4.2-40.183C259.582,469.214,255.075,488.351,252.326,495.736Z" transform="translate(-24.51 38.65)" fill="#d3662f"/>
      <path id="Path_303" data-name="Path 303" d="M245.242,473l100.593,82.081H231.15Z" transform="translate(18.067 40.556)" fill="#375c93"/>
      <circle id="Ellipse_67" data-name="Ellipse 67" cx="10.027" cy="10.027" r="10.027" transform="translate(306.895 551.082) rotate(-22.37)" fill="#a6d6f7"/>
      <path id="Path_304" data-name="Path 304" d="M202.389,435.13l16.97,17.251s-2.943,4.162-7.849,4.043-7.655-6.34-9.035-9.585a35.926,35.926,0,0,0-4.216-6.771Z" transform="translate(-28.04 37.596)" fill="#c9772d"/>
      <path id="Path_305" data-name="Path 305" d="M217.83,452.451s4.313,2.652,8.625.809,3.116-4.679,1.617-7.655a66.621,66.621,0,0,1-3.127-8.291l-4.862-2.8S220.967,445.82,217.83,452.451Z" transform="translate(-26.51 37.548)" fill="#c9772d"/>
      <path id="Path_306" data-name="Path 306" d="M245.2,482.08l-42.771,4.129s9.6,6.879,24.356,4.8S245.2,482.08,245.2,482.08Z" transform="translate(-27.714 41.266)" fill="#d3662f"/>
      <path id="Path_307" data-name="Path 307" d="M163.813,580.21c2.027-16.733-11.181-14.221-20.216-5.391s-17.876,3.892-7.86-12.593,17.348-21.563,15.957-29.865-8.625-4.668-21.154,2.232-.69-11.116-1.628-28.216-17.93-8.561-19.407,5.833,5,30.512-3.234,27.321-13.132-22.318-20.679-13.294,21.154,39.633,20.194,48.873-21.563-18.922-27.493-9.7,19.7,71.159,41.876,69.444C148.341,632.706,161.786,596.943,163.813,580.21Z" transform="translate(-37.484 42.424)" fill="#f28b44"/>
      <path id="Path_308" data-name="Path 308" d="M115.392,513a204.71,204.71,0,0,0-2.156,43.913c1.412,24.55,4.625,86.329,4.625,86.329" transform="translate(-34.713 43.683)" fill="none" stroke="#aa4451" stroke-miterlimit="10" stroke-width="1"/>
      <path id="Path_309" data-name="Path 309" d="M92.87,535.54s16.28,19.31,22.189,23.579c0,0,21.024-20.259,25.035-23.579" transform="translate(-36.277 45.444)" fill="none" stroke="#aa4451" stroke-miterlimit="10" stroke-width="1"/>
      <path id="Path_310" data-name="Path 310" d="M84,571.41s24.474,24.625,34.048,26.253l36.011-24.14" transform="translate(-36.97 48.248)" fill="none" stroke="#aa4451" stroke-miterlimit="10" stroke-width="1"/>
      <path id="Path_311" data-name="Path 311" d="M113.436,621.7s10.609-23.45,4.895-36.054-13.908-5.208-16.485,4.83S90.957,600.835,90.957,585s2.987-22.534-1.531-27.763-8.043.4-13.9,10.588-5.218-7.547-13.186-19.116-16.172,1.65-11.084,12.356,16.517,19.278,9.369,20.55-18.8-10.016-20.2-.485,31.741,18.782,35.008,25.682-23.2-4.076-23.407,4.96,30.6,24.938,44.55,22.523S113.436,621.7,113.436,621.7Z" transform="translate(-40.38 46.123)" fill="#ffce6c"/>
      <path id="Path_312" data-name="Path 312" d="M56.3,554.92s40.377,64.873,48.873,85.013" transform="translate(-39.136 46.959)" fill="none" stroke="#aa4451" stroke-miterlimit="10" stroke-width="1"/>
      <path id="Path_313" data-name="Path 313" d="M9.79,584.884l28.4,5.057,5.844-24.42" transform="translate(0.765 47.788)" fill="none" stroke="#aa4451" stroke-miterlimit="10" stroke-width="1"/>
      <path id="Path_314" data-name="Path 314" d="M23.71,612.116l30.34,5.251L66.556,589.83" transform="translate(1.853 49.688)" fill="none" stroke="#aa4451" stroke-miterlimit="10" stroke-width="1"/>
      <path id="Path_315" data-name="Path 315" d="M51.03,635.26h51.321l-4.41,42.361H56.388Z" transform="translate(3.989 53.239)" fill="#375c93"/>
      <rect id="Rectangle_310" data-name="Rectangle 310" width="59.029" height="15.827" rx="3.21" transform="translate(51.407 684.38)" fill="#4570b4"/>
      <circle id="Ellipse_68" data-name="Ellipse 68" cx="25.369" cy="25.369" r="25.369" transform="translate(326.619 409.492)" fill="#fafbfc" stroke="#b8b7bc" stroke-miterlimit="10" stroke-width="2" opacity="0.76"/>
      <path id="Path_316" data-name="Path 316" d="M379.737,392.8H355.856a1.186,1.186,0,0,0-1.186,1.186V407.15a1.186,1.186,0,0,0,1.186,1.186h23.881a1.186,1.186,0,0,0,1.186-1.186V393.986a1.186,1.186,0,0,0-1.186-1.186Zm.356,1.9L368.88,402.04a.658.658,0,0,1-.323.086.582.582,0,0,1-.28-.075l-13.067-7.332a.582.582,0,0,1,.571-1l12.755,7.17,10.933-7.148a.582.582,0,0,1,.8.162.571.571,0,0,1-.173.8Z" transform="translate(-15.814 34.287)" fill="#b4b4b5"/>
      <path id="Path_317" data-name="Path 317" d="M159.7,353.12H82.367a8.927,8.927,0,0,0-8.927,8.927v20.485a8.927,8.927,0,0,0,8.927,8.927H147.51l21.11,12.2V362.047a8.916,8.916,0,0,0-8.916-8.927Z" transform="translate(-37.796 31.186)" fill="#fafbfc" stroke="#b8b7bc" stroke-miterlimit="10" stroke-width="2" opacity="0.76"/>
      <line id="Line_15" data-name="Line 15" x2="38.264" transform="translate(41.736 393.578)" fill="none" stroke="#b7b7b7" stroke-linecap="round" stroke-linejoin="round" stroke-width="3"/>
      <line id="Line_16" data-name="Line 16" x2="80.55" transform="translate(41.596 403.411)" fill="none" stroke="#b7b7b7" stroke-linecap="round" stroke-linejoin="round" stroke-width="3"/>
      <line id="Line_17" data-name="Line 17" x2="80.55" transform="translate(41.596 413.244)" fill="none" stroke="#b7b7b7" stroke-linecap="round" stroke-linejoin="round" stroke-width="3"/>
      <line id="Line_21" data-name="Line 21" y2="8.83" transform="translate(369.487 77.148)" fill="none" stroke="#ef6100" stroke-linecap="round" stroke-miterlimit="10" stroke-width="1"/>
      <line id="Line_22" data-name="Line 22" x2="8.83" transform="translate(365.066 81.558)" fill="none" stroke="#ef6100" stroke-linecap="round" stroke-miterlimit="10" stroke-width="1"/>
      <line id="Line_23" data-name="Line 23" y2="8.83" transform="translate(152.204 35.952)" fill="none" stroke="#ef6100" stroke-linecap="round" stroke-miterlimit="10" stroke-width="1"/>
      <line id="Line_24" data-name="Line 24" x2="8.83" transform="translate(147.784 40.372)" fill="none" stroke="#ef6100" stroke-linecap="round" stroke-miterlimit="10" stroke-width="1"/>
      <path id="Path_133" data-name="Path 133" d="M319.651,139.181l-.5.55h3.536l-.442-3.5-.647.744a6.969,6.969,0,0,0-10.933,5.639h2.879a4.108,4.108,0,0,1,6.081-3.472Z" transform="translate(-19.253 14.193)" fill="#d9571d"/>
      <path id="Path_134" data-name="Path 134" d="M322.523,146.649a6.965,6.965,0,0,0,1.757-4.539H321.4a4.1,4.1,0,0,1-4.194,3.989,4.022,4.022,0,0,1-1.9-.507l.5-.55-3.536-.054.442,3.515.658-.744a7.008,7.008,0,0,0,9.154-1.11Z" transform="translate(-19.128 14.693)" fill="#d9571d"/>
      <path id="Path_623" data-name="Path 623" d="M288.858,47.67H178.942a8.638,8.638,0,0,0-6.016,2.418,8.12,8.12,0,0,0-2.487,5.836v64.414a8.377,8.377,0,0,0,8.5,8.245h70.092c-.056.589,28.04-.23,28.255-.03,9.946-.007,11.527,0,11.527,0a8.387,8.387,0,0,0,8.5-8.245V55.925a8.385,8.385,0,0,0-8.461-8.255Z" transform="translate(-26.793 11.046)" fill="#aec3ff" opacity="0.84"/>
      <circle id="Ellipse_64" data-name="Ellipse 64" cx="3.978" cy="3.978" r="3.978" transform="translate(302.759 66.065)" fill="none" stroke="#ff4d00" stroke-miterlimit="10" stroke-width="1"/>
      <circle id="Ellipse_66" data-name="Ellipse 66" cx="24.216" cy="24.216" r="24.216" transform="matrix(0.161, -0.987, 0.987, 0.161, 270.526, 47.797)" fill="#4570b4" opacity="0.42"/>
      <path id="Path_270" data-name="Path 270" d="M314.845,30.062l-.086-1.078a10.016,10.016,0,0,1,2.685-7.547c1.951-2.3,3.04-3.978,3.04-5.93,0-2.156-1.391-3.687-4.119-3.73a7.666,7.666,0,0,0-4.377,1.348l-1.078-2.739A11.353,11.353,0,0,1,317.1,8.66c4.992,0,7.245,3.073,7.245,6.372,0,2.943-1.65,5.067-3.73,7.547-1.908,2.253-2.6,4.162-2.469,6.372v1.078Zm-.949,6.07a2.555,2.555,0,0,1,2.6-2.728,2.523,2.523,0,0,1,2.555,2.728,2.577,2.577,0,1,1-5.154,0Z" transform="translate(-19.235 4.262)" fill="#fff"/>
      <path id="Path_271" data-name="Path 271" d="M321.068,59.6a52.991,52.991,0,0,1-8.151,28.42c-.819,1.315-1.7,2.6-2.642,3.827a51.407,51.407,0,0,1-40.97,20.485,50.738,50.738,0,0,1-23.72-5.844,53.2,53.2,0,0,1-27.612-53.908c3.3-25.8,25.046-45.693,51.3-45.693C297.876,6.89,321.068,30.491,321.068,59.6Z" transform="translate(-26.535 4.124)" fill="#aae0ff"/>
      <path id="Path_272" data-name="Path 272" d="M308.2,85.979a51.407,51.407,0,0,1-40.97,20.485,50.738,50.738,0,0,1-23.72-5.844c.97-2.426,3.946-8.863,9.218-12.464,6.577-4.507,26.566-7.213,40.431-6.027C301.353,82.788,305.871,84.61,308.2,85.979Z" transform="translate(-24.503 9.983)" fill="#d86f07"/>
      <path id="Path_273" data-name="Path 273" d="M243.88,31.595l.539,25.736s.819,26.3,22.221,25.876,25.876-32.949,25.876-32.949L289.2,30.516S264.182,13.794,243.88,31.595Z" transform="translate(-24.474 5.414)" fill="#fff"/>
      <path id="Path_274" data-name="Path 274" d="M265.214,73.674s1.6,9.951-.809,13.207,4.765,14.555,4.765,14.555l16.571-15.2a191.672,191.672,0,0,1-.809-20.895Z" transform="translate(-22.908 8.692)" fill="#fff"/>
      <path id="Path_275" data-name="Path 275" d="M244.706,37.9a36.841,36.841,0,0,0,12.733,1.391c6.588-.582,8.895-3.234,8.895-3.234a16.334,16.334,0,0,0,5.779.916,12.571,12.571,0,0,0,6.243-1.725,14.728,14.728,0,0,0-1.391,9.466c1.078,5.315,4.507,6.706,4.507,6.706s2.156-5.315,6.005-5.315,5.2,4.043,4.216,9.358-7.105,6.577-7.105,6.577l2.609,7s9.865-10.577,11.03-22.243S293.482,31.7,293.482,31.7s.5-8.625-11.073-11.666-19.191-2.771-27.849,2.156c0,0-7.278-5.542-13.4-2.156S236.77,30.546,239.768,32.4c0,0-5.887,1.5-4.615,8.776s9.757,6.706,9.757,6.706Z" transform="translate(-25.17 4.996)" fill="#00496a"/>
      <path id="Path_276" data-name="Path 276" d="M265,79.863s15.536-4.108,17.078-14.523c0,0,3.86,15.094-17.089,20.2C265,85.545,265.6,81.06,265,79.863Z" transform="translate(-22.824 8.692)" fill="#d9d9d9"/>
      <line id="Line_25" data-name="Line 25" y2="5.164" transform="translate(221.994 102.938)" fill="none" stroke="#fffefd" stroke-linecap="round" stroke-miterlimit="10" stroke-width="1"/>
      <line id="Line_26" data-name="Line 26" x2="5.164" transform="translate(219.417 105.525)" fill="none" stroke="#fffefd" stroke-linecap="round" stroke-miterlimit="10" stroke-width="1"/>
      <line id="Line_18" data-name="Line 18" x2="31.655" transform="translate(156.614 78.356)" fill="none" stroke="#e8e8d4" stroke-linecap="round" stroke-miterlimit="10" stroke-width="6"/>
      <line id="Line_19" data-name="Line 19" x2="39.827" transform="translate(156.614 98.69)" fill="none" stroke="#e8e8d4" stroke-linecap="round" stroke-miterlimit="10" stroke-width="6"/>
      <line id="Line_20" data-name="Line 20" x2="72.312" transform="translate(156.614 121.256)" fill="none" stroke="#e8e8d4" stroke-linecap="round" stroke-miterlimit="10" stroke-width="6"/>
    </g>
  </g>
</svg>
