<?xml version="1.0" encoding="utf-8"?>
<!-- Generator: Adobe Illustrator 19.0.1, SVG Export Plug-In . SVG Version: 6.00 Build 0)  -->
<!DOCTYPE svg PUBLIC "-//W3C//DTD SVG 1.1//EN" "http://www.w3.org/Graphics/SVG/1.1/DTD/svg11.dtd">
<svg version="1.1" id="Layer_1" xmlns="http://www.w3.org/2000/svg" xmlns:xlink="http://www.w3.org/1999/xlink" x="0px" y="0px"
	 viewBox="0 0 623 150.2" style="enable-background:new 0 0 623 150.2;" xml:space="preserve">
<style type="text/css">
	.st0{display:none;}
	.st1{display:inline;fill:#333333;}
	.st2{fill-rule:evenodd;clip-rule:evenodd;fill:#FCE01A;}
	.st3{fill-rule:evenodd;clip-rule:evenodd;fill:#31ACFF;}
	.st4{fill-rule:evenodd;clip-rule:evenodd;fill:#FEFEFE;}
	.st5{fill-rule:evenodd;clip-rule:evenodd;fill:#3EDD46;}
	.st6{fill-rule:evenodd;clip-rule:evenodd;fill:#027FD3;}
	.st7{fill-rule:evenodd;clip-rule:evenodd;fill:#0194C1;}
	.st8{fill:#333333;}
</style>
<g class="st0">
	<path class="st1" d="M203.5,73.9c-1.5-9.3-6.7-15-16.6-15c-14.6,0-19.2,13.9-19.2,26.3c0,12,2.9,26.8,19.1,26.8
		c7.9,0,14.7-5.9,16.7-16.6h11.4c-1.2,11.1-8,26.7-28.4,26.7c-19.6,0-31.2-14.8-31.2-35c0-21.6,10.4-38.9,33.5-38.9
		c18.3,0,25.2,13.4,26.2,25.5H203.5z"/>
	<path class="st1" d="M238.6,120.2h-11.8V24.3h11.8V120.2z"/>
	<path class="st1" d="M312.1,98.3c-0.4,3.3-3.6,13.2-12.4,19.1c-3.2,2.1-7.7,4.8-19,4.8c-19.6,0-31.2-14.8-31.2-35
		c0-21.6,10.4-38.9,33.5-38.9c20.2,0,30,16,30,40.7h-51c0,14.6,6.8,23,20.3,23c11.1,0,17.6-8.5,18-13.8H312.1z M300.8,79.8
		c-0.7-10.8-5.2-20.8-19.5-20.8c-10.8,0-19.4,10-19.4,20.8H300.8z"/>
	<path class="st1" d="M324.9,71.6c0.5-16.7,11.6-23.2,28.8-23.2c5.6,0,25.9,1.6,25.9,19.5v40.2c0,2.9,1.5,4.1,3.9,4.1
		c1.1,0,2.5-0.3,3.9-0.5v8.5c-2,0.5-3.7,1.3-6.4,1.3c-10.4,0-12-5.3-12.4-10.7c-4.5,4.9-11.6,11.3-25.2,11.3
		c-12.8,0-21.9-8.1-21.9-20.2c0-5.9,1.7-19.5,21.2-21.9l19.4-2.4c2.8-0.3,6.1-1.3,6.1-8.3c0-7.3-5.3-11.3-16.4-11.3
		c-13.4,0-15.2,8.1-16,13.5H324.9z M367.9,84.6c-1.9,1.5-4.8,2.5-19.4,4.4c-5.7,0.8-15,2.5-15,11.4c0,7.6,3.9,12.2,12.7,12.2
		c10.9,0,21.6-7.1,21.6-16.4V84.6z"/>
	<path class="st1" d="M407.7,120.2h-11.7V50.4H407V62h0.3c4.7-8.1,10.8-13.6,19.6-13.6c1.5,0,2.1,0.1,3.1,0.4v12.2h-4.4
		c-10.9,0-17.9,8.5-17.9,18.7V120.2z"/>
	<path class="st1" d="M465.5,120.2h-20V41.3h-29v-17h78v17h-29V120.2z"/>
	<path class="st1" d="M541,106.3c0,8.4,1.9,10.3,4.1,11.1v2.8H525c-1.1-3.3-1.3-4.4-1.7-8.4c-4.3,4.4-10.3,10.3-23,10.3
		c-10.7,0-21.6-6-21.6-20.7c0-13.9,8.8-21,20.7-22.7l16.8-2.5c2.9-0.4,6.5-1.6,6.5-5.6c0-7.9-7.5-8.3-12.3-8.3
		c-9.3,0-10.9,5.7-11.5,9.9h-18c2.1-21.8,17.2-24.8,31.8-24.8c10,0,28.3,3.1,28.3,20.6V106.3z M522.7,85.6
		c-1.9,1.5-4.9,2.7-12.7,3.9c-6.9,1.2-12.7,2.9-12.7,10.7c0,6.5,5.1,8.5,8.7,8.5c8.3,0,16.7-5.3,16.7-14V85.6z"/>
	<path class="st1" d="M617.8,120.2h-23.1l-12.3-21.4l-12.3,21.4h-22.6L571.7,84l-23.2-34.9h22.7l12,20.7l11.8-20.7h22L593.6,84
		L617.8,120.2z"/>
</g>
<g>
	<g>
		<circle class="st2" cx="66" cy="74.2" r="62.3"/>
	</g>
	<g>
		<path class="st3" d="M69.7,136.4c-2.6,0-5.2,0-7.8,0c-0.1-0.2-0.4-0.1-0.5-0.2c-2.5-0.2-4.9-0.5-7.3-1c-10.7-2.1-20.1-6.8-28.3-14
			c-4.3-3.7-7.9-7.9-11-12.7c1.4,0,2.9,0,4.3-0.1c5,0,10,0,15,0c0.6,0,0.5-0.4,0.5-0.7c0-3.2,0-6.5,0-9.7c0-0.7-0.2-0.9-0.9-0.9
			c-6.2,0-12.5,0-18.7,0c-0.7,0-0.9-0.2-0.8-0.8c0-14.8,0-29.7,0-44.5c0-0.7,0.2-0.9,0.9-0.9c5,0,10,0,15.1,0c0.6,0,0.8-0.1,0.8-0.7
			c0.4-4.5,2.4-8,6.3-10.4c8-4.8,18.7,0.1,19.6,10.3c0.1,0.7,0.2,0.8,0.9,0.8c6.2,0,12.4,0,18.7,0c0.7,0,0.8,0.2,0.8,0.8
			c0,14.8,0,29.7,0,44.5c0,0.7-0.2,0.9-0.9,0.9c-6.2,0-12.4,0-18.7,0c-0.7,0-0.8,0.2-0.8,0.9c0,3.2,0,6.4,0,9.6
			c0,0.7,0.2,0.8,0.8,0.8c7.5,0,15,0,22.5,0c0.3,0,0.6,0,0.8,0c0,0.4,0,0.7,0,1.1c0,3.3,0,6.6,0,9.9c0.1,1,0.1,2,0,3
			c0,0.4,0,0.8,0,1.3c0,2.4,0,4.8,0,7.2c0,1.2,0,2.5,0,3.7c-2.3,0.7-4.7,1-7.1,1.4C72.4,136.1,71,136,69.7,136.4z M44.4,82.6
			c-4.9,0-9.8,0-14.7,0c-1.3,0-2.2,0.9-2.3,2.1c-0.1,1.3,0.7,2.3,2,2.5c0.3,0.1,0.6,0.1,0.9,0.3c1.6,0.6,3.2,1.2,4.9,1.7
			c5.1,1.5,10.3,2,15.6,0.9c3.2-0.7,6.2-1.9,9.2-3c1-0.3,1.6-1.5,1.3-2.6c-0.2-1.1-1.1-1.8-2.3-1.8C54.2,82.6,49.3,82.6,44.4,82.6z
			 M43.7,51c3.4,0,6.8,0,10.2,0c1,0,1,0,0.9-1c0-0.1,0-0.2,0-0.2c-0.7-5.6-5.1-9.6-10.8-9.9c-5.8-0.2-11,4.5-11.4,10.2
			c0,0.7,0.1,1,0.9,1C36.9,51,40.3,51,43.7,51z M59.5,75.2c3.1,0,5.6-2.5,5.6-5.6c0-3.2-2.5-5.7-5.6-5.7c-3.1,0-5.6,2.5-5.6,5.6
			C53.8,72.7,56.3,75.2,59.5,75.2z M37.2,69.7c0-3.1-2.5-5.6-5.6-5.7c-3.1,0-5.6,2.5-5.6,5.6c0,3.1,2.5,5.6,5.6,5.6
			C34.7,75.3,37.2,72.8,37.2,69.7z"/>
		<path class="st4" d="M44.4,82.6c4.9,0,9.7,0,14.6,0c1.2,0,2.1,0.7,2.3,1.8c0.2,1-0.3,2.2-1.3,2.6c-3.1,1-6,2.3-9.2,3
			c-5.3,1.1-10.5,0.6-15.6-0.9c-1.7-0.5-3.3-1-4.9-1.7c-0.3-0.1-0.6-0.2-0.9-0.3c-1.3-0.2-2.1-1.3-2-2.5c0.1-1.2,1.1-2.1,2.3-2.1
			C34.6,82.6,39.5,82.6,44.4,82.6z"/>
		<path class="st5" d="M43.7,51c-3.4,0-6.8,0-10.2,0c-0.8,0-0.9-0.2-0.9-1c0.3-5.7,5.6-10.4,11.4-10.2c5.7,0.2,10.1,4.2,10.8,9.9
			c0,0.1,0,0.2,0,0.2c0.1,1,0.1,1-0.9,1C50.5,51,47.1,51,43.7,51z"/>
		<path class="st6" d="M80.8,108.5c0.9-0.9,1.7-1.9,2.6-2.8c0.2,0.2,0.5,0.4,0.7,0.5c3.1,2.1,6.1,4.3,9.2,6.4
			c-2.9,3.6-6.2,6.8-10,9.4c-0.8-0.9-1.6-1.7-2.4-2.6c0-3.3,0-6.6,0-9.9C80.8,109.2,80.8,108.8,80.8,108.5z"/>
		<path class="st4" d="M59.5,75.2c-3.1,0-5.7-2.5-5.6-5.6c0-3.2,2.5-5.6,5.6-5.6c3.2,0,5.7,2.5,5.6,5.7
			C65.1,72.7,62.6,75.2,59.5,75.2z"/>
		<path class="st4" d="M37.2,69.7c0,3.1-2.5,5.6-5.6,5.6c-3.1,0-5.6-2.5-5.6-5.6c0-3.1,2.5-5.6,5.6-5.6C34.7,64,37.2,66.6,37.2,69.7
			z"/>
		<path class="st4" d="M80.8,119.4c0.8,0.9,1.6,1.7,2.4,2.6c-0.6,0.4-1.2,0.8-1.7,1.2c-0.1-0.4-0.4-0.6-0.7-0.8
			C80.9,121.4,80.9,120.4,80.8,119.4z"/>
		<path class="st7" d="M80.8,122.4c0.3,0.2,0.6,0.5,0.7,0.8c-0.2,0.1-0.5,0.3-0.7,0.4C80.8,123.2,80.8,122.8,80.8,122.4z"/>
		<path class="st3" d="M97.9,70.2c-0.6-0.4-1.3-0.9-1.9-1.3c-3.5-2.7-5.4-6.3-6.6-10.5c-0.6-2.2-0.9-4.4-1-6.7
			c0-0.7,0.2-0.8,0.8-0.8c2,0,4,0,6,0c0.5,0,0.6,0.1,0.6,0.6c0,2.9,0.5,5.7,1.8,8.3c0.6,1.2,1.4,2.2,2.4,3c2.3,1.8,5.4,1.5,7.3-0.8
			c1.7-2,2.4-4.5,2.9-7c0.2-1.2,0.3-2.3,0.4-3.5c0-0.4,0.2-0.6,0.6-0.6c2.1,0,4.2,0,6.3,0c0.3,0,0.6-0.1,0.6,0.4
			c-0.4,6.4-2.2,12.3-7.1,16.8c-0.6,0.5-1.2,1-1.9,1.4c-0.2,0.1-0.5,0.2-0.5,0.5c-0.3,0-0.6,0.1-0.9,0.2c-2.3,1-4.7,1.2-7.1,0.6
			C99.5,70.9,98.7,70.5,97.9,70.2z"/>
		<path class="st6" d="M84.6,104.1c2.3-3,4.2-6.1,6-9.4c1.4,0.7,2.9,1.3,4.3,2c2.2,1,4.4,2.1,6.6,3c-0.4,1.3-1.1,2.4-1.8,3.5
			c-1.5,2.7-3.2,5.4-5.2,7.8C91.3,108.7,87.9,106.4,84.6,104.1z"/>
		<path class="st6" d="M106.7,85.3c-0.6,2.9-1.5,5.7-2.5,8.5c-0.5,1.4-1,2.7-1.7,4c-2-0.9-4-1.9-5.9-2.8c-1.6-0.7-3.2-1.6-4.9-2.2
			c-0.1-0.2,0-0.3,0.1-0.4c1.5-3.2,2.8-6.5,3.8-9.9c0-0.1,0.1-0.1,0.1-0.2C99.3,83.3,103,84.3,106.7,85.3z"/>
		<path class="st6" d="M97.9,70.2c0.9,0.2,1.6,0.6,2.5,0.9c2.5,0.6,4.8,0.4,7.1-0.6c0.3-0.1,0.6-0.2,0.9-0.2c0.1,1.8,0,3.7-0.1,5.5
			c-0.2,2.6-0.5,5.2-1.1,7.7c-3.7-1-7.3-2-11-3.1C97,77,97.6,73.7,97.9,70.2z"/>
		<path class="st4" d="M84.6,104.1c3.3,2.3,6.7,4.6,10,6.9c-0.4,0.5-0.9,1.1-1.3,1.6c-3.1-2.1-6.1-4.3-9.2-6.4
			c-0.2-0.2-0.5-0.4-0.7-0.5C83.8,105.1,84.2,104.6,84.6,104.1z"/>
		<path class="st4" d="M91.7,92.8c1.7,0.6,3.2,1.4,4.9,2.2c2,0.9,4,1.9,5.9,2.8c-0.3,0.6-0.6,1.3-0.9,1.9c-2.3-0.9-4.4-2-6.6-3
			c-1.4-0.6-2.9-1.3-4.3-2C91,94.1,91.3,93.5,91.7,92.8z"/>
		<path class="st4" d="M96.2,80.4c3.7,1,7.3,2,11,3.1c-0.1,0.6-0.3,1.3-0.4,1.9c-3.7-1-7.4-2-11-3.1C95.8,81.6,96,81,96.2,80.4z"/>
	</g>
	<g>
		<path class="st8" d="M202.7,73.4C201.2,64,196,58.3,186,58.3c-14.7,0-19.4,14-19.4,26.5c0,12.1,3,27.1,19.3,27.1
			c7.9,0,14.8-5.9,16.8-16.7h11.4c-1.2,11.2-8.1,26.9-28.7,26.9c-19.8,0-31.5-14.9-31.5-35.3c0-21.8,10.5-39.2,33.8-39.2
			c18.5,0,25.5,13.5,26.4,25.7H202.7z"/>
		<path class="st8" d="M238.1,120.1h-11.9V23.4h11.9V120.1z"/>
		<path class="st8" d="M312.2,98c-0.4,3.4-3.6,13.3-12.5,19.3c-3.2,2.2-7.8,4.8-19.1,4.8c-19.8,0-31.5-14.9-31.5-35.3
			c0-21.8,10.5-39.2,33.8-39.2c20.3,0,30.3,16.2,30.3,41.1h-51.4c0,14.7,6.9,23.2,20.5,23.2c11.2,0,17.8-8.6,18.2-13.9H312.2z
			 M300.9,79.3c-0.7-10.9-5.3-21-19.7-21c-10.9,0-19.5,10.1-19.5,21H300.9z"/>
		<path class="st8" d="M325.1,71.1c0.5-16.8,11.7-23.4,29.1-23.4c5.7,0,26.1,1.6,26.1,19.7v40.5c0,3,1.5,4.2,3.9,4.2
			c1.1,0,2.6-0.3,3.9-0.5v8.6c-2,0.5-3.8,1.3-6.5,1.3c-10.5,0-12.1-5.4-12.5-10.8c-4.6,5-11.7,11.4-25.5,11.4
			c-12.9,0-22.1-8.2-22.1-20.3c0-5.9,1.7-19.7,21.4-22.1l19.5-2.4c2.8-0.3,6.2-1.3,6.2-8.4c0-7.4-5.4-11.4-16.6-11.4
			c-13.5,0-15.4,8.2-16.2,13.6H325.1z M368.5,84.2c-1.9,1.5-4.8,2.6-19.5,4.4c-5.8,0.8-15.1,2.6-15.1,11.4c0,7.7,3.9,12.3,12.8,12.3
			c11,0,21.8-7.1,21.8-16.6V84.2z"/>
		<path class="st8" d="M408.6,120.1h-11.9V49.7H408v11.7h0.3c4.7-8.2,10.9-13.7,19.8-13.7c1.5,0,2.2,0.1,3.1,0.4v12.3h-4.4
			c-11,0-18,8.6-18,18.9V120.1z"/>
		<path class="st8" d="M467,120.1h-20.2V40.5h-29.2V23.4h78.6v17.1H467V120.1z"/>
		<path class="st8" d="M543.1,106.1c0,8.5,1.9,10.4,4.2,11.2v2.8h-20.3c-1.1-3.4-1.3-4.4-1.7-8.5c-4.3,4.4-10.4,10.4-23.2,10.4
			c-10.8,0-21.8-6.1-21.8-20.9c0-14,8.9-21.1,20.9-22.9l17-2.6c3-0.4,6.6-1.6,6.6-5.7c0-7.9-7.5-8.4-12.4-8.4c-9.4,0-11,5.8-11.6,10
			h-18.2c2.2-22,17.4-25,32.1-25c10.1,0,28.6,3.1,28.6,20.7V106.1z M524.6,85.2c-1.9,1.5-5,2.7-12.8,3.9c-7,1.2-12.8,3-12.8,10.8
			c0,6.6,5.1,8.6,8.8,8.6c8.4,0,16.8-5.4,16.8-14.1V85.2z"/>
		<path class="st8" d="M620.5,120.1h-23.3l-12.4-21.5l-12.4,21.5h-22.8l24.4-36.5l-23.4-35.1h22.9l12.1,20.9l11.9-20.9h22.2
			l-23.6,35.1L620.5,120.1z"/>
	</g>
</g>
</svg>
