<svg xmlns="http://www.w3.org/2000/svg" xmlns:xlink="http://www.w3.org/1999/xlink" width="642.861" height="769.589" viewBox="0 0 642.861 769.589">
  <defs>
    <linearGradient id="linear-gradient" y1="0.5" x2="1" y2="0.5" gradientUnits="objectBoundingBox">
      <stop offset="0" stop-color="#ff7736"/>
      <stop offset="1" stop-color="#ff9b50"/>
    </linearGradient>
  </defs>
  <g id="HR_Feature" data-name="HR Feature" transform="translate(55.697 37.603)">
    <g id="BACKGROUND" transform="translate(-3.231 141.591)">
      <rect id="Rectangle_470" data-name="Rectangle 470" width="590.395" height="590.395" fill="#fff"/>
    </g>
    <g id="OBJECTS" transform="translate(-55.697 -37.603)">
      <path id="Path_524" data-name="Path 524" d="M272.531,2.115c276.482,4.263,123.227,133.429,110.522,182.94s56.971-22.834,95.29,142.285-63.527,115.6-116.9,116.9-59.774,5.793-104.169-69.867-34.3-58.437-78.759-66.065S-19.357,425.016,2.033,228.429c0,0,69.232-147.4,146.621-202.155C200.763-10.59,272.531,2.115,272.531,2.115Z" transform="matrix(0.966, 0.259, -0.259, 0.966, 116.526, 201.342)" fill="#e2e7ff" opacity="0.38"/>
      <path id="Path_525" data-name="Path 525" d="M164.06,370.159s-3.224-41.044,8.856-68.415c4.829-6.435,8.041-4.027,8.041-4.027s1.606,16.909-2.362,33-6.447,47.48-6.447,47.48Z" transform="translate(82.056 83.367)" fill="#db9d4b"/>
      <path id="Path_526" data-name="Path 526" d="M168.819,364.356s-.8-19.318-20.924-36.215-24.135-16.9-24.135-16.9,16.094-.815,27.359,6.435,15.291,27.359,16.094,30.582,5.632,16.094,5.632,16.094Z" transform="translate(74.841 85.888)" fill="#db7d49"/>
      <path id="Path_527" data-name="Path 527" d="M173.609,365.855s3.767-18.963,26.249-32.566S226.32,320.3,226.32,320.3s-15.775-3.271-28.032,2.149-19.318,24.679-20.617,27.737-8.041,15.031-8.041,15.031Z" transform="translate(83.133 87.353)" fill="#e8ce60"/>
      <path id="Path_528" data-name="Path 528" d="M171.368,369.343s-20.924-69.218-39.438-85.277c.815-2.362,22.541,4.829,28.977,22.541s8.053,44.256,10.462,51.506A119.728,119.728,0,0,0,177,371.788" transform="translate(76.318 80.9)" fill="#efbf6a"/>
      <path id="Path_529" data-name="Path 529" d="M164,366.763s8.041-37.785,28.977-50.7c1.606,4.829-21.738,44.256-19.318,61.968S164,366.763,164,366.763Z" transform="translate(82.116 86.763)" fill="#ffac48"/>
      <path id="Path_530" data-name="Path 530" d="M154.83,402.556h30.949c1.9-12.906,3.542-24.513,3.8-28.953a42.284,42.284,0,0,0-4-20.073H155.031a42,42,0,0,0-4,20.073C151.323,378.043,152.917,389.65,154.83,402.556Z" transform="translate(79.761 93.538)" fill="#a9a7e7"/>
      <rect id="Rectangle_471" data-name="Rectangle 471" width="56.761" height="76.799" transform="translate(459.65 419.024)" fill="#24adb2"/>
      <rect id="Rectangle_472" data-name="Rectangle 472" width="56.761" height="76.799" transform="translate(453.805 419.024)" fill="#26c6da"/>
      <rect id="Rectangle_473" data-name="Rectangle 473" width="56.761" height="84.58" transform="translate(439.624 411.231)" fill="#ff9b50"/>
      <rect id="Rectangle_474" data-name="Rectangle 474" width="65.109" height="84.58" transform="translate(425.43 411.231)" fill="#ff9b50"/>
      <rect id="Rectangle_475" data-name="Rectangle 475" width="11.135" height="84.58" transform="translate(479.404 411.231)" fill="#f98232"/>
      <path id="Path_531" data-name="Path 531" d="M97.8,341.09s-8.9,4.452-12.8,17.251,17.251,47.3,17.251,45.626S123.4,392.844,123.4,392.844l-10.627-38.966Z" transform="translate(67.747 91.288)" fill="#bf5404"/>
      <path id="Path_532" data-name="Path 532" d="M290.421,398.237,278.66,367.17H249.27l11.761,31.067" transform="translate(97.532 101.683)" fill="#4f57a0"/>
      <path id="Path_533" data-name="Path 533" d="M193.79,374.779H360.907l2.928-15.669H196.718" transform="translate(87.501 100.226)" fill="#e2e7ff"/>
      <path id="Path_534" data-name="Path 534" d="M211.065,297.364l-14.8,79.325H363.387l14.406-77.5a5.007,5.007,0,0,0-4.924-5.9H216.025A5.007,5.007,0,0,0,211.065,297.364Z" transform="translate(87.95 82.647)" fill="#bbbcbf"/>
      <path id="Path_535" data-name="Path 535" d="M284.644,389.421l44.244-32.968-43.406-2.5-40.9,31.716Z" transform="translate(96.684 99.293)" fill="#fff"/>
      <path id="Path_536" data-name="Path 536" d="M270.091,381.348l11.135-6.116s10.745-4.452,11.064-4.452,1.252,1.039.094,3.235-4.168,2.7-4.168,2.7l-1.984,5.538,10.3-1.464,2.362-.555a46.493,46.493,0,0,1-2.362,5.148,30.7,30.7,0,0,1-4.593,3.471s-7.368,6.128-10.013,6.825-11.808,1.11-11.808,1.11l-5.833-.142-5.432,1.122a25.139,25.139,0,0,1-2.362-12.387Z" transform="translate(98.827 96.656)" fill="#ff8d68"/>
      <path id="Path_537" data-name="Path 537" d="M323.87,396.77l32.271,210.346h7.793L342.786,395.66Z" transform="translate(111.019 106.834)" fill="#e2e7ff"/>
      <path id="Path_538" data-name="Path 538" d="M379.48,396.77l32.283,210.346h7.781L398.4,395.66Z" transform="translate(121.072 106.834)" fill="#e2e7ff"/>
      <path id="Path_539" data-name="Path 539" d="M225.386,396.77,193.1,607.116H185.31L206.458,395.66Z" transform="translate(85.968 106.834)" fill="#c2d3eb"/>
      <path id="Path_540" data-name="Path 540" d="M169.764,396.77,137.493,607.116H129.7L150.848,395.66Z" transform="translate(75.914 106.834)" fill="#c2d3eb"/>
      <rect id="Rectangle_476" data-name="Rectangle 476" width="290.486" height="10.013" transform="translate(233.446 501.372)" fill="#a9a7e7"/>
      <path id="Path_541" data-name="Path 541" d="M448.82,405H161.663a5.573,5.573,0,0,1-5.573-5.573h0a5.562,5.562,0,0,1,5.573-5.562H448.82a5.562,5.562,0,0,1,5.562,5.562h0A5.561,5.561,0,0,1,448.82,405Z" transform="translate(80.686 100.831)" fill="#ffc757"/>
      <path id="Path_542" data-name="Path 542" d="M169.283,562.227s1.83-4.475,9.446-3.672,8.584,2.208,9.635,5.9,3.885,7.687,5.668,8.478,8.419,4.853,13.709,5.467,6.022,3.79,4.924,5.3-20.841,3.649-25.245,3.283c0,0-14.866.437-18.42-.555S169.012,563.691,169.283,562.227Z" transform="translate(82.736 130.587)" fill="#201360"/>
      <path id="Path_543" data-name="Path 543" d="M171.021,534.51l-2.291,34.88a38.881,38.881,0,0,1,9.576,4.782c6.116,4.487,11.123-.945,11.123-.945l1.382-21.939Z" transform="translate(82.971 126.257)" fill="#ff8d68"/>
      <path id="Path_544" data-name="Path 544" d="M215.582,483.61l-22.541,96.825s-11.678,1.677-25.871-5.007c0,0,12.516-90.98,13.355-96.825S213.917,478.6,215.582,483.61Z" transform="translate(82.689 115.708)" fill="#202f7c"/>
      <path id="Path_545" data-name="Path 545" d="M136.7,270.676s9.257,1.724,15.35,15.35,4.617,43.536,1.405,47.232-13.721,3.082-28.516-.732c-15.622-4.038-21.845-19.589-25.281-29.9C93.078,282.921,109.172,261.1,136.7,270.676Z" transform="translate(70.217 78.138)" fill="#ff8d68"/>
      <path id="Path_546" data-name="Path 546" d="M109.05,341.982l5.314-25.493s13.7-5.007,23.049,3.731L140.6,324.1l1.075,16.295a93.494,93.494,0,0,1-32.625,1.582Z" transform="translate(72.181 86.583)" fill="#ff8d68"/>
      <path id="Path_547" data-name="Path 547" d="M109.7,476.743a231.058,231.058,0,0,0,65.191,7.533c35.424-1.181,40.052-11.229,41.162-20.794s-26.414-15.35-38.387-18.515-52.888-14.913-63.952-2.976S100.077,468.6,109.7,476.743Z" transform="translate(71.224 108.583)" fill="#201360"/>
      <path id="Path_548" data-name="Path 548" d="M239.22,562.227s1.818-4.475,9.446-3.672,8.572,2.208,9.635,5.9,3.873,7.687,5.668,8.478,8.407,4.853,13.7,5.467,6.022,3.79,4.936,5.3-20.876,3.731-25.233,3.33c0,0-14.878.437-18.42-.555S239,563.691,239.22,562.227Z" transform="translate(95.384 130.587)" fill="#201360"/>
      <path id="Path_549" data-name="Path 549" d="M231.5,536.67l8.348,33.948s6.671-1.677,10.627,1.665,11.135,1.11,11.135,1.11l-6.128-26.709Z" transform="translate(94.319 126.647)" fill="#ff8d68"/>
      <path id="Path_550" data-name="Path 550" d="M181.973,440.53c1.665,0,58.437,18.893,69.56,27.264,11.135,8.9,28.941,108.1,30.051,110.321s-16.141,8.348-27.264,6.683c-.555-2.232-26.709-85.844-26.709-91.405,0,0-44.528-2.232-63.444-5.561s-31.716-3.9-39.509-24.49S162.5,441.085,162.5,441.085Z" transform="translate(74.841 109.266)" fill="#202f7c"/>
      <path id="Path_551" data-name="Path 551" d="M255.3,378.554s10.851-.272,11.69.838,4.723,11.135,1.11,15.35l-3.058,2.232H255.6Z" transform="translate(98.622 98.056)" fill="#e2e7ff"/>
      <path id="Path_552" data-name="Path 552" d="M107.44,336.2l2.917-7.522s17.523-5.42,32.554,1.252a29.885,29.885,0,0,1,5.9,9.6Z" transform="translate(71.89 88.669)" fill="#e2e7ff"/>
      <path id="Path_553" data-name="Path 553" d="M106.818,336.3s2.232-3.9,6.128-4.452,21.7-2.775,33.381.555a19.99,19.99,0,0,1,6.683,3.9s16.7,5.561,22.258,8.9,7.238,28.941,8.348,37.289-2.22,17.251-2.22,17.251,13.355,54.529,13.355,62.322-4.452,16.7-20.073,22.258-57.859,3.342-72.347-5.562c-4.452-8.9-11.123-114.631-12.233-124.656S106.818,336.3,106.818,336.3Z" transform="translate(68.746 89.394)" fill="url(#linear-gradient)"/>
      <path id="Path_554" data-name="Path 554" d="M155.809,341.16s4.168-2.5,14.169,4.168,37.561,31.728,40.9,33.393,67.612,5.007,67.612,5.007,9.187,11.69-.827,20.865c0,0-62.051,2.5-73.74,1.677s-50.644-23.38-50.644-23.38S137.436,359.522,155.809,341.16Z" transform="translate(79.03 91.218)" fill="#ff723c"/>
      <g id="Group_10" data-name="Group 10" transform="translate(162.043 425.502)" opacity="0.46">
        <path id="Path_555" data-name="Path 555" d="M143.12,372.28s52.037,27.323,58.107,28.185,29.047,0,29.047,0" transform="translate(-83.703 -328.575)" fill="none" stroke="#dcdee2" stroke-miterlimit="10" stroke-width="0.83"/>
        <path id="Path_556" data-name="Path 556" d="M203.273,378.16s1.736,9.541-4.333,15.173" transform="translate(-73.611 -327.512)" fill="none" stroke="#dcdee2" stroke-miterlimit="10" stroke-width="0.83"/>
        <path id="Path_557" data-name="Path 557" d="M205.92,376s5.2,8.266,2.6,14.311" transform="translate(-72.349 -327.903)" fill="none" stroke="#dcdee2" stroke-miterlimit="10" stroke-width="0.83"/>
        <path id="Path_558" data-name="Path 558" d="M142.838,366.951s-4.333-15.185,10.84-25.151" transform="translate(-83.857 -334.086)" fill="none" stroke="#dcdee2" stroke-miterlimit="10" stroke-width="0.83"/>
        <path id="Path_559" data-name="Path 559" d="M95.835,351S92.8,377.863,92.8,390.438" transform="translate(-92.8 -332.422)" fill="none" stroke="#dcdee2" stroke-miterlimit="10" stroke-width="0.83"/>
        <path id="Path_560" data-name="Path 560" d="M108.59,336.038s19.955-1.736,36.427,0" transform="translate(-89.945 -335.267)" fill="none" stroke="#dcdee2" stroke-miterlimit="10" stroke-width="0.83"/>
        <path id="Path_561" data-name="Path 561" d="M219.14,486.641s9.541-3.035,12.989-17.771" transform="translate(-69.959 -311.112)" fill="none" stroke="#dcdee2" stroke-miterlimit="10" stroke-width="0.83"/>
        <path id="Path_562" data-name="Path 562" d="M224.65,486.461s5.632-1.736,8.266-9.541" transform="translate(-68.963 -309.657)" fill="none" stroke="#dcdee2" stroke-miterlimit="10" stroke-width="0.83"/>
        <line id="Line_77" data-name="Line 77" x1="14.311" y2="71.556" transform="translate(106.684 193.748)" fill="none" stroke="#dcdee2" stroke-miterlimit="10" stroke-width="0.83"/>
      </g>
      <path id="Path_563" data-name="Path 563" d="M150.885,289.433a12.859,12.859,0,0,1-5.007,12.528l.425,8.348s2.5,7.51.827,8.348-2.078-.425-2.078-.425-5.432-8.761-7.085-9.175,3.755,11.678,3.755,11.678-5.432,8.348-15.445,9.6l2.09-2.917a21.054,21.054,0,0,1-11.69,2.5c-7.085-.413-12.516-11.265-12.516-11.265s1.252,2.917,0,4.168-8.348-9.6-8.773-23.368l-2.078,4.168a80.352,80.352,0,0,1,4.168-20.451c3.755-10.851,20.451-18.775,29.638-18.775s18.361.827,20.865,0,1.252,6.258,1.252,6.258a28.34,28.34,0,0,0,1.665-5.432c1.677-1.252,4.18,8.773,3.342,12.528l-.838,3.755s2.928-3.755,3.342-5.845C158.407,275.252,157.982,284.426,150.885,289.433Z" transform="translate(69.336 77.412)" fill="#201360"/>
      <path id="Path_564" data-name="Path 564" d="M138.211,303.736s-1.689-5.585-6.317-2.645,1.948,16.094,5.809,14.961S139.167,305.861,138.211,303.736Z" transform="translate(76.024 83.902)" fill="#ff634d"/>
      <path id="Path_565" data-name="Path 565" d="M280.39,381.49l11.832-2.362,2.362-5.148" transform="translate(103.158 102.914)" fill="none" stroke="#e66657" stroke-miterlimit="10" stroke-width="1.28"/>
      <path id="Path_566" data-name="Path 566" d="M291.808,383.38s-5.987,5.018-6.825,5.432-4.593,1.393-4.593,1.393" transform="translate(103.158 98.934)" fill="none" stroke="#e66657" stroke-miterlimit="10" stroke-width="1.28"/>
      <path id="Path_567" data-name="Path 567" d="M135.376,315.17s-1.677,5.845,8.348,9.175" transform="translate(76.922 86.602)" fill="none" stroke="#e66657" stroke-miterlimit="10" stroke-width="1.28"/>
      <path id="Path_568" data-name="Path 568" d="M342.212,356.452H253.18L264.3,298.57h89.043Z" transform="translate(98.238 89.281)" fill="#2e60be"/>
      <path id="Path_569" data-name="Path 569" d="M229.007,321.33a2.692,2.692,0,0,0,2.645,3.2h96.931a2.68,2.68,0,0,0,2.633-2.184l1.429-7.415H230.188Z" transform="translate(93.86 86.559)" fill="#26c6f8"/>
      <path id="Path_570" data-name="Path 570" d="M340.1,266.69H243.166a2.692,2.692,0,0,0-2.645,2.173L230,323.651H332.41l10.344-53.773a2.692,2.692,0,0,0-2.657-3.188Z" transform="translate(94.048 77.838)" fill="#cae5ff"/>
      <path id="Path_571" data-name="Path 571" d="M269.709,325.863c1.275-3.542,2.066-6.046,2.066-6.046s2.917-15.279-10.108-11.359a21.443,21.443,0,0,0-6.636,10.568c-.661,2.22-1.452,4.605-2.232,6.837Z" transform="translate(98.17 85.273)" fill="#387ab6"/>
      <path id="Path_572" data-name="Path 572" d="M295.821,326.71c-.236-7.545-.708-13.579-1.523-15.209-2.362-4.393-12.15-8.372-12.15-8.372l-13.367,2s-5.573,1.594-7.368,5.573c-.6,1.346-2.066,7.864-3.613,16.012Z" transform="translate(99.074 84.426)" fill="#dce4ff"/>
      <path id="Path_573" data-name="Path 573" d="M269.4,296.508a51.262,51.262,0,0,1-2.586,10.332s-.484,3.389,6.612,1.937,6.14-5.007,6.14-5.007V289.73Z" transform="translate(100.702 82.003)" fill="#ff8d68"/>
      <path id="Path_574" data-name="Path 574" d="M260.552,284.525s.083,13.355,3.908,19.79c2.621,2.7,11.536-1.547,15.291-7.286s3.684-14.382.72-19.188-12.764-3.365-15.622-1.7S260.386,282.341,260.552,284.525Z" transform="translate(99.569 79.261)" fill="#ff8d68"/>
      <path id="Path_575" data-name="Path 575" d="M275.887,289.7s2.527-3.885,4.2-1.57-4.145,7.085-4.593,5.243A6.412,6.412,0,0,1,275.887,289.7Z" transform="translate(102.253 81.581)" fill="#fba894"/>
      <path id="Path_576" data-name="Path 576" d="M260.832,284.677s-4.723-4.121.968-9.446c3.224-2.362,4.841-.649,8.266-1.287s9.529,0,11.808,3.542,1.452,11.808.815,12.6-2.586,1.287-2.586,2.739-.331,2.586-.815,2.586-.484-2.421-.484-4.192a27.986,27.986,0,0,0-1.181-7.593c-.815-2.421-4.522-2.255-5.975-1.936S269.227,285.68,260.832,284.677Z" transform="translate(99.289 79.11)" fill="#713336"/>
      <path id="Path_577" data-name="Path 577" d="M275.45,286.378l.272-.118h0Z" transform="translate(102.265 81.376)" fill="#505e83" opacity="0.53"/>
      <path id="Path_578" data-name="Path 578" d="M278.055,286.305c0,.26.874,7.994-2.2,10.155s-3.33-.6-5.845-1-4.593-.26-5.715,1.393-.8,2.362-1.736,1.937c-.2.531,1.181,3.779,3.33,4.652s7.167-1.795,9.446-3.79,3.649-3.259,4.05-4.983.2-5.054.661-7.38C280.31,285.526,278.7,286,278.055,286.305Zm-11.631,14.276c-3.058-.673-2.657-3.058.461-4.062,0,0,3.318-1.523,4.452.8C271.8,298.846,269.482,301.242,266.424,300.581Z" transform="translate(99.931 81.33)" fill="#713336"/>
      <path id="Path_579" data-name="Path 579" d="M279.68,300.77a16.26,16.26,0,0,1-10.273,5.479c-1.3-.5-2-2.893-2-2.893l-.992,1.5a11.312,11.312,0,0,0,0,4.18c.6.094,2.787-1.393,2.787-1.393s1.5,2.09,2.6,2.491,8.065-4.286,8.773-6.577A5.738,5.738,0,0,0,279.68,300.77Z" transform="translate(100.597 83.999)" fill="#fff"/>
      <path id="Path_580" data-name="Path 580" d="M293.742,326.71c-.342-7.427-.791-13.107-1.181-14.276-1.594-3.731-7.581-8.513-13.485-9.3,0,0-2.232,10.249-4.416,23.616Z" transform="translate(102.122 84.426)" fill="#387ab6"/>
      <path id="Path_581" data-name="Path 581" d="M262.7,326.354c3.129-13.3,5.55-21.254,5.55-21.254a14.04,14.04,0,0,0-7.179,3.79c-1.181,2.362-3.035,9.222-4.947,17.4Z" transform="translate(98.77 84.782)" fill="#387ab6"/>
      <path id="Path_582" data-name="Path 582" d="M292.066,325.773c.212-7.085-.177-13.685-1.346-15.209-3.79-3.188-7.77-2.987-9.765.59-1.086,1.972-2.539,8.809-3.625,14.618Z" transform="translate(102.605 85.363)" fill="#387ab6"/>
      <path id="Path_583" data-name="Path 583" d="M269.195,306.59c-1.122,4.605-2.066,9.257-2.9,13.922" transform="translate(100.609 85.051)" fill="none" stroke="#87b8eb" stroke-miterlimit="10" stroke-width="0.36"/>
      <ellipse id="Ellipse_76" data-name="Ellipse 76" cx="22.695" cy="17.7" rx="22.695" ry="17.7" transform="translate(402.532 343.548) rotate(-41.45)" fill="#4161c4"/>
      <path id="Path_584" data-name="Path 584" d="M342.924,283.471a7.5,7.5,0,0,1-6.849,5.479,4.145,4.145,0,0,1-4.121-5.479,7.5,7.5,0,0,1,6.849-5.491,4.145,4.145,0,0,1,4.121,5.491Z" transform="translate(112.44 79.878)" fill="#6787ff"/>
      <path id="Path_585" data-name="Path 585" d="M317.492,275.718a1.889,1.889,0,0,1-1.559-.72l-5.172-6.9a2.621,2.621,0,0,1,.862-3.483,2.432,2.432,0,0,1,3.483,0l3.873,5.148L332.807,258.7a2.432,2.432,0,0,1,3.483,0,2.621,2.621,0,0,1-.862,3.483l-16.059,12.835a3.105,3.105,0,0,1-1.877.7Z" transform="translate(108.588 76.261)" fill="#fff"/>
      <path id="Path_586" data-name="Path 586" d="M197.444,238.032h-6.553a2.255,2.255,0,0,1-2.232-2.987l1.606-6.589a4.074,4.074,0,0,1,3.719-2.976h6.565a2.244,2.244,0,0,1,2.232,2.976l-1.63,6.553a4.074,4.074,0,0,1-3.708,3.023Z" transform="translate(86.551 70.387)" fill="#bfd9ff"/>
      <path id="Path_587" data-name="Path 587" d="M193.366,254.3H186.8a2.243,2.243,0,0,1-2.232-2.976l1.629-6.553a4.074,4.074,0,0,1,3.731-2.987h6.553a2.255,2.255,0,0,1,2.232,2.987l-1.629,6.553a4.074,4.074,0,0,1-3.72,2.976Z" transform="translate(85.812 73.334)" fill="none" stroke="#a9a7e7" stroke-miterlimit="10" stroke-width="0.75"/>
      <path id="Path_588" data-name="Path 588" d="M211.055,254.3H204.5a2.255,2.255,0,0,1-2.243-2.976l1.641-6.553a4.062,4.062,0,0,1,3.719-2.987h6.553a2.255,2.255,0,0,1,2.232,2.987l-1.629,6.553a4.074,4.074,0,0,1-3.719,2.976Z" transform="translate(89.011 73.334)" fill="#26c6da"/>
      <path id="Path_589" data-name="Path 589" d="M228.714,254.3h-6.553a2.243,2.243,0,0,1-2.232-2.976l1.629-6.553a4.074,4.074,0,0,1,3.719-2.987h6.565a2.255,2.255,0,0,1,2.243,2.987l-1.641,6.553A4.062,4.062,0,0,1,228.714,254.3Z" transform="translate(92.205 73.334)" fill="#fff"/>
      <path id="Path_590" data-name="Path 590" d="M189.234,270.915h-6.553a2.244,2.244,0,0,1-2.232-2.976l1.63-6.553a4.074,4.074,0,0,1,3.731-2.976h6.553a2.244,2.244,0,0,1,2.232,2.976l-1.665,6.589a4.074,4.074,0,0,1-3.7,2.94Z" transform="translate(85.067 76.34)" fill="#26c6da"/>
      <path id="Path_591" data-name="Path 591" d="M184.805,288.737h-6.553a2.255,2.255,0,0,1-2.243-2.976l1.641-6.553a4.074,4.074,0,0,1,3.719-2.987h6.553a2.255,2.255,0,0,1,2.232,2.987l-1.629,6.553a4.074,4.074,0,0,1-3.72,2.976Z" transform="translate(84.265 79.56)" fill="#fff"/>
      <path id="Path_592" data-name="Path 592" d="M206.9,270.915h-6.542a2.243,2.243,0,0,1-2.243-2.976l1.629-6.553a4.074,4.074,0,0,1,3.731-2.976h6.553a2.243,2.243,0,0,1,2.232,2.976l-1.629,6.553A4.074,4.074,0,0,1,206.9,270.915Z" transform="translate(88.262 76.34)" fill="#edf4ff"/>
      <path id="Path_593" data-name="Path 593" d="M199.165,301.987h-6.553a2.255,2.255,0,0,1-2.243-2.976l1.641-6.565a4.062,4.062,0,0,1,3.719-2.976h6.553a2.244,2.244,0,0,1,2.232,2.976l-1.57,6.565A4.074,4.074,0,0,1,199.165,301.987Z" transform="translate(86.861 81.956)" fill="none" stroke="#a9a7e7" stroke-miterlimit="10" stroke-width="0.75"/>
      <path id="Path_594" data-name="Path 594" d="M365.284,279.2h-2.362a.815.815,0,0,1-.815-1.086l.6-2.362a1.488,1.488,0,0,1,1.358-1.1h2.362a.838.838,0,0,1,.827,1.1l-.6,2.362a1.5,1.5,0,0,1-1.37,1.086Z" transform="translate(117.923 79.277)" fill="#cae5ff"/>
      <path id="Path_595" data-name="Path 595" d="M363.793,285.178h-2.362a.827.827,0,0,1-.815-1.1l.6-2.362a1.464,1.464,0,0,1,1.358-1.1h2.362a.827.827,0,0,1,.827,1.1l-.6,2.362A1.511,1.511,0,0,1,363.793,285.178Z" transform="translate(117.654 80.356)" fill="#cae5ff"/>
      <path id="Path_596" data-name="Path 596" d="M370.284,285.178h-2.362a.838.838,0,0,1-.827-1.1l.6-2.362a1.5,1.5,0,0,1,1.37-1.1h2.362a.827.827,0,0,1,.815,1.1l-.6,2.362A1.488,1.488,0,0,1,370.284,285.178Z" transform="translate(118.826 80.356)" fill="#cae5ff"/>
      <path id="Path_597" data-name="Path 597" d="M376.763,285.178H374.4a.827.827,0,0,1-.815-1.1l.59-2.362a1.5,1.5,0,0,1,1.37-1.1h2.362a.838.838,0,0,1,.827,1.1l-.6,2.362A1.511,1.511,0,0,1,376.763,285.178Z" transform="translate(119.999 80.356)" fill="#cae5ff"/>
      <path id="Path_598" data-name="Path 598" d="M362.275,291.286h-2.362a.827.827,0,0,1-.827-1.086l.6-2.362a1.511,1.511,0,0,1,1.37-1.1h2.362a.827.827,0,0,1,.815,1.1l-.59,2.362a1.5,1.5,0,0,1-1.37,1.086Z" transform="translate(117.378 81.462)" fill="#cae5ff"/>
      <path id="Path_599" data-name="Path 599" d="M360.644,297.816h-2.362a.815.815,0,0,1-.815-1.086l.59-2.362a1.511,1.511,0,0,1,1.37-1.1h2.362a.838.838,0,0,1,.827,1.1l-.6,2.362A1.5,1.5,0,0,1,360.644,297.816Z" transform="translate(117.084 82.643)" fill="#cae5ff"/>
      <path id="Path_600" data-name="Path 600" d="M368.754,291.286h-2.362a.815.815,0,0,1-.815-1.086l.6-2.362a1.488,1.488,0,0,1,1.358-1.1H369.9a.838.838,0,0,1,.827,1.1l-.6,2.362A1.5,1.5,0,0,1,368.754,291.286Z" transform="translate(118.55 81.462)" fill="#cae5ff"/>
      <path id="Path_601" data-name="Path 601" d="M365.913,302.7h-2.362a.827.827,0,0,1-.815-1.1l.6-2.362a1.476,1.476,0,0,1,1.358-1.086h2.362a.827.827,0,0,1,.827,1.086l-.6,2.362A1.512,1.512,0,0,1,365.913,302.7Z" transform="translate(118.037 83.525)" fill="#cae5ff"/>
      <path id="Path_602" data-name="Path 602" d="M376.44,360.449H297.327a1.275,1.275,0,0,1-1.181-1.594l7.38-28.339a1.287,1.287,0,0,1,1.181-.956H383.82A1.263,1.263,0,0,1,385,331.154l-7.38,28.339a1.264,1.264,0,0,1-1.181.956Z" transform="translate(105.999 89.204)" fill="#bfd9ff" opacity="0.9"/>
      <line id="Line_78" data-name="Line 78" x2="27.524" transform="translate(414.177 424.798)" fill="none" stroke="#a9c2ff" stroke-linecap="round" stroke-linejoin="round" stroke-width="1.08"/>
      <line id="Line_79" data-name="Line 79" x2="27.524" transform="translate(412.064 437.503)" fill="none" stroke="#a9c2ff" stroke-linecap="round" stroke-linejoin="round" stroke-width="1.08"/>
      <line id="Line_80" data-name="Line 80" x2="27.524" transform="translate(423.636 432.709)" fill="none" stroke="#a9c2ff" stroke-linecap="round" stroke-linejoin="round" stroke-width="1.08"/>
      <line id="Line_81" data-name="Line 81" x2="8.266" transform="translate(413.469 429.037)" fill="none" stroke="#a9c2ff" stroke-linecap="round" stroke-linejoin="round" stroke-width="1.08"/>
      <line id="Line_82" data-name="Line 82" x2="8.254" transform="translate(412.347 432.709)" fill="none" stroke="#a9c2ff" stroke-linecap="round" stroke-linejoin="round" stroke-width="1.08"/>
      <line id="Line_83" data-name="Line 83" x2="9.812" transform="translate(446.082 424.798)" fill="none" stroke="#a9c2ff" stroke-linecap="round" stroke-linejoin="round" stroke-width="1.08"/>
      <path id="Path_603" data-name="Path 603" d="M339.683,350.9H325.017a.106.106,0,0,1-.106-.142l.661-2.515a.106.106,0,0,1,.106-.083h14.689a.118.118,0,0,1,.106.142l-.661,2.515a.118.118,0,0,1-.13.083Z" transform="translate(111.206 92.567)" fill="none" stroke="#84aee5" stroke-miterlimit="10" stroke-width="0.36"/>
      <path id="Path_604" data-name="Path 604" d="M324.261,350.9H309.607a.106.106,0,0,1-.106-.142l.649-2.515a.118.118,0,0,1,.118-.083H324.91a.118.118,0,0,1,.118.142l-.661,2.515a.118.118,0,0,1-.106.083Z" transform="translate(108.42 92.567)" fill="none" stroke="#84aee5" stroke-miterlimit="10" stroke-width="0.36"/>
      <path id="Path_605" data-name="Path 605" d="M362.262,349.777c-.756-1-3.8-1.724-4.641-2.728a3.105,3.105,0,0,1-.331-2.267,2.809,2.809,0,0,0,.7-.567,11.806,11.806,0,0,0,.827-1.452.5.5,0,0,0,.354.153c.39,0,1.913-2.09,1.523-2.574-.224-.272-.59,0-.85.224.4-.921.685-1.63.685-1.63h0a1.966,1.966,0,0,1,.094-.354,3.318,3.318,0,0,0-3.294-4.393,6,6,0,0,0-5.479,4.393l-.071.354h0s-.071.708-.13,1.63c-.142-.26-.39-.5-.744-.224-.638.484-.142,2.562.248,2.574a.851.851,0,0,0,.425-.154,8.36,8.36,0,0,0,.094,1.452,1.712,1.712,0,0,0,.567.7,5.043,5.043,0,0,1-1.417,2.137c-1.334,1-4.723,1.724-6,2.728a11.582,11.582,0,0,0-2.362,4.05h20.073C362.628,353.308,362.935,350.674,362.262,349.777Z" transform="translate(114.379 90.04)" fill="#387ab6"/>
      <path id="Path_606" data-name="Path 606" d="M284.478,350.31H219.535c-5.7,0-9.163-4.629-7.746-10.32h0a14.087,14.087,0,0,1,12.894-10.32h64.943c5.7,0,9.175,4.617,7.746,10.32h0C295.932,345.682,290.169,350.31,284.478,350.31Z" transform="translate(90.698 89.224)" fill="#fff"/>
      <path id="Path_607" data-name="Path 607" d="M224.69,341.881l-2.787,1.287c-.26.13-.484-.071-.366-.331l1.181-2.739a.248.248,0,0,0,0-.272l-1.5-1.948c-.142-.177,0-.5.307-.531l2.858-.4a.46.46,0,0,0,.272-.177l1.854-2.491c.177-.236.508-.236.567,0l.614,2.491a.236.236,0,0,0,.189.177l2.657.4c.248,0,.272.354,0,.531l-2.48,2.007a.425.425,0,0,0-.165.272l-.213,2.739a.39.39,0,0,1-.543.331L225,341.94a.319.319,0,0,0-.307-.059Z" transform="translate(92.45 90.025)" fill="#ffa402"/>
      <path id="Path_608" data-name="Path 608" d="M236.3,341.881l-2.787,1.287c-.26.13-.484-.071-.378-.331l1.181-2.739a.248.248,0,0,0,0-.272l-1.5-1.948c-.142-.177,0-.5.307-.531l2.846-.4a.484.484,0,0,0,.283-.177l1.854-2.491c.177-.236.508-.236.567,0l.6,2.491a.236.236,0,0,0,.2.177l2.645.4c.26,0,.283.354,0,.531l-2.48,1.948a.366.366,0,0,0-.154.272l-.213,2.739a.39.39,0,0,1-.543.331l-2.149-1.287a.319.319,0,0,0-.283,0Z" transform="translate(94.547 90.025)" fill="#ffa402"/>
      <path id="Path_609" data-name="Path 609" d="M247.915,341.881l-2.8,1.287c-.26.13-.484-.071-.378-.331l1.181-2.739a.272.272,0,0,0,0-.272l-1.511-1.948c-.142-.177,0-.5.307-.531l2.857-.4a.484.484,0,0,0,.283-.177l1.854-2.491c.165-.236.508-.236.555,0l.614,2.491a.236.236,0,0,0,.2.177l2.645.4c.248,0,.272.354,0,.531l-2.468,2.007a.425.425,0,0,0-.165.272l-.213,2.739a.38.38,0,0,1-.531.331L248.2,341.94A.3.3,0,0,0,247.915,341.881Z" transform="translate(96.643 90.025)" fill="#ffa402"/>
      <path id="Path_610" data-name="Path 610" d="M259.551,341.881l-2.775,1.287c-.272.13-.484-.071-.378-.331l1.181-2.739a.272.272,0,0,0,0-.272l-1.57-1.948c-.142-.177,0-.5.307-.531l2.858-.4a.425.425,0,0,0,.272-.177l1.854-2.491c.177-.236.508-.236.567,0l.614,2.491a.236.236,0,0,0,.189.177l2.657.4c.248,0,.272.354,0,.531l-2.456,2.007a.425.425,0,0,0-.165.272l-.213,2.739a.39.39,0,0,1-.543.331l-2.137-1.287a.319.319,0,0,0-.26-.059Z" transform="translate(98.74 90.025)" fill="#ffa402"/>
      <path id="Path_611" data-name="Path 611" d="M271.122,341.881l-2.787,1.287c-.26.13-.484-.071-.378-.331l1.181-2.739a.248.248,0,0,0,0-.272l-1.5-1.948c-.142-.177,0-.5.307-.531l2.846-.4a.484.484,0,0,0,.283-.177l1.854-2.491c.177-.236.508-.236.567,0l.6,2.491a.26.26,0,0,0,.2.177l2.657.4c.248,0,.272.354,0,.531l-2.48,1.948a.4.4,0,0,0-.154.272l-.213,2.739a.39.39,0,0,1-.543.331l-2.137-1.287A.319.319,0,0,0,271.122,341.881Z" transform="translate(100.842 90.025)" fill="#c2d4d9"/>
      <ellipse id="Ellipse_77" data-name="Ellipse 77" cx="5.361" cy="7.486" rx="5.361" ry="7.486" transform="translate(210.184 384.745)" fill="#202f7c"/>
      <path id="Path_612" data-name="Path 612" d="M138.8,307.64s14.961,16.59,14.961,19.188-4.877,2.279-4.877,2.279" transform="translate(77.56 85.241)" fill="none" stroke="#202f7c" stroke-miterlimit="10" stroke-width="1.1"/>
      <path id="Path_613" data-name="Path 613" d="M148.9,326.118a1.948,1.948,0,1,1-1.948-1.948,1.948,1.948,0,0,1,1.948,1.948Z" transform="translate(78.681 88.23)" fill="#202f7c"/>
      <path id="Path_614" data-name="Path 614" d="M116.27,490.25c5.314,9.163,21.986,15.858,41.741,15.858s36.416-6.707,41.776-15.858Z" transform="translate(73.486 118.255)" fill="#4f57a0"/>
      <path id="Path_615" data-name="Path 615" d="M214.181,445.61,204.156,491.8H198.04l5.562-45.071Z" transform="translate(88.27 115.864)" fill="#a9a7e7"/>
      <path id="Path_616" data-name="Path 616" d="M151.32,439.49h80.766a8.9,8.9,0,0,1,8.9,8.9v2.232H151.32V439.49Z" transform="translate(79.823 114.758)" fill="#7a82cc"/>
      <path id="Path_617" data-name="Path 617" d="M92.514,502.511l-21.7-104.37a6.683,6.683,0,0,1,6.542-8.041h71.816a8.348,8.348,0,0,1,8.171,6.648l21.986,105.763" transform="translate(65.243 100.149)" fill="#efe984"/>
      <path id="Path_618" data-name="Path 618" d="M236.653,496.754H100.283a10.355,10.355,0,0,1-9.942-7.462L89.16,485.3H236.641Z" transform="translate(68.585 117.36)" fill="#efe984"/>
      <rect id="Rectangle_477" data-name="Rectangle 477" width="10.851" height="96.825" transform="translate(227.317 619.357)" fill="#e2e7ff"/>
      <path id="Path_619" data-name="Path 619" d="M158.931,512.566l-10.851,8.773V494.63h10.851Z" transform="translate(79.237 124.727)" fill="#4f57a0"/>
      <path id="Path_620" data-name="Path 620" d="M164.585,564.41h-8.927L114.98,580.563h90.283Z" transform="translate(73.253 137.342)" fill="#e2e7ff"/>
      <line id="Line_84" data-name="Line 84" x2="64.554" transform="translate(145.619 497.393)" fill="none" stroke="#b2b2ad" stroke-miterlimit="10" stroke-width="1"/>
      <line id="Line_85" data-name="Line 85" x2="11.017" y2="55.497" transform="translate(216.867 504.867)" fill="none" stroke="#b2b2ad" stroke-miterlimit="10" stroke-width="1"/>
      <line id="Line_86" data-name="Line 86" x2="2.362" y2="16.141" transform="translate(229.856 570.2)" fill="none" stroke="#b2b2ad" stroke-miterlimit="10" stroke-width="1"/>
      <path id="Path_621" data-name="Path 621" d="M413.693,318.867H361.738a4.369,4.369,0,0,1-4.31-5.042l.4-2.491a4.357,4.357,0,0,1,4.31-3.684h51.955a4.357,4.357,0,0,1,4.31,5.042l-.39,2.491a4.369,4.369,0,0,1-4.322,3.684Z" transform="translate(117.076 85.243)" fill="#cae5ff"/>
      <line id="Line_87" data-name="Line 87" x2="44.87" transform="translate(480.963 398.596)" fill="none" stroke="#fff" stroke-miterlimit="10" stroke-width="2"/>
      <path id="Path_622" data-name="Path 622" d="M249.207,262.48H235.037c-6.73,0-13.355,5.467-14.8,12.2h0c-1.429,6.742,2.869,12.209,9.612,12.209h3.07a11.336,11.336,0,0,0,11.56,7.085,15.622,15.622,0,0,1-1.854-7.085h1.393c6.742,0,13.367-5.467,14.8-12.209h0C260.247,267.947,255.949,262.48,249.207,262.48Z" transform="translate(92.234 77.077)" fill="#ff9b50"/>
      <line id="Line_88" data-name="Line 88" x2="13.378" transform="translate(321.249 349.393)" fill="none" stroke="#fff" stroke-miterlimit="10" stroke-width="2"/>
      <line id="Line_89" data-name="Line 89" x2="21.75" transform="translate(320.116 354.706)" fill="none" stroke="#fff" stroke-miterlimit="10" stroke-width="2"/>
      <path id="settings" d="M310.187,32.728l4.691,3.651a1.09,1.09,0,0,1,.314,1.454L310.7,45.562a.892.892,0,0,1-1.189.5l-.165-.083-5.517-2.2a20.963,20.963,0,0,1-3.684,2.2l-.826,5.847a1.008,1.008,0,0,1-1.057.942h-8.969a1.057,1.057,0,0,1-1.14-.925l-.842-5.847a17.427,17.427,0,0,1-3.75-2.2l-5.534,2.2a1.024,1.024,0,0,1-1.355-.413l-4.609-7.747a1.09,1.09,0,0,1,.3-1.454l4.708-3.651c0-.842-.116-1.569-.116-2.2a15.081,15.081,0,0,1,.116-2.18l-4.708-3.667a1.09,1.09,0,0,1-.3-1.454l4.476-7.714a.942.942,0,0,1,1.239-.479h.116l5.534,2.2a21.836,21.836,0,0,1,3.75-2.2l.842-5.831a1.057,1.057,0,0,1,1.14-.942h8.87a1.008,1.008,0,0,1,1.14.842v.1L300,15.037a17.542,17.542,0,0,1,3.766,2.2l5.517-2.2a1.008,1.008,0,0,1,1.355.429l4.493,7.714a1.09,1.09,0,0,1-.314,1.454L310.121,28.3a12.028,12.028,0,0,1,.2,2.18,12.21,12.21,0,0,1-.132,2.246ZM293.669,38.36a7.846,7.846,0,0,0,7.764-7.83,7.516,7.516,0,0,0-2.3-5.534,7.7,7.7,0,0,0-10.869-.083l-.083.083a7.813,7.813,0,0,0,0,11.067,7.532,7.532,0,0,0,5.468,2.3Z" transform="translate(117.818 -5.89)" fill="#aec3ff"/>
      <path id="settings-2" data-name="settings" d="M240.192,72.228l4.741,3.651a1.09,1.09,0,0,1,.314,1.454l-4.493,7.731a.892.892,0,0,1-1.173.5H239.4l-5.517-2.2a20.962,20.962,0,0,1-3.816,2.114l-.826,5.847a1.008,1.008,0,0,1-1.057.942h-8.969a1.09,1.09,0,0,1-1.14-.942l-.842-5.847a16.766,16.766,0,0,1-3.684-2.2l-5.534,2.2a1.024,1.024,0,0,1-1.355-.413l-4.476-7.731a1.074,1.074,0,0,1,.314-1.454l4.691-3.651c0-.842-.116-1.652-.116-2.2a15.666,15.666,0,0,1,.116-2.18L202.5,64.2a1.09,1.09,0,0,1-.314-1.47l4.476-7.714a.942.942,0,0,1,1.239-.479h.116l5.534,2.246a20.746,20.746,0,0,1,3.75-2.18l.842-5.847a1.057,1.057,0,0,1,1.14-.942h8.87a1.008,1.008,0,0,1,1.14.842s0,0,0,.1l.826,5.847a17.474,17.474,0,0,1,3.766,2.18L239.4,54.6a1.008,1.008,0,0,1,1.354.413l4.493,7.714a1.107,1.107,0,0,1-.314,1.47l-4.691,3.651a12.028,12.028,0,0,1,.2,2.18,12.2,12.2,0,0,1-.248,2.2Zm-16.518,5.633a7.813,7.813,0,0,0,5.468-13.347,7.664,7.664,0,0,0-10.852-.1l-.1.1a7.83,7.83,0,0,0,5.468,13.347Z" transform="translate(59.226 25.421)" fill="#cae5ff"/>
      <path id="settings-3" data-name="settings" d="M309.7,69.092l11.976,9.316a2.825,2.825,0,0,1,.793,3.733l-11.464,19.69a2.312,2.312,0,0,1-3.023,1.3l-.43-.231-14.107-5.6a54.6,54.6,0,0,1-9.581,5.6l-2.131,14.866a2.577,2.577,0,0,1-2.693,2.428H256.169a2.742,2.742,0,0,1-2.973-2.412l-2.131-14.866a43.822,43.822,0,0,1-9.432-5.616l-14.189,5.616a2.593,2.593,0,0,1-3.469-1.074l-11.431-19.69a2.825,2.825,0,0,1,.793-3.733l11.976-9.316c-.182-2.131-.264-4-.264-5.583a43.749,43.749,0,0,1,.264-5.6l-11.976-9.316a2.808,2.808,0,0,1-.793-3.717l11.431-19.706a2.4,2.4,0,0,1,3.171-1.206,1.256,1.256,0,0,1,.3.149L241.633,29.7a53.914,53.914,0,0,1,9.581-5.583l2.131-14.866a2.742,2.742,0,0,1,2.924-2.4H278.9A2.56,2.56,0,0,1,281.806,9v.248l2.131,14.866a44.6,44.6,0,0,1,9.581,5.583l14.107-5.583a2.577,2.577,0,0,1,3.452,1.057l11.447,19.706a2.808,2.808,0,0,1-.793,3.717l-11.976,9.316a35.325,35.325,0,0,1,.529,5.6,35.269,35.269,0,0,1-.578,5.583ZM267.5,83.463a19.987,19.987,0,0,0,19.822-19.954A19.128,19.128,0,0,0,281.459,49.4a19.574,19.574,0,0,0-27.718-.231l-.231.231a19.938,19.938,0,0,0,0,28.213A19.062,19.062,0,0,0,267.5,83.463Z" transform="translate(78.871 -6.823)" fill="#295071"/>
      <path id="settings-4" data-name="settings" d="M304.782,68.72l10.476,8.152a2.472,2.472,0,0,1,.7,3.265L305.944,97.382a2.047,2.047,0,0,1-2.656,1.125,1.438,1.438,0,0,1-.369-.2L290.6,93.417a45.923,45.923,0,0,1-8.392,4.888l-1.844,13.058a2.213,2.213,0,0,1-2.342,2.1H257.952a2.361,2.361,0,0,1-2.564-2.084l-1.844-13.058a38.529,38.529,0,0,1-8.392-4.888l-12.358,4.888a2.269,2.269,0,0,1-3.025-.922L219.735,80.174a2.471,2.471,0,0,1,.7-3.265l10.476-8.152c-.148-1.844-.221-3.486-.221-4.888a39.683,39.683,0,0,1,.221-4.888l-10.4-8.208a2.453,2.453,0,0,1-.7-3.246l9.923-17.153a2.121,2.121,0,0,1,2.785-1.07l.24.129,12.358,4.906a47.107,47.107,0,0,1,8.392-4.906l1.844-13.04a2.4,2.4,0,0,1,2.564-2.1h19.772a2.25,2.25,0,0,1,2.545,1.844.906.906,0,0,1,0,.221l1.844,13.04a37.883,37.883,0,0,1,8.521,4.851l12.358-4.906a2.269,2.269,0,0,1,3.025.941L316,47.528a2.453,2.453,0,0,1-.7,3.246l-10.476,8.171a30.9,30.9,0,0,1,.461,4.888A30.892,30.892,0,0,1,304.782,68.72ZM267.893,81.3a17.467,17.467,0,0,0,17.337-17.467,16.858,16.858,0,0,0-5.109-12.358,17.153,17.153,0,0,0-24.273-.184l-.2.184a17.485,17.485,0,0,0,0,24.7,16.6,16.6,0,0,0,12.21,5.127Z" transform="translate(78.337 -6.555)" fill="#e2e7ff" opacity="0.38"/>
      <circle id="Ellipse_78" data-name="Ellipse 78" cx="31.418" cy="31.418" r="31.418" transform="translate(314.953 27.085)" fill="#ffb776"/>
      <line id="Line_90" data-name="Line 90" x2="10.109" y2="12.091" transform="translate(333.206 56.752)" fill="none" stroke="#e8eaed" stroke-linecap="round" stroke-miterlimit="10" stroke-width="3"/>
      <line id="Line_91" data-name="Line 91" y1="20.912" x2="18.765" transform="translate(343.415 48.047)" fill="none" stroke="#e8eaed" stroke-linecap="round" stroke-miterlimit="10" stroke-width="3"/>
      <rect id="Rectangle_478" data-name="Rectangle 478" width="88.257" height="42.551" rx="6.16" transform="translate(373.544 68.645)" fill="#dfebf7"/>
      <line id="Line_92" data-name="Line 92" x2="30.542" transform="translate(386.346 80.786)" fill="none" stroke="#b7b7b7" stroke-linecap="round" stroke-miterlimit="10" stroke-width="3"/>
      <line id="Line_93" data-name="Line 93" x2="30.542" transform="translate(386.346 90.168)" fill="none" stroke="#b7b7b7" stroke-linecap="round" stroke-miterlimit="10" stroke-width="3"/>
      <line id="Line_94" data-name="Line 94" x2="47.077" transform="translate(386.346 99.072)" fill="none" stroke="#b7b7b7" stroke-linecap="round" stroke-miterlimit="10" stroke-width="3"/>
      <line id="Line_95" data-name="Line 95" y2="9.811" transform="translate(274.219 22.179)" fill="none" stroke="#e06612" stroke-linecap="round" stroke-miterlimit="10" stroke-width="2"/>
      <line id="Line_96" data-name="Line 96" x2="9.811" transform="translate(269.314 27.085)" fill="none" stroke="#e06612" stroke-linecap="round" stroke-miterlimit="10" stroke-width="2"/>
      <line id="Line_99" data-name="Line 99" y2="5.447" transform="translate(310.739 134.583)" fill="none" stroke="#e06612" stroke-linecap="round" stroke-miterlimit="10" stroke-width="1"/>
      <line id="Line_100" data-name="Line 100" x2="5.447" transform="translate(308.025 137.298)" fill="none" stroke="#e06612" stroke-linecap="round" stroke-miterlimit="10" stroke-width="1"/>
      <line id="Line_101" data-name="Line 101" y2="3.507" transform="translate(428.453 35.893)" fill="none" stroke="#e06612" stroke-linecap="round" stroke-miterlimit="10" stroke-width="1"/>
      <line id="Line_102" data-name="Line 102" x2="3.507" transform="translate(426.706 37.64)" fill="none" stroke="#e06612" stroke-linecap="round" stroke-miterlimit="10" stroke-width="1"/>
      <ellipse id="Ellipse_79" data-name="Ellipse 79" cx="2.924" cy="2.924" rx="2.924" ry="2.924" transform="translate(226.366 82.091)" fill="none" stroke="#e06612" stroke-linecap="round" stroke-miterlimit="10" stroke-width="1"/>
      <ellipse id="Ellipse_80" data-name="Ellipse 80" cx="2.924" cy="2.924" rx="2.924" ry="2.924" transform="translate(481.904 38.103)" fill="none" stroke="#e06612" stroke-linecap="round" stroke-miterlimit="10" stroke-width="1"/>
      <ellipse id="Ellipse_81" data-name="Ellipse 81" cx="2.494" cy="2.494" rx="2.494" ry="2.494" transform="translate(433.159 50.591)" fill="#e06612"/>
      <ellipse id="Ellipse_82" data-name="Ellipse 82" cx="1.239" cy="1.239" rx="1.239" ry="1.239" transform="translate(373.544 116.449)" fill="#e06612"/>
      <circle id="Ellipse_83" data-name="Ellipse 83" cx="2.184" cy="2.184" r="2.184" transform="translate(395.556 134.146)" fill="#e06612"/>
      <line id="Line_103" data-name="Line 103" y2="118.988" transform="translate(305.509 153.629)" fill="none" stroke="#3ebab3" stroke-linecap="round" stroke-miterlimit="10" stroke-width="1" stroke-dasharray="5"/>
      <line id="Line_104" data-name="Line 104" y2="118.988" transform="translate(334.71 153.629)" fill="none" stroke="#3ebab3" stroke-linecap="round" stroke-miterlimit="10" stroke-width="1" stroke-dasharray="5"/>
      <line id="Line_105" data-name="Line 105" y2="118.988" transform="translate(364.254 153.629)" fill="none" stroke="#3ebab3" stroke-linecap="round" stroke-miterlimit="10" stroke-width="1" stroke-dasharray="5"/>
      <line id="Line_106" data-name="Line 106" y2="118.988" transform="translate(392.687 153.629)" fill="none" stroke="#3ebab3" stroke-linecap="round" stroke-miterlimit="10" stroke-width="1" stroke-dasharray="5"/>
      <line id="Line_107" data-name="Line 107" y1="3.401" x2="3.802" transform="translate(301.625 150.819)" fill="none" stroke="#3ebab3" stroke-linecap="round" stroke-miterlimit="10" stroke-width="1"/>
      <line id="Line_108" data-name="Line 108" x1="3.814" y1="3.401" transform="translate(305.592 150.819)" fill="none" stroke="#3ebab3" stroke-linecap="round" stroke-miterlimit="10" stroke-width="1"/>
      <line id="Line_109" data-name="Line 109" y1="3.412" x2="3.802" transform="translate(301.625 153.039)" fill="none" stroke="#3ebab3" stroke-linecap="round" stroke-miterlimit="10" stroke-width="1"/>
      <line id="Line_110" data-name="Line 110" x1="3.814" y1="3.412" transform="translate(305.592 153.039)" fill="none" stroke="#3ebab3" stroke-linecap="round" stroke-miterlimit="10" stroke-width="1"/>
      <line id="Line_111" data-name="Line 111" y1="3.401" x2="3.814" transform="translate(330.814 197.992)" fill="none" stroke="#3ebab3" stroke-linecap="round" stroke-miterlimit="10" stroke-width="1"/>
      <line id="Line_112" data-name="Line 112" x1="3.814" y1="3.401" transform="translate(334.793 197.992)" fill="none" stroke="#3ebab3" stroke-linecap="round" stroke-miterlimit="10" stroke-width="1"/>
      <line id="Line_113" data-name="Line 113" y1="3.401" x2="3.814" transform="translate(330.814 200.212)" fill="none" stroke="#3ebab3" stroke-linecap="round" stroke-miterlimit="10" stroke-width="1"/>
      <line id="Line_114" data-name="Line 114" x1="3.814" y1="3.401" transform="translate(334.793 200.212)" fill="none" stroke="#3ebab3" stroke-linecap="round" stroke-miterlimit="10" stroke-width="1"/>
      <line id="Line_115" data-name="Line 115" x2="3.802" y2="3.401" transform="translate(360.369 230.64)" fill="none" stroke="#3ebab3" stroke-linecap="round" stroke-miterlimit="10" stroke-width="1"/>
      <line id="Line_116" data-name="Line 116" x1="3.814" y2="3.401" transform="translate(364.336 230.64)" fill="none" stroke="#3ebab3" stroke-linecap="round" stroke-miterlimit="10" stroke-width="1"/>
      <line id="Line_117" data-name="Line 117" x2="3.802" y2="3.412" transform="translate(360.369 228.409)" fill="none" stroke="#3ebab3" stroke-linecap="round" stroke-miterlimit="10" stroke-width="1"/>
      <line id="Line_118" data-name="Line 118" x1="3.814" y2="3.412" transform="translate(364.336 228.409)" fill="none" stroke="#3ebab3" stroke-linecap="round" stroke-miterlimit="10" stroke-width="1"/>
      <line id="Line_119" data-name="Line 119" y1="3.412" x2="3.814" transform="translate(388.79 179.831)" fill="none" stroke="#3ebab3" stroke-linecap="round" stroke-miterlimit="10" stroke-width="1"/>
      <line id="Line_120" data-name="Line 120" x1="3.802" y1="3.412" transform="translate(392.77 179.831)" fill="none" stroke="#3ebab3" stroke-linecap="round" stroke-miterlimit="10" stroke-width="1"/>
      <line id="Line_121" data-name="Line 121" y1="3.401" x2="3.814" transform="translate(388.79 182.063)" fill="none" stroke="#3ebab3" stroke-linecap="round" stroke-miterlimit="10" stroke-width="1"/>
      <line id="Line_122" data-name="Line 122" x1="3.802" y1="3.401" transform="translate(392.77 182.063)" fill="none" stroke="#3ebab3" stroke-linecap="round" stroke-miterlimit="10" stroke-width="1"/>
    </g>
  </g>
</svg>
