<svg id="Layer_1" data-name="Layer 1" xmlns="http://www.w3.org/2000/svg" viewBox="0 0 1669.84 311.86"><defs><style>.cls-1{fill:#231f20;}.cls-2{fill:none;stroke:#231f20;stroke-linecap:round;stroke-miterlimit:10;stroke-width:8px;}</style></defs><path class="cls-1" d="M132.9,175.28c-1.26,15.06-2.73,30-4.41,45s-3.57,30-6.07,44.93c-1.28,7.49-2.65,14.95-4.71,22.48-.53,1.89-1.11,3.78-1.84,5.71a29.44,29.44,0,0,1-1.29,2.95,13.84,13.84,0,0,1-2.17,3.27,9.73,9.73,0,0,1-1,.93l-.55.42c-.33.24-.66.5-1,.77-.66.53-1.33,1.12-2,1.72-1.37,1.21-2.79,2.54-4.43,3.84a22,22,0,0,1-5.83,3.47,15.14,15.14,0,0,1-7.39.93,21,21,0,0,1-6.6-2.07,37.63,37.63,0,0,1-5.36-3.34,72.26,72.26,0,0,1-8.88-7.93c-2.7-2.8-5.24-5.69-7.71-8.63l-.11-.13-.11-.15c-3.39-4.95-6.74-9.93-10-15s-6.36-10.27-9.21-15.7a88.19,88.19,0,0,1-3.94-8.5,42.58,42.58,0,0,1-1.54-4.67,21.1,21.1,0,0,1-.75-5.45,11.13,11.13,0,0,1,.52-3.32,8.56,8.56,0,0,1,2.05-3.43,8.86,8.86,0,0,1,3.27-2.08A12.49,12.49,0,0,1,45,230.6a23.05,23.05,0,0,1,5.38.18,44.11,44.11,0,0,1,4.79,1,91.57,91.57,0,0,1,8.91,2.78c2.87,1,5.72,2.15,8.56,3.41a92.57,92.57,0,0,1,8.33,4.18c1.42.82,2.55,1.47,3.78,2.14l1.87.94,1.92.88a101.13,101.13,0,0,0,16.33,5.4c5.63,1.41,11.38,2.5,17.18,3.35a296.42,296.42,0,0,0,35.16,2.91c11.79.31,23.62.07,35.4-.67s23.55-2,35.21-3.76A286.46,286.46,0,0,0,262.28,246c5.63-1.6,11.2-3.4,16.6-5.53a105.52,105.52,0,0,0,15.5-7.48,45.66,45.66,0,0,0,12.56-10.47l.6-.77.64-.9,1.27-1.8c.85-1.19,1.65-2.41,2.48-3.62s1.61-2.44,2.4-3.68,1.58-2.46,2.33-3.72A175.24,175.24,0,0,0,332,176.61,141.47,141.47,0,0,0,336.9,160a113.56,113.56,0,0,0,2.35-17.07,93.85,93.85,0,0,0-.67-17.1l-.67-4.23c-.26-1.4-.62-2.77-.92-4.17-.17-.69-.31-1.39-.49-2.07l-.62-2c-.44-1.35-.78-2.74-1.29-4.07l-1.53-4-.38-1-.46-1-.9-1.94a81.67,81.67,0,0,0-4-7.56,21.28,21.28,0,0,0-1.15-1.81L325,90.16l-1.21-1.77-.6-.89-.67-.84C320.69,84.42,319,82.09,317,80a149.25,149.25,0,0,0-26-22.77,138.71,138.71,0,0,0-30.58-16.17,190.92,190.92,0,0,0-33.59-9.36A243.5,243.5,0,0,0,192,28a284,284,0,0,0-69.88,6.37,259.72,259.72,0,0,0-33.7,9.74A190.46,190.46,0,0,0,56.9,58.85a132,132,0,0,0-14.22,9.71,90.69,90.69,0,0,0-12.35,11.6,68,68,0,0,0-5.1,6.57c-.39.57-.74,1.16-1.12,1.73s-.74,1.16-1.06,1.76l-1,1.78-.95,1.92a104.32,104.32,0,0,0-6.49,15.78,89.78,89.78,0,0,0-3.68,16.54,80.22,80.22,0,0,0-.49,16.82,78.8,78.8,0,0,0,9.34,32,82.36,82.36,0,0,0,21.67,25.39,90.35,90.35,0,0,0,30,15.05c10.85,3,22.52,4.24,34.17,4.93s23.48.58,35.26.16a625.71,625.71,0,0,0,70.54-6.83c11.68-1.79,23.32-3.89,34.84-6.39,5.74-1.28,11.49-2.6,17.15-4.12,2.84-.72,5.64-1.56,8.46-2.35s5.59-1.68,8.32-2.64A125.82,125.82,0,0,0,296,191.88L312,183.82c10.57-5.41,21.06-10.93,31.37-16.72s20.43-11.83,30.14-18.35c4.82-3.31,9.6-6.67,14.11-10.28a147,147,0,0,0,12.9-11.33,96.21,96.21,0,0,0,18.6-27.91,96,96,0,0,0,5.54-15.93A75.8,75.8,0,0,0,427,66.86c.37-11-2.31-21.78-8.5-30.31-.35-.56-.81-1-1.2-1.56s-.81-1.05-1.25-1.53L414.67,32,414,31.3l-.73-.67c-1-.9-1.94-1.83-3-2.64l-1.58-1.27L407,25.54a74.46,74.46,0,0,0-14.61-7.83,86.43,86.43,0,0,0-32.7-6.41c-11.05.08-22.06,2.68-30.77,8.63A40.73,40.73,0,0,0,317.9,31a48.59,48.59,0,0,0-6.5,14.58A79.7,79.7,0,0,0,309,62a104.87,104.87,0,0,0,.91,16.86,133.19,133.19,0,0,0,3.55,16.73c1.6,5.52,3.42,11,5.56,16.37a259.81,259.81,0,0,0,15.2,31.45c5.75,10.2,12,20.16,18.75,29.88,3.35,4.86,6.81,9.65,10.34,14.42,1.77,2.41,3.55,4.75,5.35,7.3.42.6.76,1.08,1.07,1.44.12.14.31.31.2.23a3,3,0,0,0-.64-.25,3.15,3.15,0,0,0-2.37.45,2.5,2.5,0,0,0-1,1.15c-.06.15-.06.21-.05.17a2.34,2.34,0,0,0,.07-.53,16.26,16.26,0,0,0,0-1.84c-.16-2.7-.6-5.64-1-8.54s-1-5.84-1.37-8.83c-.18-1.5-.32-3-.45-4.54l-.18-2.35c0-.81-.1-1.58-.07-2.58a7.64,7.64,0,0,1,.08-.86,3.41,3.41,0,0,1,.59-1.57c.52-1.22,3.14-1.46,3.37-1a7.13,7.13,0,0,1,.9.43,25.07,25.07,0,0,1,2.09,1.41c1.26.93,2.44,1.86,3.62,2.81,9.34,7.56,18.34,15.32,27.52,22.91,4.58,3.79,9.18,7.56,13.83,11.24s9.34,7.31,14.14,10.61a49,49,0,0,0,7.18,4.27c1.9.84,4.58.87,7.33.6a116.84,116.84,0,0,0,17-3.58c5.75-1.5,11.5-3.17,17.62-4.29a34.85,34.85,0,0,1,9.85-.66,13.1,13.1,0,0,1,2.89.63c.5.18,1.12.44,1.24.5s.52.2.81.3a27.19,27.19,0,0,0,3.9.94,147.22,147.22,0,0,0,17.34,1.83c5.88.35,11.8.54,17.73.65,3,.06,5.93.09,8.89.11h7.79a2.94,2.94,0,0,0-1.47.47,2.69,2.69,0,0,0-1.05,1.22c-.19.5-.11.47-.13.37l0-.24,0-.34a16.31,16.31,0,0,0-.43-1.7,35.32,35.32,0,0,0-1.43-3.78,75.13,75.13,0,0,0-3.88-7.57A111.92,111.92,0,0,0,518.38,178c-8.53-7.6-18.4-13.72-29.12-16.78-1.34-.42-2.69-.65-4-1-.66-.18-1.34-.23-2-.36s-1.34-.24-2-.3a36.63,36.63,0,0,0-7.9,0c-5.08.64-9.78,2.66-12.83,6.25A17.88,17.88,0,0,0,456.3,179a22.67,22.67,0,0,0,5.84,13.28,26,26,0,0,0,5.81,4.82c.56.32,1.07.71,1.66,1l1.73.87,4.09,1.92c5.49,2.61,10.78,5.39,16,7.82a83.43,83.43,0,0,0,7.8,3.25,33.54,33.54,0,0,0,7.49,1.85c4.81.5,8.26-.79,11.24-4.4a31.08,31.08,0,0,0,3.86-6.37,62.24,62.24,0,0,0,2.79-7.68,133.4,133.4,0,0,0,3.6-16.71l.47-3,2.6-1.21.05,0,1.49-.64c.48-.18.94-.32,1.41-.47a27.34,27.34,0,0,1,2.76-.71c.91-.19,1.81-.28,2.72-.42s1.79-.12,2.68-.18a26.21,26.21,0,0,1,2.66,0,22.42,22.42,0,0,1,2.61.18l2.58.32c.85.15,1.68.34,2.51.51A60.09,60.09,0,0,1,571,180.68l2.08,1.26c.68.42,1.31.91,2,1.37,1.3.93,2.63,1.83,3.9,2.8l3.68,3c.6.51,1.24,1,1.81,1.52l1.73,1.61,3.45,3.21c1.1,1.11,2.17,2.25,3.25,3.38l3.18,3.33c1,1,1.9,2.07,2.94,3a51.52,51.52,0,0,0,13.57,9.37,49.27,49.27,0,0,0,7.74,2.79,52,52,0,0,0,8.15,1.39,56.88,56.88,0,0,0,16.72-1.2,67,67,0,0,0,8.19-2.33c1.33-.48,2.66-1,4-1.56.64-.28,1.29-.57,1.92-.87s1.29-.64,1.75-.89l-.94.77,0,0a91.19,91.19,0,0,0,6-7.82,69.16,69.16,0,0,0,5-8.43,32.27,32.27,0,0,0,3-8.68,13.76,13.76,0,0,0,.09-4c0-.32-.13-.59-.18-.89a5.68,5.68,0,0,0-.24-.73,4.43,4.43,0,0,0-.37-.77,6.18,6.18,0,0,0-.49-.83c-.32-.56-.82-1.13-1.24-1.71s-1-1.14-1.54-1.68a39.85,39.85,0,0,0-3.51-3.19,64.34,64.34,0,0,0-8-5.58,60.59,60.59,0,0,0-17.9-7.35,23.09,23.09,0,0,0-4.42-.49,16.51,16.51,0,0,0-2,.09,9.39,9.39,0,0,0-1.7.42,4.38,4.38,0,0,0-2.18,1.54,4.83,4.83,0,0,1-.32.59,4.2,4.2,0,0,0-.26.71l-.13.37-.15.6-.28,1.2a34.76,34.76,0,0,0-1.05,9.23,15.49,15.49,0,0,0,2.46,7.83,25.65,25.65,0,0,0,6.27,6.35,63.51,63.51,0,0,0,8.32,5.06,160.74,160.74,0,0,0,18.67,7.88l-1.51-.23s0,0,.11,0a2.17,2.17,0,0,1,.3-.08,3.69,3.69,0,0,1,.42-.17l.49-.26a20.4,20.4,0,0,0,2.26-1.47c1.58-1.15,3.21-2.53,4.87-3.91A110,110,0,0,1,681.54,188a38.32,38.32,0,0,1,13.26-5.69,25.89,25.89,0,0,1,7.62-.38c.64.07,1.28.18,1.91.27l1.31.17a8.54,8.54,0,0,0,1.25.05,7.06,7.06,0,0,0,1.29-.05,23,23,0,0,0,5.46-1.12,44.36,44.36,0,0,0,5.55-2.19,84,84,0,0,0,10.74-6.17,167.6,167.6,0,0,0,19.85-15.76L752.1,155a26.5,26.5,0,0,0,2-2.08,55.91,55.91,0,0,0,3.75-4.75,41.79,41.79,0,0,0,5.53-10.43,18.83,18.83,0,0,0,.83-10.54,15.19,15.19,0,0,0-2.06-4.6,20.67,20.67,0,0,0-3.66-3.91c-.7-.6-1.51-1.11-2.26-1.68s-1.63-1-2.51-1.5c-1.84-1-3.68-2-5.55-2.81A43.34,43.34,0,0,0,737,109a15.23,15.23,0,0,0-5.13,0,7.65,7.65,0,0,0-3.9,1.82c-2.18,1.84-3.51,5.38-4.14,9.18a56.21,56.21,0,0,0-.5,12.1c.05,2.07.3,4.15.48,6.23.11,1,.27,2.07.41,3.1s.26,2.07.47,3.1a128.21,128.21,0,0,0,6.71,24.24,149.84,149.84,0,0,0,26,43.15c1.36,1.62,2.83,3.15,4.24,4.73l2.16,2.38,1.19,1.31,1.15,1.38a27,27,0,0,1,4,6.55,15.06,15.06,0,0,1,1,4.3,11.49,11.49,0,0,1-.6,4.85A12.67,12.67,0,0,1,768,241.5a17.73,17.73,0,0,1-3.29,2.75,29.09,29.09,0,0,1-6.9,3.08,62.46,62.46,0,0,1-13.67,2.38,108.2,108.2,0,0,1-13.47.14,122.14,122.14,0,0,1-13.36-1.36,85.57,85.57,0,0,1-13.28-3.09,40.86,40.86,0,0,1-6.65-2.8,21.45,21.45,0,0,1-3.38-2.29,10.42,10.42,0,0,1-3.08-4.26l1.36,1.86h0c-4-3.32-7.7-6.75-11.29-10.35a144.65,144.65,0,0,1-10.2-11.33,57.64,57.64,0,0,1-8.38-13.32,23.34,23.34,0,0,1-1.3-4.12,13.91,13.91,0,0,1-.12-4.84,10.18,10.18,0,0,1,2.35-4.86,12.29,12.29,0,0,1,1.95-1.66c.33-.22.66-.45,1-.65l1-.51a36.23,36.23,0,0,1,7.7-2.64c2.54-.62,5.07-1,7.59-1.4,5.05-.7,10.08-1.1,15.1-1.31a257.76,257.76,0,0,1,30.07.58c5,.38,10,.92,15,1.65a135.14,135.14,0,0,1,14.94,3l1.86.51,1.72.45c1.16.28,2.3.64,3.46.86l3.49.7,3.52.49a82.57,82.57,0,0,0,14.26.4c4.82-.21,9.76-.82,15.06-.76a34.23,34.23,0,0,1,8.13,1,27.63,27.63,0,0,1,4,1.34,6,6,0,0,1,1.08.51,12.33,12.33,0,0,1,1.12.63,11.85,11.85,0,0,1,2,1.74,10.46,10.46,0,0,1,2.3,10.16,15,15,0,0,1-5.48,7.65,25.27,25.27,0,0,1-7.52,4l-1,.35-1,.27c-.66.18-1.31.37-2,.53-1.31.24-2.63.59-3.94.73a71,71,0,0,1-15.6.33,113.36,113.36,0,0,1-15.13-2.3,200.18,200.18,0,0,1-28.94-8.78l-7-2.77c-2.32-.94-4.61-1.92-6.91-2.91s-4.6-2-6.92-3.17c-1.16-.57-2.32-1.16-3.54-1.89a15.85,15.85,0,0,1-2-1.36,7.35,7.35,0,0,1-.67-.63,5.56,5.56,0,0,1-.39-.44,5.81,5.81,0,0,1-.51-.78,5.52,5.52,0,0,1-.29-.7,4.65,4.65,0,0,1-.19-.86,4.13,4.13,0,0,1,.51-2.46,4,4,0,0,1,1.31-1.44,4.06,4.06,0,0,1,.51-.31l.43-.2c.17-.07.26-.09.35-.12l.3-.09.29-.08.22,0,.43-.07.36,0c.48-.05.88-.06,1.26-.07.77,0,1.46,0,2.14.07,1.35.08,2.63.21,3.9.35,2.53.3,5,.64,7.49,1,4.93.73,9.83,1.53,14.72,2.31,19.53,3.14,39,6.14,58.56,7.64a187.25,187.25,0,0,0,29,.27,54.77,54.77,0,0,0,13.43-2.63,17.56,17.56,0,0,0,5.17-2.78,6.73,6.73,0,0,0,2.45-3.7l.3-1.25,1.06-1h0a51.34,51.34,0,0,0,7.48-8.53,60,60,0,0,0,5.61-10,57.79,57.79,0,0,0,5-22.31,42.36,42.36,0,0,0-1.31-11.11,30.85,30.85,0,0,0-4.48-9.83c-.49-.75-1.08-1.42-1.63-2.12a4.67,4.67,0,0,0-.33-.36c-.09-.09-.2-.23-.25-.24s-.18-.1.09,0a2.36,2.36,0,0,0,.66.09,2.57,2.57,0,0,0,.83-.18c.14-.08.2-.09.27-.13a.65.65,0,0,0,.18-.15s.06,0,0,0a6.28,6.28,0,0,0-.73,1.51,31.94,31.94,0,0,0-1.27,5.24c-.32,1.89-.55,3.85-.74,5.83a217.54,217.54,0,0,0-.58,24.28q.31,12.24,1.44,24.47c.75,8.13,1.75,16.25,3.18,24.22.73,4,1.57,7.91,2.65,11.68a45.32,45.32,0,0,0,1.87,5.35,15.54,15.54,0,0,0,1.13,2.17,6.92,6.92,0,0,0,.53.74.81.81,0,0,1,.16.16s0,0,0,0a4,4,0,1,1-3.83,7,10.16,10.16,0,0,1-3.56-3.54,23.82,23.82,0,0,1-1.76-3.31,52.82,52.82,0,0,1-2.26-6.32c-1.22-4.18-2.12-8.32-2.91-12.47-1.54-8.3-2.6-16.6-3.41-24.92s-1.35-16.66-1.6-25a225.23,225.23,0,0,1,.47-25.28c.2-2.13.44-4.28.79-6.46a39.08,39.08,0,0,1,1.65-6.79,13.79,13.79,0,0,1,2.1-4,13.56,13.56,0,0,1,1.13-1.15,9.34,9.34,0,0,1,.82-.58,4.43,4.43,0,0,1,1-.49,6.46,6.46,0,0,1,4.51-.15l.48.16.37.19c.25.12.5.25.74.39a4,4,0,0,1,.61.41l.53.41a8,8,0,0,1,.88.82c.25.26.56.57.72.78.74.91,1.52,1.8,2.17,2.78a39.61,39.61,0,0,1,5.84,12.56,51.28,51.28,0,0,1,1.67,13.43,66.83,66.83,0,0,1-5.58,25.81,69.93,69.93,0,0,1-6.41,11.61A61,61,0,0,1,861,193.47h0l1.37-2.27a15.3,15.3,0,0,1-2.16,4.8,17,17,0,0,1-3.42,3.67,26.18,26.18,0,0,1-7.87,4.19,63.64,63.64,0,0,1-15.68,2.92,193,193,0,0,1-30.36-.57c-20-1.73-39.62-5-59.16-8.3-4.89-.82-9.76-1.64-14.61-2.4-2.43-.37-4.85-.73-7.23-1-1.19-.15-2.37-.27-3.49-.35-.56,0-1.11-.06-1.58-.06l-.59,0h-.07l.07,0,.13-.05.23-.11.31-.19a3.19,3.19,0,0,0,1-1.11,3.43,3.43,0,0,0,.28-2.66,2.83,2.83,0,0,0-.21-.48,1.44,1.44,0,0,0-.25-.39.39.39,0,0,0-.08-.1c-.07-.06,0,0,0,0a9.58,9.58,0,0,0,1.07.72c.9.54,1.94,1.09,3,1.62,2.12,1.06,4.34,2.07,6.57,3.06s4.49,2,6.76,2.9l6.79,2.76a193.39,193.39,0,0,0,27.8,8.66,106.73,106.73,0,0,0,14.2,2.27,64.48,64.48,0,0,0,14-.18,16.06,16.06,0,0,0,1.69-.27l1.67-.33c.54-.13,1.08-.29,1.62-.43l.81-.22.77-.28A18.88,18.88,0,0,0,810,206.4a8.41,8.41,0,0,0,3.13-4.13,3.78,3.78,0,0,0,.12-2,3.18,3.18,0,0,0-.86-1.65,4.7,4.7,0,0,0-.78-.68c-.15-.11-.34-.18-.5-.28a2.85,2.85,0,0,0-.6-.28,20,20,0,0,0-3-1,27.34,27.34,0,0,0-6.56-.84c-4.61-.08-9.54.48-14.61.7a90.22,90.22,0,0,1-15.39-.5l-3.83-.56-3.8-.76c-1.27-.25-2.49-.64-3.74-.95l-1.87-.5-1.72-.47a126.49,126.49,0,0,0-14.17-2.88c-4.81-.72-9.67-1.26-14.54-1.65a251.39,251.39,0,0,0-29.3-.68c-4.87.18-9.72.55-14.49,1.19-2.38.33-4.74.72-7,1.27a30,30,0,0,0-6.34,2.1,7.47,7.47,0,0,0-2.11,1.44,3.88,3.88,0,0,0-.82,1.76,7.94,7.94,0,0,0,.11,2.53,17.09,17.09,0,0,0,1,2.95,36.19,36.19,0,0,0,3.34,5.92,63.91,63.91,0,0,0,4.31,5.65,117,117,0,0,0,10,10.38,110.48,110.48,0,0,0,11.19,9.05h0l1.37,1.85s0,0,0,.09a2.19,2.19,0,0,1,.14.2c.09.09.15.18.25.28l.34.32a12.85,12.85,0,0,0,2,1.34,33.86,33.86,0,0,0,5.31,2.22,77.91,77.91,0,0,0,12,2.78,111.31,111.31,0,0,0,25,1.14,54.21,54.21,0,0,0,11.9-2,21.12,21.12,0,0,0,4.94-2.17,10.39,10.39,0,0,0,1.7-1.39,5.1,5.1,0,0,0,.87-1.41,5.16,5.16,0,0,0-.33-3.53,19.28,19.28,0,0,0-2.78-4.51l-.93-1.12-1-1.09-2.2-2.43c-1.48-1.65-3-3.25-4.44-4.95a158.06,158.06,0,0,1-27.38-45.48,137,137,0,0,1-7.13-25.78c-.22-1.1-.35-2.21-.51-3.32s-.31-2.22-.43-3.34c-.2-2.24-.46-4.47-.52-6.73a63.9,63.9,0,0,1,.6-13.81,32,32,0,0,1,2-7.16,18.42,18.42,0,0,1,4.73-6.7,15.9,15.9,0,0,1,7.69-3.67,23.48,23.48,0,0,1,7.8,0,50.56,50.56,0,0,1,13.39,4.35c2.08.94,4.07,2,6.05,3.06,1,.56,2,1.22,3.07,1.83s2,1.39,2.94,2.19a28.7,28.7,0,0,1,5.18,5.57,22.5,22.5,0,0,1,3.77,15A31.46,31.46,0,0,1,771,140.3a49.49,49.49,0,0,1-6.57,12.48,63.76,63.76,0,0,1-4.3,5.44,33.81,33.81,0,0,1-2.5,2.56l-2.43,2.27a176.74,176.74,0,0,1-20.83,16.52,90.13,90.13,0,0,1-11.79,6.75A49.27,49.27,0,0,1,716,188.9a31.1,31.1,0,0,1-7.24,1.47,14,14,0,0,1-1.95.07,15,15,0,0,1-2-.09l-1.91-.25-1.31-.19a18.21,18.21,0,0,0-5.3.27,30.57,30.57,0,0,0-10.46,4.57,103.17,103.17,0,0,0-9.92,7.6c-1.68,1.39-3.35,2.81-5.27,4.22a28.4,28.4,0,0,1-3.19,2.06,11.19,11.19,0,0,1-4.8,1.48l-.74,0-.77-.28a168.65,168.65,0,0,1-19.63-8.31,70.62,70.62,0,0,1-9.42-5.74,33.52,33.52,0,0,1-8.22-8.43,23.15,23.15,0,0,1-2.66-5.67,25,25,0,0,1-1.07-6.1,43.06,43.06,0,0,1,1.23-11.38l.32-1.33.16-.66.27-.87a12.93,12.93,0,0,1,.66-1.72c.3-.56.62-1.12.95-1.67a12.28,12.28,0,0,1,6.05-4.53,16.94,16.94,0,0,1,3.34-.82,22.86,22.86,0,0,1,3.17-.17,32.11,32.11,0,0,1,5.9.64,56.49,56.49,0,0,1,10.67,3.38,79.85,79.85,0,0,1,9.77,4.94,72.07,72.07,0,0,1,9,6.27,47.81,47.81,0,0,1,4.18,3.8c.68.66,1.31,1.43,2,2.16a28.47,28.47,0,0,1,1.81,2.49,12.6,12.6,0,0,1,.83,1.4,12.82,12.82,0,0,1,.74,1.58,14.1,14.1,0,0,1,.57,1.74c.11.55.26,1.12.32,1.67a21.15,21.15,0,0,1-.1,6.37,39.69,39.69,0,0,1-3.69,11,75.76,75.76,0,0,1-5.59,9.45,94.79,94.79,0,0,1-6.68,8.62l0,0-.39.45-.55.32c-.85.5-1.5.84-2.25,1.22s-1.45.71-2.18,1.05c-1.45.68-2.93,1.28-4.42,1.86a76.33,76.33,0,0,1-9.15,2.85,66.19,66.19,0,0,1-19.23,1.81,62.63,62.63,0,0,1-9.71-1.42,58,58,0,0,1-9.35-3.13,60.77,60.77,0,0,1-16.37-10.71c-1.24-1.06-2.32-2.26-3.49-3.38l-3.14-3.14c-1-1-2-2.07-3.1-3.08l-3.24-2.88-1.62-1.44c-.54-.49-1.13-.89-1.69-1.34l-3.38-2.65c-1.16-.84-2.35-1.59-3.52-2.4-.59-.39-1.16-.81-1.77-1.17l-1.82-1a49.23,49.23,0,0,0-15.12-6c-.64-.12-1.29-.26-1.93-.36l-1.92-.18a13.43,13.43,0,0,0-1.89-.09,16.56,16.56,0,0,0-1.87,0c-.61.07-1.24.08-1.83.17s-1.19.18-1.75.31-1.14.25-1.61.45l-.73.26a6.11,6.11,0,0,1-.58.27h0l3.08-4.19a141.86,141.86,0,0,1-4.24,18.16,73.43,73.43,0,0,1-3.48,9.05,40.6,40.6,0,0,1-5.58,8.76,22.66,22.66,0,0,1-9.35,6.68,23.88,23.88,0,0,1-11.3,1.13,44.47,44.47,0,0,1-9.81-2.54c-3-1.13-5.88-2.42-8.64-3.77-5.53-2.68-10.75-5.53-16-8.13l-4-1.95-2.25-1.18c-.75-.37-1.45-.88-2.17-1.32a36,36,0,0,1-7.78-6.7,32.3,32.3,0,0,1-7.94-19,28.44,28.44,0,0,1,1.33-10.54,25.93,25.93,0,0,1,14-15.64,33.18,33.18,0,0,1,10-2.69,45.75,45.75,0,0,1,9.94.17c.82.09,1.61.27,2.41.39s1.61.25,2.38.46c1.54.41,3.13.72,4.64,1.21a75.41,75.41,0,0,1,17.23,7.77A95.05,95.05,0,0,1,523.81,172a120.24,120.24,0,0,1,22.9,28.89,83,83,0,0,1,4.16,8.4,44.31,44.31,0,0,1,1.66,4.6,22.35,22.35,0,0,1,.61,2.64l.1.77c0,.29,0,.55,0,.87a7.41,7.41,0,0,1-.07,1.09,5.9,5.9,0,0,1-.38,1.49,4.74,4.74,0,0,1-1.72,2.08,4.67,4.67,0,0,1-2.54.72h-1.13l-2.24,0-4.5-.06c-3-.06-6-.12-9-.22-6-.18-12-.44-18-.86a154,154,0,0,1-18.19-2.16,33.35,33.35,0,0,1-4.76-1.22c-.41-.15-.84-.31-1.28-.5s-.63-.26-.83-.35a7,7,0,0,0-1.47-.33,29.42,29.42,0,0,0-7.93.51c-5.63,1-11.37,2.54-17.17,4a120.23,120.23,0,0,1-18,3.55,30,30,0,0,1-4.94.07,12.35,12.35,0,0,1-1.31-.13,15.21,15.21,0,0,1-4-1.12,54.77,54.77,0,0,1-8.13-4.92c-5-3.51-9.68-7.24-14.35-11s-9.23-7.62-13.78-11.48c-9.12-7.71-18.09-15.62-27.19-23.18-1.14-.93-2.29-1.86-3.42-2.71-.56-.42-1.16-.86-1.6-1.12-.1-.06-.19-.1-.1-.06-.1.28,2.07,0,2.4-.81.33-.58.21-.48.24-.51s0,.12,0,.25a11.59,11.59,0,0,0,.19,1.87c.12.69.25,1.39.42,2.09.32,1.41.7,2.84,1,4.27.71,2.88,1.28,5.81,1.9,8.76s1.19,5.91,1.54,9.14a23.74,23.74,0,0,1,.14,2.63,10.28,10.28,0,0,1-.15,1.69,5.75,5.75,0,0,1-.36,1.25,4.28,4.28,0,0,1-5,2.62,5.1,5.1,0,0,1-1.64-.74,8.91,8.91,0,0,1-1.47-1.25,24,24,0,0,1-1.73-2c-1.76-2.23-3.71-4.55-5.6-6.85-3.8-4.62-7.58-9.31-11.25-14.08a322.88,322.88,0,0,1-20.63-29.81,224.56,224.56,0,0,1-16.53-32.6,171.86,171.86,0,0,1-6-17.46,146.5,146.5,0,0,1-3.88-18.23,116.66,116.66,0,0,1-1-18.81,90.94,90.94,0,0,1,2.74-18.92,59.66,59.66,0,0,1,8-17.93,52.18,52.18,0,0,1,14-14.13,59,59,0,0,1,17.93-8.1A76.22,76.22,0,0,1,359.58,0a97.91,97.91,0,0,1,37.06,7.21,85.34,85.34,0,0,1,16.85,9l2,1.39,1.91,1.53c1.3,1,2.5,2.12,3.71,3.23l.9.85.86.91L424.56,26c.56.62,1.06,1.29,1.58,1.93s1.07,1.28,1.53,2a55.06,55.06,0,0,1,8.48,17.92,66.34,66.34,0,0,1,2.18,19.34,85.8,85.8,0,0,1-2.66,18.9,106.34,106.34,0,0,1-6.17,17.82,114.67,114.67,0,0,1-9,16.49,96.22,96.22,0,0,1-11.88,14.8,156.87,156.87,0,0,1-14,12.24c-4.8,3.83-9.79,7.32-14.81,10.75-10.1,6.76-20.48,12.92-31,18.79s-21.12,11.43-31.78,16.86l-16,8.06a136,136,0,0,1-17.31,6.95c-2.9,1-5.82,1.85-8.73,2.75s-5.84,1.68-8.77,2.41c-5.86,1.57-11.75,2.9-17.64,4.21-11.79,2.53-23.64,4.64-35.53,6.44a627.28,627.28,0,0,1-71.81,6.78c-12,.38-24.12.41-36.25-.3s-24.31-2.05-36.47-5.44a100.61,100.61,0,0,1-33.5-17A92.64,92.64,0,0,1,10.68,180a90.75,90.75,0,0,1-9.83-55A100.12,100.12,0,0,1,5,106.62a114.52,114.52,0,0,1,7.15-17.23l1-2.09,1.19-2.11c.39-.71.82-1.39,1.26-2.06s.86-1.36,1.31-2c.94-1.29,1.83-2.63,2.84-3.86l1.48-1.86,1.56-1.8A100.54,100.54,0,0,1,36.55,60.76,140.91,140.91,0,0,1,51.88,50.37,199.52,199.52,0,0,1,85.09,34.94a267.91,267.91,0,0,1,35-10,293.23,293.23,0,0,1,72.26-6.34,252.15,252.15,0,0,1,36.2,4,199.59,199.59,0,0,1,35.19,9.94,147.87,147.87,0,0,1,32.44,17.3A134.91,134.91,0,0,1,323.48,74.5,107.29,107.29,0,0,1,342,106.6c.56,1.46.94,3,1.41,4.45l.68,2.24c.2.75.35,1.51.53,2.27.34,1.52.73,3,1,4.56l.73,4.61a100.47,100.47,0,0,1,.72,18.58,121.17,121.17,0,0,1-2.52,18.33,150.71,150.71,0,0,1-5.17,17.65,183.6,183.6,0,0,1-16.05,32.77c-.78,1.3-1.59,2.58-2.42,3.86s-1.63,2.55-2.49,3.8-1.68,2.52-2.57,3.75l-1.31,1.86-.66.93-.77,1a53,53,0,0,1-14.7,12.37,112,112,0,0,1-16.67,8c-5.69,2.25-11.49,4.11-17.32,5.77A292.91,292.91,0,0,1,229,261c-11.91,1.83-23.89,3.08-35.9,3.84s-24,1-36.1.66a304,304,0,0,1-36.09-3c-6-.89-12-2-17.92-3.5a109.39,109.39,0,0,1-17.57-5.85l-2.15-1-2.12-1.07c-1.4-.75-2.85-1.59-4-2.26-2.47-1.4-5-2.67-7.65-3.84s-5.32-2.21-8-3.2-5.46-1.88-8.15-2.56a24.57,24.57,0,0,0-7.52-.94,5.53,5.53,0,0,0-1.2.25,1.33,1.33,0,0,0-.49.28.94.94,0,0,0-.2.38,3.47,3.47,0,0,0-.15,1.08,14.17,14.17,0,0,0,.5,3.38,34.71,34.71,0,0,0,1.27,3.81,81,81,0,0,0,3.58,7.73c2.69,5.12,5.73,10.16,8.88,15.14s6.46,9.89,9.81,14.78l-.21-.28c4.73,5.59,9.7,11.16,15.25,15.27a29.33,29.33,0,0,0,4.2,2.62,13,13,0,0,0,4.1,1.32,7.34,7.34,0,0,0,3.68-.47,14.55,14.55,0,0,0,3.8-2.33c1.31-1,2.64-2.27,4.09-3.56.72-.64,1.47-1.3,2.27-1.95.4-.32.8-.64,1.24-1l.32-.24.15-.12c.06,0,.12-.08.09-.07s0,0,0,0a7.33,7.33,0,0,0,.89-1.44,23.14,23.14,0,0,0,1-2.22c.6-1.59,1.13-3.3,1.61-5,1.91-7,3.26-14.35,4.5-21.69,2.43-14.71,4.27-29.61,5.93-44.51s3.08-29.87,4.31-44.8v0a4,4,0,1,1,8,.65Z"/><path class="cls-1" d="M958.72,150l-.85.24-1.11.33-2.27.69-4.56,1.46c-3,1-6.07,2-9.09,3.05-6,2.11-12.05,4.31-18,6.67s-11.77,4.87-17.39,7.67c-2.8,1.4-5.55,2.87-8.13,4.48a30.56,30.56,0,0,0-6.55,5.18l-.91-5.9c4.91,3.11,10.11,6.11,15.3,9s10.5,5.56,15.86,8.12A241.82,241.82,0,0,0,954,204.08a143.38,143.38,0,0,0,17,4.19,88.25,88.25,0,0,0,17.15,1.51,49.52,49.52,0,0,0,16.37-2.83,32.9,32.9,0,0,0,13.23-8.86h0l-1,2.67a5.53,5.53,0,0,1,.41-2.07c.09-.22.19-.44.29-.65l.25-.41.25-.41.23-.31c.14-.19.3-.42.44-.58a19.6,19.6,0,0,1,1.61-1.72c1-1,2.07-1.87,3.1-2.72,2.08-1.65,4.2-3.13,6.37-4.53a96.52,96.52,0,0,1,13.66-7.32c1.21-.52,2.44-1,3.73-1.47.64-.24,1.3-.45,2-.66l1-.31.15-.05.08,0,.18-.06a2.06,2.06,0,0,0,.85-.54,1.23,1.23,0,0,0,.3-.67,5.09,5.09,0,0,0-1-3.23,15.15,15.15,0,0,0-3.78-3.82,35.46,35.46,0,0,0-11.65-5.17,63.19,63.19,0,0,0-6.68-1.36c-1.13-.2-2.29-.3-3.44-.44s-2.39-.23-3.58-.35a128.61,128.61,0,0,0-14.19-.55,50.84,50.84,0,0,0-6.69.56,17.11,17.11,0,0,0-5.31,1.57,3.23,3.23,0,0,0-1.14.88,1.3,1.3,0,0,0-.26.75,3.93,3.93,0,0,0,0,.76,7.42,7.42,0,0,0,.23,1.07,15.79,15.79,0,0,0,1,2.54,39.21,39.21,0,0,0,3.43,5.5,40.12,40.12,0,0,0,4.34,4.81,74.18,74.18,0,0,0,11,8.39,123,123,0,0,0,39.27,16.15A73.54,73.54,0,0,0,1067,206a38.54,38.54,0,0,0,13-1.78l.27-.09.09,0q3.91-1,7.8-2.09c2.59-.73,5.17-1.48,7.72-2.28s5.1-1.6,7.6-2.48c1.26-.44,2.49-.9,3.71-1.37l1.8-.72c.57-.24,1.22-.52,1.64-.72h0l-.88.62c.33-.31.83-.84,1.23-1.3s.81-1,1.17-1.47a14.1,14.1,0,0,0,1.72-3,4.38,4.38,0,0,0,.43-2.24,2,2,0,0,0-.8-1.32,8.85,8.85,0,0,0-2.61-1.4,14.74,14.74,0,0,0-1.74-.54,17.26,17.26,0,0,0-1.88-.43,56.25,56.25,0,0,0-8.16-.81h0l2.53-.8a18.7,18.7,0,0,0-4.42,4.57,46.43,46.43,0,0,0-3.48,6.23l-3.29,6.95-.85,1.77-.43.88c-.23.41-.55.92-.84,1.36a12.39,12.39,0,0,1-4.15,3.4,30,30,0,0,1-8.27,2.7,61.13,61.13,0,0,1-8.09,1,94.57,94.57,0,0,1-16-.47,69.54,69.54,0,0,1-15.73-3.56,29.73,29.73,0,0,1-7.58-3.95,15.91,15.91,0,0,1-3.36-3.35c-1.07-1.67-1.37-2.48-2-3.62s-1.28-2.25-1.92-3.53a14.53,14.53,0,0,1-1.53-4.55,8.51,8.51,0,0,1,0-1.53,6.71,6.71,0,0,1,.37-1.72,6.14,6.14,0,0,1,2-2.78,11,11,0,0,1,4.75-2,27.08,27.08,0,0,1,4.26-.5c1.38-.06,2.73-.06,4.07,0,2.68.06,5.31.29,7.91.56a82.51,82.51,0,0,1,15.67,2.84,87,87,0,0,1,14.76,5.93c9.42,4.69,17.91,10.67,27,14.24a41.76,41.76,0,0,0,6.93,2.1,34,34,0,0,0,7.1.79,15.1,15.1,0,0,0,1.78,0c.6,0,1.19-.05,1.79-.1,1.19-.16,2.38-.24,3.56-.5a46.28,46.28,0,0,0,7-1.85c5-1.73,10-3.09,15-4.44s9.91-2.67,14.78-4.14a124.6,124.6,0,0,0,14.17-5.09c4.5-2,8.87-4.4,12.07-7.62a14.44,14.44,0,0,0,3.49-5.35,12,12,0,0,0,.44-6.17,22.2,22.2,0,0,0-2.28-6.39,40,40,0,0,0-3.92-6.05,87,87,0,0,0-10.16-10.92c-3.69-3.42-7.59-6.66-11.59-9.78-8-6.23-16.46-12-25-17.55-2.14-1.4-4.32-2.74-6.48-4.11s-4.3-2.6-6.51-3.84c-4.41-2.44-9-4.67-13.6-6.77-9.26-4.19-18.79-7.87-28.44-11.25-19.3-6.76-39-12.42-58.87-17.55-39.74-10.22-80-18.38-120.48-25.47s-81.13-13-121.92-17.81c-20.4-2.4-40.83-4.5-61.29-6.18s-40.94-3-61.41-3.4c-10.23-.19-20.46-.18-30.59.42a138.81,138.81,0,0,0-15,1.6,44.8,44.8,0,0,0-7,1.71,14.09,14.09,0,0,0-2.83,1.32l-.3.17-.21.19a1.71,1.71,0,0,0-.36.32c-.07.1-.2.19-.18.24s0,.05,0,.06,0,0,0,0h0l0,0c-.05,0,0,.11,0,.19s.1.22.16.36a1.5,1.5,0,0,0,.11.22l.18.25a12.37,12.37,0,0,0,2.1,2.16,42,42,0,0,0,6,4,136.78,136.78,0,0,0,13.57,6.51c9.35,4,19,7.37,28.7,10.64l-.68-.15L833,72.49,1015.52,92q91.27,9.77,182.53,19.9c60.83,6.77,121.65,13.62,182.43,21.08l-2.88,7.18h0l-.63-.33c-.23-.13-.5-.24-.75-.37-.51-.23-1-.47-1.55-.66a21.32,21.32,0,0,0-3.17-.91,12,12,0,0,0-5.79.22c-3.38,1-6.08,4.15-8,8.31a56.07,56.07,0,0,0-4.05,14,136,136,0,0,0-1.59,15.41,308.86,308.86,0,0,0,.33,31.74l.5,8c.22,2.67.38,5.34.45,8a93.23,93.23,0,0,1-.75,16.29l-7.89,1.32h0c-.72-3.52-1.25-6.85-1.74-10.28s-.89-6.82-1.2-10.24q-1-10.26-1-20.6a167.18,167.18,0,0,1,4.65-41.16,111.59,111.59,0,0,1,7.06-19.78c.8-1.57,1.52-3.19,2.4-4.73l2.69-4.58c1-1.48,2-2.93,3-4.39.26-.36.5-.73.77-1.09l.85-1,1.7-2.07a73,73,0,0,1,16-14.15c.71-.54,1.53-.91,2.29-1.38l2.33-1.32c.79-.43,1.54-.91,2.35-1.29l2.46-1.11,2.47-1.1,1.23-.55c.41-.18.86-.3,1.29-.45,1.75-.6,3.48-1.06,5.21-1.53a55.27,55.27,0,0,1,21.69-1.15,43.89,43.89,0,0,1,10.68,3.08,40.77,40.77,0,0,1,9.56,5.87,37.8,37.8,0,0,1,7.51,8.44,36.42,36.42,0,0,1,4.59,10.4,35.22,35.22,0,0,1,1,11.34,36,36,0,0,1-2.63,11,44,44,0,0,1-13.51,17.42,67.87,67.87,0,0,1-18.77,10.35,106.25,106.25,0,0,1-20.35,5.25,156.77,156.77,0,0,1-20.69,1.9,4,4,0,0,1-.23-8h0a149.18,149.18,0,0,0,19.64-1.8,98,98,0,0,0,18.83-4.84,60.52,60.52,0,0,0,16.58-9.1,36.24,36.24,0,0,0,11.11-14.22,28.14,28.14,0,0,0,2-8.58,27.42,27.42,0,0,0-.78-8.75,28.36,28.36,0,0,0-3.57-8.06,29.82,29.82,0,0,0-5.9-6.64,33.09,33.09,0,0,0-7.65-4.69,35.91,35.91,0,0,0-8.74-2.51,47.18,47.18,0,0,0-18.51,1c-1.53.41-3.06.82-4.51,1.32-.36.13-.74.22-1.1.37l-1.07.49-2.16,1-2.16,1c-.72.34-1.39.78-2.09,1.16l-2.07,1.18a20.13,20.13,0,0,0-2,1.22,65.41,65.41,0,0,0-14.23,12.59l-1.52,1.85-.76.92c-.24.32-.46.65-.69,1-.9,1.32-1.84,2.62-2.72,4l-2.44,4.16c-.8,1.39-1.45,2.87-2.18,4.31a103.37,103.37,0,0,0-6.54,18.32,159.33,159.33,0,0,0-4.4,39.16c0,6.62.36,13.26,1,19.86.3,3.31.71,6.6,1.16,9.88s1,6.6,1.65,9.7h0l-7.89,1.32c-3.95-10.55-4.95-21.52-5.41-32.54a252.05,252.05,0,0,1,.32-33.3,128,128,0,0,1,2.43-16.86,63.09,63.09,0,0,1,6-16.81c.34-.69.84-1.36,1.26-2a22.91,22.91,0,0,1,1.37-2l1.59-1.92a22.15,22.15,0,0,1,1.83-1.79,20.36,20.36,0,0,1,9.44-4.91,21.08,21.08,0,0,1,10.31.58,26.41,26.41,0,0,1,4.47,1.85c.71.36,1.39.77,2.06,1.18.34.22.67.43,1,.67s.62.45,1.07.79h0l12.57,9.12-15.45-1.94c-60.68-7.63-121.47-14.65-182.27-21.6s-121.61-13.73-182.44-20.42L832.25,79.06,649.7,59.63l-.36,0-.32-.11c-9.79-3.31-19.53-6.78-29.13-10.85a140.25,140.25,0,0,1-14.21-6.86,47.44,47.44,0,0,1-6.86-4.59,18.16,18.16,0,0,1-3.21-3.4l-.38-.53c-.12-.18-.23-.42-.34-.63a7,7,0,0,1-.58-1.41,5.65,5.65,0,0,1-.3-1.7c0-.31,0-.62,0-.92a7.62,7.62,0,0,1,.18-.93,6.14,6.14,0,0,1,.27-.89c.13-.26.27-.52.41-.78a6.17,6.17,0,0,1,1-1.31,6.79,6.79,0,0,1,1-1l.53-.43.53-.33a19.44,19.44,0,0,1,4.13-2,51.25,51.25,0,0,1,8-2,142.85,142.85,0,0,1,15.68-1.65c10.4-.6,20.75-.59,31.09-.38,20.66.45,41.24,1.81,61.78,3.5s41,3.82,61.49,6.23Q841.44,34,902.33,44.65c40.57,7.14,81,15.35,120.92,25.64,20,5.18,39.82,10.88,59.34,17.72,9.76,3.43,19.43,7.18,28.91,11.46,4.74,2.15,9.42,4.45,14,7,2.28,1.27,4.57,2.62,6.77,4s4.38,2.74,6.54,4.16c8.7,5.6,17.24,11.47,25.47,17.85,4.1,3.21,8.11,6.55,12,10.12a92.27,92.27,0,0,1,10.82,11.65,45.59,45.59,0,0,1,4.44,6.89,27.7,27.7,0,0,1,2.85,8.08,17.75,17.75,0,0,1-.69,9,20.13,20.13,0,0,1-4.83,7.49,34.48,34.48,0,0,1-6.64,5.12,61.12,61.12,0,0,1-7.19,3.7,129.71,129.71,0,0,1-14.84,5.33c-5,1.51-10,2.84-14.93,4.18s-9.87,2.67-14.6,4.31a47.42,47.42,0,0,1-16.09,2.78,40.42,40.42,0,0,1-8.21-.92,47.94,47.94,0,0,1-7.81-2.36,106.28,106.28,0,0,1-14.16-7.08c-4.5-2.56-8.87-5.15-13.36-7.4a80.56,80.56,0,0,0-13.81-5.56,74.39,74.39,0,0,0-14.65-2.63c-2.51-.25-5-.45-7.48-.5a33,33,0,0,0-7,.43,5.89,5.89,0,0,0-2.34.88c-.21.15-.19.19-.22.25s0,.1,0,.16a3.14,3.14,0,0,0,0,.39,9.14,9.14,0,0,0,1,2.69c.52,1,1.15,2.1,1.8,3.23s1.41,2.61,1.75,3.1a9.8,9.8,0,0,0,2.12,2,24.13,24.13,0,0,0,6.09,3.06,61.84,61.84,0,0,0,14.34,3,82.7,82.7,0,0,0,14.84.15,54.5,54.5,0,0,0,7.2-1,22.8,22.8,0,0,0,6.29-2.19,5.62,5.62,0,0,0,1.77-1.45,1.45,1.45,0,0,1,.16-.28l.39-.86.77-1.74,3.08-7.1a56.12,56.12,0,0,1,3.82-7.34,26.36,26.36,0,0,1,6-6.71l1.07-.85,1.46,0h0a63,63,0,0,1,9.42,1,24.83,24.83,0,0,1,2.43.55,22.69,22.69,0,0,1,2.48.77,16.55,16.55,0,0,1,5.07,2.87c.41.39.81.8,1.2,1.21a14.62,14.62,0,0,1,1,1.49,9.72,9.72,0,0,1,1.22,3.52,11.06,11.06,0,0,1-.07,3.46,15.35,15.35,0,0,1-.87,2.92,21.36,21.36,0,0,1-2.68,4.68c-.5.7-1,1.35-1.59,2a26,26,0,0,1-1.81,1.91l-.38.37-.5.25,0,0c-.8.41-1.39.68-2.07,1l-2,.86c-1.3.55-2.61,1.08-3.91,1.57q-3.92,1.51-7.85,2.82c-2.63.89-5.26,1.71-7.9,2.52s-5.29,1.57-7.94,2.32l.37-.12A47.15,47.15,0,0,1,1067,215.1a80.77,80.77,0,0,1-15.61-1.53,129.62,129.62,0,0,1-29.23-9.56,127.09,127.09,0,0,1-13.59-7.31,84.71,84.71,0,0,1-12.63-9.44,49.85,49.85,0,0,1-5.64-6.15,48.38,48.38,0,0,1-4.45-7,25.77,25.77,0,0,1-1.72-4.35,18.77,18.77,0,0,1-.55-2.55,14.14,14.14,0,0,1-.08-2.93,11.92,11.92,0,0,1,2.22-6.12,13.49,13.49,0,0,1,4.46-3.87,21.62,21.62,0,0,1,4.51-1.87c.73-.23,1.45-.4,2.15-.56s1.41-.28,2.11-.41a61.6,61.6,0,0,1,8.07-.74,140.28,140.28,0,0,1,15.42.48c1.27.12,2.5.21,3.8.36s2.61.27,3.92.49a74.35,74.35,0,0,1,7.83,1.58,46.17,46.17,0,0,1,15.27,6.86,25.7,25.7,0,0,1,6.53,6.72A17.72,17.72,0,0,1,1062,172a13.93,13.93,0,0,1,.37,6,12.18,12.18,0,0,1-2.76,6,12.91,12.91,0,0,1-5.19,3.62l-.7.24-.65.21-.75.23c-.51.16-1,.33-1.54.52-1,.37-2.11.78-3.17,1.23-4.27,1.77-8.57,3.88-12.77,6.07-2.1,1.1-4.18,2.23-6.15,3.41-1,.57-1.94,1.19-2.8,1.76-.44.29-.81.58-1.11.8l-.17.12-.07,0v0s0,0,0,0a.92.92,0,0,0,.09-.23c0-.1,0-.09.11-.41a2.51,2.51,0,0,0,.06-.77l-1,2.67h0a41,41,0,0,1-16.41,11,57.42,57.42,0,0,1-19,3.33,96.89,96.89,0,0,1-18.71-1.63,151.2,151.2,0,0,1-18-4.42,251.13,251.13,0,0,1-34-13.53q-8.24-3.94-16.23-8.32c-5.35-2.94-10.57-5.94-15.82-9.26l-4-2.54,3.1-3.36a24.63,24.63,0,0,1,2.06-2.13l1-.94,1.06-.83c1.42-1.11,2.86-2.06,4.3-3,2.9-1.81,5.84-3.38,8.8-4.86,5.93-2.95,12-5.52,18-7.94s12.17-4.66,18.3-6.79q4.6-1.6,9.24-3.11l4.66-1.49,2.36-.72,1.2-.35c.44-.12.76-.23,1.48-.39a4,4,0,0,1,2,7.74Z"/><path class="cls-1" d="M1498.79,162.79c12.32,0,24.83-.59,37.19-1.52s24.72-2.37,36.9-4.45c6.09-1,12.12-2.27,18.09-3.71a169.41,169.41,0,0,0,17.55-5.14,114.69,114.69,0,0,0,16.44-7.16c1.26-.74,2.55-1.45,3.79-2.21s2.4-1.61,3.58-2.43l3.34-2.66c1.14-1,2.3-2,3.41-3a110.12,110.12,0,0,0,12.31-13,53.65,53.65,0,0,0,4.65-7.06,25,25,0,0,0,2.59-7.18,13.28,13.28,0,0,0-.43-6.6,16.13,16.13,0,0,0-3.69-5.92c-3.53-3.69-8.45-6.76-13.76-9.23a128.38,128.38,0,0,0-16.8-6.3c-5.82-1.74-11.77-3.22-17.77-4.58a185.76,185.76,0,0,0-36.09-4.25c-3-.12-6.06,0-9.08,0l-4.54.24c-.75,0-1.51.07-2.26.13L1552,67a144.26,144.26,0,0,0-17.86,2.65,116.62,116.62,0,0,0-17.21,4.94,91.31,91.31,0,0,0-15.94,7.55c-10,6-18.45,14.17-23.2,24.2a45.8,45.8,0,0,0-4.34,16,62.2,62.2,0,0,0,1,16.87,38.91,38.91,0,0,0,11.71,20.94,50.32,50.32,0,0,0,6.51,5.2,72,72,0,0,0,15.44,7.66,116.64,116.64,0,0,0,17.19,4.78,213,213,0,0,0,36.29,3.82c6.14.15,12.31.16,18.47,0,3.09-.1,6.17-.22,9.25-.41s6.2-.38,9.16-.67h.07a4,4,0,0,1,1.14,7.91c-6.4,1.21-12.64,2-19,2.66s-12.71,1-19.11,1.14-12.81.06-19.23-.38A166.52,166.52,0,0,1,1523,189.5a128,128,0,0,1-19.11-4.9,84,84,0,0,1-18.2-8.9,56.17,56.17,0,0,1-15.17-14.5,51.6,51.6,0,0,1-8.31-19.51l-.27-1.29-.18-1.27-.35-2.53-.35-2.53c-.06-.85-.09-1.71-.14-2.57a67.55,67.55,0,0,1,.13-10.35,58.18,58.18,0,0,1,5.56-20.11,63,63,0,0,1,12-16.88,81,81,0,0,1,16-12.45,103.26,103.26,0,0,1,18-8.48,129.42,129.42,0,0,1,18.92-5.36,156.26,156.26,0,0,1,19.31-2.81l2.42-.21c.81-.06,1.62-.09,2.43-.14l4.86-.23c3.23,0,6.47-.15,9.71,0a189.94,189.94,0,0,1,38.44,4.74c12.42,3,24.85,6.34,36.88,12.09,1.51.7,3,1.55,4.48,2.32.74.41,1.46.88,2.2,1.31s1.47.86,2.18,1.38a46.76,46.76,0,0,1,8.21,6.91,27.37,27.37,0,0,1,6,10,24.35,24.35,0,0,1,.71,12,36,36,0,0,1-3.81,10.41,63.47,63.47,0,0,1-5.76,8.57,121.58,121.58,0,0,1-13.68,14.15c-1.21,1.08-2.43,2.12-3.65,3.18s-2.69,2.1-4,3.15-2.82,1.87-4.23,2.8-2.9,1.66-4.35,2.49a117.83,117.83,0,0,1-18.09,7.6,184.71,184.71,0,0,1-18.61,5.11c-6.24,1.39-12.51,2.58-18.8,3.52-12.57,1.93-25.19,3.16-37.81,3.91-6.31.38-12.63.61-18.95.74s-12.6.15-19,0a4,4,0,0,1,.1-8Z"/><path class="cls-2" d="M1422.24,240.32s-.9,3.71,3.32,4.09"/></svg>