<svg xmlns="http://www.w3.org/2000/svg" xmlns:xlink="http://www.w3.org/1999/xlink" viewBox="0 0 500.16 500.16"><defs><style>.cls-1,.cls-11,.cls-17,.cls-6{fill:none;}.cls-1{clip-rule:evenodd;}.cls-2,.cls-28{fill:#fff;}.cls-3{fill:#f5f8ff;}.cls-18,.cls-4{fill:#dee8ff;}.cls-11,.cls-12,.cls-13,.cls-14,.cls-15,.cls-16,.cls-17,.cls-20,.cls-21,.cls-22,.cls-26,.cls-28,.cls-4,.cls-5,.cls-6,.cls-7,.cls-8,.cls-9{fill-rule:evenodd;}.cls-27,.cls-5{fill:#cbd7f2;}.cls-6{stroke:#425682;stroke-width:3.84px;}.cls-11,.cls-17,.cls-6{stroke-linecap:round;stroke-linejoin:round;}.cls-7{fill:#9c756c;}.cls-8{fill:#ff867e;}.cls-9{fill:#e67068;}.cls-10{clip-path:url(#clip-path);}.cls-11{stroke:#fff;stroke-width:3.12px;opacity:0.5;}.cls-12{fill:#fbc9be;}.cls-13{fill:#e3b4aa;}.cls-14,.cls-24{fill:#425682;}.cls-15{fill:#b58c83;}.cls-16{fill:#825e56;}.cls-17{stroke:#d9aba1;stroke-width:1.2px;}.cls-19,.cls-22{fill:#435c94;}.cls-20,.cls-25{fill:#5571ad;}.cls-21{fill:#7894cf;}.cls-23,.cls-26{fill:#6784c2;}</style><clipPath id="clip-path" transform="translate(0 0)"><path class="cls-1" d="M291.53,257.48c2,57.29,8.3,90.61.61,135.75-3.59,21.09-3.95,36.83-.66,63-40.52,6.74-91.89,5.1-132.41-2.48,4.2-22.92,5.67-114.69-7.38-192C171.74,245.45,259.37,241.75,291.53,257.48Z"/></clipPath></defs><g id="BACKGROUND"><rect class="cls-2" width="500.16" height="500.16"/></g><g id="OBJECTS"><circle class="cls-3" cx="250.08" cy="264.99" r="193.39"/><path class="cls-4" d="M124.46,344.17c3,6.15-1.24,7.26-4,1.39-10.34-22.15-39-68.55-58.09-83.38-1.73-1.34-.57-2.62,1.15-1.29C86.26,278.52,111.83,318.47,124.46,344.17Z" transform="translate(0 0)"/><path class="cls-4" d="M76.62,274.5c-4.06-7-39.64-16.17-41-8.3S70.87,279,76.62,274.5Z" transform="translate(0 0)"/><path class="cls-5" d="M76.62,274.5c3.82-7.13-7-42.23-14.43-39.24S69.79,272,76.62,274.5Z" transform="translate(0 0)"/><path class="cls-4" d="M76.62,274.5c.34-8.08-24.71-35-30.07-29.05S69.36,275.18,76.62,274.5Z" transform="translate(0 0)"/><path class="cls-4" d="M371.54,323.28c-2.5,6.37,1.85,7.12,4.08,1,8.45-22.94,33.08-71.58,50.89-88,1.6-1.47.35-2.66-1.26-1.18C404.09,254.64,382,296.6,371.54,323.28Z" transform="translate(0 0)"/><path class="cls-4" d="M413.36,249.83c3.46-7.31,38.15-19.44,40.13-11.71S419.47,253.82,413.36,249.83Z" transform="translate(0 0)"/><path class="cls-4" d="M413.36,249.83c-4.41-6.78,3.46-42.67,11.08-40.31S420,246.72,413.36,249.83Z" transform="translate(0 0)"/><path class="cls-5" d="M413.36,249.83c-1-8,21.69-36.91,27.52-31.47S420.65,249.9,413.36,249.83Z" transform="translate(0 0)"/><path class="cls-4" d="M159.7,463c-11.38-7.39-66.59-9.53-67.27,3.18C91.53,483.24,149.3,480.06,159.7,463Z" transform="translate(0 0)"/><path class="cls-4" d="M161.09,460.37c-10-9.14-4.73-60.74,7.4-64.63C184.76,390.53,175,446,161.09,460.37Z" transform="translate(0 0)"/><path class="cls-4" d="M127,433.29c-3.42-10.27-41.08-24.41-46-15.53C75.1,428.37,112,438.75,127,433.29Z" transform="translate(0 0)"/><path class="cls-4" d="M128.91,431.88c-6.61-8.57.54-50.67,10.47-48.51C149,385.47,138.48,424.83,128.91,431.88Z" transform="translate(0 0)"/><path class="cls-4" d="M141.39,451.26c-6.34-10-48-19.68-52.16-11C83.56,452,126.94,461,141.39,451.26Z" transform="translate(0 0)"/><path class="cls-4" d="M142.84,449.12c-8-10.82-1.08-56.41,8-54.16C165,398.45,152.43,439.52,142.84,449.12Z" transform="translate(0 0)"/><path class="cls-4" d="M72.41,342.5C67.5,339.52,34,348.73,35,354,36.39,361.13,68.22,349.85,72.41,342.5Z" transform="translate(0 0)"/><path class="cls-5" d="M72.76,341.3c-5.53-1.53-22.91-26.14-18.43-29.19C60.31,308,75.24,333.21,72.76,341.3Z" transform="translate(0 0)"/><path class="cls-5" d="M87.52,354c-4.79-4.66-36.15,1.25-35.88,7.51C52,369.92,80.86,361.27,87.52,354Z" transform="translate(0 0)"/><path class="cls-4" d="M88.23,352.75c-5.88-3.16-19.76-35.7-13.19-37.86C83,312.26,93.14,344.22,88.23,352.75Z" transform="translate(0 0)"/><path class="cls-4" d="M98.66,368.46c-4-6.08-37.75-1.52-38,5.31C60.24,382.78,89.87,374.6,98.66,368.46Z" transform="translate(0 0)"/><path class="cls-4" d="M99.72,367.28c-5.51-4.76-11.25-37.32-4.28-38.64C104.44,326.93,107,359.36,99.72,367.28Z" transform="translate(0 0)"/><path class="cls-5" d="M108.17,388.7c-3.28-8.13-37.92-10.53-41.61-3.17C61.91,394.83,96.32,393.86,108.17,388.7Z" transform="translate(0 0)"/><path class="cls-4" d="M109.7,387.56c-5.37-6.94-5.37-39.7,2.38-40.24C123.1,346.56,120.13,379.93,109.7,387.56Z" transform="translate(0 0)"/><path class="cls-4" d="M116,410.66c-3-9.4-30.82-17.92-37.14-11.17C70.82,408,102.24,415.39,116,410.66Z" transform="translate(0 0)"/><path class="cls-4" d="M117.78,409.5c-5.42-8.23,2.17-45.26,9.7-42.22C136.38,370.87,130.12,401.88,117.78,409.5Z" transform="translate(0 0)"/><path class="cls-4" d="M186.17,469.57c5.62,1,6.45-6.84.35-6.74-91.82-7.43-46.63-101.7-129-128.16-3.34-1.08-4.23,1.92-.89,3C135.84,363.11,89.88,461.78,186.17,469.57Z" transform="translate(0 0)"/><path class="cls-5" d="M60.89,337.35c-3.75-10-35.9-18.54-37.79-13.49C20.84,329.92,54,341.83,60.89,337.35Z" transform="translate(0 0)"/><path class="cls-4" d="M349.37,416.66c11.05-7.88,66.12-12.42,67.35.26C418.36,433.93,360.51,433.27,349.37,416.66Z" transform="translate(0 0)"/><path class="cls-4" d="M347.88,414.1c9.63-9.56,2.08-60.89-10.2-64.24C321.19,345.35,333.4,400.31,347.88,414.1Z" transform="translate(0 0)"/><path class="cls-4" d="M380.74,385.57c3-10.41,40-26.18,45.3-17.52C432.39,378.39,396,390.37,380.74,385.57Z" transform="translate(0 0)"/><path class="cls-4" d="M378.79,384.24c6.23-8.85-2.75-50.6-12.57-48C356.68,338.75,368.92,377.61,378.79,384.24Z" transform="translate(0 0)"/><path class="cls-5" d="M367.16,404.15c5.9-10.26,47.06-21.75,51.63-13.24C425,402.4,382,413.26,367.16,404.15Z" transform="translate(0 0)"/><path class="cls-4" d="M365.62,402.07c7.55-11.16-1.37-56.4-10.36-53.76C341.33,352.41,355.62,392.9,365.62,402.07Z" transform="translate(0 0)"/><path class="cls-4" d="M431.35,292.49c4.77-3.19,38.6,4.56,37.83,9.89C468.15,309.54,435.85,299.65,431.35,292.49Z" transform="translate(0 0)"/><path class="cls-4" d="M430.94,291.31c5.47-1.77,21.76-27.11,17.15-30C441.94,257.54,428.11,283.33,430.94,291.31Z" transform="translate(0 0)"/><path class="cls-4" d="M416.75,304.66c4.59-4.86,36.17-.32,36.17,5.95C452.92,319,423.72,311.61,416.75,304.66Z" transform="translate(0 0)"/><path class="cls-5" d="M416,303.42c5.74-3.42,18.2-36.52,11.54-38.4C419.42,262.74,410.71,295.11,416,303.42Z" transform="translate(0 0)"/><path class="cls-4" d="M406.25,319.57c3.73-6.25,37.65-3.16,38.23,3.65C445.25,332.2,415.3,325.32,406.25,319.57Z" transform="translate(0 0)"/><path class="cls-4" d="M405.14,318.43c5.3-5,9.62-37.77,2.6-38.79C398.68,278.33,397.57,310.84,405.14,318.43Z" transform="translate(0 0)"/><path class="cls-5" d="M397.63,340.2c2.92-8.27,37.43-12.17,41.43-5C444.11,344.32,409.7,344.84,397.63,340.2Z" transform="translate(0 0)"/><path class="cls-4" d="M396.05,339.12c5.07-7.16,3.64-39.89-4.13-40.09C380.88,298.75,385.3,332,396.05,339.12Z" transform="translate(0 0)"/><path class="cls-4" d="M390.8,362.47c2.54-9.51,30-19.23,36.62-12.76C435.78,357.89,404.71,366.61,390.8,362.47Z" transform="translate(0 0)"/><path class="cls-4" d="M388.94,361.4c5.05-8.46-4.14-45.12-11.53-41.76C368.67,323.61,376.27,354.32,388.94,361.4Z" transform="translate(0 0)"/><path class="cls-4" d="M323.22,424.38c-5.57,1.29-6.75-6.55-.64-6.72C414,406.25,364.74,314,445.83,284c3.3-1.23,4.32,1.72,1,3C368.87,315.84,419.08,412.41,323.22,424.38Z" transform="translate(0 0)"/><path class="cls-5" d="M442.63,286.85c3.31-10.14,35.07-20.09,37.17-15.13C482.33,277.68,449.67,291,442.63,286.85Z" transform="translate(0 0)"/><path class="cls-6" d="M223.31,124.41c33.2-4.76,51.37,22.81,51.59,64.57" transform="translate(0 0)"/><path class="cls-7" d="M186.52,191.35c4.53,16.8,22.28,28.76,46.33,37.63,15.67-6.77,34.79-23.15,42.18-47.71,18.9-62.73-14.83-62.4-54.66-54.13C191,128.1,177.74,158.83,186.52,191.35Z" transform="translate(0 0)"/><path class="cls-8" d="M298,307.74c10.94,4.68,47.9,21.32,61.53,23.16,18.84,2.54,22.22-21.43,8.71-32.3-21.47-17.27-67.22-36.75-78.46-41.94C276.47,263.54,266.62,294.34,298,307.74Z" transform="translate(0 0)"/><path class="cls-9" d="M332.39,276.59c4.9,9.47,10.25,18.09,13.64,21.57-6.74-1.85-16.43-13.39-19.88-24.76C328.13,274.47,330.38,275.47,332.39,276.59Z" transform="translate(0 0)"/><path class="cls-8" d="M291.53,257.48c2,57.29,8.3,90.61.61,135.75-3.59,21.09-3.95,36.83-.66,63-40.52,6.74-91.89,5.1-132.41-2.48,4.2-22.92,5.67-114.69-7.38-192C171.74,245.45,259.37,241.75,291.53,257.48Z" transform="translate(0 0)"/><g class="cls-10"><path class="cls-11" d="M124.69,344.53l11-11m11,11-11-11m33,11-11-11m-11,11,11-11m55,11-11-11m-11,11,11-11m-33,11,11-11m11,11-11-11m33,11,11-11m11,11-11-11m33,11-11-11m-11,11,11-11m55,11-11-11m-11,11,11-11m-33,11,11-11m11,11-11-11m33,11,11-11m11,11-11-11" transform="translate(0 0)"/><path class="cls-11" d="M124.69,329.29l11-11m11,11-11-11m33,11-11-11m-11,11,11-11m55,11-11-11m-11,11,11-11m-33,11,11-11m11,11-11-11m33,11,11-11m11,11-11-11m33,11-11-11m-11,11,11-11m55,11-11-11m-11,11,11-11m-33,11,11-11m11,11-11-11m33,11,11-11m11,11-11-11" transform="translate(0 0)"/></g><path class="cls-9" d="M163.05,454.47l-4-.72c3-16.47,4.63-68.5.45-125.18a140.92,140.92,0,0,1,14-9.69c-2,20-12,55.18-4,63.82s36.35,12.87,63.05,10.3C249.67,391.35,200.59,427.93,163.05,454.47Z" transform="translate(0 0)"/><path class="cls-8" d="M164.63,345.75c-13.57,26.39-30.93,44.7-35.46,54.79-8.37,18.6-39,8.91-34-9,8.26-29.64,30.65-112.87,54.66-128.74C169.77,249.57,186.57,303.08,164.63,345.75Z" transform="translate(0 0)"/><path class="cls-9" d="M138.73,386.92c-9.19-.13-35-3.86-40.12,0,4.87-9.39,23.4-17.1,48-11.81C144.17,377.77,140.54,384.63,138.73,386.92Z" transform="translate(0 0)"/><path class="cls-12" d="M251.41,187.11l.88,57.85c.19,12.35,4,31.1-15.7,47.44-24.77-15.84-26.24-32.92-26.44-46.2l-.88-57.85C208.88,163.15,251,160.79,251.41,187.11Z" transform="translate(0 0)"/><path class="cls-13" d="M252,228.05c-13.69,1.61-25.18,1.46-42.17.08,9.24,15.14,25.45,19.17,42.58,19.2Z" transform="translate(0 0)"/><path class="cls-12" d="M314.68,221.65c10.79-15.4-23.65-56.49-27.73-51.28-2.7,3.44,5.92,9.47,9,18.42-4.29-5.23-19.31-20.58-22.41-14.57-1.37,2.65,11.62,10.44,15.9,22.31-4.72-5.44-18.16-18-21.05-13.43-3.35,5.27,16.94,16.73,19.92,28.34-4.2-1.87-12.31-4.71-13.66-3.08C271.16,212.56,305.57,234.65,314.68,221.65Z" transform="translate(0 0)"/><path class="cls-14" d="M274.9,204.46c4.78,0,8.67-7,8.67-15.48s-3.89-15.49-8.67-15.49-8.68,7-8.68,15.49S270.12,204.46,274.9,204.46Z" transform="translate(0 0)"/><path class="cls-12" d="M232.6,127.05c-38.48,3.15-42.54,41.29-38.67,74.18,2.24,19,22.27,39.49,52,38.16C282.38,237.75,291.12,123.94,232.6,127.05Z" transform="translate(0 0)"/><path class="cls-7" d="M274.82,187.64c-.43-27.48-7.62-37-14.62-39.76-5.43-2.11-7.23-.64-15.49-.64s-17.15-1.4-26.33,2.38c-21.12,8.68-13,35.08-24,48.54-4.29-15.73-5.4-35.87,3.82-52.47,7.68-13.82,21.75-20.32,35.82-20.25C272.31,125.61,279.71,158,274.82,187.64Z" transform="translate(0 0)"/><path class="cls-12" d="M189.14,183.2c2.65-.73,6.07,3.28,7.64,9s.7,10.87-1.95,11.61-6.07-3.28-7.64-9S186.49,183.94,189.14,183.2Z" transform="translate(0 0)"/><path class="cls-15" d="M277.3,155.57c-5.6-23-28.9-23.24-41.78-13.18C245.09,126.52,283.08,121.5,277.3,155.57Z" transform="translate(0 0)"/><path class="cls-15" d="M185.35,174.77C198,150.7,206.55,143.86,227,144.08,203.28,137.21,187.46,146.78,185.35,174.77Z" transform="translate(0 0)"/><path class="cls-15" d="M186.37,185.28c6.44-13.79,6.67-16.64,17.68-25.63C191.29,163.73,185.94,175.87,186.37,185.28Z" transform="translate(0 0)"/><path class="cls-15" d="M261.7,128.79c-11.68-3.94-24.65,3.52-29.64,8C236,127.36,245.65,121.63,261.7,128.79Z" transform="translate(0 0)"/><path class="cls-15" d="M192,147.35c8.34-9.38,24.93-10.66,29.5-9.51C219.44,132.4,198.15,131.27,192,147.35Z" transform="translate(0 0)"/><path class="cls-16" d="M274.58,175.48c-2.9-17.74-8.62-25.36-14.38-27.6-3.83-1.49-9.9-1-13.66-.66,26.15-15.37,30.53,10.75,28,28.26Zm-44.82-28.37a35.84,35.84,0,0,0-11.38,2.51c-9.48,3.9-13.06,11.36-15.13,19.61C203.28,152.36,213.47,143.84,229.76,147.11Z" transform="translate(0 0)"/><path class="cls-17" d="M192.12,189c-1.8-.8-5.44.92-1.23,8" transform="translate(0 0)"/><path class="cls-17" d="M190.06,194.59c2.06-.8,4.52-.53,5,1.71" transform="translate(0 0)"/><path class="cls-9" d="M225.38,277.18c3.12,6.28,8.79,13.62,11.21,15.22-5.41-.65-12-3.28-15.92-8.42-1.59-2.07-9.51,10.55-12.36,14.48-4.55-7.7-10.17-31.82-7.26-49.86C207,254,219.68,274.57,225.38,277.18Z" transform="translate(0 0)"/><path class="cls-8" d="M225.38,277.18c-10.16-14.3-12.33-24.37-15.33-39.36l-9,10.78c2.18,18.07,2.86,33.86,8.65,44.18C211.17,288.43,218.76,280.52,225.38,277.18Z" transform="translate(0 0)"/><path class="cls-9" d="M250.19,273.72c-3,8-10.09,14.28-13.6,18.68,10.43-8.95,17.12-15.32,26.93-3.28,7.79-15.91,1.62-31.54-1.72-39.53C256.09,252.21,255.89,271.11,250.19,273.72Z" transform="translate(0 0)"/><path class="cls-8" d="M250.19,273.72c3.41-12.82,2.36-18.59,1.95-34.58l9.66,10.45c3.26,13.27,3.46,25,.9,35.89C260.36,281.53,257.37,275.6,250.19,273.72Z" transform="translate(0 0)"/><rect class="cls-18" y="395.94" width="500.16" height="104.22"/><rect class="cls-19" x="162.03" y="445.2" width="204.33" height="4.38"/><polygon class="cls-20" points="340.23 408.09 188.16 408.09 162.03 445.2 366.36 445.2 340.23 408.09"/><path class="cls-21" d="M181.12,441.06l-6.38,0c-.73,0-1.17-.28-1-.63l1.37-2.26a2.18,2.18,0,0,1,1.67-.62l6.22,0c.7,0,1.14.29.95.63-.41.75-.82,1.49-1.22,2.26A2.09,2.09,0,0,1,181.12,441.06Z" transform="translate(0 0)"/><path class="cls-21" d="M183.19,436.76h-5.62c-.86,0-1.39-.35-1.13-.77l1.83-3.06a2.65,2.65,0,0,1,2-.77h5.44c.83,0,1.31.35,1.08.77L185.16,436A2.45,2.45,0,0,1,183.19,436.76Z" transform="translate(0 0)"/><path class="cls-21" d="M186.15,431.37h-5.43c-.81,0-1.29-.35-1-.77l1.84-3.06a2.43,2.43,0,0,1,1.92-.77h5.23c.79,0,1.25.34,1,.77l-1.63,3.06A2.37,2.37,0,0,1,186.15,431.37Z" transform="translate(0 0)"/><path class="cls-21" d="M189.1,426h-5.19c-.79,0-1.26-.34-1-.76l1.84-3.06a2.4,2.4,0,0,1,1.87-.77h5c.76,0,1.2.35,1,.77l-1.65,3.06A2.28,2.28,0,0,1,189.1,426Z" transform="translate(0 0)"/><path class="cls-21" d="M192.05,420.59h-5c-.75,0-1.19-.34-.93-.77.84-1.4,1.67-2.81,2.52-4.22s1.69-2.82,2.54-4.23a2.25,2.25,0,0,1,1.74-.77h4.58c.7,0,1.07.35.85.77-.75,1.41-1.52,2.82-2.27,4.23s-1.52,2.81-2.27,4.22A2.21,2.21,0,0,1,192.05,420.59Z" transform="translate(0 0)"/><path class="cls-21" d="M195,415.2h-4.76c-.72,0-1.11-.34-.86-.77l1.84-3.06a2.25,2.25,0,0,1,1.74-.77h4.58c.7,0,1.07.35.85.77-.54,1-1.1,2.05-1.64,3.06A2.12,2.12,0,0,1,195,415.2Z" transform="translate(0 0)"/><path class="cls-21" d="M192.4,441H186c-.72,0-1.17-.27-1-.62.4-.75.79-1.49,1.19-2.26a2,2,0,0,1,1.6-.63H194c.7,0,1.16.29,1,.63-.34.76-.7,1.51-1,2.25A1.91,1.91,0,0,1,192.4,441Z" transform="translate(0 0)"/><path class="cls-21" d="M204.11,436.73l-15.5,0c-.93,0-1.49-.37-1.26-.82.52-1,1.05-2,1.55-2.95a2.53,2.53,0,0,1,2.06-.82l15,0c.9,0,1.49.38,1.32.82-.39,1-.77,2-1.16,2.95C205.93,436.35,205,436.73,204.11,436.73Z" transform="translate(0 0)"/><path class="cls-21" d="M199.4,431.35h-8.05c-.9,0-1.4-.36-1.17-.82.49-1,1-2,1.53-3a2.43,2.43,0,0,1,2-.82h7.79c.84,0,1.38.36,1.18.82-.43,1-.86,2-1.27,2.95A2.35,2.35,0,0,1,199.4,431.35Z" transform="translate(0 0)"/><path class="cls-21" d="M209.55,426H194.11c-.87,0-1.37-.37-1.14-.81.52-1,1-2,1.53-3a2.39,2.39,0,0,1,1.95-.82h14.88c.81,0,1.32.36,1.15.82-.36,1-.73,2-1.1,2.95A2.07,2.07,0,0,1,209.55,426Z" transform="translate(0 0)"/><path class="cls-21" d="M201.71,420.58h-5c-.76,0-1.19-.35-1-.77.53-1,1-2,1.59-3.06a2.09,2.09,0,0,1,1.75-.77h4.77c.74,0,1.17.34,1,.77-.47,1-.91,2-1.38,3.06A2.06,2.06,0,0,1,201.71,420.58Z" transform="translate(0 0)"/><path class="cls-21" d="M204.23,415.2h-4.74c-.73,0-1.15-.35-.93-.77.53-1,1.08-2,1.6-3.06a2,2,0,0,1,1.69-.77h4.54c.72,0,1.11.35.92.77-.46,1-.91,2-1.39,3.06A2,2,0,0,1,204.23,415.2Z" transform="translate(0 0)"/><path class="cls-21" d="M202.81,441h-5.53c-.72,0-1.2-.27-1.05-.62.34-.75.68-1.5,1-2.25.15-.35.85-.63,1.55-.63h5.41c.7,0,1.17.28,1,.62-.3.76-.6,1.51-.88,2.26C204.23,440.74,203.53,441,202.81,441Z" transform="translate(0 0)"/><path class="cls-21" d="M213.38,441l-5.53,0c-.72,0-1.2-.28-1.08-.63.27-.75.56-1.49.85-2.25.12-.34.79-.63,1.49-.63h5.41c.7,0,1.2.28,1.1.63-.24.75-.49,1.5-.72,2.25C214.79,440.73,214.1,441,213.38,441Z" transform="translate(0 0)"/><path class="cls-21" d="M224,441h-5.52c-.72,0-1.23-.27-1.13-.61.21-.76.46-1.51.68-2.26.11-.34.76-.63,1.46-.63h5.37c.72,0,1.24.27,1.15.62-.18.75-.38,1.5-.55,2.25C225.34,440.7,224.69,441,224,441Z" transform="translate(0 0)"/><path class="cls-21" d="M234.55,441H229c-.72,0-1.25-.28-1.17-.63.16-.75.33-1.49.5-2.25.08-.34.7-.62,1.41-.62h5.4c.7,0,1.25.28,1.19.62-.12.75-.26,1.5-.38,2.25C235.91,440.69,235.27,441,234.55,441Z" transform="translate(0 0)"/><path class="cls-21" d="M245.12,440.94h-5.51c-.74,0-1.29-.27-1.24-.61.1-.76.23-1.51.34-2.26,0-.34.67-.62,1.39-.62h5.38c.7,0,1.26.27,1.23.62-.08.75-.16,1.5-.22,2.25C246.46,440.66,245.84,440.94,245.12,440.94Z" transform="translate(0 0)"/><path class="cls-21" d="M255.7,440.93h-5.52c-.72,0-1.28-.28-1.26-.63.05-.74.12-1.49.18-2.24,0-.35.62-.63,1.32-.63h5.37c.73,0,1.32.28,1.31.62,0,.76-.05,1.5-.05,2.25C257.05,440.65,256.43,440.93,255.7,440.93Z" transform="translate(0 0)"/><path class="cls-21" d="M266.29,440.91h-5.53c-.72,0-1.32-.28-1.32-.62,0-.75,0-1.5,0-2.25,0-.35.58-.62,1.28-.63h5.39c.7,0,1.31.27,1.33.62.05.75.08,1.49.13,2.24C267.61,440.63,267,440.91,266.29,440.91Z" transform="translate(0 0)"/><path class="cls-21" d="M276.86,440.89h-5.51c-.74,0-1.33-.28-1.35-.62-.05-.75-.1-1.5-.16-2.25,0-.34.5-.62,1.22-.62h5.39c.7,0,1.32.27,1.37.62.09.75.19,1.49.28,2.25C278.15,440.61,277.58,440.89,276.86,440.89Z" transform="translate(0 0)"/><path class="cls-21" d="M287.45,440.87h-5.53c-.72,0-1.33-.28-1.38-.62-.11-.75-.23-1.5-.35-2.24-.05-.35.49-.63,1.19-.63h5.41c.7,0,1.33.28,1.4.62.15.75.32,1.49.47,2.25C288.73,440.59,288.17,440.87,287.45,440.87Z" transform="translate(0 0)"/><path class="cls-21" d="M298,440.85H292.5c-.72,0-1.36-.27-1.44-.62-.18-.75-.33-1.5-.49-2.24-.07-.35.43-.63,1.13-.63h5.39c.7,0,1.38.28,1.48.63.21.74.4,1.49.61,2.24C299.28,440.57,298.75,440.85,298,440.85Z" transform="translate(0 0)"/><path class="cls-21" d="M308.6,440.83h-5.51c-.72,0-1.38-.28-1.48-.62L301,438c-.11-.35.39-.62,1.09-.63h5.37c.72,0,1.41.27,1.53.62.26.74.52,1.48.8,2.24C309.86,440.55,309.34,440.83,308.6,440.83Z" transform="translate(0 0)"/><path class="cls-21" d="M319.19,440.81h-5.53c-.72,0-1.4-.27-1.53-.62-.28-.75-.56-1.49-.83-2.24-.12-.34.35-.62,1.05-.62h5.4c.71,0,1.41.27,1.55.62.31.75.64,1.49,1,2.24C320.4,440.53,319.91,440.81,319.19,440.81Z" transform="translate(0 0)"/><path class="cls-21" d="M329.77,440.79h-5.51c-.74,0-1.44-.27-1.59-.62-.33-.75-.69-1.49-1-2.23-.15-.35.31-.63,1-.63h5.38a2,2,0,0,1,1.59.62l1.13,2.24C331,440.51,330.49,440.79,329.77,440.79Z" transform="translate(0 0)"/><path class="cls-21" d="M340.34,440.77h-5.51a2,2,0,0,1-1.62-.62c-.4-.74-.76-1.49-1.15-2.23-.19-.35.25-.63.95-.63h5.37a2.09,2.09,0,0,1,1.67.62c.43.73.85,1.48,1.28,2.23C341.53,440.5,341.08,440.77,340.34,440.77Z" transform="translate(0 0)"/><path class="cls-21" d="M352.23,440.75h-6.38a2.13,2.13,0,0,1-1.65-.61c-.45-.76-.91-1.49-1.35-2.24-.21-.34.21-.62.91-.63H350a2.26,2.26,0,0,1,1.69.61l1.48,2.24C353.37,440.47,353,440.75,352.23,440.75Z" transform="translate(0 0)"/><path class="cls-21" d="M215.18,436.71h-5.51c-.85,0-1.42-.33-1.26-.75.38-1,.75-2,1.14-3.08.15-.42.95-.75,1.76-.75h5.35c.81,0,1.38.33,1.24.75-.33,1-.63,2.06-1,3.08C216.82,436.36,216,436.71,215.18,436.71Z" transform="translate(0 0)"/><path class="cls-21" d="M226.32,436.69H220.8c-.84,0-1.44-.34-1.31-.75.31-1,.59-2.05.9-3.08.12-.42.88-.76,1.69-.76h5.33c.82,0,1.42.34,1.32.75-.24,1-.47,2.06-.7,3.08C227.93,436.35,227.16,436.69,226.32,436.69Z" transform="translate(0 0)"/><path class="cls-21" d="M237.45,436.67H232c-.86,0-1.47-.34-1.38-.75.21-1,.43-2.05.65-3.08.08-.41.81-.75,1.63-.75h5.34c.83,0,1.43.34,1.37.75-.17,1-.3,2.05-.45,3.07C239,436.33,238.31,436.67,237.45,436.67Z" transform="translate(0 0)"/><path class="cls-21" d="M248.6,436.65h-5.51c-.85,0-1.52-.34-1.46-.75.14-1,.27-2.05.41-3.07.06-.42.78-.76,1.59-.76H249c.81,0,1.45.34,1.42.75-.08,1-.14,2.05-.21,3.08C250.13,436.31,249.44,436.65,248.6,436.65Z" transform="translate(0 0)"/><path class="cls-21" d="M259.73,436.64h-5.51c-.85,0-1.53-.33-1.51-.75,0-1,.11-2,.16-3.07,0-.41.7-.75,1.51-.75h5.35c.81,0,1.5.34,1.5.75,0,1,0,2.05,0,3.07C261.27,436.29,260.58,436.63,259.73,436.64Z" transform="translate(0 0)"/><path class="cls-21" d="M270.86,436.62h-5.51c-.85,0-1.54-.34-1.55-.75,0-1-.06-2.05-.09-3.07,0-.42.63-.76,1.44-.76h5.34c.81,0,1.53.33,1.56.75l.27,3.06C272.36,436.28,271.71,436.62,270.86,436.62Z" transform="translate(0 0)"/><path class="cls-21" d="M282,436.6h-5.5c-.86,0-1.59-.34-1.64-.75-.11-1-.22-2-.34-3.07,0-.41.59-.75,1.42-.75h5.32c.83,0,1.55.33,1.62.75.16,1,.34,2.05.52,3.07C283.47,436.26,282.86,436.6,282,436.6Z" transform="translate(0 0)"/><path class="cls-21" d="M293.15,436.58h-5.53c-.83,0-1.6-.34-1.68-.75-.19-1-.4-2-.59-3.06-.08-.42.54-.76,1.35-.76h5.35c.81,0,1.55.33,1.65.75l.78,3.06C294.58,436.24,294,436.58,293.15,436.58Z" transform="translate(0 0)"/><path class="cls-21" d="M304.28,436.56h-5.53c-.83,0-1.62-.33-1.73-.75-.27-1-.55-2-.83-3.06-.11-.41.47-.75,1.28-.75h5.33c.81,0,1.59.34,1.73.75.35,1,.68,2,1,3.06C305.7,436.22,305.12,436.56,304.28,436.56Z" transform="translate(0 0)"/><path class="cls-21" d="M315.41,436.54H309.9c-.85,0-1.66-.33-1.8-.74L307,432.75c-.15-.42.39-.76,1.22-.76h5.33a2.07,2.07,0,0,1,1.79.75c.42,1,.85,2,1.28,3.06C316.8,436.2,316.26,436.54,315.41,436.54Z" transform="translate(0 0)"/><path class="cls-21" d="M326.56,436.53H321c-.83,0-1.7-.33-1.87-.74-.44-1-.87-2-1.32-3.06-.18-.41.36-.75,1.17-.75h5.34a2.2,2.2,0,0,1,1.83.75c.52,1,1,2,1.52,3.06C327.9,436.19,327.39,436.52,326.56,436.53Z" transform="translate(0 0)"/><path class="cls-21" d="M337.69,436.51h-5.53a2.39,2.39,0,0,1-1.92-.75c-.53-1-1.05-2-1.57-3-.22-.42.29-.76,1.1-.76h5.35a2.45,2.45,0,0,1,1.91.75l1.76,3.06C339,436.17,338.52,436.51,337.69,436.51Z" transform="translate(0 0)"/><path class="cls-21" d="M349.19,436.49h-5.62a2.6,2.6,0,0,1-2-.76c-.6-1-1.2-2-1.8-3-.26-.43.21-.76,1-.76h5.44a2.67,2.67,0,0,1,2,.76c.67,1,1.34,2,2,3C350.5,436.14,350.05,436.49,349.19,436.49Z" transform="translate(0 0)"/><path class="cls-21" d="M345.62,431.15l-11.11,0a2.61,2.61,0,0,1-2.08-.81c-.53-1-1.08-1.95-1.62-2.92-.25-.45.25-.82,1.12-.82h10.74a2.72,2.72,0,0,1,2.07.81c.63,1,1.28,1.94,1.92,2.92C347,430.78,346.48,431.15,345.62,431.15Z" transform="translate(0 0)"/><path class="cls-21" d="M342.14,425.82H329.46a2.44,2.44,0,0,1-2-.81c-.52-1-1.07-1.94-1.59-2.92-.23-.45.26-.82,1.07-.82h12.25a2.6,2.6,0,0,1,2,.8c.64,1,1.3,1.95,1.94,2.93C343.43,425.45,343,425.82,342.14,425.82Z" transform="translate(0 0)"/><path class="cls-21" d="M338.68,420.49H321.25a2.27,2.27,0,0,1-1.88-.81c-.48-1-1-1.95-1.46-2.93-.21-.44.26-.81,1-.81h16.79a2.56,2.56,0,0,1,1.93.81c.64,1,1.3,1.95,1.94,2.93C339.89,420.12,339.49,420.49,338.68,420.49Z" transform="translate(0 0)"/><path class="cls-21" d="M335.23,415.16h-6.94a2.35,2.35,0,0,1-1.87-.82c-.57-1-1.14-1.94-1.7-2.92-.25-.45.13-.82.87-.82h6.66a2.48,2.48,0,0,1,1.88.82c.64,1,1.3,1.94,1.94,2.92C336.37,414.78,336,415.16,335.23,415.16Z" transform="translate(0 0)"/><path class="cls-21" d="M330,431.17h-5.69a2.36,2.36,0,0,1-2-.79c-.47-1-.95-2-1.41-3-.2-.44.31-.8,1.14-.8h5.49a2.47,2.47,0,0,1,2,.8c.52,1,1.05,2,1.6,3C331.37,430.82,330.83,431.17,330,431.17Z" transform="translate(0 0)"/><path class="cls-21" d="M319.05,431.19h-5.67c-.85,0-1.72-.36-1.9-.8-.39-1-.78-2-1.17-3-.17-.43.4-.8,1.23-.8H317a2.23,2.23,0,0,1,1.9.79c.44,1,.89,2,1.35,3C320.46,430.83,319.93,431.19,319.05,431.19Z" transform="translate(0 0)"/><path class="cls-21" d="M308.15,431.2h-5.67c-.89,0-1.7-.35-1.84-.79-.31-1-.62-2-.92-3-.13-.44.43-.8,1.28-.81h5.49c.83,0,1.66.35,1.82.8.36,1,.75,2,1.12,2.95C309.6,430.84,309,431.2,308.15,431.2Z" transform="translate(0 0)"/><path class="cls-21" d="M297.25,431.22h-5.67c-.88,0-1.68-.36-1.78-.8-.24-1-.46-2-.67-3-.1-.44.5-.81,1.35-.81H296c.84,0,1.63.35,1.76.8.29,1,.57,2,.87,3C298.72,430.86,298.12,431.22,297.25,431.22Z" transform="translate(0 0)"/><path class="cls-21" d="M286.35,431.23h-5.69c-.86,0-1.62-.35-1.69-.8-.15-1-.28-2-.43-3-.07-.44.56-.8,1.4-.8h5.5c.82,0,1.59.35,1.69.8.21,1,.4,2,.61,3C287.84,430.88,287.2,431.23,286.35,431.23Z" transform="translate(0 0)"/><path class="cls-21" d="M275.44,431.25h-5.69c-.85,0-1.61-.36-1.64-.8l-.18-3c0-.44.65-.8,1.47-.8h5.48c.85,0,1.56.36,1.62.8.14,1,.26,2,.4,3C277,430.89,276.3,431.25,275.44,431.25Z" transform="translate(0 0)"/><path class="cls-21" d="M264.52,431.26h-5.67c-.87,0-1.57-.36-1.57-.8,0-1,0-2,.06-3,0-.44.7-.8,1.53-.8h5.49c.85,0,1.53.36,1.55.8,0,1,.09,2,.14,3C266.08,430.9,265.41,431.26,264.52,431.26Z" transform="translate(0 0)"/><path class="cls-21" d="M253.62,431.27H248c-.88,0-1.56-.36-1.51-.79l.3-3c0-.44.76-.8,1.61-.8h5.47c.85,0,1.51.36,1.5.8,0,1-.06,2-.09,3C255.21,430.92,254.49,431.27,253.62,431.27Z" transform="translate(0 0)"/><path class="cls-21" d="M242.73,431.29h-5.68c-.88,0-1.52-.36-1.44-.8.19-1,.35-2,.52-3,.08-.45.85-.81,1.68-.81h5.49c.83,0,1.48.36,1.43.81-.12,1-.23,2-.35,3C244.33,430.93,243.57,431.29,242.73,431.29Z" transform="translate(0 0)"/><path class="cls-21" d="M231.81,431.31h-5.69c-.85,0-1.49-.36-1.37-.8.26-1,.51-2,.77-3,.12-.45.92-.81,1.75-.81h5.48c.84,0,1.45.35,1.37.8-.2,1-.38,2-.58,3C233.45,430.94,232.67,431.3,231.81,431.31Z" transform="translate(0 0)"/><path class="cls-21" d="M220.89,431.32h-5.67c-.86,0-1.45-.36-1.3-.8.35-1,.66-2,1-3,.16-.45,1-.81,1.8-.81h5.5c.84,0,1.42.36,1.29.8-.27,1-.56,2-.82,3C222.58,431,221.78,431.32,220.89,431.32Z" transform="translate(0 0)"/><path class="cls-21" d="M210,431.34h-5.68c-.88,0-1.42-.36-1.24-.8.41-1,.84-2,1.26-3a2.14,2.14,0,0,1,1.87-.8h5.48c.85,0,1.4.36,1.24.8-.36,1-.71,2-1.06,3C211.71,431,210.88,431.33,210,431.34Z" transform="translate(0 0)"/><path class="cls-21" d="M324.22,425.84h-5.44a2.22,2.22,0,0,1-1.89-.79c-.46-1-.89-2-1.33-3-.2-.44.28-.8,1.09-.8h5.26a2.26,2.26,0,0,1,1.88.8c.51,1,1,2,1.53,3C325.55,425.48,325.07,425.84,324.22,425.84Z" transform="translate(0 0)"/><path class="cls-21" d="M313.75,425.85h-5.44a2,2,0,0,1-1.82-.81c-.36-1-.73-2-1.09-2.95-.17-.44.36-.8,1.17-.8h5.26a2.1,2.1,0,0,1,1.8.8l1.29,3C315.12,425.49,314.58,425.85,313.75,425.85Z" transform="translate(0 0)"/><path class="cls-21" d="M303.31,425.86h-5.48c-.83,0-1.62-.36-1.75-.8-.28-1-.57-2-.84-3-.13-.44.43-.8,1.22-.8h5.28a1.93,1.93,0,0,1,1.73.8c.35,1,.68,2,1,3C304.68,425.51,304.12,425.86,303.31,425.86Z" transform="translate(0 0)"/><path class="cls-21" d="M292.82,425.87h-5.46c-.82,0-1.58-.36-1.67-.8-.21-1-.42-2-.61-3-.09-.45.48-.8,1.29-.8h5.26c.81,0,1.56.36,1.68.8.27,1,.51,2,.79,3C294.23,425.52,293.65,425.87,292.82,425.87Z" transform="translate(0 0)"/><path class="cls-21" d="M282.36,425.88H276.9c-.83,0-1.57-.36-1.62-.8-.13-1-.24-2-.36-3-.06-.45.55-.81,1.37-.81h5.26c.81,0,1.51.36,1.6.8.18,1,.37,2,.56,3C283.79,425.52,283.18,425.88,282.36,425.88Z" transform="translate(0 0)"/><path class="cls-21" d="M271.89,425.89h-5.44c-.85,0-1.54-.36-1.57-.8q-.08-1.49-.12-3c0-.44.63-.8,1.44-.8h5.26c.79,0,1.48.36,1.53.81.1,1,.21,2,.32,3C273.36,425.53,272.74,425.89,271.89,425.89Z" transform="translate(0 0)"/><path class="cls-21" d="M261.42,425.9H256c-.83,0-1.51-.36-1.5-.8,0-1,.09-2,.13-3,0-.44.7-.8,1.49-.8h5.26c.79,0,1.49.36,1.5.8,0,1,0,2,.07,3C262.94,425.54,262.25,425.9,261.42,425.9Z" transform="translate(0 0)"/><path class="cls-21" d="M250.94,425.91H245.5c-.85,0-1.48-.36-1.42-.8.12-1,.23-2,.36-3,.05-.44.75-.81,1.56-.81h5.26c.8,0,1.44.36,1.41.8-.06,1-.11,2-.16,3C252.49,425.55,251.79,425.91,250.94,425.91Z" transform="translate(0 0)"/><path class="cls-21" d="M240.49,425.92H235c-.82,0-1.44-.36-1.35-.8.2-1,.39-2,.6-3,.09-.45.83-.81,1.64-.81h5.24c.81,0,1.41.36,1.35.8-.14,1-.27,2-.4,3C242.06,425.56,241.32,425.92,240.49,425.92Z" transform="translate(0 0)"/><path class="cls-21" d="M230,425.93h-5.46c-.83,0-1.4-.36-1.28-.8.27-1,.56-2,.85-3,.12-.45.88-.81,1.69-.81h5.24c.81,0,1.39.37,1.3.81-.21,1-.43,2-.65,3C231.62,425.57,230.85,425.93,230,425.93Z" transform="translate(0 0)"/><path class="cls-21" d="M219.56,425.94h-5.48c-.81,0-1.36-.36-1.2-.8l1.08-3c.16-.44,1-.8,1.76-.8H221c.8,0,1.36.37,1.23.81l-.9,3C221.18,425.58,220.39,425.94,219.56,425.94Z" transform="translate(0 0)"/><path class="cls-21" d="M316.26,420.5H311a2,2,0,0,1-1.78-.8c-.41-1-.81-2-1.21-3-.17-.44.31-.8,1.07-.8h5a2.12,2.12,0,0,1,1.79.8c.47,1,.93,2,1.4,2.95C317.53,420.14,317.07,420.5,316.26,420.5Z" transform="translate(0 0)"/><path class="cls-21" d="M306.22,420.51H301c-.81,0-1.58-.35-1.73-.8-.34-1-.66-2-1-3-.14-.43.37-.8,1.15-.8h5a1.93,1.93,0,0,1,1.72.8c.38,1,.76,2,1.15,3C307.53,420.15,307,420.51,306.22,420.51Z" transform="translate(0 0)"/><path class="cls-21" d="M296.21,420.52H291c-.8,0-1.55-.35-1.66-.8-.25-1-.47-2-.72-3-.11-.44.45-.8,1.21-.8h5c.76,0,1.51.36,1.64.8.3,1,.61,2,.92,2.95C297.54,420.16,297,420.52,296.21,420.52Z" transform="translate(0 0)"/><path class="cls-21" d="M286.17,420.53H281c-.79,0-1.53-.36-1.6-.8-.16-1-.31-2-.47-3-.07-.44.5-.8,1.26-.8h5c.77,0,1.48.36,1.58.8.23,1,.45,2,.69,3C287.54,420.16,287,420.53,286.17,420.53Z" transform="translate(0 0)"/><path class="cls-21" d="M276.14,420.53h-5.22c-.8,0-1.48-.36-1.52-.8-.08-1-.17-2-.25-3,0-.44.58-.8,1.35-.8h5c.77,0,1.45.37,1.51.8.15,1,.29,2,.43,3C277.54,420.17,277,420.53,276.14,420.53Z" transform="translate(0 0)"/><path class="cls-21" d="M266.13,420.54H260.9c-.81,0-1.46-.36-1.46-.8v-3c0-.44.63-.8,1.41-.8h5c.78,0,1.42.36,1.44.8.07,1,.13,2,.2,3C267.55,420.17,266.92,420.54,266.13,420.54Z" transform="translate(0 0)"/><path class="cls-21" d="M256.09,420.54h-5.24c-.77,0-1.41-.36-1.37-.8.09-1,.17-2,.25-3,0-.43.69-.8,1.44-.8h5.05c.76,0,1.39.36,1.39.8,0,1-.05,2-.06,3C257.55,420.18,256.88,420.54,256.09,420.54Z" transform="translate(0 0)"/><path class="cls-21" d="M246.06,420.55h-5.23c-.79,0-1.4-.36-1.33-.81.16-1,.31-2,.49-3,.08-.44.77-.8,1.55-.8h5c.76,0,1.36.36,1.32.8-.1,1-.21,2-.31,3C247.53,420.19,246.85,420.55,246.06,420.55Z" transform="translate(0 0)"/><path class="cls-21" d="M236,420.56H230.8c-.79,0-1.35-.36-1.24-.8.23-1,.48-2,.72-3,.1-.44.83-.8,1.6-.8h5c.77,0,1.32.36,1.24.8-.19,1-.35,2-.52,3C237.55,420.2,236.84,420.56,236,420.56Z" transform="translate(0 0)"/><path class="cls-21" d="M226,420.57h-5.22c-.81,0-1.34-.36-1.19-.81.32-1,.65-2,1-3a1.77,1.77,0,0,1,1.66-.81h5c.78,0,1.31.37,1.19.81-.26,1-.51,2-.77,3C227.55,420.21,226.8,420.57,226,420.57Z" transform="translate(0 0)"/><path class="cls-21" d="M215.94,420.57H206.5c-.81,0-1.31-.37-1.12-.82.44-1,.89-2,1.32-2.95a2.07,2.07,0,0,1,1.78-.82h9.1c.77,0,1.29.36,1.13.81-.33,1-.66,2-1,2.95C217.55,420.21,216.77,420.57,215.94,420.57Z" transform="translate(0 0)"/><path class="cls-21" d="M323.52,415.16h-5a2.12,2.12,0,0,1-1.8-.8c-.49-1-1-2-1.45-3-.21-.43.18-.8.92-.8H321a2.23,2.23,0,0,1,1.79.81c.55,1,1.09,2,1.65,2.95C324.7,414.8,324.29,415.16,323.52,415.16Z" transform="translate(0 0)"/><path class="cls-21" d="M313.93,415.16h-5a2,2,0,0,1-1.73-.8l-1.2-2.95c-.18-.44.25-.81,1-.81h4.79a2,2,0,0,1,1.73.81c.46,1,.92,2,1.4,2.95C315.15,414.81,314.69,415.16,313.93,415.16Z" transform="translate(0 0)"/><path class="cls-21" d="M304.33,415.16h-5a1.8,1.8,0,0,1-1.65-.8c-.34-1-.65-2-1-3-.14-.44.35-.81,1.07-.81h4.79a1.84,1.84,0,0,1,1.65.81c.39,1,.78,2,1.18,2.95C305.57,414.81,305.11,415.16,304.33,415.16Z" transform="translate(0 0)"/><path class="cls-21" d="M294.73,415.17H232.24c-.77,0-1.32-.37-1.2-.82.24-1,.47-2,.72-2.94.11-.45.81-.83,1.55-.83h60a1.74,1.74,0,0,1,1.61.82c.29,1,.64,1.95.93,2.93C296,414.8,295.51,415.17,294.73,415.17Z" transform="translate(0 0)"/><path class="cls-21" d="M285.17,415.17h-5c-.76,0-1.44-.36-1.51-.8-.18-1-.33-2-.49-3-.07-.44.47-.81,1.21-.81h4.79c.74,0,1.43.37,1.53.81.22,1,.42,2,.66,3C286.47,414.81,285.92,415.17,285.17,415.17Z" transform="translate(0 0)"/><path class="cls-21" d="M275.57,415.17h-5c-.76,0-1.42-.36-1.46-.81-.09-1-.16-2-.24-3,0-.44.52-.81,1.26-.81H275c.72,0,1.4.37,1.46.81.14,1,.27,2,.43,3C276.92,414.81,276.32,415.17,275.57,415.17Z" transform="translate(0 0)"/><path class="cls-21" d="M266,415.18h-5c-.75,0-1.38-.36-1.38-.8,0-1,0-2,0-3,0-.44.61-.81,1.33-.81h4.79c.74,0,1.38.37,1.41.81.06,1,.1,2,.18,3C267.33,414.82,266.74,415.18,266,415.18Z" transform="translate(0 0)"/><path class="cls-21" d="M256.38,415.18h-5c-.77,0-1.37-.36-1.33-.8.07-1,.16-2,.25-3,0-.44.67-.81,1.41-.81h4.79c.74,0,1.34.37,1.33.81,0,1,0,2,0,3C257.78,414.82,257.16,415.18,256.38,415.18Z" transform="translate(0 0)"/><path class="cls-21" d="M246.8,415.18h-5c-.78,0-1.33-.37-1.26-.81.15-1,.32-2,.48-3,.07-.44.74-.81,1.48-.81h4.79c.74,0,1.31.37,1.26.81-.1,1-.22,2-.3,3C248.22,414.82,247.57,415.18,246.8,415.18Z" transform="translate(0 0)"/><path class="cls-21" d="M237.21,415.19h-5c-.77,0-1.31-.37-1.2-.81.23-1,.49-2,.74-3,.11-.44.79-.81,1.53-.81h4.81c.72,0,1.27.37,1.19.81q-.28,1.48-.54,3C238.67,414.82,238,415.19,237.21,415.19Z" transform="translate(0 0)"/><path class="cls-21" d="M227.59,415.19h-9c-.75,0-1.26-.37-1.1-.82l1.07-2.94a1.82,1.82,0,0,1,1.65-.83h8.69c.73,0,1.23.37,1.11.83-.26,1-.49,2-.75,2.94C229.1,414.82,228.37,415.19,227.59,415.19Z" transform="translate(0 0)"/><path class="cls-21" d="M213.47,415.2h-4.75c-.72,0-1.16-.35-1-.77.45-1,.93-2,1.37-3.06a1.85,1.85,0,0,1,1.61-.77h4.57c.69,0,1.11.35,1,.77-.39,1-.78,2-1.16,3.06A1.82,1.82,0,0,1,213.47,415.2Z" transform="translate(0 0)"/><path class="cls-12" d="M194.39,396.4c10,.39,25.78.89,30.29,1.87s12.86,10.83,15.74,15.48c1.61,2.58-2.32,3.21-10.91-3.55,10.14,12.84,8,18.22,6.65,19-2,1.16-4.4-8.43-11.37-11.4.84,4.07-.55,10.94-2.92,10.54-3.14-.53-3.91-8.3-5.8-9.48-7.28-4.54-16.23,9.45-41.12-3.65S173.73,393.67,194.39,396.4Z" transform="translate(0 0)"/><path class="cls-8" d="M187.73,420.59c-22.2,2.86-75.91.3-89.14-14.58-12.36-13.89,5.86-29.08,28-28.11,23.33,1,49.51,14,65.33,18.23C183.59,400.39,180.52,407.48,187.73,420.59Z" transform="translate(0 0)"/><path class="cls-8" d="M316.53,205.93c15.8,11.25,59.43,53.21,67.15,84.17,4.15,16.66-20.94,21.1-35.35,7.52-12.95-12.21-45.16-59.37-53-72.47C305.29,223.9,312.83,219.37,316.53,205.93Z" transform="translate(0 0)"/><path class="cls-14" d="M192.8,204.46c4.78,0,8.68-7,8.68-15.48s-3.9-15.49-8.68-15.49-8.67,7-8.67,15.49S188,204.46,192.8,204.46Z" transform="translate(0 0)"/><path class="cls-20" d="M190.83,201c3.71,0,6.74-5.4,6.74-12s-3-12-6.74-12-6.75,5.41-6.75,12S187.11,201,190.83,201Z" transform="translate(0 0)"/><polygon class="cls-20" points="406.32 286.42 215.52 286.42 210.3 409.52 401.11 409.52 406.32 286.42"/><path class="cls-22" d="M319.45,469.21c19.88,0,36.09-3.47,36.09-7.72s-16.21-7.72-36.09-7.72-36.09,3.47-36.09,7.72S299.57,469.21,319.45,469.21Z" transform="translate(0 0)"/><rect class="cls-19" x="283.36" y="457.98" width="72.17" height="3.51"/><path class="cls-20" d="M319.45,465.7c19.88,0,36.09-3.46,36.09-7.72s-16.21-7.72-36.09-7.72-36.09,3.47-36.09,7.72S299.57,465.7,319.45,465.7Z" transform="translate(0 0)"/><polygon class="cls-22" points="401.33 291.44 220.09 291.44 215.29 404.49 396.54 404.49 401.33 291.44"/><rect class="cls-23" x="305.23" y="355.6" width="28.44" height="102.39"/><rect class="cls-19" x="305.23" y="422.12" width="28.44" height="35.86"/><path class="cls-6" d="M189.6,189c-2.31-22.61.52-59.81,33.71-64.57" transform="translate(0 0)"/><ellipse class="cls-24" cx="189.42" cy="188.62" rx="3.34" ry="5.97"/><rect class="cls-25" x="214.72" y="210.98" width="14.61" height="6.39" rx="3.2"/><path class="cls-6" d="M187.93,189.44c5.41,13.37,11.62,24.75,23.59,24.75H225" transform="translate(0 0)"/><path class="cls-22" d="M149.41,438.67c13.56-1.46,28.16,24.53,4.6,27.08S135.86,440.14,149.41,438.67Z" transform="translate(0 0)"/><path class="cls-26" d="M149.41,438.67c12.22-1.32,24.09,18.52,3.52,20.74S137.19,440,149.41,438.67Z" transform="translate(0 0)"/><path class="cls-22" d="M149.62,439.89h0A1.3,1.3,0,0,1,151,441l.48,2.84a1.12,1.12,0,0,1-1,1.32h0a1.3,1.3,0,0,1-1.4-1.06l-.49-2.85A1.12,1.12,0,0,1,149.62,439.89Z" transform="translate(0 0)"/><rect class="cls-27" x="310.07" y="39.89" width="107.07" height="70.68" rx="16.09"/><polygon class="cls-5" points="356.29 103.74 378.68 103.74 337.6 153.93 356.29 103.74"/><path class="cls-28" d="M336.88,81.16A5.94,5.94,0,1,0,331,75.23,5.95,5.95,0,0,0,336.88,81.16Z" transform="translate(0 0)"/><path class="cls-28" d="M363.6,81.16a5.94,5.94,0,1,0-5.94-5.93A5.95,5.95,0,0,0,363.6,81.16Z" transform="translate(0 0)"/><path class="cls-28" d="M390.31,81.16a5.94,5.94,0,1,0-5.93-5.93A5.95,5.95,0,0,0,390.31,81.16Z" transform="translate(0 0)"/><polygon class="cls-5" points="376.43 183.44 387.63 170.03 376.43 161.04 376.43 183.44"/><polygon class="cls-5" points="414.6 183.44 414.6 161.04 403.4 170.03 414.6 183.44"/><polygon class="cls-5" points="414.5 184.38 414.6 184.38 414.6 184.29 414.5 184.38"/><polygon class="cls-5" points="376.43 184.38 376.53 184.38 376.43 184.29 376.43 184.38"/><polygon class="cls-5" points="413.94 184.38 413.88 184.29 402.54 170.73 395.51 176.37 388.49 170.73 377.15 184.29 377.08 184.38 413.94 184.38"/><polygon class="cls-5" points="388.34 169.19 388.77 169.53 389.2 169.88 395.51 174.95 401.83 169.88 402.26 169.53 402.69 169.19 413.71 160.33 377.31 160.33 388.34 169.19"/><path class="cls-5" d="M182.24,58.2,181.07,56l4.62-2.47,1.18,2.19a14.22,14.22,0,0,1,5.93-.58l.72-2.38,5,1.53-.72,2.37a14.45,14.45,0,0,1,4.61,3.79l2.19-1.17,2.47,4.63-2.19,1.17a14.4,14.4,0,0,1,.58,5.93l2.37.73-1.52,5L204,76a14.29,14.29,0,0,1-3.78,4.61l1.17,2.19-4.63,2.47-1.17-2.19a14.26,14.26,0,0,1-5.94.58l-.72,2.38-5-1.53.73-2.38A14.19,14.19,0,0,1,180,78.39l-2.2,1.17-2.47-4.63,2.2-1.17a14.23,14.23,0,0,1-.58-5.93l-2.38-.73,1.52-5,2.38.73a14.32,14.32,0,0,1,3.79-4.61Zm5.88,21.37h0a10.6,10.6,0,1,0-7.07-13.23A10.61,10.61,0,0,0,188.12,79.57Z" transform="translate(0 0)"/><path class="cls-5" d="M228.26,88.41l1.3,1.1-2.71,3.22-1.3-1.09a9.76,9.76,0,0,1-3.05,1.59l.15,1.69-4.19.36-.15-1.69a9.89,9.89,0,0,1-3.28-1l-1.1,1.3-3.22-2.71,1.09-1.3a9.53,9.53,0,0,1-1.58-3l-1.7.15-.36-4.19,1.69-.15a10,10,0,0,1,1-3.28l-1.3-1.1L212.29,75l1.3,1.09a9.53,9.53,0,0,1,3-1.58l-.15-1.7,4.19-.36.15,1.69a9.75,9.75,0,0,1,3.28,1l1.1-1.31,3.22,2.71-1.09,1.3a9.76,9.76,0,0,1,1.59,3l1.69-.15L231,85l-1.69.15a9.66,9.66,0,0,1-1,3.28Zm-4.47-9.57h0a6.44,6.44,0,0,0-2.31-1.26,6.57,6.57,0,0,0-6.13,11.32,6.44,6.44,0,0,0,2.31,1.26,6.57,6.57,0,0,0,6.13-11.32Z" transform="translate(0 0)"/><path class="cls-5" d="M117.65,253.39A17.39,17.39,0,1,0,100.26,236a17.39,17.39,0,0,0,17.39,17.39ZM107.1,248h0l-1.42-1.42,3.27-3.26,1.42,1.41L107.1,248Zm11.55,4h-2v-4.63h2v4.63ZM133.56,235h0v2h-4.62v-2Zm-5.37-11h0l1.42,1.42-3.27,3.27-1.42-1.42,3.27-3.27Zm-1.85,19.24h0l3.27,3.26L128.19,248l-3.27-3.27,1.42-1.41Zm-9.7-23.19h2v4.62h-2v-4.62Zm-1.78,11.85h0l3,2.89,5.45-5.36,1.41,1.43-6.85,6.73-4.39-4.25,1.4-1.44ZM107.1,224h0l3.27,3.27L109,228.73l-3.27-3.27L107.1,224Zm-.75,11h0v2h-4.62v-2Z" transform="translate(0 0)"/><path class="cls-5" d="M361.7,207.76A11.65,11.65,0,0,0,378,224.39l2.21,2a2.5,2.5,0,0,0,.84,2l8,7.14a2.52,2.52,0,0,0,3.36-3.76l-8-7.14a2.5,2.5,0,0,0-2.1-.6l-2.21-2a11.66,11.66,0,0,0-18.35-14.29Zm15.2,13.59h0a8.74,8.74,0,1,1-.69-12.34A8.73,8.73,0,0,1,376.9,221.35Z" transform="translate(0 0)"/><rect class="cls-27" x="36.14" y="82.56" width="107.07" height="70.68" rx="16.09"/><polygon class="cls-5" points="96.98 146.41 74.59 146.41 115.67 196.6 96.98 146.41"/><path class="cls-28" d="M77,112.37h8.53c0-3.14,1.21-4.63,3.58-4.63,2,0,3.08.88,3.08,2.87,0,4.78-6.39,5.44-6.39,13.81h8.31c0-6.17,8.31-7.49,8.31-15.63,0-6.27-4.62-9.79-12.27-9.79C81.86,99,77,104,77,112.37ZM89.73,128a4.93,4.93,0,0,0-5.18,5.12,5.2,5.2,0,1,0,10.4,0A4.94,4.94,0,0,0,89.73,128Z" transform="translate(0 0)"/></g></svg>