<svg xmlns="http://www.w3.org/2000/svg" xmlns:xlink="http://www.w3.org/1999/xlink" width="577.374" height="808.684" viewBox="0 0 577.374 808.684">
  <defs>
    <linearGradient id="linear-gradient" y1="0.5" x2="1" y2="0.5" gradientUnits="objectBoundingBox">
      <stop offset="0" stop-color="#ff4d00"/>
      <stop offset="1" stop-color="#793126"/>
    </linearGradient>
    <linearGradient id="linear-gradient-2" y1="0.5" x2="1" y2="0.5" gradientUnits="objectBoundingBox">
      <stop offset="0" stop-color="#ff4d00"/>
      <stop offset="1" stop-color="#bb3126"/>
    </linearGradient>
  </defs>
  <g id="Group_20" data-name="Group 20" transform="translate(-140 -57.498)">
    <g id="Background_Complete" data-name="Background Complete" transform="translate(140 520.191)">
      <path id="Path_624" data-name="Path 624" d="M5.04,814.5v34.643H111.576V814.5Z" transform="translate(-0.573 -506.342)" fill="#f5f5f5"/>
      <path id="Path_625" data-name="Path 625" d="M0,803.57v9.687H114.734V803.57H0Z" transform="translate(0 -505.099)" fill="#e0e0e0"/>
      <path id="Path_626" data-name="Path 626" d="M64.442,847.9h53.636V813.257h3.731V803.57H62.2v8.792Z" transform="translate(-7.075 -505.099)" fill="#e0e0e0"/>
      <rect id="Rectangle_470" data-name="Rectangle 470" width="21.607" height="5.211" transform="translate(19.373 313.741)" fill="#e0e0e0"/>
      <rect id="Rectangle_471" data-name="Rectangle 471" width="27.74" height="11.007" transform="translate(16.591 325.475)" fill="#fff"/>
      <path id="Path_627" data-name="Path 627" d="M23.54,764.53v34.643H130.076V764.53Z" transform="translate(-2.678 -500.658)" fill="#f5f5f5"/>
      <path id="Path_628" data-name="Path 628" d="M18.49,753.6v9.687H133.224V753.6H18.49Z" transform="translate(-2.103 -499.415)" fill="#e0e0e0"/>
      <path id="Path_629" data-name="Path 629" d="M82.933,797.93h53.645V763.287H140.3V753.6H80.7v8.792Z" transform="translate(-9.18 -499.415)" fill="#e0e0e0"/>
      <rect id="Rectangle_472" data-name="Rectangle 472" width="21.607" height="5.211" transform="translate(35.76 269.464)" fill="#e0e0e0"/>
      <rect id="Rectangle_473" data-name="Rectangle 473" width="27.74" height="11.007" transform="translate(32.977 281.198)" fill="#fff"/>
      <rect id="Rectangle_474" data-name="Rectangle 474" width="78.876" height="114.326" transform="translate(7.489)" fill="#e0e0e0"/>
      <rect id="Rectangle_475" data-name="Rectangle 475" width="78.876" height="114.326" transform="translate(3.545)" fill="#f5f5f5"/>
      <rect id="Rectangle_476" data-name="Rectangle 476" width="59.272" height="89.564" transform="translate(13.338 12.381)" fill="#fff"/>
      <path id="Path_630" data-name="Path 630" d="M101.485,570.274v-6.62c0-4.289,0-10.546-.053-18.452,0-15.793-.062-38.109-.1-64.492l.195.2H42.266l.213-.222v89.564l-.168-.168,43.143.089h.106l-43.249.1H42V480.32h59.689v.195c0,26.392-.071,48.8-.1,64.625,0,7.879,0,14.127-.053,18.407v6.115A4.506,4.506,0,0,1,101.485,570.274Z" transform="translate(-28.866 -468.329)" fill="#e0e0e0"/>
      <path id="Path_631" data-name="Path 631" d="M106,481.44" transform="translate(-36.146 -468.456)" fill="none" stroke="#fbfbfb" stroke-miterlimit="10" stroke-width="0.25"/>
      <path id="Path_632" data-name="Path 632" d="M119.047,466.79a13.813,13.813,0,0,1-1.409,2.047c-.886,1.223-2.216,2.889-3.7,4.688s-2.871,3.4-3.9,4.538a13.95,13.95,0,0,1-1.772,1.772,14.409,14.409,0,0,1,1.507-1.967l3.793-4.609c1.445-1.773,2.739-3.332,3.793-4.609a15.953,15.953,0,0,1,1.684-1.861Z" transform="translate(-36.404 -466.79)" fill="#e0e0e0"/>
      <path id="Path_633" data-name="Path 633" d="M109.46,581.5A73.759,73.759,0,0,0,119.8,594.43" transform="translate(-36.539 -479.838)" fill="#fff"/>
      <path id="Path_634" data-name="Path 634" d="M119.807,594.427a12.152,12.152,0,0,1-1.773-1.64,58.18,58.18,0,0,1-3.9-4.431,57.455,57.455,0,0,1-3.43-4.768,12.405,12.405,0,0,1-1.205-2.118,15.789,15.789,0,0,1,1.453,1.95c.886,1.214,2.092,2.889,3.545,4.671s2.792,3.341,3.784,4.431a16.193,16.193,0,0,1,1.524,1.905Z" transform="translate(-36.544 -479.835)" fill="#e0e0e0"/>
      <path id="Path_635" data-name="Path 635" d="M31.17,594.054,41.495,581.31" transform="translate(-27.634 -479.817)" fill="#fff"/>
      <path id="Path_636" data-name="Path 636" d="M41.5,581.31a77.621,77.621,0,0,1-5,6.505,77.807,77.807,0,0,1-5.318,6.2,77.594,77.594,0,0,1,5-6.505,79.763,79.763,0,0,1,5.317-6.2Z" transform="translate(-27.635 -479.817)" fill="#e0e0e0"/>
      <path id="Path_637" data-name="Path 637" d="M31.18,466.79a73.067,73.067,0,0,1,5.016,6,73.654,73.654,0,0,1,4.679,6.257,69.944,69.944,0,0,1-5.016-5.991,69.19,69.19,0,0,1-4.679-6.266Z" transform="translate(-27.635 -466.79)" fill="#e0e0e0"/>
      <rect id="Rectangle_477" data-name="Rectangle 477" width="19.852" height="56.357" transform="translate(34.298 30.567)" fill="#e0e0e0"/>
      <path id="Path_638" data-name="Path 638" d="M604.327,834.8c-1.87-1.6-6.035-6.665-2.818-12.567,1.17-2.154,3.669-3.226,5.938-4.183s4.635-1.773,6.505-3.368c3.545-3,4.5-7.976,6.851-12,2.659-4.6,7.71-8.038,13.01-7.8,6.071.275,11.14,5.238,13.435,10.892s2.419,11.938,2.419,18.044c0,3.377-.124,7.188-2.606,9.465-2.286,2.1-5.734,2.127-8.862,2.038L605,834.3" transform="translate(-92.375 -504.109)" fill="#f5f5f5"/>
      <path id="Path_639" data-name="Path 639" d="M665.269,736.93H578L593.731,830.7a10.457,10.457,0,0,0,7.453,8.348l.3.08c.257.062.514.151.78.2a11.663,11.663,0,0,0,1.773.2v.089l.425-.071H643.37a10.626,10.626,0,0,0,2.136-.213,10.5,10.5,0,0,0,8.862-9.164l7.586-64.6.337-2.57h0l3-25.586ZM648.8,796.743h-8.96l.886-27.217h10.378Zm3.19-27.217h8.579l-3.19,27.217h-7.71ZM626.4,826.9l-.541-23.636h12.9l-.789,23.636Zm-13.941-23.636h12.514l.549,23.636H614.336Zm.993,23.636H602.912c-.993-6.381-2.3-14.676-3.7-23.636h12.407Zm-1.471-30.133-2.118-27.217h14.384l.62,27.217Zm13.755,0-.629-27.217h14.8l-.886,27.217ZM624.971,763l-.576-25.2h16.529l-.833,25.2Zm-.886,0H609.329l-1.959-25.2h16.112Zm-15.607,0h-15.6c-.549-3.483-1.072-6.78-1.542-9.749-1.631-10.192-2.242-14.02-2.579-15.465h17.725Zm.505,6.523,2.118,27.217H598.189c-.434-2.765-.886-5.557-1.312-8.349-1.01-6.425-2.029-12.851-2.978-18.868Zm-11.654,27.217H588.9l-4.564-27.217h8.73c1.285,8.411,2.756,17.769,4.245,27.217Zm1.019,6.523c1.285,8.18,2.552,16.245,3.7,23.636h-8.1l-3.962-23.636ZM638.859,826.9l.789-23.636h8.614L646.241,826.9Zm2.118-63.9.886-25.2H653.9L651.745,763Zm-53.042-25.2c.346,1.826,1.941,11.743,4.068,25.2h-8.774L579,737.8Zm65.919,89.1h-6.727l2.021-23.636h7.5Zm7.5-63.9h-8.783l2.154-25.2h9.589Z" transform="translate(-89.836 -497.519)" fill="#e0e0e0"/>
      <path id="Path_640" data-name="Path 640" d="M636.818,473.71v76.767H526.559l-3.979-76.235Z" transform="translate(-59.444 -467.577)" fill="#e0e0e0"/>
      <rect id="Rectangle_478" data-name="Rectangle 478" width="76.067" height="110.258" transform="translate(463.136 82.731) rotate(-90)" fill="#fff"/>
      <path id="Path_641" data-name="Path 641" d="M660.484,550.844H549.18v-77.1h111.3ZM550.226,549.8H659.438v-75.03H550.226Z" transform="translate(-86.558 -467.581)" fill="#e0e0e0"/>
      <rect id="Rectangle_479" data-name="Rectangle 479" width="86.374" height="57.172" transform="translate(475.083 16.121)" fill="#fff"/>
      <path id="Path_642" data-name="Path 642" d="M649.564,484.958h-6.39l-17.8.071-62.179.124.248-.248v57.154h0l-.275-.266,86.374.053-.213.213c0-17.4.089-31.657.115-41.592,0-4.963,0-8.863.053-11.521v-.089c0,2.659,0,6.514.053,11.459,0,9.961.071,24.274.115,41.725v.222h-.222l-86.374.053H562.8v-.275h0V484.63h.248l62.348.115,17.725.071h5.893Z" transform="translate(-88.107 -468.819)" fill="#e0e0e0"/>
      <path id="Path_643" data-name="Path 643" d="M549.77,474.07a10.025,10.025,0,0,1,1.9,1.232c1.126.815,2.659,1.967,4.316,3.3s3.12,2.579,4.148,3.545a8.6,8.6,0,0,1,1.578,1.622c-.1.115-2.747-2.074-6.062-4.715A57.421,57.421,0,0,1,549.77,474.07Z" transform="translate(-86.624 -467.618)" fill="#e0e0e0"/>
      <path id="Path_644" data-name="Path 644" d="M672.646,474.309a53.759,53.759,0,0,1-5.8,4.945,52.555,52.555,0,0,1-6.142,4.511,53.866,53.866,0,0,1,5.8-4.945A52.55,52.55,0,0,1,672.646,474.309Z" transform="translate(-99.243 -467.645)" fill="#e0e0e0"/>
      <path id="Path_645" data-name="Path 645" d="M672.5,558.881,660.21,548.92" transform="translate(-99.187 -476.132)" fill="#fff"/>
      <path id="Path_646" data-name="Path 646" d="M660.21,548.919a55.316,55.316,0,0,1,6.319,4.768,58.167,58.167,0,0,1,5.973,5.193,57.972,57.972,0,0,1-6.319-4.768A56.9,56.9,0,0,1,660.21,548.919Z" transform="translate(-99.187 -476.132)" fill="#e0e0e0"/>
      <path id="Path_647" data-name="Path 647" d="M549.77,558.953a50.015,50.015,0,0,1,5.743-4.892,53.465,53.465,0,0,1,6.071-4.431,51.968,51.968,0,0,1-5.734,4.883A53.437,53.437,0,0,1,549.77,558.953Z" transform="translate(-86.624 -476.213)" fill="#e0e0e0"/>
      <rect id="Rectangle_480" data-name="Rectangle 480" width="19.143" height="54.354" transform="translate(492.622 53.077) rotate(-90)" fill="#e0e0e0"/>
    </g>
    <g id="Device" transform="translate(192.2 567.251)">
      <path id="Path_649" data-name="Path 649" d="M86.658,519.9H516.49a5.973,5.973,0,0,1,5.973,5.973V799.724a12.913,12.913,0,0,1-12.913,12.913H92.7A12.913,12.913,0,0,1,79.79,799.724V526.758a6.868,6.868,0,0,1,6.868-6.868Z" transform="translate(-61.276 -519.89)" fill="#0e296b"/>
      <path id="Path_650" data-name="Path 650" d="M58.9,825.76H538.45v13.453a12.159,12.159,0,0,1-12.159,12.159H71.059A12.159,12.159,0,0,1,58.9,839.213Z" transform="translate(-58.9 -554.683)" fill="#aec3ff"/>
      <rect id="Rectangle_481" data-name="Rectangle 481" width="417.654" height="247.202" transform="translate(30.39 11.636)" fill="#f5f5f5"/>
      <path id="Path_651" data-name="Path 651" d="M280.29,825.76l5.947,9.465h83.742l5.521-9.465Z" transform="translate(-84.083 -554.683)" fill="#263238"/>
      <rect id="Rectangle_482" data-name="Rectangle 482" width="442.655" height="1.409" transform="translate(18.585 270.989)" fill="#263238"/>
    </g>
    <g id="Certification" transform="translate(294.863 526.282)">
      <path id="Path_652" data-name="Path 652" d="M247.908,515.113H201.92V498.922c0-11.433,9.261-21.1,20.694-21.1l25.294.4Z" transform="translate(-201.92 -477.136)" fill="#e0e0e0"/>
      <path id="Path_653" data-name="Path 653" d="M224.16,477.73s26.171-2.375,26.171,31.754V775h205.4V499.806A22.546,22.546,0,0,0,433.12,477.26Z" transform="translate(-204.45 -477.072)" fill="#fff"/>
      <path id="Path_654" data-name="Path 654" d="M224.152,477.706l151.956-.487,36.788-.106,19.577-.053a22.724,22.724,0,0,1,22.777,17.4,23.252,23.252,0,0,1,.479,2.606c.124.886.106,1.773.168,2.659V775.175H250.084v-.2c0-91.931.062-169.992.08-225.107V513.005c0-2.659,0-5.318-.151-7.755a47.389,47.389,0,0,0-.984-7.09,37.69,37.69,0,0,0-2-6.2,28.688,28.688,0,0,0-2.951-5.087,22.529,22.529,0,0,0-7.418-6.363,25.267,25.267,0,0,0-11.087-2.871h-1.48a11.683,11.683,0,0,1,1.48-.044,25.142,25.142,0,0,1,11.131,2.818,22.4,22.4,0,0,1,7.471,6.372,27.881,27.881,0,0,1,2.978,5.1,37.221,37.221,0,0,1,2.038,6.2,47.6,47.6,0,0,1,1,7.09c.186,2.49.16,5.087.16,7.772v36.859c0,55.072,0,133.132.08,225.107l-.2-.2h205.4l-.222.222V505.02c-.053-3.545.257-7.09-.638-10.511a22.528,22.528,0,0,0-4.608-9.164,23.158,23.158,0,0,0-8.074-6.053,22.546,22.546,0,0,0-9.749-1.914h-19.6l-36.868.062Z" transform="translate(-204.442 -477.048)" fill="#263238"/>
      <path id="Path_655" data-name="Path 655" d="M345.729,568.673c0,.124-12.5.222-27.9.222s-27.89-.1-27.89-.222,12.487-.213,27.89-.213S345.729,568.557,345.729,568.673Z" transform="translate(-211.932 -487.446)" fill="#959899"/>
      <path id="Path_656" data-name="Path 656" d="M358.234,576.2c0,.124-15.288.222-34.147.222s-34.147-.1-34.147-.222,15.279-.221,34.147-.221S358.234,576.086,358.234,576.2Z" transform="translate(-211.932 -488.302)" fill="#959899"/>
      <path id="Path_657" data-name="Path 657" d="M363.009,605.842c0,.115-15.793.222-35.264.222s-35.255-.106-35.255-.222,15.784-.222,35.255-.222S363.009,605.718,363.009,605.842Z" transform="translate(-212.222 -491.673)" fill="#959899"/>
      <path id="Path_658" data-name="Path 658" d="M408.868,634.722c0,.124-26.393.222-58.944.222s-58.953-.1-58.953-.222,26.384-.221,58.953-.221S408.868,634.6,408.868,634.722Z" transform="translate(-212.049 -494.958)" fill="#959899"/>
      <path id="Path_659" data-name="Path 659" d="M408.871,643.342c0,.115-26.393.213-58.945.213s-58.927-.1-58.927-.213,26.384-.222,58.953-.222S408.871,643.218,408.871,643.342Z" transform="translate(-212.053 -495.939)" fill="#959899"/>
      <path id="Path_660" data-name="Path 660" d="M408.871,651.973c0,.124-26.393.222-58.945.222S291,652.079,291,651.973s26.384-.213,58.953-.213S408.871,651.84,408.871,651.973Z" transform="translate(-212.053 -496.922)" fill="#959899"/>
      <path id="Path_661" data-name="Path 661" d="M408.871,660.572c0,.124-26.393.222-58.945.222S291,660.7,291,660.572s26.384-.221,58.953-.221S408.871,660.448,408.871,660.572Z" transform="translate(-212.053 -497.899)" fill="#959899"/>
      <path id="Path_662" data-name="Path 662" d="M408.868,669.192c0,.124-26.393.222-58.944.222s-58.953-.1-58.953-.222,26.384-.222,58.953-.222S408.868,669.068,408.868,669.192Z" transform="translate(-212.049 -498.879)" fill="#959899"/>
      <path id="Path_663" data-name="Path 663" d="M335.711,677.812c0,.115-10.006.222-22.351.222s-22.36-.08-22.36-.222,10.006-.221,22.351-.221S335.711,677.688,335.711,677.812Z" transform="translate(-212.053 -499.86)" fill="#959899"/>
      <path id="Path_664" data-name="Path 664" d="M445.116,633.54l-20.969,48.744a1.232,1.232,0,0,0,1.622,1.613l16.165-7.134a1.232,1.232,0,0,1,1.666.736l5.459,16.378a1.232,1.232,0,0,0,2.322,0l19.71-52.572Z" transform="translate(-227.187 -494.849)" fill="#ff725e"/>
      <path id="Path_665" data-name="Path 665" d="M478.66,641.645l10.05,52.1a1.232,1.232,0,0,0,2.26.417l9.35-15.022a1.223,1.223,0,0,1,1.773-.328l13.719,10.475a1.232,1.232,0,0,0,1.941-1.267L504.53,633.5Z" transform="translate(-233.399 -494.845)" fill="#ff725e"/>
      <path id="Path_666" data-name="Path 666" d="M445.116,633.54l-20.969,48.744a1.232,1.232,0,0,0,1.622,1.613l16.165-7.134a1.232,1.232,0,0,1,1.666.736l5.459,16.378a1.232,1.232,0,0,0,2.322,0l19.71-52.572Z" transform="translate(-227.187 -494.849)" fill="#ce4b11"/>
      <path id="Path_667" data-name="Path 667" d="M478.66,641.645l10.05,52.1a1.232,1.232,0,0,0,2.26.417l9.35-15.022a1.223,1.223,0,0,1,1.773-.328l13.719,10.475a1.232,1.232,0,0,0,1.941-1.267L504.53,633.5Z" transform="translate(-233.399 -494.845)" fill="#ce4b11"/>
      <path id="Path_668" data-name="Path 668" d="M445.592,536.5l6.886-5.06,5.406,6.611,7.932-3.191,3.589,7.755,8.473-1.117,1.56,8.4,8.481,1.028-.585,8.517,7.967,3.111-2.685,8.109,6.939,4.981-4.617,7.2,5.477,6.549-6.257,5.814,3.678,7.71-7.507,4.077,1.648,8.384-8.3,2.083-.487,8.535-8.543-.053-2.6,8.145-8.26-2.171-4.546,7.241L451.787,635l-6.195,5.885L439.4,635l-7.471,4.156-4.538-7.241-8.269,2.171-2.588-8.145-8.552.053-.487-8.535-8.286-2.083,1.648-8.384-7.515-4.077,3.687-7.71-6.266-5.814,5.486-6.549-4.617-7.2,6.939-4.981-2.685-8.109,7.958-3.111-.576-8.517,8.481-1.028,1.551-8.4,8.473,1.117,3.6-7.755,7.923,3.191,5.415-6.611Z" transform="translate(-199.312 -483.235)" fill="#ef753f"/>
      <circle id="Ellipse_76" data-name="Ellipse 76" cx="38.703" cy="38.703" r="38.703" transform="translate(191.548 102.926) rotate(-45)" fill="#fff"/>
      <path id="Path_669" data-name="Path 669" d="M485.7,581.333l10.387,1.524a2.074,2.074,0,0,1,1.143,3.545l-7.524,7.32a2.083,2.083,0,0,0-.594,1.843l1.773,10.343a2.083,2.083,0,0,1-3.022,2.189l-9.288-4.892a2.091,2.091,0,0,0-1.941,0l-9.306,4.857a2.083,2.083,0,0,1-3.013-2.2l1.773-10.342a2.074,2.074,0,0,0-.6-1.843l-7.507-7.338a2.083,2.083,0,0,1,1.161-3.545l10.387-1.5a2.092,2.092,0,0,0,1.569-1.134l4.653-9.412a2.083,2.083,0,0,1,3.731,0l4.635,9.412a2.065,2.065,0,0,0,1.586,1.17Z" transform="translate(-230.976 -487.575)" fill="#377b93"/>
      <path id="Path_670" data-name="Path 670" d="M312,523.567a4.741,4.741,0,0,1,5.043-4.768A4.866,4.866,0,0,1,321,520.571l-1.657,1.5a2.619,2.619,0,1,0,0,3.093l1.657,1.5a4.865,4.865,0,0,1-3.953,1.772A4.741,4.741,0,0,1,312,523.567Z" transform="translate(-214.441 -481.796)" fill="#bc3f00"/>
      <path id="Path_671" data-name="Path 671" d="M330.814,526.179v2H323.44V519h7.205v2H326.01v1.542h4.077v1.941H326.01v1.675Z" transform="translate(-215.743 -481.82)" fill="#bc3f00"/>
      <path id="Path_672" data-name="Path 672" d="M337.4,525.744h-1.418v2.437h-2.6V519h4.192c2.508,0,4.077,1.294,4.077,3.394a3.04,3.04,0,0,1-1.773,2.9l1.976,2.88H339.08Zm0-4.7H335.96v2.659h1.515c1.072,0,1.6-.505,1.6-1.338s-.576-1.321-1.6-1.321Z" transform="translate(-216.875 -481.82)" fill="#bc3f00"/>
      <path id="Path_673" data-name="Path 673" d="M346.037,521.065H343.21V519h8.224v2.056h-2.8v7.09h-2.6Z" transform="translate(-217.992 -481.82)" fill="#bc3f00"/>
      <path id="Path_674" data-name="Path 674" d="M353.59,519h2.6v9.173h-2.6Z" transform="translate(-219.173 -481.82)" fill="#bc3f00"/>
      <path id="Path_675" data-name="Path 675" d="M361.207,521.012v2.021h4.05v2h-4.05v3.146h-2.6V519h7.2v2Z" transform="translate(-219.743 -481.82)" fill="#bc3f00"/>
      <path id="Path_676" data-name="Path 676" d="M368.105,519h2.561v9.173h-2.6Z" transform="translate(-220.82 -481.82)" fill="#bc3f00"/>
      <path id="Path_677" data-name="Path 677" d="M372.59,523.567a4.741,4.741,0,0,1,5.052-4.768,4.83,4.83,0,0,1,3.944,1.772l-1.648,1.5a2.619,2.619,0,1,0,0,3.093l1.648,1.5a4.83,4.83,0,0,1-3.944,1.773,4.75,4.75,0,0,1-5.052-4.865Z" transform="translate(-221.334 -481.796)" fill="#bc3f00"/>
      <path id="Path_678" data-name="Path 678" d="M389.878,526.4H386l-.718,1.773H382.62L386.679,519h2.561l4.059,9.173h-2.7Zm-.762-1.914-1.179-2.933-1.179,2.933Z" transform="translate(-222.475 -481.82)" fill="#bc3f00"/>
      <path id="Path_679" data-name="Path 679" d="M396.827,521.065H394V519h8.224v2.056h-2.809v7.09h-2.6Z" transform="translate(-223.769 -481.82)" fill="#bc3f00"/>
      <path id="Path_680" data-name="Path 680" d="M404.38,519h2.6v9.173h-2.6Z" transform="translate(-224.95 -481.82)" fill="#bc3f00"/>
      <path id="Path_681" data-name="Path 681" d="M408.87,523.567a5.112,5.112,0,0,1,10.2,0,5.114,5.114,0,0,1-10.2,0Zm7.577,0a2.482,2.482,0,1,0-2.482,2.659,2.455,2.455,0,0,0,2.482-2.659Z" transform="translate(-225.461 -481.796)" fill="#bc3f00"/>
      <path id="Path_682" data-name="Path 682" d="M430.658,519v9.173h-2.145l-4.05-4.892v4.892H421.92V519h2.136l4.059,4.892V519Z" transform="translate(-226.945 -481.82)" fill="#bc3f00"/>
      <path id="Path_683" data-name="Path 683" d="M436.81,714.192c0,.115-11.7.222-26.135.222s-26.144-.106-26.144-.222,11.7-.222,26.144-.222S436.81,714.068,436.81,714.192Z" transform="translate(-222.692 -503.998)" fill="#959899"/>
      <path id="Path_684" data-name="Path 684" d="M436.81,722.512c0,.124-11.7.222-26.135.222s-26.144-.1-26.144-.222,11.7-.221,26.144-.221S436.81,722.388,436.81,722.512Z" transform="translate(-222.692 -504.945)" fill="#959899"/>
      <path id="Path_685" data-name="Path 685" d="M433.76,755.785a2.4,2.4,0,0,1,0-.372c0-.257-.044-.62-.08-1.072a4.163,4.163,0,0,0-.053-.789c-.053-.284-.089-.612-.142-.948a17.171,17.171,0,0,0-.479-2.34,21.661,21.661,0,0,0-2.517-5.991,22.467,22.467,0,0,0-27.013-9.589,20.569,20.569,0,0,0-5.681,3.058,25.428,25.428,0,0,0-2.544,2.162,25.952,25.952,0,0,0-2.207,2.606,22.059,22.059,0,0,0-3.208,6.2,22.36,22.36,0,0,0,0,14.18,22.06,22.06,0,0,0,3.208,6.2,27.1,27.1,0,0,0,2.2,2.606,26.589,26.589,0,0,0,2.552,2.163,22.743,22.743,0,0,0,2.756,1.772,21.881,21.881,0,0,0,2.925,1.285,22.529,22.529,0,0,0,27.013-9.58,21.812,21.812,0,0,0,2.517-6,16.9,16.9,0,0,0,.479-2.34c.053-.337.115-.656.142-.939a7.23,7.23,0,0,1,.053-.8c0-.452.062-.807.08-1.072a2.34,2.34,0,0,1,0-.363,2.27,2.27,0,0,1,0,.363v1.879a6.745,6.745,0,0,1-.133.948,16.452,16.452,0,0,1-.434,2.357,21.527,21.527,0,0,1-2.473,6.089,22.75,22.75,0,0,1-27.367,9.837,22.479,22.479,0,0,1-2.978-1.3,23.557,23.557,0,0,1-2.809-1.772,27.583,27.583,0,0,1-2.606-2.2,25.842,25.842,0,0,1-2.242-2.659,22.368,22.368,0,0,1-3.279-6.31,22.723,22.723,0,0,1,0-14.446,22.439,22.439,0,0,1,3.279-6.3,25.927,25.927,0,0,1,2.251-2.659,26.407,26.407,0,0,1,2.544-2.224,23.574,23.574,0,0,1,2.809-1.773,25.1,25.1,0,0,1,2.978-1.3,22.754,22.754,0,0,1,27.367,9.837,21.526,21.526,0,0,1,2.473,6.089,16.456,16.456,0,0,1,.434,2.357c.053.346.106.656.133.948a7.963,7.963,0,0,1,0,.8v1.081a2.379,2.379,0,0,1,.053.319Z" transform="translate(-223.116 -506.162)" fill="#ff725e"/>
      <circle id="Ellipse_77" data-name="Ellipse 77" cx="14.57" cy="14.57" r="14.57" transform="matrix(0.231, -0.973, 0.973, 0.231, 170.427, 260.381)" fill="#fc783d"/>
      <path id="Path_686" data-name="Path 686" d="M440.257,744.55s-.2.124-.611.346l-1.817.939c-1.613.886-3.979,2.074-7,3.651L419.776,755.2a11.051,11.051,0,0,1-3.6,1.143,4.847,4.847,0,0,1-3.82-1.161,3.545,3.545,0,0,1-1.126-1.817,2.322,2.322,0,0,1,.479-2.145,3.057,3.057,0,0,1,2.038-.984,1.9,1.9,0,0,1,1.994,1.117v.062a10.059,10.059,0,0,1-2.455,6.665,9.438,9.438,0,0,1-6.736,3.385,10.272,10.272,0,0,1-7.524-2.712,6.878,6.878,0,0,1-2.163-3.651,3.545,3.545,0,0,1,.337-2.18,3.173,3.173,0,0,1,1.648-1.533,2.331,2.331,0,0,1,2.251.3,3.891,3.891,0,0,1,1.285,1.9,6.93,6.93,0,0,1,.346,2.242,7.043,7.043,0,0,1,0,1.143,6.033,6.033,0,0,1-.151,1.126,13.046,13.046,0,0,1-4.715,7.79,11.521,11.521,0,0,1-8.969,2.579,12.957,12.957,0,0,1-8.2-4.99,12.3,12.3,0,0,1-2.357-5.078,9.439,9.439,0,0,1,.417-5.512,4.617,4.617,0,0,1,1.772-2.136,3.82,3.82,0,0,1,2.739-.514,3.235,3.235,0,0,1,2.171,1.7,9.339,9.339,0,0,1,.886,2.544,18.027,18.027,0,0,1-.62,10.289,14.72,14.72,0,0,1-6.2,7.648,14.41,14.41,0,0,1-9.173,1.994,11.972,11.972,0,0,1-4.334-1.4,11.706,11.706,0,0,1-3.368-2.863,12.249,12.249,0,0,1-2.8-7.773,10.37,10.37,0,0,1,.815-3.873,4.706,4.706,0,0,1,2.659-2.659,3.447,3.447,0,0,1,1.87-.053,4.049,4.049,0,0,1,1.56.939,7.516,7.516,0,0,1,1.773,2.925,9.573,9.573,0,0,1,.567,3.182v1.533a13.384,13.384,0,0,1-.1,1.48,25.452,25.452,0,0,1-2.854,9.5,24.505,24.505,0,0,1-3.616,5.131c-.487.532-.886.886-1.152,1.161l-.417.372s.124-.142.381-.408.647-.638,1.117-1.188a24.814,24.814,0,0,0,3.545-5.149,25.586,25.586,0,0,0,2.765-9.439c.044-.479.071-.975.08-1.471s0-1,0-1.516a9.029,9.029,0,0,0-.567-3.093,7.242,7.242,0,0,0-1.719-2.809,3.766,3.766,0,0,0-1.436-.886,3.148,3.148,0,0,0-1.693.053,4.432,4.432,0,0,0-2.428,2.535,10.212,10.212,0,0,0-.762,3.74,11.858,11.858,0,0,0,2.738,7.542,11.175,11.175,0,0,0,7.471,4.112,14.091,14.091,0,0,0,8.907-1.959,14.3,14.3,0,0,0,6.027-7.444,17.592,17.592,0,0,0,.6-10.05,9.385,9.385,0,0,0-.886-2.428,2.818,2.818,0,0,0-1.888-1.489,3.35,3.35,0,0,0-2.42.47,4.13,4.13,0,0,0-1.64,1.932,9.022,9.022,0,0,0-.381,5.247,11.814,11.814,0,0,0,2.269,4.9,12.54,12.54,0,0,0,7.923,4.821,11.14,11.14,0,0,0,8.632-2.482,12.717,12.717,0,0,0,4.564-7.524,6.561,6.561,0,0,0,.142-1.09,5.6,5.6,0,0,0,0-1.09,6.459,6.459,0,0,0-.319-2.118,3.545,3.545,0,0,0-1.134-1.7,1.923,1.923,0,0,0-1.861-.257,2.8,2.8,0,0,0-1.427,1.338,3.19,3.19,0,0,0-.248,1.95,6.416,6.416,0,0,0,2.038,3.421,9.882,9.882,0,0,0,7.232,2.659,9.031,9.031,0,0,0,6.478-3.244,9.687,9.687,0,0,0,2.384-6.416v.053a1.56,1.56,0,0,0-1.657-.886,2.659,2.659,0,0,0-1.817.886,1.95,1.95,0,0,0-.417,1.852,3.218,3.218,0,0,0,1.019,1.657,4.573,4.573,0,0,0,3.589,1.108,10.7,10.7,0,0,0,3.545-1.108l11.06-5.672,7.037-3.545,1.843-.886Z" transform="translate(-219.882 -507.477)" fill="#263238"/>
      <path id="Path_687" data-name="Path 687" d="M354.811,509.052c0,.124-17.893.222-39.961.222s-39.97-.1-39.97-.222,17.893-.221,39.97-.221S354.811,508.981,354.811,509.052Z" transform="translate(-210.219 -480.664)" fill="#e0e0e0"/>
      <path id="Path_688" data-name="Path 688" d="M379.4,509.052a17.528,17.528,0,0,1-5.557,0,17.53,17.53,0,0,1,5.557,0Z" transform="translate(-221.476 -480.663)" fill="#e0e0e0"/>
      <path id="Path_689" data-name="Path 689" d="M460.532,509.052c0,.124-16.325.222-36.451.222s-36.46-.1-36.46-.222,16.325-.221,36.46-.221S460.532,508.981,460.532,509.052Z" transform="translate(-223.043 -480.664)" fill="#e0e0e0"/>
      <path id="Path_690" data-name="Path 690" d="M354.811,534.152c0,.115-17.893.222-39.961.222s-39.97-.106-39.97-.222,17.893-.222,39.97-.222S354.811,533.992,354.811,534.152Z" transform="translate(-210.219 -483.519)" fill="#e0e0e0"/>
      <path id="Path_691" data-name="Path 691" d="M379.4,534.152a17.528,17.528,0,0,1-5.557,0A17.532,17.532,0,0,1,379.4,534.152Z" transform="translate(-221.476 -483.519)" fill="#e0e0e0"/>
      <path id="Path_692" data-name="Path 692" d="M460.532,534.152c0,.115-16.325.222-36.451.222s-36.46-.106-36.46-.222,16.325-.222,36.46-.222S460.532,533.992,460.532,534.152Z" transform="translate(-223.043 -483.519)" fill="#e0e0e0"/>
    </g>
    <g id="Plant" transform="translate(184.951 576.086)">
      <path id="Path_693" data-name="Path 693" d="M643.341,630.292S633.256,671.6,588.11,662.135C588.11,662.135,601.191,620.3,643.341,630.292Z" transform="translate(-135.936 -541.109)" fill="#ffce6c"/>
      <path id="Path_694" data-name="Path 694" d="M618.758,700.13s-20.72,30.9-54.947,9.536C563.792,709.666,587.145,679.241,618.758,700.13Z" transform="translate(-133.172 -548.395)" fill="#ffce6c"/>
      <path id="Path_695" data-name="Path 695" d="M580.953,752.291s-30.23,25.7-59.193-6.159C521.76,746.132,554.551,721.663,580.953,752.291Z" transform="translate(-128.389 -553.408)" fill="#ffce6c"/>
      <path id="Path_696" data-name="Path 696" d="M551.853,641.49s33.536,16.121,17.264,53.051C569.117,694.541,535.679,675.761,551.853,641.49Z" transform="translate(-131.31 -542.558)" fill="#ffce6c"/>
      <path id="Path_697" data-name="Path 697" d="M542.512,691.74s16.724,22.573-8.2,41.973C534.349,733.713,518.654,709.359,542.512,691.74Z" transform="translate(-129.245 -548.274)" fill="#ffce6c"/>
      <path id="Path_698" data-name="Path 698" d="M627.581,576s3.846,33.483-32.313,38.844C595.268,614.827,593.5,580.13,627.581,576Z" transform="translate(-136.749 -535.108)" fill="#ffce6c"/>
      <path id="Path_699" data-name="Path 699" d="M572.8,537.75s29.246,12.221,16.546,46.5C589.343,584.252,560.035,569.62,572.8,537.75Z" transform="translate(-133.828 -530.758)" fill="#ffce6c"/>
      <path id="Path_700" data-name="Path 700" d="M553.249,593s38.729,4.431,35.317,46.572C588.566,639.528,549.013,632.438,553.249,593Z" transform="translate(-131.935 -537.042)" fill="#ffce6c"/>
      <path id="Path_701" data-name="Path 701" d="M491.1,739.124l.487-.142,1.453-.39c1.276-.337,3.164-.78,5.548-1.56a107.05,107.05,0,0,0,19.5-8.207A118.262,118.262,0,0,0,543.344,710.3a131.344,131.344,0,0,0,12.487-13.719l2.9-3.9L560.2,690.7c.479-.674.886-1.374,1.365-2.065.886-1.391,1.826-2.8,2.739-4.21s1.684-2.934,2.526-4.431l1.258-2.216c.372-.762.753-1.524,1.126-2.278.736-1.507,1.5-3,2.207-4.5s1.294-3.049,1.932-4.555c.319-.753.647-1.5.948-2.251l.815-2.287,1.613-4.5q.665-2.269,1.329-4.493c.222-.745.434-1.48.656-2.216s.363-1.489.541-2.216c.354-1.48.691-2.933,1.037-4.369a131.249,131.249,0,0,0,2.889-31.214,135.589,135.589,0,0,0-2.357-21.04c-.523-2.446-.993-4.334-1.276-5.619-.142-.629-.248-1.117-.328-1.462a5.04,5.04,0,0,1-.1-.505s.053.168.142.5.213.824.372,1.453c.31,1.276.806,3.164,1.356,5.61a131.308,131.308,0,0,1,2.5,21.057,129.774,129.774,0,0,1-2.8,31.311l-1.019,4.431c-.186.736-.328,1.489-.549,2.224s-.434,1.48-.647,2.224q-.665,2.233-1.329,4.511a41.31,41.31,0,0,1-1.613,4.52l-.824,2.287c-.292.762-.629,1.507-.939,2.269-.647,1.507-1.285,3.031-1.941,4.564s-1.471,3-2.216,4.529c-.372.753-.753,1.516-1.126,2.278s-.842,1.48-1.267,2.224c-.886,1.489-1.693,2.969-2.526,4.431l-2.783,4.174c-.461.691-.886,1.4-1.374,2.083l-1.471,1.976q-1.462,1.985-2.916,3.917a132.164,132.164,0,0,1-12.541,13.737,117.872,117.872,0,0,1-25.391,18.5,104.519,104.519,0,0,1-19.595,8.1c-2.393.753-4.3,1.17-5.583,1.48l-1.462.346Z" transform="translate(-124.902 -536.049)" fill="#263238"/>
      <path id="Path_702" data-name="Path 702" d="M539.534,712.28a3.68,3.68,0,0,1,0,.948c-.044.6-.142,1.48-.275,2.552-.257,2.162-.709,5.131-1.338,8.384s-1.347,6.2-1.914,8.278c-.284,1.046-.523,1.9-.709,2.473a4.312,4.312,0,0,1-.328.886,3.418,3.418,0,0,1,.159-.93c.16-.682.346-1.516.576-2.5.487-2.118,1.143-5.043,1.772-8.286s1.126-6.2,1.471-8.348c.16-.993.292-1.843.408-2.535A4.119,4.119,0,0,1,539.534,712.28Z" transform="translate(-129.892 -550.61)" fill="#455a64"/>
      <path id="Path_703" data-name="Path 703" d="M546.332,749.75a4.752,4.752,0,0,1-.957-.089l-2.57-.372c-2.162-.328-5.158-.753-8.481-1.143s-6.337-.665-8.517-.886l-2.588-.23a4.757,4.757,0,0,1-.948-.133,3.54,3.54,0,0,1,.957,0c.611,0,1.507,0,2.6.089,2.2.106,5.22.337,8.552.727s6.328.886,8.481,1.267c1.081.195,1.95.372,2.552.514a3.491,3.491,0,0,1,.922.257Z" transform="translate(-128.447 -554.544)" fill="#455a64"/>
      <path id="Path_704" data-name="Path 704" d="M591.776,703.87a6.3,6.3,0,0,1-1.117.266l-3.067.611c-2.588.505-6.151,1.25-10.059,2.2s-7.418,1.914-9.953,2.659l-3,.886a6.034,6.034,0,0,1-1.117.275,5.719,5.719,0,0,1,1.064-.434c.7-.257,1.71-.594,2.969-1,2.508-.807,6.018-1.826,9.935-2.774s7.506-1.648,10.112-2.083c1.3-.222,2.357-.372,3.093-.47A5.455,5.455,0,0,1,591.776,703.87Z" transform="translate(-133.133 -549.654)" fill="#455a64"/>
      <path id="Path_705" data-name="Path 705" d="M562,668.14a6.8,6.8,0,0,1,.682,1.028c.425.673.992,1.675,1.648,2.933a57.792,57.792,0,0,1,4.086,10.325,56.577,56.577,0,0,1,2.021,10.919c.124,1.418.168,2.57.168,3.368a6.654,6.654,0,0,1,0,1.232,5.773,5.773,0,0,1-.133-1.223c-.053-.8-.151-1.932-.31-3.341a64.423,64.423,0,0,0-6.071-21.137c-.62-1.276-1.143-2.3-1.516-2.987A6.461,6.461,0,0,1,562,668.14Z" transform="translate(-132.967 -545.589)" fill="#455a64"/>
      <path id="Path_706" data-name="Path 706" d="M609.941,646.4a5.074,5.074,0,0,1-.886.629l-2.482,1.622c-2.083,1.383-4.91,3.368-7.879,5.769s-5.495,4.75-7.276,6.505l-2.1,2.091a5.044,5.044,0,0,1-.8.744,5.841,5.841,0,0,1,.674-.886c.452-.541,1.134-1.285,2-2.2a81.728,81.728,0,0,1,7.223-6.629,79.533,79.533,0,0,1,7.976-5.69c1.063-.656,1.941-1.17,2.561-1.5a5.488,5.488,0,0,1,.984-.461Z" transform="translate(-135.983 -543.116)" fill="#455a64"/>
      <path id="Path_707" data-name="Path 707" d="M565,611.9a3.188,3.188,0,0,1,.319.248l.886.762c.736.665,1.773,1.648,3.04,2.9,2.535,2.482,5.92,6.035,9.439,10.156s6.478,8.038,8.535,10.936c1.028,1.445,1.835,2.659,2.375,3.465l.62.957c.133.222.2.346.186.355a1.707,1.707,0,0,1-.257-.3c-.195-.248-.417-.549-.691-.886l-2.482-3.385c-2.118-2.836-5.123-6.709-8.623-10.83s-6.851-7.684-9.323-10.227l-2.942-2.987-.8-.824C565.053,611.989,565,611.918,565,611.9Z" transform="translate(-133.308 -539.192)" fill="#455a64"/>
      <path id="Path_708" data-name="Path 708" d="M615.08,588.26a8.663,8.663,0,0,1-.833,1.046l-2.366,2.774c-1.967,2.349-4.617,5.663-7.338,9.474s-5,7.382-6.594,10.006l-1.861,3.12a8.469,8.469,0,0,1-.718,1.126,7.627,7.627,0,0,1,.558-1.188c.39-.771.984-1.861,1.772-3.2,1.524-2.659,3.767-6.284,6.5-10.1s5.433-7.09,7.462-9.421c1.019-1.152,1.861-2.074,2.464-2.659A6.678,6.678,0,0,1,615.08,588.26Z" transform="translate(-136.762 -536.503)" fill="#455a64"/>
      <path id="Path_709" data-name="Path 709" d="M578.1,552.39a8.808,8.808,0,0,1,.6,1.223c.372.806.886,1.976,1.5,3.421,1.223,2.9,2.845,6.939,4.52,11.45s3.057,8.632,4.015,11.628c.479,1.5.886,2.721,1.1,3.545a9.215,9.215,0,0,1,.337,1.32,7.721,7.721,0,0,1-.505-1.276c-.31-.886-.727-2.083-1.223-3.545-1.028-2.969-2.473-7.09-4.139-11.574s-3.244-8.552-4.431-11.521c-.549-1.409-1.01-2.579-1.365-3.465a7.618,7.618,0,0,1-.408-1.205Z" transform="translate(-134.798 -532.423)" fill="#455a64"/>
      <path id="Path_710" data-name="Path 710" d="M77.9,617.3s9.536,39,52.191,30.133C130.091,647.4,117.728,607.874,77.9,617.3Z" transform="translate(-77.9 -539.641)" fill="#f28b44"/>
      <path id="Path_711" data-name="Path 711" d="M101.16,683.311s19.586,29.2,51.943,9C153.1,692.315,131.035,663.565,101.16,683.311Z" transform="translate(-80.546 -546.527)" fill="#f28b44"/>
      <path id="Path_712" data-name="Path 712" d="M136.37,732.591s28.573,24.3,55.94-5.814C192.31,726.777,161.318,703.655,136.37,732.591Z" transform="translate(-84.551 -551.264)" fill="#f28b44"/>
      <path id="Path_713" data-name="Path 713" d="M167.876,627.9s-31.692,15.226-16.307,50.126C151.569,678.026,183.164,660.284,167.876,627.9Z" transform="translate(-85.801 -541.012)" fill="#f28b44"/>
      <path id="Path_714" data-name="Path 714" d="M177.6,675.37s-15.8,21.341,7.746,39.677C185.341,715.047,200.15,692.031,177.6,675.37Z" transform="translate(-88.651 -546.412)" fill="#f28b44"/>
      <path id="Path_715" data-name="Path 715" d="M95.546,566s-3.634,31.648,30.54,36.717C126.068,602.7,127.752,569.908,95.546,566Z" transform="translate(-79.894 -533.971)" fill="#f28b44"/>
      <path id="Path_716" data-name="Path 716" d="M148.475,529.86s-27.642,11.521-15.633,43.94C132.842,573.8,160.537,559.975,148.475,529.86Z" transform="translate(-83.806 -529.86)" fill="#f28b44"/>
      <path id="Path_717" data-name="Path 717" d="M165.377,582s-36.593,4.2-33.4,44.029C131.975,626.029,169.383,619.338,165.377,582Z" transform="translate(-84.029 -535.791)" fill="#f28b44"/>
      <path id="Path_718" data-name="Path 718" d="M225.268,722.867l-.5-.1-1.445-.319c-1.267-.3-3.146-.691-5.521-1.4a119.923,119.923,0,0,1-19.577-7.374,121.905,121.905,0,0,1-39.279-29.592l-3.075-3.713c-1-1.276-1.95-2.606-2.942-3.917l-1.48-1.994-1.338-2.109c-.886-1.409-1.852-2.792-2.73-4.236-1.657-2.951-3.394-5.814-4.777-8.8-1.524-2.925-2.73-5.938-3.97-8.862a121.3,121.3,0,0,1-6.39-69.19c.514-2.419,1.028-4.272,1.329-5.539.151-.62.275-1.1.363-1.436s.142-.487.142-.487a1.968,1.968,0,0,1-.1.5l-.328,1.445c-.266,1.276-.753,3.137-1.241,5.557a129.17,129.17,0,0,0-2.2,20.783,125.989,125.989,0,0,0,8.863,48.212c1.25,2.925,2.446,5.929,3.97,8.862,1.374,2.978,3.1,5.832,4.759,8.765.886,1.436,1.817,2.818,2.712,4.219l1.356,2.083,1.471,1.985c.984,1.312,1.932,2.659,2.925,3.908l3.066,3.7A122,122,0,0,0,198.379,713.4a124.256,124.256,0,0,0,19.5,7.471c2.366.727,4.236,1.143,5.5,1.471l1.427.363Z" transform="translate(-83.813 -534.858)" fill="#263238"/>
      <path id="Path_719" data-name="Path 719" d="M182.129,694.79a3.094,3.094,0,0,1,.195.886c.115.665.239,1.462.39,2.4.328,2.021.8,4.812,1.391,7.879s1.223,5.832,1.684,7.826l.541,2.375a3.686,3.686,0,0,1,.151.886,3.225,3.225,0,0,1-.319-.833c-.177-.549-.408-1.347-.674-2.34-.541-1.985-1.214-4.741-1.772-7.817s-1.028-5.885-1.267-7.923c-.124-1.019-.213-1.852-.257-2.419a3.819,3.819,0,0,1-.062-.922Z" transform="translate(-89.755 -548.621)" fill="#455a64"/>
      <path id="Path_720" data-name="Path 720" d="M173.35,730.19a3.544,3.544,0,0,1,.886-.239c.567-.133,1.391-.3,2.411-.5,2.038-.381,4.874-.833,7.976-1.2s6.009-.585,8.074-.682c1.037-.053,1.879-.08,2.464-.08a3.078,3.078,0,0,1,.886,0,3.4,3.4,0,0,1-.886.133l-2.446.222c-2.065.177-4.91.443-8.056.807s-5.964.771-7.976,1.072l-2.428.354a3.466,3.466,0,0,1-.9.106Z" transform="translate(-88.757 -552.338)" fill="#455a64"/>
      <path id="Path_721" data-name="Path 721" d="M129.89,686.84a5.144,5.144,0,0,1,1.081.089c.7.089,1.693.239,2.925.443,2.464.408,5.849,1.063,9.554,1.959s7.019,1.861,9.394,2.659c1.188.381,2.145.7,2.8.948a5.6,5.6,0,0,1,1,.408,4.632,4.632,0,0,1-1.055-.248l-2.836-.815c-2.4-.682-5.716-1.6-9.412-2.5s-7.09-1.6-9.5-2.083l-2.9-.576a5.235,5.235,0,0,1-1.055-.284Z" transform="translate(-83.814 -547.716)" fill="#455a64"/>
      <path id="Path_722" data-name="Path 722" d="M160.407,653.08a5.48,5.48,0,0,1-.505,1.055c-.355.656-.842,1.622-1.427,2.827a63.5,63.5,0,0,0-3.722,9.749,62.66,62.66,0,0,0-2.021,10.227c-.142,1.329-.239,2.411-.292,3.155a6.672,6.672,0,0,1-.124,1.161,5.512,5.512,0,0,1,0-1.17,26.889,26.889,0,0,1,.151-3.173,53.831,53.831,0,0,1,5.77-20.091c.62-1.2,1.152-2.136,1.56-2.774a6.206,6.206,0,0,1,.612-.966Z" transform="translate(-86.361 -543.876)" fill="#455a64"/>
      <path id="Path_723" data-name="Path 723" d="M113.56,632.54a4.656,4.656,0,0,1,.886.443c.585.319,1.418.8,2.428,1.418a74.814,74.814,0,0,1,7.542,5.38,73.564,73.564,0,0,1,6.824,6.266c.824.886,1.462,1.569,1.888,2.074a4.972,4.972,0,0,1,.638.815,4.313,4.313,0,0,1-.762-.691l-1.95-2c-1.684-1.657-4.077-3.873-6.877-6.142s-5.468-4.156-7.436-5.459l-2.34-1.533a4.793,4.793,0,0,1-.842-.567Z" transform="translate(-81.956 -541.54)" fill="#455a64"/>
      <path id="Path_724" data-name="Path 724" d="M155.574,599.93a9.077,9.077,0,0,1-.993,1.072l-2.774,2.836c-2.331,2.4-5.495,5.778-8.809,9.66s-6.142,7.551-8.145,10.236l-2.357,3.19a8.516,8.516,0,0,1-.886,1.143,8.124,8.124,0,0,1,.753-1.241c.514-.789,1.276-1.914,2.251-3.279,1.932-2.739,4.741-6.434,8.056-10.334s6.532-7.25,8.925-9.6c1.2-1.179,2.18-2.109,2.88-2.739A10.213,10.213,0,0,1,155.574,599.93Z" transform="translate(-84.01 -537.831)" fill="#455a64"/>
      <path id="Path_725" data-name="Path 725" d="M108.91,577.59a6.9,6.9,0,0,1,.886.886c.567.576,1.365,1.445,2.322,2.535,1.923,2.18,4.431,5.318,7.09,8.862a89.191,89.191,0,0,1,6.142,9.554c.718,1.267,1.285,2.3,1.648,3.022a6.887,6.887,0,0,1,.532,1.143,6.876,6.876,0,0,1-.682-1.064l-1.773-2.942c-1.507-2.481-3.66-5.858-6.2-9.456s-5.078-6.727-6.93-8.951c-.886-1.064-1.648-1.941-2.216-2.659a7.459,7.459,0,0,1-.815-.931Z" transform="translate(-81.427 -535.289)" fill="#455a64"/>
      <path id="Path_726" data-name="Path 726" d="M144.786,543.69a7.528,7.528,0,0,1-.417,1.232c-.337.842-.771,1.95-1.285,3.279-1.09,2.765-2.579,6.594-4.157,10.848s-2.933,8.127-3.908,10.936l-1.161,3.332a7.847,7.847,0,0,1-.479,1.2,7.158,7.158,0,0,1,.31-1.25c.23-.806.585-1.959,1.037-3.377.886-2.836,2.216-6.735,3.793-10.99s3.111-8.074,4.272-10.821c.585-1.365,1.063-2.473,1.418-3.226A8.182,8.182,0,0,1,144.786,543.69Z" transform="translate(-84.211 -531.433)" fill="#455a64"/>
    </g>
    <path id="Path_727" data-name="Path 727" d="M232.875,588.4c6.2.8,7.09,7.09,9.368,12.407s6.656,10.023,10.015,14.774c1.773,2.508,4.2,4.759,4.848,7.737.665,3.12-.753,6.337-1.418,9.518s-.2,7.09,2.845,8.446a3.43,3.43,0,0,1-2.792,1.179c0,1.462-1.418,2.73-2.951,3.146a11.52,11.52,0,0,1-4.7-.044c.417.975-.47,2.145-1.56,2.526a6.452,6.452,0,0,1-3.385,0,8.151,8.151,0,0,0-3.394-.248c-2.508.549-4.024,3.368-6.558,3.74-3.483.5-5.991-3.953-9.43-3.182-1.613.372-2.659,1.773-4.024,2.747s-3.545.709-4.192-.665a14.349,14.349,0,0,1-7.7,5.193,2.809,2.809,0,0,0-.576-3.049,11.743,11.743,0,0,1-5.734,2.517,5.849,5.849,0,0,0,1.914-4.582,5.9,5.9,0,0,1-5.043,1.09c3.1-1.772,3.4-5.885,2.3-8.969s-3.2-5.858-3.607-9.111c-.452-3.545,3.713-8.021,2.907-11.521-1.258-5.362-1.161-8.632-.939-13.631.142-3.279,1.586-6.2,3.022-9.244a18.922,18.922,0,0,1,8.207-8.862c3.27-1.843,7.976-3.545,11.743-3.616,6.682-.142,9.4-.355,14.694,3.182" transform="translate(93.495 39.768)" fill="#263238"/>
    <path id="Path_728" data-name="Path 728" d="M213.366,633.672a83.354,83.354,0,0,1-5.433-13.294,29.069,29.069,0,0,1-.762-14.18c.16-.709,1.693-5.521,2.411-5.548.523,0-.23,4.431.089,4.795a24.4,24.4,0,0,1,4.662,13.87,64.537,64.537,0,0,1-.966,14.366" transform="translate(92.407 38.174)" fill="#263238"/>
    <path id="Path_729" data-name="Path 729" d="M243.025,672.949c-7.382.833-25.143-6.922-26.136-14.286l-5.982-44.312c-1.985-11.849,3.253-22.883,15.146-24.54l1.108-.089A21.483,21.483,0,0,1,250.088,607.7c1.666,10.272,3.368,21.651,3.749,27.2.78,11.521-10.573,14.18-10.573,14.18s.292,2.659.709,6.009c.886,7.542-.266,15.82-.948,17.8Z" transform="translate(91.968 39.425)" fill="#ffbe9d"/>
    <path id="Path_730" data-name="Path 730" d="M245.5,656.366a27.88,27.88,0,0,1-15.314-3.226s4.289,8.348,15.678,6.4Z" transform="translate(89.728 32.203)" fill="#eb996e"/>
    <path id="Path_731" data-name="Path 731" d="M249.925,621.155a1.648,1.648,0,0,1-1.453,1.773,1.578,1.578,0,0,1-1.773-1.347,1.648,1.648,0,0,1,1.453-1.772,1.569,1.569,0,0,1,1.772,1.347Z" transform="translate(87.85 35.997)" fill="#263238"/>
    <path id="Path_732" data-name="Path 732" d="M252.031,615.8c-.186.23-1.507-.585-3.27-.443s-2.987,1.134-3.2.886.08-.487.612-.939a4.431,4.431,0,0,1,2.535-1.01,4.3,4.3,0,0,1,2.659.62C251.907,615.317,252.146,615.689,252.031,615.8Z" transform="translate(87.987 36.624)" fill="#263238"/>
    <path id="Path_733" data-name="Path 733" d="M231.2,622.615a1.657,1.657,0,0,1-1.453,1.773,1.586,1.586,0,0,1-1.772-1.347,1.639,1.639,0,0,1,1.453-1.773,1.569,1.569,0,0,1,1.772,1.347Z" transform="translate(89.98 35.831)" fill="#263238"/>
    <path id="Path_734" data-name="Path 734" d="M232.541,617.8c-.186.23-1.507-.585-3.27-.443s-2.987,1.134-3.2.886.071-.487.6-.939a4.529,4.529,0,0,1,2.544-1.019,4.36,4.36,0,0,1,2.659.62C232.416,617.342,232.629,617.715,232.541,617.8Z" transform="translate(90.204 36.397)" fill="#263238"/>
    <path id="Path_735" data-name="Path 735" d="M241.489,630.87a11.7,11.7,0,0,1,2.827-.753c.452-.08.886-.2.886-.514a2.322,2.322,0,0,0-.408-1.312l-1.613-3.332c-2.242-4.733-3.908-8.65-3.713-8.738s2.162,3.678,4.431,8.419c.549,1.17,1.064,2.287,1.56,3.35a2.659,2.659,0,0,1,.372,1.773,1.126,1.126,0,0,1-.682.718,2.772,2.772,0,0,1-.762.168A11.783,11.783,0,0,1,241.489,630.87Z" transform="translate(88.674 36.403)" fill="#263238"/>
    <path id="Path_736" data-name="Path 736" d="M231.559,610.377c-.2.47-1.95.133-4.041.257s-3.8.585-4.05.133c-.115-.213.2-.647.886-1.072a6.807,6.807,0,0,1,3.049-.886,6.707,6.707,0,0,1,3.12.567C231.293,609.748,231.647,610.156,231.559,610.377Z" transform="translate(90.495 37.247)" fill="#263238"/>
    <path id="Path_737" data-name="Path 737" d="M251.082,611.166c-.337.434-1.772.159-3.545.3s-3.164.576-3.545.186c-.168-.186,0-.611.62-1.046a5.521,5.521,0,0,1,2.809-.931,5.406,5.406,0,0,1,2.889.532C251.011,610.563,251.251,610.953,251.082,611.166Z" transform="translate(88.165 37.15)" fill="#263238"/>
    <path id="Path_738" data-name="Path 738" d="M211.856,627.036c-.2-.071-8.083-1.7-7.205,6.133s8.57,5.318,8.552,5.114S211.856,627.036,211.856,627.036Z" transform="translate(92.64 35.194)" fill="#ffbe9d"/>
    <path id="Path_739" data-name="Path 739" d="M210.738,635.925a2.075,2.075,0,0,1-.337.239,1.356,1.356,0,0,1-1.019.142c-.886-.213-1.71-1.445-1.905-2.854a4.644,4.644,0,0,1,.16-2,1.613,1.613,0,0,1,.886-1.161.691.691,0,0,1,.886.284c.133.2.1.372.142.381s.16-.151.053-.47a.815.815,0,0,0-.363-.452.984.984,0,0,0-.771-.115,1.932,1.932,0,0,0-1.294,1.374,4.644,4.644,0,0,0-.222,2.233c.222,1.578,1.2,2.96,2.366,3.164a1.5,1.5,0,0,0,1.223-.346C210.747,636.12,210.773,635.933,210.738,635.925Z" transform="translate(92.376 34.849)" fill="#eb996e"/>
    <path id="Path_740" data-name="Path 740" d="M243.059,595.213c1.179-.886-3.12-4.493-6.408-5.53-4.963-1.56-12.3-2-16.493-.248-5.043,2.118-9.066,5.238-11.114,10.316a31.018,31.018,0,0,0-1.551,16.139,9.421,9.421,0,0,0,1.684,4.644c1.3,1.6,3.545,2.437,3.731,4.83a3.359,3.359,0,0,0,1.108,2.3c1.613,1.347,3.191-.292,3.829-1.826,1.347-3.279,1.09-6.957.815-10.493a22.865,22.865,0,0,0-1.4-7.383c-.541-1.258-1.3-2.419-1.772-3.7a4.741,4.741,0,0,1,.08-3.97,5.368,5.368,0,0,1,.558-.727,8.224,8.224,0,0,1,7.914-2.517c4.591,1.019,12.407,2.437,14.18.7,2.561-2.49,3.075-3.979,3.075-3.979Z" transform="translate(92.359 39.579)" fill="#263238"/>
    <path id="Path_741" data-name="Path 741" d="M236.421,634.48c-.106,0-.115.461.115,1.117a4.431,4.431,0,0,0,1.693,2.127,7.38,7.38,0,0,0,2.446,1.046c.656.151,1.072.168,1.108.062s-.328-.328-.886-.612a16.652,16.652,0,0,1-2.171-1.179C237.13,636.013,236.669,634.391,236.421,634.48Z" transform="translate(89.027 34.326)" fill="#263238"/>
    <path id="Path_742" data-name="Path 742" d="M213.07,628.21c.062.142.133.284.195.443Z" transform="translate(91.675 35.039)" fill="#ff725e"/>
    <path id="Path_743" data-name="Path 743" d="M209.486,622.444s1.321-1.772,2.659,1.2c-1.631-3.837-12.487-31.612,17.273-35.273,0,0-10.75-1.9-17.229,3.448C212.251,591.816,199.072,599.694,209.486,622.444Z" transform="translate(92.539 39.608)" fill="#455a64"/>
    <path id="Path_744" data-name="Path 744" d="M259.14,784.109l-69.181.939s-19.347-8.091-24.655-8.313-15.864.461-20.747,8.313c-5.043,8.118-5.752,22.449,9.793,32.853,15.137,10.139,84.362,19.5,93.854,18.611L265.7,813.028s.186-19.241,0-20.153-3.12-9.164-3.12-9.164Z" transform="translate(99.834 18.148)" fill="#263238"/>
    <path id="Path_763" data-name="Path 763" d="M270.138,783.383s29.875-11.158,40.874-9.749c6.151.806,15.758,5.495,16.493,13.374s-1.188,18.425-11.823,23.557-53.051,24.168-63.136,27.1-35.211,9.837-35.211,9.837L207.79,820.3s52.085-18.035,54.832-20.056,9.749-4.768,9.749-4.768Z" transform="translate(92.275 18.511)" fill="#263238"/>
    <path id="Path_764" data-name="Path 764" d="M161,788.586a.622.622,0,0,0,.2-.053l.6-.186c.523-.151,1.3-.381,2.322-.62a27.354,27.354,0,0,1,3.749-.656,27.966,27.966,0,0,1,5.025,0,28.985,28.985,0,0,1,5.973,1.134,21.683,21.683,0,0,1,3.155,1.232l3.253,1.586c4.431,2.136,9.456,4.325,14.774,6.425,10.635,4.263,20.862,6.292,28.147,7.976,3.66.815,6.611,1.48,8.65,1.959l2.349.558.612.142h.2a.487.487,0,0,1-.195-.071l-.612-.168c-.532-.142-1.312-.363-2.331-.612-2.03-.523-4.972-1.223-8.623-2.065-7.276-1.71-17.468-3.767-28.076-7.976-5.317-2.1-10.3-4.272-14.774-6.39l-3.253-1.578a21.941,21.941,0,0,0-3.2-1.232,29.5,29.5,0,0,0-6.035-1.108,27.189,27.189,0,0,0-5.06,0,26.245,26.245,0,0,0-3.758.709c-1.019.257-1.773.505-2.313.682l-.594.222a.649.649,0,0,0-.195.089Z" transform="translate(97.598 17.003)" fill="#455a64"/>
    <path id="Path_765" data-name="Path 765" d="M162.74,784.274c0,.053.886-.115,2.375-.275a36.686,36.686,0,0,1,5.734-.16,36.26,36.26,0,0,1,5.681.753c1.445.3,2.322.558,2.34.505a2.98,2.98,0,0,0-.6-.239c-.39-.142-.966-.31-1.684-.487a29,29,0,0,0-11.495-.62c-.736.106-1.329.222-1.728.319A2.064,2.064,0,0,0,162.74,784.274Z" transform="translate(97.4 17.381)" fill="#455a64"/>
    <path id="Path_766" data-name="Path 766" d="M292.32,792.774c0,.044.886-.594,2.3-1.48a30.47,30.47,0,0,1,12.3-4.343c1.666-.2,2.712-.222,2.712-.284a3.406,3.406,0,0,0-.736,0,18.667,18.667,0,0,0-2,.1,26.653,26.653,0,0,0-6.47,1.427,27.245,27.245,0,0,0-5.929,2.942,18.819,18.819,0,0,0-1.622,1.188,4,4,0,0,0-.549.452Z" transform="translate(82.66 17.017)" fill="#455a64"/>
    <path id="Path_767" data-name="Path 767" d="M267.735,832.271l-.239.089-.674.284c-.6.248-1.471.656-2.659,1.108-2.322.886-5.761,2.189-10.174,3.634-8.862,2.889-21.509,6.558-36.691,10.387l.177.089c-2.809-7.852-5.938-16.52-9.217-25.648l-.089.195,11.433-4.626,63.287-26.047h0c2.579-2.73,4.945-5.131,7.17-7.09a49.7,49.7,0,0,1,6.009-4.529,43.423,43.423,0,0,1,4.121-2.3l1.108-.514.372-.186-.39.151-1.117.5a39.993,39.993,0,0,0-4.156,2.251,47.5,47.5,0,0,0-6.062,4.5,98.338,98.338,0,0,0-7.214,7.09h.044l-63.261,25.825-11.433,4.7-.142.062.053.142c3.288,9.111,6.425,17.769,9.261,25.621l.044.124h.124c15.181-3.855,27.864-7.569,36.673-10.5,4.431-1.471,7.843-2.765,10.156-3.713,1.161-.47,2.03-.886,2.659-1.152l.674-.3Z" transform="translate(92.258 18.101)" fill="#455a64"/>
    <path id="Path_768" data-name="Path 768" d="M189.393,677.22s-8.6,4.954-10.343,10.777c-1.055,3.545-9.084,48.744-10.351,57.677s1.409,15.518,5.211,18.478,15.332,6.9,15.332,6.9l16.218,5.255,4.644-11.831-15.438-22.156,1.5-14.942Z" transform="translate(96.758 29.464)" fill="url(#linear-gradient)"/>
    <path id="Path_769" data-name="Path 769" d="M209,667.805l5.362-3.953s6.993,7.152,15.022,6.31a20.146,20.146,0,0,0,12.78-6.993l23.929,4.874h0c1.6.328,4.538,1.338,7.338,5.318,3.128,4.431,17.938,24.266,17.938,24.266h10.378a7.692,7.692,0,0,1,6.815,4.112c1.773,3.368,3.9,7.879,3.687,9.749-.355,3.155.257,11.831-3.979,14.535-1.338.886-6.151,3.439-9.882,3.261-5.5-.257-11.893-3.128-15.58-5.7-3.111-2.18-10.369-9.749-13.161-12.664h0l-1.772,62.808L205.1,771.957l-13.01-96.335S208.37,667.805,209,667.805Z" transform="translate(94.061 31.062)" fill="url(#linear-gradient-2)"/>
    <path id="Path_770" data-name="Path 770" d="M279.8,687.39c-.089,0-.248,7.79-.363,17.388s-.133,17.388-.044,17.388.257-7.781.372-17.388S279.925,687.39,279.8,687.39Z" transform="translate(84.137 28.307)" fill="#263238"/>
    <path id="Path_771" data-name="Path 771" d="M183.52,744.672s.532.08,1.48.266a18.147,18.147,0,0,1,3.882,1.232,25.129,25.129,0,0,1,5.176,3.128,45.69,45.69,0,0,1,5.459,5.043c1.772,1.941,3.43,3.855,4.972,5.557s2.978,3.19,4.272,4.36a31.975,31.975,0,0,0,3.217,2.57c.39.284.727.47.939.6a2.128,2.128,0,0,0,.346.2,2.481,2.481,0,0,0-.31-.248c-.2-.151-.523-.355-.886-.656a34.219,34.219,0,0,1-3.128-2.659,60.9,60.9,0,0,1-4.21-4.431c-1.551-1.773-3.155-3.634-4.963-5.583a44.133,44.133,0,0,0-5.5-5.06A24.716,24.716,0,0,0,189,745.9a16.5,16.5,0,0,0-3.962-1.152c-.47-.1-.886-.1-1.108-.133A1.849,1.849,0,0,0,183.52,744.672Z" transform="translate(95.036 21.799)" fill="#263238"/>
    <path id="Path_772" data-name="Path 772" d="M181.92,739.878c0,.053.948.186,2.446.6a22.974,22.974,0,0,1,5.548,2.375,23.574,23.574,0,0,1,4.733,3.749c1.072,1.117,1.648,1.9,1.693,1.861a3.313,3.313,0,0,0-.363-.576,15.261,15.261,0,0,0-1.17-1.445,20.622,20.622,0,0,0-10.387-6.2,15.833,15.833,0,0,0-1.826-.337A2.285,2.285,0,0,0,181.92,739.878Z" transform="translate(95.218 22.338)" fill="#263238"/>
    <g id="Group_14" data-name="Group 14" transform="translate(379.636 729.399)" opacity="0.3">
      <path id="Path_773" data-name="Path 773" d="M311.892,724.643c-3.323.886-7.312-3.873-10.325-6.868-1.569-1.56-3.208-3.217-3.784-5.318a8.455,8.455,0,0,1,.523-5.318,19.833,19.833,0,0,1,2.207-4.289c-.275,2.579-.886,6.532-.044,9.749a17.377,17.377,0,0,0,4.254,6.9c1.817,2.038,4.2,4.431,7.17,5.193" transform="translate(-297.573 -702.85)"/>
    </g>
    <path id="Path_774" data-name="Path 774" d="M297.541,721.874c.071,0-.319-1.09-.629-2.9a22.207,22.207,0,0,1-.3-3.182,24.534,24.534,0,0,1,.257-3.917,24.182,24.182,0,0,1,.957-3.793,21.581,21.581,0,0,1,1.276-2.942c.886-1.622,1.542-2.526,1.489-2.561a3.438,3.438,0,0,0-.505.62,8.861,8.861,0,0,0-.541.762c-.2.31-.434.656-.647,1.072a20.653,20.653,0,0,0-1.356,2.942,22.856,22.856,0,0,0-.993,3.855,22.216,22.216,0,0,0-.239,3.971,19.673,19.673,0,0,0,.381,3.217,12.466,12.466,0,0,0,.284,1.214,8.609,8.609,0,0,0,.275.886,3.97,3.97,0,0,0,.292.753Z" transform="translate(82.208 26.58)" fill="#263238"/>
    <path id="Path_775" data-name="Path 775" d="M245.64,665.91c0,.08.691.514,1.462,1.205a17.341,17.341,0,0,0,1.365,1.312,4.759,4.759,0,0,0-2.827-2.517Z" transform="translate(87.97 30.751)" fill="#263238"/>
    <path id="Path_776" data-name="Path 776" d="M238.269,670.19c-.071.071.567.744,1.072,1.772s.7,1.906.8,1.888a4.662,4.662,0,0,0-1.87-3.634Z" transform="translate(88.809 30.264)" fill="#263238"/>
    <path id="Path_777" data-name="Path 777" d="M225.65,674.147a9.587,9.587,0,0,0,.718-1.87,9.478,9.478,0,0,0,.638-1.9,4.751,4.751,0,0,0-.939,1.772,4.671,4.671,0,0,0-.417,1.994Z" transform="translate(90.244 30.242)" fill="#263238"/>
    <path id="Path_778" data-name="Path 778" d="M217.53,670.261c.1,0,.337-1.081,1.046-2.233s1.56-1.888,1.489-1.967a4.432,4.432,0,0,0-1.773,1.772A4.325,4.325,0,0,0,217.53,670.261Z" transform="translate(91.167 30.734)" fill="#263238"/>
    <path id="Path_779" data-name="Path 779" d="M194.209,693.74c-.089,0,.975,8.6,2.375,19.161s2.606,19.134,2.659,19.116-.975-8.588-2.375-19.161S194.3,693.731,194.209,693.74Z" transform="translate(93.821 27.585)" fill="#263238"/>
    <path id="Path_780" data-name="Path 780" d="M300.347,709.42a3.963,3.963,0,0,0,0,.886,6.274,6.274,0,0,0,.124,1.028,4.661,4.661,0,0,0,.106.647c.035.23.124.461.186.709A18.934,18.934,0,0,0,302,716.058a24.01,24.01,0,0,0,2.3,3.74,19.713,19.713,0,0,0,3.066,3.164,13.143,13.143,0,0,0,3.084,1.852c.23.1.461.2.674.284l.629.168.549.151a1.028,1.028,0,0,1,.47.071,5.912,5.912,0,0,0,.886.071,16.412,16.412,0,0,1-3.12-.948,14.1,14.1,0,0,1-2.987-1.879,20.7,20.7,0,0,1-3-3.128,24.171,24.171,0,0,1-2.3-3.678,21.122,21.122,0,0,1-1.285-3.3A31.031,31.031,0,0,1,300.347,709.42Z" transform="translate(81.75 25.802)" fill="#263238"/>
    <g id="Group_15" data-name="Group 15" transform="translate(283.907 759.061)" opacity="0.3">
      <path id="Path_781" data-name="Path 781" d="M195.7,784.266c-2.659-1.285-3.27-4.741-3.545-7.684L189.764,750.7c-.372-4.059-.549-8.685,2.3-11.592,2.614-2.659,6.771-2.8,10.484-2.792,22.972.062,43.258.736,66.229.806L267.6,777.3Z" transform="translate(-189.558 -736.32)"/>
    </g>
    <path id="Path_782" data-name="Path 782" d="M279.038,743.8l-2.446,46.6a3.394,3.394,0,0,1-3.412,3.208l-74.232.124a3.4,3.4,0,0,1-3.412-3.182l-2.836-45.81c-.089-1.9,1.258-4.431,3.191-4.431h79.665a3.394,3.394,0,0,1,3.483,3.492Z" transform="translate(93.992 22.288)" fill="#e0e0e0"/>
    <path id="Path_783" data-name="Path 783" d="M279.018,743.773a1.385,1.385,0,0,0,0-.177,2.912,2.912,0,0,0,0-.514,3.306,3.306,0,0,0-.886-1.817,3.42,3.42,0,0,0-1.241-.886,4.476,4.476,0,0,0-1.772-.248h-4.511l-28.759-.053-42.7-.018h-3.031a2.659,2.659,0,0,0-1.533.39,3.783,3.783,0,0,0-1.134,1.117,5.37,5.37,0,0,0-.931,3l.186,3.128q.39,6.3.789,12.842c.541,8.712,1.1,17.725,1.666,26.986l.106,1.772c.053.576.044,1.135.142,1.773a3.545,3.545,0,0,0,2.242,2.659,4.359,4.359,0,0,0,1.773.23H217.76l25.2-.053,22.794-.053H272.3a12.517,12.517,0,0,0,1.285,0,3.545,3.545,0,0,0,3.058-3.545c.044-.806.08-1.613.124-2.4.08-1.586.16-3.146.239-4.662.612-12.115,1.108-21.935,1.453-28.715.168-3.394.292-6.018.381-7.817,0-.886.071-1.56.089-2.029a6.645,6.645,0,0,0,0-.691l-.053.691c0,.461-.062,1.143-.115,2.029-.106,1.773-.248,4.431-.443,7.808-.372,6.789-.886,16.591-1.56,28.715-.08,1.515-.16,3.066-.248,4.653-.044.8-.089,1.6-.133,2.411a3.27,3.27,0,0,1-2.845,3.332,9.658,9.658,0,0,1-1.25,0H199.344a3.964,3.964,0,0,1-1.622-.213,3.217,3.217,0,0,1-2.038-2.393c-.1-.523-.089-1.125-.142-1.693l-.106-1.773c-.567-9.244-1.126-18.274-1.666-26.986q-.417-6.54-.8-12.842c-.071-1.046-.133-2.083-.195-3.12a5.1,5.1,0,0,1,.886-2.827,2.756,2.756,0,0,1,2.419-1.374H241.8l28.759-.044h4.52a4.307,4.307,0,0,1,1.772.23,3.394,3.394,0,0,1,2.118,2.588A5.035,5.035,0,0,1,279.018,743.773Z" transform="translate(94.012 22.317)" fill="#263238"/>
    <path id="Path_784" data-name="Path 784" d="M235.86,769.329a4.378,4.378,0,1,0,4.369-4.369,4.378,4.378,0,0,0-4.369,4.369Z" transform="translate(89.083 19.484)" fill="#fff"/>
    <path id="Path_785" data-name="Path 785" d="M235.859,769.32a4.147,4.147,0,0,1,.195-1.046,4.316,4.316,0,0,1,1.6-2.331,4.075,4.075,0,0,1,1.773-.78,4.307,4.307,0,0,1,2.224.195,4.227,4.227,0,0,1,0,7.976,4.307,4.307,0,0,1-2.224.195,4.076,4.076,0,0,1-1.773-.78,4.316,4.316,0,0,1-1.6-2.331c-.177-.665-.16-1.055-.195-1.055a1.01,1.01,0,0,0,0,.284,3.478,3.478,0,0,0,.089.807,4.431,4.431,0,0,0,1.586,2.481,4.53,4.53,0,1,0,0-7.09,4.431,4.431,0,0,0-1.586,2.481,3.472,3.472,0,0,0-.089.807.887.887,0,0,0,0,.186Z" transform="translate(89.083 19.493)" fill="#263238"/>
    <path id="Path_786" data-name="Path 786" d="M287.129,750.07c-.089,0-.452,7.826-.815,17.486s-.585,17.5-.5,17.5.461-7.826.815-17.486S287.218,750.07,287.129,750.07Z" transform="translate(83.402 21.178)" fill="#263238"/>
    <path id="Path_787" data-name="Path 787" d="M310.1,677.565c.434-.363-1.471-7.684-1.471-7.684s5.034-8.216,5.167-10.865-1.985-8.083-1.985-8.083l-14.446-3.713s-4.635,8.614-5.566,11.663,1.6,13.382,1.6,13.382l2.446,5.318S303.219,683.361,310.1,677.565Z" transform="translate(82.742 32.877)" fill="#ffbe9d"/>
    <path id="Path_788" data-name="Path 788" d="M313.765,658.333a32.023,32.023,0,0,0,1.524-3.208c.886-2.171,2.038-4.3,0-5.512a2.659,2.659,0,0,0-2.18-.337s.319-1.826-.771-2.517a2.366,2.366,0,0,0-2.145-.186s.346-2.57-1.223-3.669a3.82,3.82,0,0,0-4.006-.106s1.241-11.273,1.356-11.876c.39-2.189-.417-4.13-2.6-3.545-.8.195-1.25,1.046-2.18,4.715s-2.446,9.935-2.446,9.935-2.535,4.431-3.731,6.8-3.545,7.835-3.767,9.279c-.514,3.731,1.675,8.667,1.675,8.667l15.35.886S313.216,659.406,313.765,658.333Z" transform="translate(82.751 35.146)" fill="#ffbe9d"/>
    <path id="Path_789" data-name="Path 789" d="M315.118,652.64a13.555,13.555,0,0,0-1.188,1.666l-1.214,1.844a7.846,7.846,0,0,0-.656,1.152,2.331,2.331,0,0,0-.186,1.462,1.5,1.5,0,0,0,.975,1.143,1.949,1.949,0,0,0,1.374-.168,7.094,7.094,0,0,0,1.028-.638c.3-.213.576-.425.824-.62.5-.39.886-.718,1.143-.957s.4-.381.381-.4a18.685,18.685,0,0,0-1.657,1.179,13.588,13.588,0,0,1-1.843,1.161,1.639,1.639,0,0,1-1.152.142,1.152,1.152,0,0,1-.753-.886,2.021,2.021,0,0,1,.151-1.267,9.041,9.041,0,0,1,.62-1.117l1.161-1.888a12.6,12.6,0,0,0,.993-1.808Z" transform="translate(80.441 32.26)" fill="#eb996e"/>
    <path id="Path_790" data-name="Path 790" d="M301.185,653.556a7.09,7.09,0,0,0-1.117-4.626c-.089,0,.346,1.019.647,2.3S301.1,653.565,301.185,653.556Z" transform="translate(81.78 32.682)" fill="#eb996e"/>
    <path id="Path_791" data-name="Path 791" d="M294.46,657.484a10.182,10.182,0,0,1,5.14-2.659,19.318,19.318,0,0,1,5.849-.231c1.56.142,3.35.549,4.059,1.95s-.151,3.288-1.533,4.121a7.772,7.772,0,0,1-4.706.709,20.1,20.1,0,0,0-4.786-.23" transform="translate(82.417 32.052)" fill="#ffbe9d"/>
    <path id="Path_792" data-name="Path 792" d="M298.489,661.125H299.7a30.411,30.411,0,0,1,3.288.319,14.7,14.7,0,0,0,2.3.1,6.284,6.284,0,0,0,2.588-.656,3.917,3.917,0,0,0,1.923-2.233,2.942,2.942,0,0,0,.106-1.6,2.658,2.658,0,0,0-.842-1.418,5.53,5.53,0,0,0-2.951-1.152,28.211,28.211,0,0,0-2.916-.177,14.935,14.935,0,0,0-4.883.744,9.749,9.749,0,0,0-2.933,1.578,7.694,7.694,0,0,0-.674.611,1.59,1.59,0,0,0-.2.239s.328-.293.957-.745a10.411,10.411,0,0,1,2.925-1.471,14.915,14.915,0,0,1,4.8-.656,25.083,25.083,0,0,1,2.88.195,5.211,5.211,0,0,1,2.774,1.072,2.411,2.411,0,0,1,.753,1.25,2.659,2.659,0,0,1-.1,1.427,3.713,3.713,0,0,1-1.773,2.074,6.205,6.205,0,0,1-2.464.647,14.458,14.458,0,0,1-2.269-.062,26.112,26.112,0,0,0-3.315-.213,7.314,7.314,0,0,0-.886.089A1.331,1.331,0,0,0,298.489,661.125Z" transform="translate(82.411 32.07)" fill="#eb996e"/>
    <path id="Path_793" data-name="Path 793" d="M314.312,652.731a86.846,86.846,0,0,0-4.431,7.755,4.83,4.83,0,0,1-1.542,2c-.585.363-2.03-.292-2.659-.514l4.431-10.094" transform="translate(81.14 32.347)" fill="#ffbe9d"/>
    <path id="Path_794" data-name="Path 794" d="M310.094,651.88a5.9,5.9,0,0,0-.39.753l-.984,2.118c-.824,1.773-1.95,4.316-3.208,7.161l-.062.16.159.053a15.043,15.043,0,0,0,1.551.532,2.81,2.81,0,0,0,.674.1,1.265,1.265,0,0,0,.363,0,.887.887,0,0,0,.337-.168,3.546,3.546,0,0,0,.886-.957c.452-.709.78-1.427,1.134-2.1.7-1.338,1.338-2.544,1.888-3.545s1.019-1.772,1.347-2.357a6.206,6.206,0,0,0,.487-.886,5.257,5.257,0,0,0-.594.806c-.354.532-.886,1.312-1.436,2.3s-1.241,2.18-1.95,3.545c-.372.656-.709,1.391-1.143,2.065a3.3,3.3,0,0,1-.815.886,1.32,1.32,0,0,1-1.108,0,13.977,13.977,0,0,1-1.524-.514l.089.222c1.25-2.854,2.34-5.388,3.111-7.214l.886-2.145a3.76,3.76,0,0,0,.3-.815Z" transform="translate(81.167 32.347)" fill="#eb996e"/>
    <path id="Path_795" data-name="Path 795" d="M310.784,648.25q-2.145,5.371-4.272,10.724a7.3,7.3,0,0,1-1.152,2.154,2.473,2.473,0,0,1-2.154.939,2.535,2.535,0,0,1-1.9-2.473,7.816,7.816,0,0,1,.8-3.253,68.379,68.379,0,0,0,3.066-10.041" transform="translate(81.638 32.981)" fill="#ffbe9d"/>
    <path id="Path_796" data-name="Path 796" d="M305.193,646.3a1.692,1.692,0,0,0-.106.328c-.071.248-.151.558-.257.948-.222.824-.541,2.012-.993,3.465s-1.037,3.173-1.772,5.043a10.573,10.573,0,0,0-.886,3.066,3.359,3.359,0,0,0,.319,1.7,2.49,2.49,0,0,0,1.294,1.258,2.136,2.136,0,0,0,1.772-.142,3.412,3.412,0,0,0,1.267-1.188,19.239,19.239,0,0,0,1.294-2.916c.727-1.87,1.391-3.545,1.95-4.99s.966-2.535,1.294-3.377l.328-.886c.08-.213.115-.319.1-.328a1.425,1.425,0,0,0-.151.31l-.4.886c-.337.833-.806,1.959-1.383,3.332l-2.012,4.963a19.5,19.5,0,0,1-1.285,2.854,3.11,3.11,0,0,1-1.143,1.081,1.825,1.825,0,0,1-1.533.124,2.145,2.145,0,0,1-1.117-1.1,2.987,2.987,0,0,1-.292-1.542,10.2,10.2,0,0,1,.886-2.978c.727-1.888,1.294-3.616,1.719-5.087s.709-2.659.886-3.545c.089-.417.16-.744.2-.966a1.933,1.933,0,0,0,.027-.319Z" transform="translate(81.653 32.981)" fill="#eb996e"/>
    <path id="Path_797" data-name="Path 797" d="M319.762,706.924c-.381-1.418-10.174-30.292-10.174-30.292L293.44,674.7l6.6,24.877s-1.028,6.31,0,10.05,9.279,13.923,13.533,11.477S320.152,708.342,319.762,706.924Z" transform="translate(82.533 29.751)" fill="#ffbe9d"/>
    <path id="Path_798" data-name="Path 798" d="M300.885,671.309a1.932,1.932,0,0,0,.886-.124,5.14,5.14,0,0,0,1.95-1.117,5.051,5.051,0,0,0,1.285-1.852,1.834,1.834,0,0,0,.2-.886,6.549,6.549,0,0,1-4.36,4Z" transform="translate(81.69 30.589)" fill="#eb996e"/>
    <line id="Line_77" data-name="Line 77" y2="5.317" transform="translate(368.546 301.642)" fill="none" stroke="#3ebab3" stroke-linecap="round" stroke-miterlimit="10" stroke-width="1"/>
    <line id="Line_78" data-name="Line 78" y2="124.11" transform="translate(368.546 317.754)" fill="none" stroke="#3ebab3" stroke-linecap="round" stroke-miterlimit="10" stroke-width="1" stroke-dasharray="12.18 12.18"/>
    <line id="Line_79" data-name="Line 79" y2="5.317" transform="translate(368.546 447.261)" fill="none" stroke="#3ebab3" stroke-linecap="round" stroke-miterlimit="10" stroke-width="1"/>
    <line id="Line_80" data-name="Line 80" y2="5.317" transform="translate(402.634 301.642)" fill="none" stroke="#3ebab3" stroke-linecap="round" stroke-miterlimit="10" stroke-width="1"/>
    <line id="Line_81" data-name="Line 81" y2="128.107" transform="translate(402.634 318.099)" fill="none" stroke="#3ebab3" stroke-linecap="round" stroke-miterlimit="10" stroke-width="1" stroke-dasharray="12.57 12.57"/>
    <line id="Line_82" data-name="Line 82" y2="5.317" transform="translate(402.634 451.772)" fill="none" stroke="#3ebab3" stroke-linecap="round" stroke-miterlimit="10" stroke-width="1"/>
    <line id="Line_83" data-name="Line 83" y2="5.317" transform="translate(437.517 298.247)" fill="none" stroke="#3ebab3" stroke-linecap="round" stroke-miterlimit="10" stroke-width="1"/>
    <line id="Line_84" data-name="Line 84" y2="142.562" transform="translate(437.517 314.12)" fill="none" stroke="#3ebab3" stroke-linecap="round" stroke-miterlimit="10" stroke-width="1" stroke-dasharray="11.91 11.91"/>
    <line id="Line_85" data-name="Line 85" y2="5.317" transform="translate(437.517 461.955)" fill="none" stroke="#3ebab3" stroke-linecap="round" stroke-miterlimit="10" stroke-width="1"/>
    <line id="Line_86" data-name="Line 86" y2="5.317" transform="translate(470.563 298.247)" fill="none" stroke="#3ebab3" stroke-linecap="round" stroke-miterlimit="10" stroke-width="1"/>
    <line id="Line_87" data-name="Line 87" y2="127.115" transform="translate(470.563 314.616)" fill="none" stroke="#3ebab3" stroke-linecap="round" stroke-miterlimit="10" stroke-width="1" stroke-dasharray="12.47 12.47"/>
    <line id="Line_88" data-name="Line 88" y2="5.317" transform="translate(470.563 447.261)" fill="none" stroke="#3ebab3" stroke-linecap="round" stroke-miterlimit="10" stroke-width="1"/>
    <line id="Line_89" data-name="Line 89" y1="4.484" x2="4.493" transform="translate(364.124 301.19)" fill="none" stroke="#3ebab3" stroke-linecap="round" stroke-miterlimit="10" stroke-width="1" stroke-dasharray="12"/>
    <line id="Line_90" data-name="Line 90" x1="4.334" y1="4.334" transform="translate(368.581 301.225)" fill="none" stroke="#3ebab3" stroke-linecap="round" stroke-miterlimit="10" stroke-width="1" stroke-dasharray="12"/>
    <line id="Line_91" data-name="Line 91" y1="4.484" x2="4.484" transform="translate(364.159 304.256)" fill="none" stroke="#3ebab3" stroke-linecap="round" stroke-miterlimit="10" stroke-width="1" stroke-dasharray="12"/>
    <line id="Line_92" data-name="Line 92" x1="4.334" y1="4.334" transform="translate(368.608 304.291)" fill="none" stroke="#3ebab3" stroke-linecap="round" stroke-miterlimit="10" stroke-width="1" stroke-dasharray="12"/>
    <line id="Line_93" data-name="Line 93" y1="4.493" x2="4.484" transform="translate(398.229 359.186)" fill="none" stroke="#3ebab3" stroke-linecap="round" stroke-miterlimit="10" stroke-width="1" stroke-dasharray="12"/>
    <line id="Line_94" data-name="Line 94" x1="4.334" y1="4.343" transform="translate(402.679 359.221)" fill="none" stroke="#3ebab3" stroke-linecap="round" stroke-miterlimit="10" stroke-width="1" stroke-dasharray="12"/>
    <line id="Line_95" data-name="Line 95" y1="4.484" x2="4.484" transform="translate(398.256 362.252)" fill="none" stroke="#3ebab3" stroke-linecap="round" stroke-miterlimit="10" stroke-width="1" stroke-dasharray="12"/>
    <line id="Line_96" data-name="Line 96" x1="4.343" y1="4.343" transform="translate(402.705 362.288)" fill="none" stroke="#3ebab3" stroke-linecap="round" stroke-miterlimit="10" stroke-width="1" stroke-dasharray="12"/>
    <line id="Line_97" data-name="Line 97" x2="4.484" y2="4.493" transform="translate(433.112 408.381)" fill="none" stroke="#3ebab3" stroke-linecap="round" stroke-miterlimit="10" stroke-width="1" stroke-dasharray="12"/>
    <line id="Line_98" data-name="Line 98" x1="4.334" y2="4.343" transform="translate(437.561 408.497)" fill="none" stroke="#3ebab3" stroke-linecap="round" stroke-miterlimit="10" stroke-width="1" stroke-dasharray="12"/>
    <line id="Line_99" data-name="Line 99" x2="4.484" y2="4.484" transform="translate(433.139 405.324)" fill="none" stroke="#3ebab3" stroke-linecap="round" stroke-miterlimit="10" stroke-width="1" stroke-dasharray="12"/>
    <line id="Line_100" data-name="Line 100" x1="4.334" y2="4.334" transform="translate(437.588 405.439)" fill="none" stroke="#3ebab3" stroke-linecap="round" stroke-miterlimit="10" stroke-width="1" stroke-dasharray="12"/>
    <line id="Line_101" data-name="Line 101" y1="4.484" x2="4.493" transform="translate(466.149 310.655)" fill="none" stroke="#3ebab3" stroke-linecap="round" stroke-miterlimit="10" stroke-width="1" stroke-dasharray="12"/>
    <line id="Line_102" data-name="Line 102" x1="4.343" y1="4.343" transform="translate(470.599 310.69)" fill="none" stroke="#3ebab3" stroke-linecap="round" stroke-miterlimit="10" stroke-width="1" stroke-dasharray="12"/>
    <line id="Line_103" data-name="Line 103" y1="4.484" x2="4.493" transform="translate(466.177 313.721)" fill="none" stroke="#3ebab3" stroke-linecap="round" stroke-miterlimit="10" stroke-width="1" stroke-dasharray="12"/>
    <line id="Line_104" data-name="Line 104" x1="4.334" y1="4.334" transform="translate(470.634 313.757)" fill="none" stroke="#3ebab3" stroke-linecap="round" stroke-miterlimit="10" stroke-width="1" stroke-dasharray="12"/>
    <path id="settings" d="M356.944,79.319l6.8,5.287a1.565,1.565,0,0,1,.447,2.1l-6.494,11.177a1.3,1.3,0,0,1-1.665.749h0l-.246-.123L347.8,95.325a30.3,30.3,0,0,1-5.332,3.186l-1.285,8.45a1.464,1.464,0,0,1-1.531,1.364h-13a1.531,1.531,0,0,1-1.643-1.341l-1.218-8.461a24.993,24.993,0,0,1-5.432-3.186l-8.014,3.186a1.475,1.475,0,0,1-1.956-.592l-6.706-11.177a1.587,1.587,0,0,1,.436-2.1l6.818-5.287c0-1.218-.168-2.235-.168-3.186a21.229,21.229,0,0,1,.168-3.152l-6.818-5.309a1.587,1.587,0,0,1-.436-2.1l6.483-11.177a1.352,1.352,0,0,1,1.788-.693h.168l8.014,3.186a31.039,31.039,0,0,1,5.421-3.186l1.218-8.439a1.531,1.531,0,0,1,1.654-1.364h12.843a1.442,1.442,0,0,1,1.721,1.185v.145l1.207,8.439a25.149,25.149,0,0,1,5.455,3.186l7.981-3.186a1.475,1.475,0,0,1,1.967.615L364.1,65.5a1.576,1.576,0,0,1-.447,2.113L356.832,72.9a21,21,0,0,1,.089,6.416Zm-23.908,8.148A11.378,11.378,0,0,0,344.28,76.134a10.931,10.931,0,0,0-3.353-8.014,11.177,11.177,0,0,0-15.738-.112l-.123.112a11.323,11.323,0,0,0,0,15.995h0a10.965,10.965,0,0,0,7.913,3.353Z" transform="translate(69.603 62.668)" fill="#b2c1fc"/>
    <path id="settings-2" data-name="settings" d="M455.194,84.426l3.353,2.649a.794.794,0,0,1,.235,1.062l-3.264,5.589a.626.626,0,0,1-.827.369h-.123l-3.99-1.6a15.093,15.093,0,0,1-2.671,1.6l-.592,4.236a.726.726,0,0,1-.76.682h-6.505a.76.76,0,0,1-.8-.682l-.615-4.236a12.562,12.562,0,0,1-2.738-1.643l-4.013,1.6a.749.749,0,0,1-.984-.3l-3.353-5.589a.8.8,0,0,1,.224-1.062l3.409-2.638c0-.615-.078-1.118-.078-1.6a10.56,10.56,0,0,1,.078-1.576l-3.409-2.66a.8.8,0,0,1-.224-1.062l3.253-5.589a.682.682,0,0,1,.894-.346h.089l4.013,1.6a15.054,15.054,0,0,1,2.716-1.6l.6-4.225a.771.771,0,0,1,.827-.682h6.438a.715.715,0,0,1,.816.6V67.4l.6,4.225a12.708,12.708,0,0,1,2.738,1.6l3.99-1.6a.738.738,0,0,1,.984.313l3.264,5.589a.794.794,0,0,1-.235,1.062l-3.353,2.649a9.428,9.428,0,0,1,.145,1.587,9.881,9.881,0,0,1-.1,1.621Zm-11.971,4.091a5.689,5.689,0,0,0,5.589-5.678,5.477,5.477,0,0,0-1.665-4.013,5.589,5.589,0,0,0-7.88,0h-.056a5.667,5.667,0,0,0,0,8.014h0a5.455,5.455,0,0,0,3.957,1.665Z" transform="translate(84.434 65.352)" fill="#b2c1fc"/>
    <path id="settings-3" data-name="settings" d="M322.21,111.954l5.589,1.6a1.051,1.051,0,0,1,.816,1.2l-1.252,8.64a.861.861,0,0,1-.85.883h-5.98A19.86,19.86,0,0,1,318,127.624l1.386,5.589a.984.984,0,0,1-.615,1.241l-8.126,3.264a1.017,1.017,0,0,1-1.364-.425l-2.951-4.985a17.293,17.293,0,0,1-4.2-.626l-4.2,4.013a1,1,0,0,1-1.375.112l-6.986-5.332a1.118,1.118,0,0,1-.257-1.431l2.94-5.019c-.313-.76-.682-1.375-.905-1.956a13.782,13.782,0,0,1-.693-2.012l-5.589-1.61a1.051,1.051,0,0,1-.8-1.207l1.241-8.618a.928.928,0,0,1,.95-.883h5.924a20.977,20.977,0,0,1,2.593-3.353L293.6,98.8a1.04,1.04,0,0,1,.693-1.274l8.025-3.23a1,1,0,0,1,1.341.346v.089l2.873,4.985a16.844,16.844,0,0,1,4.214.615l4.2-4.113a.984.984,0,0,1,1.386-.112l6.885,5.354a1.118,1.118,0,0,1,.235,1.431l-2.917,5.03a11.334,11.334,0,0,1,.984,1.9,12.386,12.386,0,0,1,.693,2.09ZM309.3,123.131a7.656,7.656,0,0,0,4.18-9.925,7.31,7.31,0,0,0-4.1-4.169,7.511,7.511,0,0,0-9.87,3.878v.112a7.634,7.634,0,0,0,4.013,10.06h0a7.388,7.388,0,0,0,5.79.089Z" transform="translate(67.575 68.584)" fill="#cbd5ff"/>
    <ellipse id="Ellipse_78" data-name="Ellipse 78" cx="40.607" cy="40.607" rx="40.607" ry="40.607" transform="translate(304.559 187.859)" fill="#2e3866"/>
    <ellipse id="Ellipse_79" data-name="Ellipse 79" cx="56.747" cy="56.747" rx="56.747" ry="56.747" transform="translate(411.927 57.498)" fill="#606eac"/>
    <ellipse id="Ellipse_80" data-name="Ellipse 80" cx="51.907" cy="51.907" rx="51.907" ry="51.907" transform="translate(416.768 62.338)" fill="#7a99fc"/>
    <path id="Path_808" data-name="Path 808" d="M256.73,140.583a28.8,28.8,0,0,1,48.208-.961" transform="translate(64.337 72.458)" fill="none" stroke="#fff" stroke-miterlimit="10" stroke-width="1"/>
    <path id="Path_809" data-name="Path 809" d="M287.1,128.109a9.3,9.3,0,0,1-3.934,2.4,12.1,12.1,0,0,1-3.778.592,10.585,10.585,0,0,1-7.712-3,29.128,29.128,0,0,1,15.425,0Z" transform="translate(66.097 72.458)" fill="none" stroke="#fff" stroke-miterlimit="10" stroke-width="1"/>
    <path id="Path_810" data-name="Path 810" d="M298.67,133.553a29.466,29.466,0,0,1-5.388,2.772,33.442,33.442,0,0,1-5.823,1.7,36.226,36.226,0,0,1-6.494.659H280.5a35.366,35.366,0,0,1-5.812-.469,34.209,34.209,0,0,1-6.025-1.531,30.829,30.829,0,0,1-6.349-3.141,28.759,28.759,0,0,1,36.36,0Z" transform="translate(64.994 72.458)" fill="none" stroke="#fff" stroke-miterlimit="10" stroke-width="1"/>
    <path id="Path_811" data-name="Path 811" d="M274.237,129.47s-7.824,7.4-10.227,16.118" transform="translate(65.194 72.741)" fill="none" stroke="#fff" stroke-linecap="round" stroke-miterlimit="10" stroke-width="1"/>
    <path id="Path_812" data-name="Path 812" d="M271.22,145.968l.2-.917a50.163,50.163,0,0,1,2.235-7.254,43.98,43.98,0,0,1,3.454-7.1" transform="translate(66.043 72.885)" fill="none" stroke="#fff" stroke-linecap="round" stroke-miterlimit="10" stroke-width="1"/>
    <path id="Path_813" data-name="Path 813" d="M279.049,130.7a44.581,44.581,0,0,1,0,6.829c-.067,1.721-.179,3.856-.369,6.483,0,.458-.067.939-.1,1.431" transform="translate(66.91 72.885)" fill="none" stroke="#fff" stroke-linecap="round" stroke-miterlimit="10" stroke-width="1"/>
    <path id="Path_814" data-name="Path 814" d="M282,130.17a34.439,34.439,0,0,1,3.185,7.3,45.822,45.822,0,0,1,1.621,6.908c.078.537.156,1.118.224,1.654" transform="translate(67.312 72.823)" fill="none" stroke="#fff" stroke-linecap="round" stroke-miterlimit="10" stroke-width="1"/>
    <path id="Path_815" data-name="Path 815" d="M284,129.47a25,25,0,0,1,7,7.556,39.036,39.036,0,0,1,3.867,7.824c.1.235.179.481.268.727" transform="translate(67.547 72.741)" fill="none" stroke="#fff" stroke-linecap="round" stroke-miterlimit="10" stroke-width="1"/>
    <path id="Path_816" data-name="Path 816" d="M256.73,140.583a28.8,28.8,0,0,1,48.208-.961" transform="translate(64.337 72.458)" fill="none" stroke="#fff" stroke-linecap="round" stroke-miterlimit="10" stroke-width="1"/>
    <text id="ISO" transform="translate(440.05 127.245)" fill="#eaeaea" font-size="39" font-family="Algerian"><tspan x="0" y="0">ISO</tspan></text>
    <text id="_9001_27001" data-name="9001 +27001" transform="translate(438.5 140.745)" fill="#eaeaea" font-size="12" font-family="BerlinSansFB-Reg, Berlin Sans FB"><tspan x="0" y="0">9001 +27001</tspan></text>
    <text id="CERTIFIED" transform="translate(448 155)" fill="#fff" font-size="9" font-family="CenturyGothic-Bold, Century Gothic" font-weight="700"><tspan x="0" y="0">CERTIFIED</tspan></text>
    <path id="Path_817" data-name="Path 817" d="M348.3,90.78l.347.7.782.112-.57.548.134.782-.693-.369-.7.369.134-.782-.559-.548.771-.112Z" transform="translate(96.655 59.647)" fill="#fff"/>
    <path id="Path_818" data-name="Path 818" d="M376.369,90.78l.346.7.782.112-.57.548.134.782-.693-.369-.7.369.134-.782-.559-.548.782-.112Z" transform="translate(115.677 59.647)" fill="#fff"/>
    <text id="ISO-2" data-name="ISO" transform="translate(328.779 234.094)" fill="#eaeaea" font-size="18" font-family="Algerian"><tspan x="0" y="0">ISO</tspan></text>
    <path id="Path_819" data-name="Path 819" d="M232.807,152.35l.872,1.766,1.945.279-1.408,1.375.324,1.934-1.732-.917-1.744.917.335-1.934L229.99,154.4l1.945-.279Z" transform="translate(91.569 75.434)" fill="#eaeaea"/>
    <path id="Path_820" data-name="Path 820" d="M268.937,152.35l.872,1.766,1.945.279-1.408,1.375.335,1.934-1.744-.917-1.744.917.335-1.934L266.12,154.4l1.945-.279Z" transform="translate(95.822 75.434)" fill="#eaeaea"/>
    <path id="Path_821" data-name="Path 821" d="M302.227,169a28.312,28.312,0,0,1-42.787,0Z" transform="translate(64.656 77.394)" fill="#eaeaea"/>
    <text id="_27001" data-name="27001" transform="translate(339.118 250.848)" fill="#5a65b7" font-size="3" font-family="CenturyGothic-Bold, Century Gothic" font-weight="700"><tspan x="0" y="0">27001</tspan></text>
    <ellipse id="Ellipse_81" data-name="Ellipse 81" cx="2.56" cy="2.56" rx="2.56" ry="2.56" transform="translate(460.202 187.87)" fill="none" stroke="#d84800" stroke-miterlimit="10" stroke-width="0.5"/>
    <ellipse id="Ellipse_82" data-name="Ellipse 82" cx="2.56" cy="2.56" rx="2.56" ry="2.56" transform="translate(307.968 260.277)" fill="none" stroke="#d84800" stroke-miterlimit="10" stroke-width="0.5"/>
    <ellipse id="Ellipse_83" data-name="Ellipse 83" cx="2.56" cy="2.56" rx="2.56" ry="2.56" transform="translate(300.367 187.87)" fill="#d84800"/>
    <ellipse id="Ellipse_84" data-name="Ellipse 84" cx="1.073" cy="1.073" rx="1.073" ry="1.073" transform="translate(311.958 243.455)" fill="none" stroke="#e5e5e5" stroke-miterlimit="10" stroke-width="0.5"/>
    <ellipse id="Ellipse_85" data-name="Ellipse 85" cx="2.56" cy="2.56" rx="2.56" ry="2.56" transform="translate(593.223 116.973)" fill="none" stroke="#d84800" stroke-miterlimit="10" stroke-width="0.5"/>
    <ellipse id="Ellipse_87" data-name="Ellipse 87" cx="2.56" cy="2.56" rx="2.56" ry="2.56" transform="translate(532.652 107.964)" fill="#d84800"/>
    <ellipse id="Ellipse_88" data-name="Ellipse 88" cx="1.285" cy="1.285" rx="1.285" ry="1.285" transform="translate(553.297 168.03)" fill="#d84800"/>
    <ellipse id="Ellipse_90" data-name="Ellipse 90" cx="1.285" cy="1.285" rx="1.285" ry="1.285" transform="translate(385.772 210.471)" fill="#d84800"/>
    <line id="Line_109" data-name="Line 109" y2="4.348" transform="translate(353.201 174.77)" fill="none" stroke="#d84800" stroke-linecap="round" stroke-miterlimit="10" stroke-width="0.5"/>
    <line id="Line_114" data-name="Line 114" y2="4.348" transform="translate(437.869 161.112)" fill="none" stroke="#d84800" stroke-linecap="round" stroke-miterlimit="10" stroke-width="0.5"/>
    <line id="Line_110" data-name="Line 110" x1="4.359" transform="translate(351.022 176.939)" fill="none" stroke="#d84800" stroke-linecap="round" stroke-miterlimit="10" stroke-width="0.5"/>
    <line id="Line_113" data-name="Line 113" x1="4.359" transform="translate(435.69 163.28)" fill="none" stroke="#d84800" stroke-linecap="round" stroke-miterlimit="10" stroke-width="0.5"/>
    <line id="Line_111" data-name="Line 111" y2="2.85" transform="translate(377.881 127.133)" fill="none" stroke="#fff" stroke-linecap="round" stroke-miterlimit="10" stroke-width="0.25"/>
    <line id="Line_112" data-name="Line 112" x1="2.861" transform="translate(376.451 128.552)" fill="none" stroke="#fff" stroke-linecap="round" stroke-miterlimit="10" stroke-width="0.25"/>
    <g id="Group_17" data-name="Group 17" transform="matrix(0.995, 0.105, -0.105, 0.995, 312.956, 187.799)">
      <g id="Group_16" data-name="Group 16" transform="translate(0 0)">
        <path id="Path_822" data-name="Path 822" d="M0,.764.068,0,4.117.352l-.068.766Z" transform="translate(0 33.141)" fill="#fffdfd"/>
        <path id="Path_823" data-name="Path 823" d="M0,2.492l.123-.745.3.049A1.947,1.947,0,0,1,.2,1.288,1.124,1.124,0,0,1,.189.854,1.034,1.034,0,0,1,.62.156,1.063,1.063,0,0,1,1.435.024L3.4.343l-.119.735-1.3-.21A3.267,3.267,0,0,0,1.264.8.512.512,0,0,0,.97.922.464.464,0,0,0,.832,1.2a.561.561,0,0,0,.089.412A.815.815,0,0,0,1.3,1.9a3.226,3.226,0,0,0,.6.13l1.19.195-.123.743Z" transform="translate(1.206 29.783)" fill="#fffdfd"/>
        <path id="Path_824" data-name="Path 824" d="M1,1.752l.062-.261C.684,1.4.456,1.336.39,1.309a.579.579,0,0,1-.333-.294A.761.761,0,0,1,.034.49,1.57,1.57,0,0,1,.264,0L.82.134A1.236,1.236,0,0,0,.711.383a.291.291,0,0,0,.01.2C.74.62.793.648.876.667l.368.091L1.353.294l.622.148L1.863.906l2.3.554-.173.731-2.3-.552L1.625,1.9Z" transform="translate(0.752 27.395)" fill="#fffdfd"/>
        <path id="Path_825" data-name="Path 825" d="M.077,1.107a1.574,1.574,0,0,1,.451-.7A1.531,1.531,0,0,1,1.258.034a1.561,1.561,0,0,1,.813.045,1.582,1.582,0,0,1,.69.447,1.541,1.541,0,0,1,.371.727,1.594,1.594,0,0,1-.051.83A1.51,1.51,0,0,1,2.3,2.99,1.531,1.531,0,0,1,1.1,3.078a1.506,1.506,0,0,1-.955-.854A1.505,1.505,0,0,1,.077,1.107Zm.679.208a.765.765,0,0,0,.051.63.852.852,0,0,0,.523.416A.884.884,0,0,0,2,2.341a.77.77,0,0,0,.412-.482.794.794,0,0,0-.051-.636A.875.875,0,0,0,1.836.8a.859.859,0,0,0-.665.025A.763.763,0,0,0,.756,1.316Z" transform="translate(2.544 24.574)" fill="#fffdfd"/>
        <path id="Path_826" data-name="Path 826" d="M0,1.486l.253-.6L.6,1.037A.809.809,0,0,1,.395.648a.677.677,0,0,1,.041-.4A.7.7,0,0,1,.628,0l.506.467A.532.532,0,0,0,.986.642.347.347,0,0,0,1.074,1a1.958,1.958,0,0,0,.733.436l.134.054,1.124.471-.294.69Z" transform="translate(3.437 22.132)" fill="#fffdfd"/>
        <path id="Path_827" data-name="Path 827" d="M0,3.718l.364-.659.3.167A1.308,1.308,0,0,1,.6,2.7a1.252,1.252,0,0,1,.159-.5.95.95,0,0,1,.366-.377.976.976,0,0,1,.531-.124A1.194,1.194,0,0,1,1.665.544a1.06,1.06,0,0,1,.4-.422A.842.842,0,0,1,2.577,0a2.088,2.088,0,0,1,.737.284l1.544.854-.368.665L3.155,1.069A1.278,1.278,0,0,0,2.489.846a.431.431,0,0,0-.344.245.592.592,0,0,0-.07.358.65.65,0,0,0,.156.346,1.855,1.855,0,0,0,.513.368l1.186.657-.368.663-1.276-.7a2.022,2.022,0,0,0-.539-.23.533.533,0,0,0-.323.025.473.473,0,0,0-.218.21.56.56,0,0,0-.066.354.659.659,0,0,0,.163.352,1.9,1.9,0,0,0,.521.375l1.167.646-.362.659Z" transform="translate(4.26 17.842)" fill="#fffdfd"/>
        <path id="Path_828" data-name="Path 828" d="M.9.6,1.346,0,3.758,1.8,3.3,2.4,3.05,2.213a1.456,1.456,0,0,1-.021.535,1.254,1.254,0,0,1-.214.442,1.336,1.336,0,0,1-.965.537A1.573,1.573,0,0,1,.7,3.4,1.623,1.623,0,0,1,.026,2.385,1.317,1.317,0,0,1,.267,1.319,1.291,1.291,0,0,1,.654.971,1.421,1.421,0,0,1,1.161.8ZM.92,1.61a.757.757,0,0,0-.15.615.885.885,0,0,0,.37.564.9.9,0,0,0,.653.194.764.764,0,0,0,.549-.315.775.775,0,0,0,.154-.62.9.9,0,0,0-.379-.574.876.876,0,0,0-.65-.193A.785.785,0,0,0,.92,1.61Z" transform="translate(7.519 14.315)" fill="#fffdfd"/>
        <path id="Path_829" data-name="Path 829" d="M0,.568.5,0l.832.733L1.628.4l.486.428-.294.336L3.588,2.721l-.5.564L1.321,1.729l-.257.29L.578,1.591.836,1.3Z" transform="translate(8.709 12.252)" fill="#fffdfd"/>
        <path id="Path_830" data-name="Path 830" d="M.761,1.276,1.286.735,3.449,2.822l-.525.545ZM.134.146A.471.471,0,0,1,.473,0,.48.48,0,0,1,.821.14a.472.472,0,0,1,.15.34.454.454,0,0,1-.13.34A.448.448,0,0,1,.5.967.486.486,0,0,1,.146.825.452.452,0,0,1,0,.488.46.46,0,0,1,.134.146Z" transform="translate(9.888 11.052)" fill="#fffdfd"/>
        <path id="Path_831" data-name="Path 831" d="M.514.41A1.58,1.58,0,0,1,1.255.037a1.54,1.54,0,0,1,.819.041,1.567,1.567,0,0,1,.681.449,1.577,1.577,0,0,1,.371.733,1.513,1.513,0,0,1-.045.817,1.616,1.616,0,0,1-.461.69,1.5,1.5,0,0,1-1.13.389A1.525,1.525,0,0,1,.4,2.628,1.522,1.522,0,0,1,.01,1.408,1.5,1.5,0,0,1,.514.41ZM1,.932A.781.781,0,0,0,.722,1.5a.864.864,0,0,0,.241.622.88.88,0,0,0,.6.321.773.773,0,0,0,.6-.208.783.783,0,0,0,.274-.576.884.884,0,0,0-.243-.628A.886.886,0,0,0,1.6.718.783.783,0,0,0,1,.932Z" transform="translate(12.253 9.757)" fill="#fffdfd"/>
        <path id="Path_832" data-name="Path 832" d="M0,1.227.613.788l.179.249a1.916,1.916,0,0,1,.2-.513A1.086,1.086,0,0,1,1.291.2a1.031,1.031,0,0,1,.8-.189A1.071,1.071,0,0,1,2.76.5L3.919,2.11l-.6.438-.77-1.07A3.373,3.373,0,0,0,2.089.926.5.5,0,0,0,1.8.805a.484.484,0,0,0-.3.1.555.555,0,0,0-.228.352.826.826,0,0,0,.06.478,3.549,3.549,0,0,0,.332.514l.7.978-.613.441Z" transform="translate(14.669 7.422)" fill="#fffdfd"/>
        <path id="Path_833" data-name="Path 833" d="M1.972.181,1.7.893A.815.815,0,0,0,.96.805.366.366,0,0,0,.778.994a.237.237,0,0,0,0,.208.315.315,0,0,0,.15.138,5.212,5.212,0,0,0,.747.2c.375.084.6.138.69.167a1.534,1.534,0,0,1,.506.249,1.127,1.127,0,0,1,.307.375,1.08,1.08,0,0,1,.076.891,1.251,1.251,0,0,1-.65.706,1.325,1.325,0,0,1-.768.161,1.663,1.663,0,0,1-.8-.337l.395-.65a.823.823,0,0,0,.846.165.484.484,0,0,0,.243-.259.33.33,0,0,0,0-.3.435.435,0,0,0-.218-.2,3.005,3.005,0,0,0-.6-.167A4.585,4.585,0,0,1,.556,2a1.068,1.068,0,0,1-.443-.432A.959.959,0,0,1,.062.78,1.118,1.118,0,0,1,.628.144,1.258,1.258,0,0,1,1.206,0,2.155,2.155,0,0,1,1.972.181Z" transform="translate(18.843 4.073)" fill="#fffdfd"/>
        <path id="Path_834" data-name="Path 834" d="M3.134,1.209l-2.248.9a.811.811,0,0,0,.449.368.883.883,0,0,0,.611-.041,1.013,1.013,0,0,0,.562-.547l.7.039a1.491,1.491,0,0,1-.342.677,1.767,1.767,0,0,1-.671.443,1.554,1.554,0,0,1-1.233.016A1.5,1.5,0,0,1,.135,2.2,1.552,1.552,0,0,1,.118.973,1.494,1.494,0,0,1,.979.135,1.532,1.532,0,0,1,2.22.127a1.644,1.644,0,0,1,.862.945ZM2.212.938a.768.768,0,0,0-.428-.27.858.858,0,0,0-.533.047.873.873,0,0,0-.445.37.974.974,0,0,0-.113.465Z" transform="translate(22.199 3.559)" fill="#fffdfd"/>
        <path id="Path_835" data-name="Path 835" d="M2.789.362l-.51.5A1.049,1.049,0,0,0,1.873.71a1.052,1.052,0,0,0-.408.039.943.943,0,0,0-.593.428.869.869,0,0,0-.08.692.847.847,0,0,0,.412.537.933.933,0,0,0,.7.056.963.963,0,0,0,.665-.547l.683.233a1.623,1.623,0,0,1-1.144.972A1.647,1.647,0,0,1,.788,3a1.541,1.541,0,0,1-.727-.939A1.546,1.546,0,0,1,.486.511,1.824,1.824,0,0,1,1.272.074,1.774,1.774,0,0,1,2.093.029,1.506,1.506,0,0,1,2.789.362Z" transform="translate(25.737 2.325)" fill="#fffdfd"/>
        <path id="Path_836" data-name="Path 836" d="M0,.438.751.313.992,1.741a2.046,2.046,0,0,0,.152.57.52.52,0,0,0,.23.22.539.539,0,0,0,.329.037A.542.542,0,0,0,2,2.425a.525.525,0,0,0,.15-.292A1.939,1.939,0,0,0,2.1,1.577L1.861.126,2.6,0l.212,1.256A3.2,3.2,0,0,1,2.871,2.34a1.155,1.155,0,0,1-.352.609,1.363,1.363,0,0,1-.708.313,1.352,1.352,0,0,1-.829-.086,1.186,1.186,0,0,1-.523-.537,3.7,3.7,0,0,1-.253-.965Z" transform="translate(29.24 1.479)" fill="#fffdfd"/>
        <path id="Path_837" data-name="Path 837" d="M0,.194.644.136.677.513A.81.81,0,0,1,.926.152.654.654,0,0,1,1.3,0a.718.718,0,0,1,.311.049L1.431.72A.49.49,0,0,0,1.21.673.341.341,0,0,0,.936.912a1.96,1.96,0,0,0-.047.854L.9,1.912l.109,1.21-.747.066Z" transform="translate(32.591 1.214)" fill="#fffdfd"/>
        <path id="Path_838" data-name="Path 838" d="M.134,1.253l.753-.031.124,3-.753.031ZM.461,0A.452.452,0,0,1,.805.129.47.47,0,0,1,.961.471a.459.459,0,0,1-.124.35A.458.458,0,0,1,.51.977.463.463,0,0,1,.158.847.493.493,0,0,1,0,.5.466.466,0,0,1,.127.156.465.465,0,0,1,.461,0Z" transform="translate(34.449 0)" fill="#fffdfd"/>
        <path id="Path_839" data-name="Path 839" d="M.395,0l.755,0,0,1.109.445,0,0,.65-.445,0L1.13,4.117l-.755,0L.387,1.756,0,1.754,0,1.1l.387,0Z" transform="translate(35.834 0.098)" fill="#fffdfd"/>
        <path id="Path_840" data-name="Path 840" d="M0,0,.766.06,1.394,2,2.4.193l.77.06L.972,4.2.2,4.133l.722-1.27Z" transform="translate(37.691 1.193)" fill="#fffdfd"/>
        <path id="Path_841" data-name="Path 841" d="M1.69,0,2.42.185l.208,2.982L4.254.657l.731.185L4.635,4.95l-.726-.187.218-2.595L2.651,4.438l-.659-.167L1.8,1.572.729,3.948,0,3.76Z" transform="translate(42.258 0.882)" fill="#fffdfd"/>
        <path id="Path_842" data-name="Path 842" d="M2.884.529l.7.284L2.454,3.6l-.7-.284.119-.294a1.457,1.457,0,0,1-.523.115,1.245,1.245,0,0,1-.48-.1,1.331,1.331,0,0,1-.764-.8,1.568,1.568,0,0,1,.027-1.2A1.62,1.62,0,0,1,.943.14,1.311,1.311,0,0,1,2.036.1a1.308,1.308,0,0,1,.434.286,1.442,1.442,0,0,1,.29.451ZM1.917.8a.77.77,0,0,0-.632.01.9.9,0,0,0-.453.5A.9.9,0,0,0,.81,2a.764.764,0,0,0,.443.451.783.783,0,0,0,.638-.008.9.9,0,0,0,.461-.513.874.874,0,0,0,.023-.677A.794.794,0,0,0,1.917.8Z" transform="translate(47.597 3.546)" fill="#fffdfd"/>
        <path id="Path_843" data-name="Path 843" d="M1.418,0l.667.358-.146.27a1.8,1.8,0,0,1,.55-.045A1.127,1.127,0,0,1,2.906.71a1.032,1.032,0,0,1,.521.634,1.073,1.073,0,0,1-.14.815l-.939,1.75L1.69,3.557,2.312,2.4a3.458,3.458,0,0,0,.3-.652.5.5,0,0,0-.021-.317.467.467,0,0,0-.218-.22.548.548,0,0,0-.416-.052.837.837,0,0,0-.4.264,3.218,3.218,0,0,0-.315.523L.663,3.007,0,2.649Z" transform="translate(50.656 4.787)" fill="#fffdfd"/>
        <path id="Path_844" data-name="Path 844" d="M3.1.834l.62.428L2.024,3.74,1.4,3.316l.179-.263a1.459,1.459,0,0,1-.537,0,1.253,1.253,0,0,1-.451-.2,1.34,1.34,0,0,1-.576-.941A1.583,1.583,0,0,1,.3.748a1.625,1.625,0,0,1,.984-.71,1.309,1.309,0,0,1,1.075.2,1.212,1.212,0,0,1,.36.372,1.379,1.379,0,0,1,.191.5ZM2.1.9A.76.76,0,0,0,1.477.774a.891.891,0,0,0-.551.393.892.892,0,0,0-.167.661.762.762,0,0,0,.336.535.774.774,0,0,0,.626.128.9.9,0,0,0,.558-.4.872.872,0,0,0,.167-.657A.788.788,0,0,0,2.1.9Z" transform="translate(54 6.972)" fill="#fffdfd"/>
        <path id="Path_845" data-name="Path 845" d="M4,1.011l.568.492L2.888,3.453a1.709,1.709,0,0,1-.967.648,1.53,1.53,0,0,1-1.256-.44,2.271,2.271,0,0,1-.492-.57A1.382,1.382,0,0,1,0,2.514,1.333,1.333,0,0,1,.11,1.921l.628.541a.7.7,0,0,0,.091.331,1.166,1.166,0,0,0,.268.319,1.047,1.047,0,0,0,.432.247.568.568,0,0,0,.358-.014,1.235,1.235,0,0,0,.391-.338,1.294,1.294,0,0,1-.5-.056,1.3,1.3,0,0,1-.432-.257,1.362,1.362,0,0,1-.488-1,1.539,1.539,0,0,1,.4-1.111A1.54,1.54,0,0,1,2.345,0,1.323,1.323,0,0,1,3.327.33a1.3,1.3,0,0,1,.309.393,1.558,1.558,0,0,1,.146.539ZM3,.977a.779.779,0,0,0-.6-.2.821.821,0,0,0-.566.3.828.828,0,0,0-.222.62.784.784,0,0,0,.3.572.76.76,0,0,0,.589.2.845.845,0,0,0,.576-.317A.84.84,0,0,0,3.29,1.54.79.79,0,0,0,3,.977Z" transform="translate(56.184 9.271)" fill="#fffdfd"/>
        <path id="Path_846" data-name="Path 846" d="M2.516,2.9.867,1.125a.819.819,0,0,0-.185.552.9.9,0,0,0,.259.554,1.011,1.011,0,0,0,.712.331l.216.669a1.517,1.517,0,0,1-.755-.076,1.814,1.814,0,0,1-.655-.467A1.57,1.57,0,0,1,0,1.539,1.537,1.537,0,0,1,.516.452,1.578,1.578,0,0,1,1.654,0,1.483,1.483,0,0,1,2.745.5,1.538,1.538,0,0,1,3.2,1.659,1.637,1.637,0,0,1,2.623,2.8Zm-.078-.957a.76.76,0,0,0,.1-.494A.848.848,0,0,0,2.3.967.894.894,0,0,0,1.8.681a.959.959,0,0,0-.473.064Z" transform="translate(59.765 11.967)" fill="#fffdfd"/>
        <path id="Path_847" data-name="Path 847" d="M2.456,0l.436.617-.284.2a1.236,1.236,0,0,1,.891.527.966.966,0,0,1,.181.5.984.984,0,0,1-.121.531,1.2,1.2,0,0,1,1.027.513,1.05,1.05,0,0,1,.2.548.868.868,0,0,1-.115.51,2.044,2.044,0,0,1-.578.539L2.657,5.495l-.44-.62L3.464,4a1.332,1.332,0,0,0,.492-.5.44.44,0,0,0-.074-.416.566.566,0,0,0-.288-.22.656.656,0,0,0-.383-.01,1.908,1.908,0,0,0-.552.3L1.55,3.929l-.438-.62L2.3,2.468a2.059,2.059,0,0,0,.445-.385.549.549,0,0,0,.117-.3.464.464,0,0,0-.1-.286A.57.57,0,0,0,2.48,1.28a.683.683,0,0,0-.391-.008,2.036,2.036,0,0,0-.562.305L.436,2.35,0,1.733Z" transform="translate(61.709 14.387)" fill="#fffdfd"/>
        <path id="Path_848" data-name="Path 848" d="M2.133,3.09,1.013.943a.8.8,0,0,0-.323.482.891.891,0,0,0,.1.6,1.022,1.022,0,0,0,.6.51l.029.7a1.48,1.48,0,0,1-.7-.276,1.76,1.76,0,0,1-.51-.622A1.565,1.565,0,0,1,.069,1.114,1.52,1.52,0,0,1,.853.2,1.566,1.566,0,0,1,2.071.067a1.482,1.482,0,0,1,.918.774,1.542,1.542,0,0,1,.13,1.233,1.625,1.625,0,0,1-.858.951Zm.179-.943A.777.777,0,0,0,2.538,1.7a.853.853,0,0,0-.1-.525A.9.9,0,0,0,2.028.762.994.994,0,0,0,1.555.7Z" transform="translate(65.028 19.416)" fill="#fffdfd"/>
        <path id="Path_849" data-name="Path 849" d="M2.795,0l.278.7L2.787.815a1.825,1.825,0,0,1,.451.321,1.1,1.1,0,0,1,.235.366,1.021,1.021,0,0,1-.012.821,1.064,1.064,0,0,1-.634.531L.982,3.585.708,2.892l1.223-.486A3.442,3.442,0,0,0,2.579,2.1a.489.489,0,0,0,.187-.257.476.476,0,0,0-.021-.309.559.559,0,0,0-.286-.309.818.818,0,0,0-.478-.055,3.344,3.344,0,0,0-.58.193L.28,1.807,0,1.1Z" transform="translate(66.214 22.451)" fill="#fffdfd"/>
        <path id="Path_850" data-name="Path 850" d="M3.933.047l.222.72L3.1,1.091l.128.43-.62.191-.132-.428L.224,1.976,0,1.255,2.252.562,2.137.193,2.758,0l.115.372Z" transform="translate(67.427 25.548)" fill="#fffdfd"/>
      </g>
    </g>
    <g id="round" transform="translate(341.785 272.214) rotate(-121)">
      <text id="C" transform="translate(2.914 15.527) rotate(-76.25)" fill="#fffcfc" font-size="3" font-family="ArialRoundedMTBold, Arial Rounded MT"><tspan x="0" y="0">C</tspan></text>
      <text id="e" transform="matrix(0.349, -0.937, 0.937, 0.349, 4.509, 13.241)" fill="#fffcfc" font-size="4" font-family="ArialRoundedMTBold, Arial Rounded MT"><tspan x="0" y="0">e</tspan></text>
      <text id="r" transform="translate(4.326 10.869) rotate(-65.225)" fill="#fffcfc" font-size="3" font-family="ArialRoundedMTBold, Arial Rounded MT"><tspan x="0" y="0">r</tspan></text>
      <text id="t" transform="translate(5.92 9.828) rotate(-60.83)" fill="#fffcfc" font-size="4" font-family="ArialRoundedMTBold, Arial Rounded MT"><tspan x="0" y="0">t</tspan></text>
      <text id="i" transform="matrix(0.529, -0.849, 0.849, 0.529, 6.52, 8.765)" fill="#fffcfc" font-size="4" font-family="ArialRoundedMTBold, Arial Rounded MT"><tspan x="0" y="0">i</tspan></text>
      <text id="f" transform="matrix(0.575, -0.818, 0.818, 0.575, 6.212, 7.38)" fill="#fffcfc" font-size="3" font-family="ArialRoundedMTBold, Arial Rounded MT"><tspan x="0" y="0">f</tspan></text>
      <text id="i-2" data-name="i" transform="translate(7.73 6.955) rotate(-51.875)" fill="#fffcfc" font-size="4" font-family="ArialRoundedMTBold, Arial Rounded MT"><tspan x="0" y="0">i</tspan></text>
      <text id="e-2" data-name="e" transform="translate(8.275 6.223) rotate(-47.842)" fill="#fffcfc" font-size="4" font-family="ArialRoundedMTBold, Arial Rounded MT"><tspan x="0" y="0">e</tspan></text>
      <text id="d" transform="matrix(0.744, -0.668, 0.668, 0.744, 9.016, 3.917)" fill="#fffcfc" font-size="3" font-family="ArialRoundedMTBold, Arial Rounded MT"><tspan x="0" y="0">d</tspan></text>
    </g>
  </g>
</svg>
