<svg id="Layer_1" data-name="Layer 1" xmlns="http://www.w3.org/2000/svg" viewBox="0 0 4.04 1.01"><defs><style>.cls-1,.cls-3{fill:#ff4d00;}.cls-2{fill:#002f56;}.cls-3{font-size:0.13px;font-family:EngraversMT, Engravers MT;}.cls-4{fill:none;stroke:#ff4d00;stroke-miterlimit:10;stroke-width:0.02px;}</style></defs><path class="cls-1" d="M.75,0,.62.29H0V0H.77S.75,0,.75,0Z"/><polygon class="cls-1" points="0.58 0.37 0.43 0.65 0 0.65 0 0.37 0.58 0.37"/><polygon class="cls-1" points="0.39 0.73 0.24 1.01 0 1.01 0 0.73 0.39 0.73"/><path class="cls-2" d="M.77,1,.9.76h.32L1.14.62,1,.35.67,1H.4L.87.12C.9.06.94,0,1,0a.17.17,0,0,1,.14.12L1.62,1Z"/><path class="cls-2" d="M2.64.72c0,.17-.07.29-.3.29H1.7V.41h.65s.06,0,.06-.07A.05.05,0,0,0,2.35.28H1.7V0h.64A.26.26,0,0,1,2.63.3a.21.21,0,0,1-.1.2A.24.24,0,0,1,2.64.72ZM1.93.62V.76h.41c.05,0,.07,0,.07-.07A.06.06,0,0,0,2.34.62Z"/><path class="cls-2" d="M3.43.42a.25.25,0,0,1,.28.27A.28.28,0,0,1,3.39,1H2.71V.76h.7c.06,0,.08,0,.08-.07s0-.08-.08-.08H3A.25.25,0,0,1,2.74.33.28.28,0,0,1,3.05,0h.64V.28H3C3,.28,3,.3,3,.35S3,.42,3,.42Z"/><text class="cls-3" transform="translate(3.85 0.18) scale(0.74 1)">r</text><circle class="cls-4" cx="3.9" cy="0.14" r="0.13"/></svg>