<svg width="220" height="160" viewBox="0 0 220 160" fill="none" xmlns="http://www.w3.org/2000/svg">
<path d="M220 140.605H0V140.713H220V140.605Z" fill="#E6E6E6"/>
<path d="M153.267 145.398H148.656V145.506H153.267V145.398Z" fill="#E6E6E6"/>
<path d="M46.2803 143.251H28.5703V143.358H46.2803V143.251Z" fill="#E6E6E6"/>
<path d="M81.1041 143.568H55.0781V143.676H81.1041V143.568Z" fill="#E6E6E6"/>
<path d="M118.36 143.568H110.867V143.676H118.36V143.568Z" fill="#E6E6E6"/>
<path d="M196.258 144.247H172.234V144.354H196.258V144.247Z" fill="#E6E6E6"/>
<path d="M100.661 146.017H90.7344V146.124H100.661V146.017Z" fill="#E6E6E6"/>
<path d="M205.125 144.303H198.828V144.41H205.125V144.303Z" fill="#E6E6E6"/>
<path d="M104.28 121.451H19.3205C18.6549 121.45 18.017 121.191 17.5468 120.732C17.0766 120.272 16.8125 119.649 16.8125 118.999V2.43075C16.8183 1.78485 17.0849 1.16726 17.5545 0.71214C18.0241 0.257014 18.6587 0.00110646 19.3205 0H104.28C104.946 0 105.585 0.258358 106.057 0.718239C106.528 1.17812 106.793 1.80185 106.793 2.45222V118.999C106.793 119.65 106.528 120.273 106.057 120.733C105.585 121.193 104.946 121.451 104.28 121.451ZM19.3205 0.0858925C18.6841 0.0870301 18.0742 0.334578 17.6246 0.7742C17.175 1.21382 16.9225 1.8096 16.9225 2.43075V118.999C16.9225 119.62 17.175 120.216 17.6246 120.656C18.0742 121.095 18.6841 121.343 19.3205 121.344H104.28C104.917 121.343 105.527 121.096 105.978 120.656C106.428 120.217 106.681 119.621 106.683 118.999V2.43075C106.681 1.8092 106.428 1.21344 105.978 0.773938C105.527 0.334438 104.917 0.0870277 104.28 0.0858925H19.3205Z" fill="#E6E6E6"/>
<path d="M199.453 121.451H114.489C113.823 121.45 113.185 121.192 112.714 120.732C112.243 120.272 111.978 119.649 111.977 118.999V2.43075C111.984 1.78446 112.251 1.16688 112.721 0.711871C113.192 0.256864 113.827 0.00109439 114.489 0H199.453C200.114 0.00223513 200.747 0.258642 201.216 0.713647C201.685 1.16865 201.951 1.78559 201.957 2.43075V118.999C201.957 119.648 201.693 120.271 201.224 120.73C200.755 121.19 200.118 121.449 199.453 121.451ZM114.489 0.0858925C113.852 0.0870277 113.242 0.334438 112.791 0.773938C112.341 1.21344 112.088 1.8092 112.087 2.43075V118.999C112.088 119.621 112.341 120.217 112.791 120.656C113.242 121.096 113.852 121.343 114.489 121.344H199.453C200.09 121.343 200.7 121.096 201.15 120.656C201.601 120.217 201.854 119.621 201.855 118.999V2.43075C201.854 1.8092 201.601 1.21344 201.15 0.773938C200.7 0.334438 200.09 0.0870277 199.453 0.0858925H114.489Z" fill="#E6E6E6"/>
<path d="M182.48 89.5645H144.719L147.073 140.606H184.838L182.48 89.5645Z" fill="#EBEBEB"/>
<path d="M183.031 89.5645H145.266L147.624 140.606H185.385L183.031 89.5645Z" fill="#F5F5F5"/>
<path d="M151.49 140.605H161.398V129.019H151.49V140.605Z" fill="#EBEBEB"/>
<path d="M197.606 129.019H161.398V140.605H197.606V129.019Z" fill="#FAFAFA"/>
<g style="mix-blend-mode:multiply" opacity="0.7">
<path d="M151.486 131.299H197.703V130.504H151.486V131.299Z" fill="#E0E0E0"/>
</g>
<path d="M150.944 130.835H161.398V128.537H150.944V130.835Z" fill="#EBEBEB"/>
<path d="M198.152 128.538H161.398V130.836H198.152V128.538Z" fill="#FAFAFA"/>
<path d="M154.776 128.538H169.828V104.089H154.776V128.538Z" fill="#E6E6E6"/>
<path d="M188.216 104.089H169.828V128.538H188.216V104.089Z" fill="#F0F0F0"/>
<g style="mix-blend-mode:multiply" opacity="0.7">
<path d="M154.777 107.55H188.375V106.343H154.777V107.55Z" fill="#E0E0E0"/>
</g>
<path d="M153.944 106.85H169.828V101.297H153.944V106.85Z" fill="#E6E6E6"/>
<path d="M189.047 101.297H169.828V106.85H189.047V101.297Z" fill="#F0F0F0"/>
<path d="M145.16 140.601C150.487 140.601 154.805 136.386 154.805 131.187C154.805 125.988 150.487 121.773 145.16 121.773C139.834 121.773 135.516 125.988 135.516 131.187C135.516 136.386 139.834 140.601 145.16 140.601Z" fill="#E6E6E6"/>
<g style="mix-blend-mode:multiply" opacity="0.7">
<path d="M149.883 125.578C149.306 124.999 149.078 124.29 149.368 124.028C149.658 123.766 150.362 124.002 150.934 124.586C151.506 125.17 151.74 125.875 151.449 126.132C151.159 126.39 150.477 126.158 149.883 125.578Z" fill="#E0E0E0"/>
</g>
<g style="mix-blend-mode:multiply" opacity="0.7">
<path d="M145.876 123.813C145.062 123.659 144.468 123.221 144.556 122.834C144.644 122.447 145.352 122.254 146.166 122.405C146.98 122.555 147.574 122.993 147.486 123.379C147.398 123.766 146.69 123.963 145.876 123.813Z" fill="#E0E0E0"/>
</g>
<g style="mix-blend-mode:multiply" opacity="0.7">
<path d="M146.704 127.121C145.925 126.854 145.428 126.262 145.595 125.789C145.762 125.317 146.532 125.158 147.311 125.429C148.09 125.699 148.591 126.288 148.42 126.76C148.248 127.232 147.482 127.365 146.704 127.121Z" fill="#E0E0E0"/>
</g>
<path d="M138.125 8.02246H27.4297V69.9206H138.125V8.02246Z" fill="white"/>
<path d="M139.774 8.02246H28.2031V69.9206H139.774V8.02246Z" fill="#F5F5F5"/>
<path d="M137.461 67.3903V10.5469L30.4969 10.5469V67.3903H137.461Z" fill="#FAFAFA"/>
<path d="M58.2031 67.3903L71.7331 10.5469H89.4651L75.9351 67.3903H58.2031Z" fill="white"/>
<path d="M78.8047 67.3903L92.3303 10.5469H100.338L86.8127 67.3903H78.8047Z" fill="white"/>
<path d="M137.461 67.3903V10.5469H137.166V67.3903H137.461Z" fill="white"/>
<path d="M25.7031 7.91939V32.4502H32.3515C32.3515 32.4502 44.2975 24.8444 47.0123 9.19918C47.0777 8.82459 47.0585 8.44056 46.9559 8.074C46.8532 7.70744 46.6697 7.36721 46.4182 7.07714C46.1667 6.78707 45.8533 6.55417 45.4999 6.39476C45.1465 6.23535 44.7616 6.15328 44.3723 6.15431H27.5115C27.0319 6.15431 26.5719 6.34027 26.2328 6.67129C25.8937 7.0023 25.7031 7.45126 25.7031 7.91939Z" fill="#E6E6E6"/>
<path d="M25.7031 78.4494V34.4297H32.3515C32.3515 34.4297 45.8419 60.747 47.4083 78.4494H25.7031Z" fill="#E6E6E6"/>
<path d="M32.1585 32.4502H25.9456C25.5787 32.4502 25.2812 32.7405 25.2812 33.0987V33.7815C25.2812 34.1397 25.5787 34.43 25.9456 34.43H32.1585C32.5254 34.43 32.8228 34.1397 32.8228 33.7815V33.0987C32.8228 32.7405 32.5254 32.4502 32.1585 32.4502Z" fill="#F5F5F5"/>
<path d="M141.653 7.91941V32.4502H135.004C135.004 32.4502 123.058 24.8444 120.343 9.1992C120.277 8.8245 120.296 8.44019 120.398 8.0733C120.501 7.70641 120.684 7.36587 120.936 7.07562C121.187 6.78537 121.501 6.55246 121.855 6.3933C122.209 6.23413 122.594 6.15256 122.983 6.15433H139.862C140.338 6.15885 140.794 6.34681 141.129 6.67734C141.465 7.00787 141.653 7.45424 141.653 7.91941Z" fill="#E6E6E6"/>
<path d="M141.655 78.4494V34.4297H135.007C135.007 34.4297 121.512 60.747 119.945 78.4494H141.655Z" fill="#E6E6E6"/>
<path d="M135.193 34.4258H141.406C141.773 34.4258 142.07 34.1354 142.07 33.7773V33.0945C142.07 32.7363 141.773 32.446 141.406 32.446H135.193C134.826 32.446 134.529 32.7363 134.529 33.0945V33.7773C134.529 34.1354 134.826 34.4258 135.193 34.4258Z" fill="#F5F5F5"/>
<path d="M110.87 100.541H101.484V140.601H110.87V100.541Z" fill="#E6E6E6"/>
<path d="M106.803 140.605H110.868V133.957H102.539L106.803 140.605Z" fill="#FAFAFA"/>
<path d="M38.0571 100.541H28.6719V140.601H38.0571V100.541Z" fill="#E6E6E6"/>
<path d="M110.865 100.541H34.5078V138.316H110.865V100.541Z" fill="#FAFAFA"/>
<path d="M38.569 140.605H34.5078V133.957H42.8326L38.569 140.605Z" fill="#FAFAFA"/>
<path d="M107.709 103.719H37.6562V117.65H107.709V103.719Z" fill="#EBEBEB"/>
<path d="M70.5391 110.689C70.5399 111.104 70.6669 111.51 70.9038 111.855C71.1408 112.2 71.4771 112.468 71.8703 112.626C72.2636 112.785 72.696 112.826 73.1131 112.744C73.5302 112.663 73.9132 112.462 74.2136 112.168C74.5141 111.875 74.7186 111.5 74.8012 111.093C74.8839 110.686 74.841 110.264 74.6781 109.88C74.5151 109.497 74.2393 109.169 73.8856 108.939C73.5318 108.708 73.116 108.585 72.6907 108.585C72.4077 108.585 72.1276 108.639 71.8663 108.745C71.6049 108.851 71.3676 109.006 71.1677 109.202C70.9678 109.397 70.8095 109.629 70.7016 109.884C70.5937 110.14 70.5385 110.413 70.5391 110.689Z" fill="white"/>
<path d="M107.709 121.018H37.6562V134.949H107.709V121.018Z" fill="#EBEBEB"/>
<path d="M70.5391 127.979C70.5391 128.394 70.6653 128.8 70.9017 129.146C71.1381 129.491 71.4741 129.76 71.8673 129.919C72.2604 130.078 72.6931 130.12 73.1104 130.039C73.5278 129.958 73.9112 129.758 74.2121 129.464C74.513 129.17 74.7179 128.796 74.8009 128.389C74.8839 127.981 74.8413 127.559 74.6785 127.175C74.5156 126.792 74.2399 126.464 73.886 126.233C73.5322 126.002 73.1162 125.879 72.6907 125.879C72.12 125.879 71.5728 126.1 71.1693 126.494C70.7657 126.888 70.5391 127.422 70.5391 127.979Z" fill="white"/>
<path d="M186.668 16.2979H155.133V63.487H186.668V16.2979Z" fill="#E6E6E6"/>
<path d="M189.338 16.2979H155.867V63.487H189.338V16.2979Z" fill="#F5F5F5"/>
<path d="M187.203 61.4081V18.3848H158V61.4081H187.203Z" fill="white"/>
<path d="M182.062 56.0152V23.7842H163.138V56.0152H182.062Z" fill="#F5F5F5"/>
<path d="M109.999 160C157.115 160 195.311 157.824 195.311 155.139C195.311 152.454 157.115 150.277 109.999 150.277C62.8828 150.277 24.6875 152.454 24.6875 155.139C24.6875 157.824 62.8828 160 109.999 160Z" fill="#F5F5F5"/>
<path d="M89.5488 85.9171C89.5488 86.4411 89.2936 86.3466 89.1088 86.4282L88.5676 86.6L87.494 86.9478C86.768 87.1669 86.0508 87.3773 85.3248 87.6049C83.8772 88.0344 82.4164 88.4295 80.9248 88.7602C80.8965 88.7665 80.8672 88.7673 80.8385 88.7625C80.8099 88.7577 80.7825 88.7474 80.758 88.7323C80.7334 88.7171 80.7122 88.6973 80.6955 88.6741C80.6789 88.6509 80.6671 88.6247 80.6608 88.597C80.6508 88.5486 80.6574 88.4984 80.6797 88.4541C80.702 88.4098 80.7387 88.374 80.784 88.3522C82.17 87.738 83.5736 87.1883 84.9904 86.6644C85.6988 86.4024 86.4116 86.1533 87.12 85.8999L88.1936 85.5392L88.726 85.3545C88.9152 85.3245 89.0384 85.1012 89.3816 85.5091C89.4853 85.6214 89.5446 85.7661 89.5488 85.9171Z" fill="#9FC6F5"/>
<path opacity="0.8" d="M89.5488 85.9171C89.5488 86.4411 89.2936 86.3466 89.1088 86.4282L88.5676 86.6L87.494 86.9478C86.768 87.1669 86.0508 87.3773 85.3248 87.6049C83.8772 88.0344 82.4164 88.4295 80.9248 88.7602C80.8965 88.7665 80.8672 88.7673 80.8385 88.7625C80.8099 88.7577 80.7825 88.7474 80.758 88.7323C80.7334 88.7171 80.7122 88.6973 80.6955 88.6741C80.6789 88.6509 80.6671 88.6247 80.6608 88.597C80.6508 88.5486 80.6574 88.4984 80.6797 88.4541C80.702 88.4098 80.7387 88.374 80.784 88.3522C82.17 87.738 83.5736 87.1883 84.9904 86.6644C85.6988 86.4024 86.4116 86.1533 87.12 85.8999L88.1936 85.5392L88.726 85.3545C88.9152 85.3245 89.0384 85.1012 89.3816 85.5091C89.4853 85.6214 89.5446 85.7661 89.5488 85.9171Z" fill="white"/>
<path d="M87.8823 87.3213C87.8823 87.3213 87.7195 92.1098 81.6035 92.1098C75.4875 92.1098 75.3203 87.3213 75.3203 87.3213H87.8823Z" fill="#9FC6F5"/>
<g opacity="0.6">
<path d="M87.8823 87.3213C87.8823 87.3213 87.7195 92.1098 81.6035 92.1098C75.4875 92.1098 75.3203 87.3213 75.3203 87.3213H87.8823Z" fill="black"/>
</g>
<path d="M117.582 85.3882C117.499 85.3926 117.417 85.4012 117.336 85.414V84.8729C117.336 84.6929 117.262 84.5203 117.132 84.3931C117.002 84.2658 116.825 84.1943 116.64 84.1943H111.215C111.03 84.1943 110.853 84.2657 110.722 84.3928C110.591 84.5199 110.517 84.6925 110.516 84.8729V91.6455C110.516 91.7685 110.566 91.8865 110.655 91.9734C110.744 92.0604 110.865 92.1093 110.991 92.1093H116.865C116.927 92.1093 116.989 92.0973 117.046 92.0739C117.103 92.0506 117.156 92.0163 117.199 91.9732C117.243 91.9301 117.278 91.8789 117.301 91.8226C117.324 91.7664 117.336 91.7062 117.336 91.6455V90.8896C117.417 90.901 117.5 90.9082 117.582 90.9111C117.853 90.9111 118.121 90.8589 118.37 90.7576C118.62 90.6563 118.847 90.5078 119.038 90.3206C119.229 90.1335 119.38 89.9114 119.483 89.6671C119.586 89.4227 119.638 89.161 119.637 88.8969V87.3938C119.636 86.8623 119.419 86.3528 119.034 85.9769C118.649 85.601 118.127 85.3894 117.582 85.3882ZM118.757 88.9098C118.756 89.2132 118.631 89.5037 118.411 89.7178C118.191 89.932 117.893 90.0522 117.582 90.0522C117.499 90.0523 117.417 90.0437 117.336 90.0264V86.2729C117.417 86.2578 117.499 86.2491 117.582 86.2472C117.893 86.2483 118.191 86.3695 118.411 86.5843C118.632 86.799 118.756 87.0901 118.757 87.3938V88.9098Z" fill="#263238"/>
<path d="M114.279 76.117C114.561 76.7127 114.7 77.3635 114.684 78.0195C114.661 78.6646 114.524 79.3009 114.279 79.9006C114.064 80.4631 113.839 80.9484 113.65 81.481C113.461 82.0135 113.259 82.5761 112.964 83.173C112.957 83.187 112.945 83.1979 112.93 83.2035C112.916 83.2091 112.899 83.209 112.885 83.2031C112.877 83.2005 112.871 83.1965 112.866 83.1913C112.86 83.1861 112.856 83.1799 112.854 83.173C112.581 82.5765 112.447 81.9281 112.462 81.2748C112.484 80.6313 112.615 79.9957 112.849 79.3938C113.056 78.8269 113.289 78.3416 113.465 77.8091C113.669 77.2334 113.904 76.6686 114.169 76.117C114.177 76.1038 114.189 76.0938 114.204 76.089C114.218 76.0842 114.234 76.085 114.249 76.0912C114.249 76.0912 114.271 76.1084 114.279 76.117Z" fill="#E0E0E0"/>
<path d="M117.255 73.8665C117.539 74.4616 117.678 75.1128 117.66 75.769C117.639 76.4138 117.503 77.0502 117.26 77.65C117.044 78.2083 116.82 78.6979 116.631 79.2304C116.441 79.763 116.235 80.3256 115.94 80.9225C115.933 80.9365 115.921 80.9474 115.906 80.953C115.892 80.9586 115.875 80.9585 115.861 80.9526C115.848 80.9449 115.838 80.9346 115.83 80.9225C115.561 80.3247 115.427 79.6772 115.438 79.0243C115.461 78.3805 115.593 77.7448 115.83 77.1433C116.037 76.5764 116.243 76.0911 116.446 75.5586C116.648 74.9829 116.882 74.4181 117.145 73.8665C117.149 73.8595 117.153 73.8533 117.159 73.8482C117.165 73.8431 117.172 73.8393 117.179 73.8368C117.187 73.8344 117.194 73.8335 117.202 73.8342C117.21 73.8349 117.218 73.8371 117.225 73.8407C117.237 73.8457 117.248 73.8547 117.255 73.8665Z" fill="#E0E0E0"/>
<path d="M132.384 94.876H129.727V155.134H132.384V94.876Z" fill="#9FC6F5"/>
<path d="M43.2799 155.138H45.9375L45.9375 94.8801H43.2799L43.2799 155.138Z" fill="#9FC6F5"/>
<path d="M67.0326 94.876H64.375V155.134H67.0326V94.876Z" fill="#9FC6F5"/>
<path d="M153.595 94.876H150.938V155.134H153.595V94.876Z" fill="#9FC6F5"/>
<path d="M153.598 92.1094H64.375V94.8794H153.598V92.1094Z" fill="#9FC6F5"/>
<path d="M40.6282 94.876H64.375V92.106H40.6282V94.876Z" fill="#9FC6F5"/>
<g opacity="0.3">
<path d="M40.6282 94.875H64.375V92.105H40.6282V94.875Z" fill="black"/>
</g>
<path d="M43.2826 94.876H40.625V155.134H43.2826V94.876Z" fill="#9FC6F5"/>
<path opacity="0.3" d="M43.2826 94.876H40.625V155.134H43.2826V94.876Z" fill="black"/>
<path d="M61.7174 155.138H64.375L64.375 94.8801H61.7174L61.7174 155.138Z" fill="#9FC6F5"/>
<path opacity="0.3" d="M61.7174 155.138H64.375L64.375 94.8801H61.7174L61.7174 155.138Z" fill="black"/>
<path d="M127.061 155.138H129.719V94.8801H127.061L127.061 155.138Z" fill="#9FC6F5"/>
<path opacity="0.3" d="M127.061 155.138H129.719V94.8801H127.061L127.061 155.138Z" fill="#9FC6F5"/>
<path opacity="0.3" d="M127.061 155.138H129.719V94.8801H127.061L127.061 155.138Z" fill="black"/>
<path d="M148.28 155.138H150.938V94.8801H148.28V155.138Z" fill="#9FC6F5"/>
<path opacity="0.3" d="M148.28 155.138H150.938V94.8801H148.28V155.138Z" fill="#9FC6F5"/>
<path opacity="0.3" d="M148.28 155.138H150.938V94.8801H148.28V155.138Z" fill="black"/>
<path d="M78.7161 69.043H60.0469V92.105H78.7161V69.043Z" fill="#9FC6F5"/>
<path d="M78.7145 75.3438H64.4453V85.8097H78.7145V75.3438Z" fill="#9FC6F5"/>
<path opacity="0.2" d="M78.7145 75.3438H64.4453V85.8097H78.7145V75.3438Z" fill="black"/>
<path d="M55.4533 92.1094H60.0469V69.0473H55.4533V92.1094Z" fill="#9FC6F5"/>
<path opacity="0.2" d="M55.4533 92.1094H60.0469V69.0473H55.4533V92.1094Z" fill="black"/>
<path d="M55.4484 69.0429H60.0464L59.1092 67.4883H54.5156L55.4484 69.0429Z" fill="#9FC6F5"/>
<path opacity="0.2" d="M55.4484 69.0429H60.0464L59.1092 67.4883H54.5156L55.4484 69.0429Z" fill="black"/>
<path d="M78.7152 69.0429H74.1172L75.0544 67.4883H79.648L78.7152 69.0429Z" fill="#9FC6F5"/>
<path opacity="0.2" d="M78.7152 69.0429H74.1172L75.0544 67.4883H79.648L78.7152 69.0429Z" fill="black"/>
<path d="M92.7656 55.5374V54.5411C92.7639 54.2358 92.8592 53.9375 93.0383 53.6872C93.2173 53.4369 93.4715 53.2469 93.7657 53.1433C94.0599 53.0397 94.3798 53.0277 94.6814 53.1088C94.9829 53.1899 95.2513 53.3602 95.4496 53.5963C94.8666 53.6601 94.3113 53.8732 93.8399 54.2141C93.3685 54.5551 92.9979 55.0116 92.7656 55.5374Z" fill="#9FC6F5"/>
<path opacity="0.4" d="M92.7656 55.5374V54.5411C92.7639 54.2358 92.8592 53.9375 93.0383 53.6872C93.2173 53.4369 93.4715 53.2469 93.7657 53.1433C94.0599 53.0397 94.3798 53.0277 94.6814 53.1088C94.9829 53.1899 95.2513 53.3602 95.4496 53.5963C94.8666 53.6601 94.3113 53.8732 93.8399 54.2141C93.3685 54.5551 92.9979 55.0116 92.7656 55.5374Z" fill="white"/>
<path d="M94.3523 54.137C94.2368 54.5754 94.3033 55.0406 94.5373 55.4314C94.7713 55.8222 95.1539 56.1071 95.6019 56.2241L96.4819 52.9173C96.034 52.8071 95.5596 52.8733 95.1612 53.1015C94.7628 53.3296 94.4723 53.7016 94.3523 54.137Z" fill="#9FC6F5"/>
<path opacity="0.4" d="M94.3523 54.137C94.2368 54.5754 94.3033 55.0406 94.5373 55.4314C94.7713 55.8222 95.1539 56.1071 95.6019 56.2241L96.4819 52.9173C96.034 52.8071 95.5596 52.8733 95.1612 53.1015C94.7628 53.3296 94.4723 53.7016 94.3523 54.137Z" fill="white"/>
<path d="M94.3073 85.1182C94.2734 85.1182 94.241 85.1051 94.2171 85.0817C94.1931 85.0584 94.1797 85.0267 94.1797 84.9937V55.7173C94.1797 55.6843 94.1931 55.6526 94.2171 55.6293C94.241 55.6059 94.2734 55.5928 94.3073 55.5928C94.3411 55.5928 94.3736 55.6059 94.3975 55.6293C94.4214 55.6526 94.4349 55.6843 94.4349 55.7173V84.9937C94.4349 85.0267 94.4214 85.0584 94.3975 85.0817C94.3736 85.1051 94.3411 85.1182 94.3073 85.1182Z" fill="#9FC6F5"/>
<path opacity="0.2" d="M94.3073 85.1182C94.2734 85.1182 94.241 85.1051 94.2171 85.0817C94.1931 85.0584 94.1797 85.0267 94.1797 84.9937V55.7173C94.1797 55.6843 94.1931 55.6526 94.2171 55.6293C94.241 55.6059 94.2734 55.5928 94.3073 55.5928C94.3411 55.5928 94.3736 55.6059 94.3975 55.6293C94.4214 55.6526 94.4349 55.6843 94.4349 55.7173V84.9937C94.4349 85.0267 94.4214 85.0584 94.3975 85.0817C94.3736 85.1051 94.3411 85.1182 94.3073 85.1182Z" fill="black"/>
<path d="M95.806 56.8299C95.7851 57.2097 95.6158 57.5671 95.333 57.8287C95.0502 58.0902 94.6754 58.236 94.2858 58.236C93.8962 58.236 93.5214 58.0902 93.2387 57.8287C92.9559 57.5671 92.7866 57.2097 92.7656 56.8299V55.5416C92.9997 55.0181 93.3711 54.5642 93.8424 54.2257C94.3136 53.8871 94.868 53.6759 95.4496 53.6133C95.6788 53.8774 95.805 54.212 95.806 54.5581V56.8299Z" fill="#9FC6F5"/>
<path opacity="0.2" d="M95.806 56.8299C95.7851 57.2097 95.6158 57.5671 95.333 57.8287C95.0502 58.0902 94.6754 58.236 94.2858 58.236C93.8962 58.236 93.5214 58.0902 93.2387 57.8287C92.9559 57.5671 92.7866 57.2097 92.7656 56.8299V55.5416C92.9997 55.0181 93.3711 54.5642 93.8424 54.2257C94.3136 53.8871 94.868 53.6759 95.4496 53.6133C95.6788 53.8774 95.805 54.212 95.806 54.5581V56.8299Z" fill="black"/>
<path d="M94.1106 54.347C94.2259 54.786 94.1588 55.2517 93.9239 55.6426C93.689 56.0335 93.3054 56.318 92.8566 56.4341L91.9766 53.1273C92.4251 53.0159 92.9006 53.0814 93.3 53.3097C93.6994 53.538 93.9906 53.9106 94.1106 54.347Z" fill="#9FC6F5"/>
<path opacity="0.2" d="M94.1106 54.347C94.2259 54.786 94.1588 55.2517 93.9239 55.6426C93.689 56.0335 93.3054 56.318 92.8566 56.4341L91.9766 53.1273C92.4251 53.0159 92.9006 53.0814 93.3 53.3097C93.6994 53.538 93.9906 53.9106 94.1106 54.347Z" fill="black"/>
<path d="M95.0873 55.0129C95.1708 54.8936 95.2775 54.7915 95.4014 54.7124C95.5253 54.6333 95.664 54.5789 95.8094 54.5522C95.9549 54.5254 96.1044 54.527 96.2492 54.5567C96.3941 54.5864 96.5316 54.6436 96.6537 54.7252L95.3821 56.5418C95.2599 56.4604 95.1552 56.3562 95.0742 56.2353C94.9932 56.1144 94.9374 55.979 94.9101 55.837C94.8827 55.695 94.8842 55.5492 94.9147 55.4078C94.9451 55.2664 95.0038 55.1322 95.0873 55.0129Z" fill="#9FC6F5"/>
<path opacity="0.2" d="M95.0873 55.0129C95.1708 54.8936 95.2775 54.7915 95.4014 54.7124C95.5253 54.6333 95.664 54.5789 95.8094 54.5522C95.9549 54.5254 96.1044 54.527 96.2492 54.5567C96.3941 54.5864 96.5316 54.6436 96.6537 54.7252L95.3821 56.5418C95.2599 56.4604 95.1552 56.3562 95.0742 56.2353C94.9932 56.1144 94.9374 55.979 94.9101 55.837C94.8827 55.695 94.8842 55.5492 94.9147 55.4078C94.9451 55.2664 95.0038 55.1322 95.0873 55.0129Z" fill="black"/>
<path d="M92.4284 61.777L93.9068 63.4261C94.1656 63.7167 94.3079 64.089 94.3072 64.474V66.9949L92.2832 64.736C92.0237 64.4458 91.8814 64.0733 91.8828 63.6881V61.9702C91.8848 61.9093 91.9054 61.8503 91.9421 61.8009C91.9787 61.7514 92.0297 61.7139 92.0885 61.6931C92.1473 61.6723 92.2111 61.6692 92.2717 61.6841C92.3323 61.6991 92.3869 61.7314 92.4284 61.777Z" fill="#9FC6F5"/>
<path opacity="0.2" d="M92.4284 61.777L93.9068 63.4261C94.1656 63.7167 94.3079 64.089 94.3072 64.474V66.9949L92.2832 64.736C92.0237 64.4458 91.8814 64.0733 91.8828 63.6881V61.9702C91.8848 61.9093 91.9054 61.8503 91.9421 61.8009C91.9787 61.7514 92.0297 61.7139 92.0885 61.6931C92.1473 61.6723 92.2111 61.6692 92.2717 61.6841C92.3323 61.6991 92.3869 61.7314 92.4284 61.777Z" fill="black"/>
<path d="M96.1913 65.2125L94.7173 66.8616C94.4572 67.1518 94.3135 67.5239 94.3125 67.9095V70.4304L96.3365 68.1714C96.5972 67.8817 96.7411 67.5092 96.7413 67.1236V65.4057C96.7403 65.3438 96.72 65.2836 96.6831 65.2331C96.6462 65.1827 96.5945 65.1445 96.5347 65.1235C96.475 65.1025 96.4102 65.0998 96.3488 65.1157C96.2874 65.1316 96.2325 65.1653 96.1913 65.2125Z" fill="#9FC6F5"/>
<path opacity="0.2" d="M96.1913 65.2125L94.7173 66.8616C94.4572 67.1518 94.3135 67.5239 94.3125 67.9095V70.4304L96.3365 68.1714C96.5972 67.8817 96.7411 67.5092 96.7413 67.1236V65.4057C96.7403 65.3438 96.72 65.2836 96.6831 65.2331C96.6462 65.1827 96.5945 65.1445 96.5347 65.1235C96.475 65.1025 96.4102 65.0998 96.3488 65.1157C96.2874 65.1316 96.2325 65.1653 96.1913 65.2125Z" fill="black"/>
<path opacity="0.7" d="M95.8505 83.7443C95.6569 78.8785 94.3325 77.1693 95.5249 72.252H93.1005C94.2885 77.1693 92.9685 78.8785 92.7705 83.7443C92.5725 88.6101 92.2909 92.1102 94.3105 92.1102C96.3301 92.1102 96.0485 88.6101 95.8505 83.7443Z" fill="#EBEBEB"/>
<path d="M157.134 155.17C156.989 155.169 156.85 155.117 156.742 155.024C156.633 154.931 156.563 154.803 156.544 154.663L151.15 114.521H142.161L136.766 154.663C136.762 154.743 136.74 154.822 136.703 154.893C136.666 154.965 136.614 155.028 136.551 155.08C136.488 155.131 136.414 155.169 136.335 155.191C136.256 155.214 136.173 155.22 136.092 155.209C136.01 155.199 135.931 155.172 135.861 155.131C135.79 155.09 135.729 155.035 135.681 154.969C135.634 154.904 135.6 154.83 135.583 154.751C135.566 154.672 135.566 154.591 135.583 154.513L141.047 113.864C141.066 113.724 141.136 113.595 141.244 113.502C141.353 113.409 141.492 113.357 141.637 113.357H151.673C151.818 113.357 151.958 113.409 152.066 113.502C152.175 113.595 152.245 113.724 152.263 113.864L157.728 154.513C157.738 154.589 157.733 154.666 157.713 154.74C157.693 154.814 157.658 154.883 157.61 154.944C157.562 155.004 157.502 155.055 157.434 155.093C157.366 155.131 157.291 155.156 157.213 155.165L157.134 155.17Z" fill="#9FC6F5"/>
<path opacity="0.5" d="M157.134 155.17C156.989 155.169 156.85 155.117 156.742 155.024C156.633 154.931 156.563 154.803 156.544 154.663L151.15 114.521H142.161L136.766 154.663C136.762 154.743 136.74 154.822 136.703 154.893C136.666 154.965 136.614 155.028 136.551 155.08C136.488 155.131 136.414 155.169 136.335 155.191C136.256 155.214 136.173 155.22 136.092 155.209C136.01 155.199 135.931 155.172 135.861 155.131C135.79 155.09 135.729 155.035 135.681 154.969C135.634 154.904 135.6 154.83 135.583 154.751C135.566 154.672 135.566 154.591 135.583 154.513L141.047 113.864C141.066 113.724 141.136 113.595 141.244 113.502C141.353 113.409 141.492 113.357 141.637 113.357H151.673C151.818 113.357 151.958 113.409 152.066 113.502C152.175 113.595 152.245 113.724 152.263 113.864L157.728 154.513C157.738 154.589 157.733 154.666 157.713 154.74C157.693 154.814 157.658 154.883 157.61 154.944C157.562 155.004 157.502 155.055 157.434 155.093C157.366 155.131 157.291 155.156 157.213 155.165L157.134 155.17Z" fill="black"/>
<path d="M172.232 155.17C172.088 155.169 171.948 155.117 171.84 155.024C171.732 154.931 171.661 154.803 171.642 154.663L166.244 114.521H157.259L151.86 154.663C151.855 154.743 151.834 154.822 151.797 154.893C151.76 154.965 151.708 155.028 151.645 155.08C151.581 155.131 151.508 155.169 151.429 155.191C151.35 155.214 151.267 155.22 151.185 155.209C151.104 155.199 151.025 155.172 150.955 155.131C150.884 155.09 150.823 155.035 150.775 154.969C150.727 154.904 150.694 154.83 150.677 154.751C150.66 154.672 150.66 154.591 150.676 154.513L156.141 113.864C156.16 113.724 156.231 113.595 156.34 113.502C156.45 113.409 156.59 113.357 156.735 113.357H166.763C166.908 113.356 167.048 113.408 167.157 113.501C167.265 113.594 167.335 113.724 167.352 113.864L172.817 154.513C172.828 154.588 172.823 154.665 172.803 154.739C172.783 154.813 172.748 154.882 172.701 154.942C172.653 155.003 172.594 155.054 172.526 155.092C172.459 155.131 172.384 155.155 172.307 155.165L172.232 155.17Z" fill="#9FC6F5"/>
<path opacity="0.5" d="M172.232 155.17C172.088 155.169 171.948 155.117 171.84 155.024C171.732 154.931 171.661 154.803 171.642 154.663L166.244 114.521H157.259L151.86 154.663C151.855 154.743 151.834 154.822 151.797 154.893C151.76 154.965 151.708 155.028 151.645 155.08C151.581 155.131 151.508 155.169 151.429 155.191C151.35 155.214 151.267 155.22 151.185 155.209C151.104 155.199 151.025 155.172 150.955 155.131C150.884 155.09 150.823 155.035 150.775 154.969C150.727 154.904 150.694 154.83 150.677 154.751C150.66 154.672 150.66 154.591 150.676 154.513L156.141 113.864C156.16 113.724 156.231 113.595 156.34 113.502C156.45 113.409 156.59 113.357 156.735 113.357H166.763C166.908 113.356 167.048 113.408 167.157 113.501C167.265 113.594 167.335 113.724 167.352 113.864L172.817 154.513C172.828 154.588 172.823 154.665 172.803 154.739C172.783 154.813 172.748 154.882 172.701 154.942C172.653 155.003 172.594 155.054 172.526 155.092C172.459 155.131 172.384 155.155 172.307 155.165L172.232 155.17Z" fill="black"/>
<path d="M147.68 113.937H167.55C169.373 113.937 171.124 113.24 172.426 111.994C173.728 110.749 174.478 109.055 174.515 107.276L175.259 77.8018C175.272 77.1427 175.151 76.4876 174.902 75.8749C174.653 75.2622 174.281 74.7041 173.808 74.2334C173.335 73.7627 172.771 73.3888 172.148 73.1335C171.525 72.8783 170.857 72.7469 170.181 72.7471H157.725C156.479 72.7487 155.278 73.1972 154.349 74.0073C153.42 74.8174 152.828 75.9325 152.687 77.1405L147.68 113.937Z" fill="#9FC6F5"/>
<path opacity="0.6" d="M147.68 113.937H167.55C169.373 113.937 171.124 113.24 172.426 111.994C173.728 110.749 174.478 109.055 174.515 107.276L175.259 77.8018C175.272 77.1427 175.151 76.4876 174.902 75.8749C174.653 75.2622 174.281 74.7041 173.808 74.2334C173.335 73.7627 172.771 73.3888 172.148 73.1335C171.525 72.8783 170.857 72.7469 170.181 72.7471H157.725C156.479 72.7487 155.278 73.1972 154.349 74.0073C153.42 74.8174 152.828 75.9325 152.687 77.1405L147.68 113.937Z" fill="white"/>
<path d="M160.984 113.938H135.024C134.701 113.937 134.391 113.812 134.163 113.589C133.934 113.366 133.806 113.063 133.806 112.748V112.636C133.806 111.772 134.157 110.943 134.784 110.331C135.41 109.72 136.259 109.377 137.145 109.377H160.984V113.938Z" fill="#9FC6F5"/>
<path opacity="0.6" d="M160.984 113.938H135.024C134.701 113.937 134.391 113.812 134.163 113.589C133.934 113.366 133.806 113.063 133.806 112.748V112.636C133.806 111.772 134.157 110.943 134.784 110.331C135.41 109.72 136.259 109.377 137.145 109.377H160.984V113.938Z" fill="white"/>
<path d="M156.479 46.3827C155.599 45.1673 147.996 43.9476 145.083 48.6717C142.17 53.3958 146.874 70.8834 140.758 73.2068C145.646 77.3768 162.639 81.3107 161.376 67.3919C160.479 57.5486 163.933 47.9115 156.479 46.3827Z" fill="#263238"/>
<path d="M142.105 150.578H137.529L136.055 140.232H140.631L142.105 150.578Z" fill="#EEC1BB"/>
<path d="M124.397 150.578H119.821L119.117 140.232H123.693L124.397 150.578Z" fill="#EEC1BB"/>
<path d="M119.117 140.237L119.478 145.567H124.058L123.698 140.237H119.117Z" fill="#DB9792"/>
<path d="M140.635 140.237H136.055L136.816 145.567H141.396L140.635 140.237Z" fill="#DB9792"/>
<path d="M145.467 96.2559C145.467 96.2559 114.781 99.0431 115.08 112.666C115.393 126.838 118.499 144.536 118.499 144.536H124.835C124.835 144.536 125.381 129.556 125.561 115.607C125.658 108.337 155.309 106.881 155.309 106.881L159.138 96.2559H145.467Z" fill="#9FC6F5"/>
<path opacity="0.7" d="M145.467 96.2559C145.467 96.2559 114.781 99.0431 115.08 112.666C115.393 126.838 118.499 144.536 118.499 144.536H124.835C124.835 144.536 125.381 129.556 125.561 115.607C125.658 108.337 155.309 106.881 155.309 106.881L159.138 96.2559H145.467Z" fill="black"/>
<path d="M146.48 75.0363C146.418 75.3669 146.366 75.5989 146.304 75.8694C146.242 76.14 146.176 76.3848 146.11 76.6424C145.974 77.1492 145.833 77.6517 145.67 78.1498C145.376 79.1419 145.032 80.1211 144.672 81.0831C143.95 83.0156 143.127 84.8924 142.225 86.7348L141.882 87.4219L141.706 87.7698C141.619 87.9465 141.522 88.1185 141.416 88.2851C140.98 88.9746 140.385 89.5543 139.678 89.9772C139.03 90.3593 138.315 90.62 137.57 90.7459C136.924 90.8492 136.269 90.8795 135.616 90.8361C134.456 90.7447 133.314 90.502 132.22 90.1146C131.696 89.9385 131.19 89.7238 130.693 89.5005C130.188 89.2763 129.696 89.0254 129.219 88.7489L130.178 86.6403C131.991 87.0697 133.997 87.3876 135.616 87.2415C136.25 87.2192 136.862 87.0144 137.376 86.6532C137.517 86.5215 137.629 86.3638 137.706 86.1894L138.168 85.0255C138.881 83.2175 139.559 81.3966 140.166 79.5671C140.478 78.6523 140.756 77.7333 141.046 76.8228C141.187 76.3676 141.314 75.9124 141.438 75.4571L141.618 74.7829L141.772 74.1602L146.48 75.0363Z" fill="#EEC1BB"/>
<path d="M130.684 86.7266L128.044 84.124L127.094 88.5689C128.207 88.9698 129.413 89.0575 130.574 88.8223L130.684 86.7266Z" fill="#EEC1BB"/>
<path d="M137.241 150.059H142.384C142.472 150.058 142.558 150.088 142.625 150.144C142.693 150.2 142.737 150.278 142.749 150.364L143.335 154.336C143.346 154.437 143.335 154.538 143.303 154.634C143.271 154.73 143.219 154.819 143.149 154.894C143.08 154.969 142.995 155.029 142.9 155.07C142.806 155.11 142.703 155.131 142.6 155.131C140.809 155.1 139.96 154.997 137.681 154.997C136.29 154.997 132.722 155.139 130.803 155.139C128.885 155.139 128.779 153.284 129.58 153.116C133.166 152.365 135.269 151.326 136.475 150.333C136.69 150.159 136.961 150.062 137.241 150.059Z" fill="#263238"/>
<path d="M119.464 150.059H124.603C124.692 150.057 124.778 150.087 124.845 150.143C124.913 150.199 124.956 150.278 124.968 150.364L125.558 154.336C125.568 154.436 125.557 154.538 125.525 154.634C125.493 154.729 125.44 154.818 125.371 154.893C125.302 154.967 125.217 155.027 125.123 155.068C125.028 155.109 124.926 155.131 124.823 155.131C123.028 155.101 122.183 154.997 119.904 154.997C118.513 154.997 115.636 155.139 113.717 155.139C111.799 155.139 111.693 153.284 112.494 153.116C116.08 152.365 117.488 151.326 118.698 150.334C118.913 150.159 119.184 150.062 119.464 150.059Z" fill="#263238"/>
<path d="M125.332 144.66H118.01L117.469 142.169L125.565 141.615L125.332 144.66Z" fill="#9FC6F5"/>
<path d="M135.674 150.81C135.372 150.837 135.07 150.757 134.825 150.583C134.752 150.516 134.698 150.431 134.668 150.338C134.638 150.245 134.633 150.146 134.653 150.05C134.659 149.991 134.68 149.935 134.715 149.887C134.749 149.839 134.796 149.8 134.851 149.775C135.37 149.548 136.743 150.415 136.901 150.514C136.913 150.523 136.922 150.535 136.927 150.549C136.932 150.562 136.934 150.577 136.932 150.591C136.93 150.606 136.923 150.619 136.913 150.63C136.903 150.641 136.89 150.648 136.875 150.651C136.482 150.746 136.079 150.8 135.674 150.81ZM135.08 149.883C135.027 149.882 134.975 149.891 134.926 149.908C134.894 149.922 134.868 149.945 134.849 149.973C134.831 150.001 134.82 150.034 134.82 150.067C134.803 150.139 134.805 150.214 134.826 150.284C134.846 150.355 134.885 150.419 134.939 150.471C135.185 150.69 135.819 150.716 136.673 150.54C136.193 150.217 135.651 149.994 135.08 149.883Z" fill="#9FC6F5"/>
<path d="M136.844 150.652C136.831 150.656 136.817 150.656 136.805 150.652C136.325 150.386 135.564 149.437 135.656 148.977C135.671 148.901 135.714 148.832 135.776 148.782C135.837 148.733 135.915 148.706 135.995 148.707C136.074 148.694 136.155 148.7 136.231 148.723C136.307 148.746 136.377 148.786 136.435 148.84C136.923 149.269 136.928 150.532 136.928 150.588C136.928 150.6 136.925 150.613 136.918 150.624C136.912 150.635 136.903 150.645 136.893 150.652H136.844ZM136.065 148.844H136.013C135.854 148.865 135.819 148.943 135.806 148.999C135.735 149.342 136.338 150.124 136.765 150.437C136.765 150.098 136.673 149.243 136.325 148.943C136.26 148.882 136.173 148.847 136.083 148.844H136.065Z" fill="#9FC6F5"/>
<path d="M117.745 150.811C117.362 150.844 116.979 150.75 116.658 150.544C116.589 150.483 116.536 150.407 116.504 150.322C116.472 150.237 116.462 150.145 116.474 150.055C116.475 150.001 116.492 149.949 116.521 149.904C116.551 149.858 116.592 149.822 116.641 149.797C117.186 149.505 118.995 150.407 119.202 150.51C119.216 150.517 119.227 150.529 119.234 150.542C119.241 150.556 119.244 150.572 119.241 150.587C119.239 150.603 119.233 150.618 119.221 150.63C119.21 150.641 119.196 150.649 119.18 150.652C118.707 150.747 118.227 150.8 117.745 150.811ZM116.936 149.883C116.86 149.879 116.784 149.893 116.716 149.926C116.689 149.938 116.667 149.958 116.651 149.982C116.635 150.007 116.627 150.035 116.628 150.063C116.616 150.13 116.622 150.199 116.645 150.263C116.668 150.326 116.708 150.384 116.76 150.428C117.054 150.686 117.855 150.725 118.929 150.54C118.307 150.213 117.633 149.991 116.936 149.883Z" fill="#9FC6F5"/>
<path d="M119.167 150.651H119.136C118.595 150.411 117.53 149.466 117.614 148.972C117.614 148.865 117.711 148.727 117.992 148.702C118.096 148.691 118.2 148.7 118.3 148.731C118.399 148.761 118.49 148.811 118.569 148.878C119.136 149.337 119.238 150.527 119.242 150.596C119.244 150.609 119.243 150.622 119.237 150.634C119.232 150.647 119.223 150.657 119.211 150.664C119.196 150.664 119.18 150.66 119.167 150.651ZM118.076 148.843H118.01C117.786 148.865 117.772 148.964 117.764 148.994C117.711 149.324 118.494 150.132 119.084 150.45C119.04 150.127 118.89 149.32 118.481 148.985C118.368 148.892 118.224 148.841 118.076 148.843Z" fill="#9FC6F5"/>
<path d="M150.378 96.2559C150.378 96.2559 130.547 102.676 130.05 110.621C129.126 125.249 135.717 144.549 135.717 144.549H141.956C141.956 144.549 141.604 131.751 140.856 118.498C139.919 101.847 170.024 118.27 164.057 96.2687L150.378 96.2559Z" fill="#9FC6F5"/>
<path opacity="0.7" d="M150.378 96.2559C150.378 96.2559 130.547 102.676 130.05 110.621C129.126 125.249 135.717 144.549 135.717 144.549H141.956C141.956 144.549 141.604 131.751 140.856 118.498C139.919 101.847 170.024 118.27 164.057 96.2687L150.378 96.2559Z" fill="black"/>
<path d="M142.457 144.66H135.135L134.594 142.169L142.655 142.066L142.457 144.66Z" fill="#9FC6F5"/>
<path d="M164.33 95.1952L164.479 96.8186C164.545 96.9431 164.391 97.072 164.176 97.072H145.375C145.207 97.072 145.067 96.9904 145.058 96.8873L144.891 95.2639C144.891 95.1523 145.023 95.0578 145.207 95.0578H164.031C164.088 95.053 164.147 95.0632 164.199 95.0873C164.252 95.1114 164.297 95.1487 164.33 95.1952Z" fill="#9FC6F5"/>
<path d="M161.807 97.2484H162.308C162.41 97.2484 162.489 97.1968 162.48 97.1367L162.242 95.0238C162.242 94.9636 162.15 94.9121 162.049 94.9121H161.543C161.446 94.9121 161.367 94.9636 161.376 95.0238L161.613 97.1367C161.618 97.1968 161.706 97.2484 161.807 97.2484Z" fill="#9FC6F5"/>
<path d="M146.796 97.2484H147.297C147.398 97.2484 147.478 97.1968 147.469 97.1367L147.231 95.0238C147.231 94.9636 147.139 94.9121 147.038 94.9121H146.527C146.43 94.9121 146.351 94.9636 146.36 95.0238L146.598 97.1367C146.606 97.1968 146.694 97.2484 146.796 97.2484Z" fill="#9FC6F5"/>
<path d="M154.299 97.2484H154.805C154.902 97.2484 154.981 97.1968 154.972 97.1367L154.735 95.0238C154.735 94.9636 154.642 94.9121 154.541 94.9121H154.035C153.938 94.9121 153.859 94.9636 153.868 95.0238L154.105 97.1367C154.11 97.1968 154.198 97.2484 154.299 97.2484Z" fill="#9FC6F5"/>
<g opacity="0.7">
<path d="M161.807 97.2474H162.308C162.41 97.2474 162.489 97.1959 162.48 97.1357L162.242 95.0228C162.242 94.9627 162.15 94.9111 162.049 94.9111H161.543C161.446 94.9111 161.367 94.9627 161.376 95.0228L161.613 97.1357C161.618 97.1959 161.706 97.2474 161.807 97.2474Z" fill="black"/>
<path d="M146.796 97.2474H147.297C147.398 97.2474 147.478 97.1959 147.469 97.1357L147.231 95.0228C147.231 94.9627 147.139 94.9111 147.038 94.9111H146.527C146.43 94.9111 146.351 94.9627 146.36 95.0228L146.598 97.1357C146.606 97.1959 146.694 97.2474 146.796 97.2474Z" fill="black"/>
<path d="M154.307 97.2474H154.813C154.91 97.2474 154.989 97.1959 154.98 97.1357L154.742 95.0228C154.742 94.9627 154.65 94.9111 154.549 94.9111H154.043C153.946 94.9111 153.867 94.9627 153.876 95.0228L154.113 97.1357C154.118 97.1959 154.206 97.2474 154.307 97.2474Z" fill="black"/>
</g>
<path d="M143.286 69.2984C141.398 69.7665 140.078 77.3422 140.078 77.3422L145.279 80.7779C145.279 80.7779 150.26 73.1378 148.799 71.1107C147.299 69.0192 146.036 68.6112 143.286 69.2984Z" fill="#9FC6F5"/>
<path opacity="0.8" d="M143.286 69.2984C141.398 69.7665 140.078 77.3422 140.078 77.3422L145.279 80.7779C145.279 80.7779 150.26 73.1378 148.799 71.1107C147.299 69.0192 146.036 68.6112 143.286 69.2984Z" fill="white"/>
<path d="M143.284 69.2983C143.284 69.2983 141.084 70.0455 145.484 96.2555H164.07C163.758 88.8731 163.749 84.3208 167.366 69.1694C164.763 68.6436 162.125 68.3035 159.472 68.1516C156.662 67.956 153.842 67.956 151.033 68.1516C147.407 68.478 143.284 69.2983 143.284 69.2983Z" fill="#9FC6F5"/>
<path opacity="0.8" d="M143.284 69.2983C143.284 69.2983 141.084 70.0455 145.484 96.2555H164.07C163.758 88.8731 163.749 84.3208 167.366 69.1694C164.763 68.6436 162.125 68.3035 159.472 68.1516C156.662 67.956 153.842 67.956 151.033 68.1516C147.407 68.478 143.284 69.2983 143.284 69.2983Z" fill="white"/>
<path d="M171.901 87.2199C171.743 84.9721 171.4 82.7404 170.876 80.5461C170.383 78.3988 169.811 76.3116 169.116 74.1943L164.562 75.5858C165.147 77.557 165.728 79.6055 166.247 81.5982C166.785 83.5545 167.201 85.5409 167.492 87.5463C167.536 87.8813 167.567 88.2248 167.58 88.5297C167.269 88.4692 166.963 88.3859 166.665 88.2806C165.716 87.9406 164.79 87.5419 163.893 87.0867C163.427 86.8548 162.951 86.6186 162.485 86.3695L161.099 85.618L159.625 87.426C161.252 89.0673 163.113 90.4704 165.151 91.5918C165.75 91.9078 166.381 92.1598 167.035 92.3433C167.452 92.4545 167.882 92.515 168.315 92.5237C168.592 92.5251 168.869 92.5006 169.142 92.4507C169.476 92.3826 169.798 92.2668 170.097 92.1071C170.429 91.9267 170.727 91.6913 170.977 91.4114C171.205 91.1549 171.391 90.8651 171.527 90.5525C171.736 90.0831 171.86 89.5817 171.892 89.0709C171.931 88.4545 171.934 87.8365 171.901 87.2199Z" fill="#EEC1BB"/>
<path d="M158.617 58.875C158.085 61.5291 157.553 66.382 159.453 68.1514C159.453 68.1514 158.71 70.8398 153.667 70.8398C148.119 70.8398 151.027 68.1514 151.027 68.1514C154.055 67.447 153.975 65.2525 153.452 63.1954L158.617 58.875Z" fill="#EEC1BB"/>
<path d="M156.51 60.6406L153.43 63.1916C153.56 63.6714 153.647 64.1614 153.689 64.6561C154.846 64.4929 156.435 63.2517 156.558 62.0793C156.631 61.6009 156.615 61.1134 156.51 60.6406Z" fill="#DB9792"/>
<path d="M158.319 51.4893C159.309 55.814 159.823 57.6263 158.266 60.4264C155.929 64.6437 150.267 64.8842 147.974 60.9288C145.906 57.3729 144.639 50.8966 148.414 48.0021C149.241 47.3636 150.221 46.9416 151.262 46.776C152.302 46.6105 153.369 46.7069 154.36 47.056C155.352 47.4052 156.236 47.9956 156.929 48.7714C157.621 49.5472 158.1 50.4827 158.319 51.4893Z" fill="#EEC1BB"/>
<path d="M153.103 48.2679C152.883 50.7244 156.518 56.4963 159.034 54.654C161.551 52.8116 158.458 48.3881 158.458 48.3881L155.431 47.001L153.103 48.2679Z" fill="#263238"/>
<path d="M156.083 47.3619C154.834 51.0166 147.283 52.378 145.281 52.1332C146.381 48.5772 148.049 46.3097 150.561 45.906C153.074 45.5023 156.083 47.3619 156.083 47.3619Z" fill="#263238"/>
<path d="M160.602 55.2506C160.597 55.6755 160.506 56.0953 160.335 56.4859C160.163 56.8764 159.915 57.2302 159.603 57.5268C158.767 58.3127 157.799 57.7114 157.57 56.6679C157.368 55.7187 157.57 54.1684 158.617 53.7776C159.665 53.3868 160.602 54.1985 160.602 55.2506Z" fill="#EEC1BB"/>
<path d="M152.061 54.5428C152.167 54.8864 152.061 55.2214 151.828 55.2858C151.595 55.3502 151.326 55.1226 151.221 54.779C151.115 54.4355 151.221 54.1005 151.458 54.0318C151.696 53.963 151.96 54.1907 152.061 54.5428Z" fill="#263238"/>
<path d="M148.053 55.6675C148.154 56.011 148.053 56.346 147.82 56.4104C147.587 56.4749 147.318 56.2472 147.213 55.9037C147.107 55.5601 147.213 55.2208 147.45 55.1564C147.688 55.092 147.952 55.3196 148.053 55.6675Z" fill="#263238"/>
<path d="M147.56 55.1484H146.641C146.641 55.1484 147.265 55.6767 147.56 55.1484Z" fill="#263238"/>
<path d="M149.291 55.9639C149.209 56.8461 149.003 57.7131 148.68 58.5406C148.896 58.6142 149.126 58.6412 149.354 58.6197C149.582 58.5982 149.802 58.5287 150 58.4161L149.291 55.9639Z" fill="#D4827D"/>
<path d="M151.63 59.3828C151.615 59.3817 151.601 59.3762 151.589 59.367C151.577 59.3578 151.569 59.3453 151.564 59.3312C151.56 59.3142 151.563 59.2962 151.572 59.2811C151.581 59.2659 151.596 59.2547 151.613 59.2497C152.064 59.1337 152.48 58.9153 152.828 58.6122C153.176 58.3092 153.446 57.9302 153.615 57.506C153.617 57.4978 153.621 57.4901 153.627 57.4835C153.633 57.4769 153.64 57.4714 153.647 57.4674C153.655 57.4634 153.664 57.4609 153.672 57.4602C153.681 57.4595 153.69 57.4604 153.698 57.4631C153.707 57.4651 153.716 57.4688 153.723 57.474C153.73 57.4793 153.736 57.486 153.741 57.4936C153.745 57.5013 153.748 57.5098 153.749 57.5185C153.75 57.5273 153.749 57.5362 153.747 57.5447C153.57 57.9895 153.288 58.3873 152.924 58.7059C152.56 59.0245 152.125 59.2549 151.652 59.3785L151.63 59.3828Z" fill="#263238"/>
<path d="M152.621 52.7215C152.593 52.7209 152.565 52.7119 152.542 52.6957C152.275 52.5081 151.968 52.3833 151.643 52.3312C151.319 52.279 150.987 52.3009 150.672 52.3951C150.655 52.4016 150.638 52.4048 150.62 52.4045C150.602 52.4042 150.584 52.4005 150.567 52.3935C150.551 52.3866 150.536 52.3765 150.523 52.3638C150.511 52.3512 150.501 52.3363 150.494 52.3199C150.487 52.3036 150.484 52.2861 150.484 52.2685C150.485 52.2509 150.488 52.2336 150.496 52.2174C150.503 52.2013 150.513 52.1866 150.526 52.1744C150.539 52.1621 150.554 52.1525 150.571 52.146C150.927 52.0326 151.306 52.0034 151.677 52.0609C152.047 52.1184 152.398 52.2609 152.701 52.4767C152.716 52.4866 152.729 52.4994 152.739 52.5144C152.749 52.5294 152.756 52.5462 152.76 52.5639C152.763 52.5815 152.762 52.5996 152.758 52.6171C152.754 52.6346 152.747 52.6511 152.736 52.6657C152.722 52.6829 152.705 52.6969 152.685 52.7065C152.665 52.7162 152.644 52.7213 152.621 52.7215Z" fill="#263238"/>
<path d="M145.644 54.7054C145.628 54.7093 145.612 54.7093 145.596 54.7054C145.579 54.6993 145.564 54.6899 145.551 54.6779C145.538 54.6659 145.527 54.6515 145.52 54.6356C145.512 54.6196 145.508 54.6024 145.508 54.5849C145.507 54.5674 145.51 54.55 145.517 54.5337C145.624 54.2258 145.806 53.9479 146.048 53.7235C146.289 53.4992 146.582 53.3351 146.903 53.2453C146.92 53.2415 146.939 53.2412 146.956 53.2443C146.974 53.2475 146.991 53.254 147.006 53.2636C147.021 53.2732 147.034 53.2856 147.045 53.3002C147.055 53.3147 147.062 53.3311 147.066 53.3484C147.073 53.3836 147.067 53.4205 147.047 53.4511C147.027 53.4816 146.996 53.5034 146.96 53.5115C146.687 53.5904 146.437 53.7317 146.231 53.9237C146.025 54.1156 145.869 54.3527 145.776 54.6153C145.766 54.6417 145.748 54.6645 145.725 54.6806C145.701 54.6967 145.673 54.7054 145.644 54.7054Z" fill="#263238"/>
<path d="M151.568 54.0186H150.648C150.648 54.0186 151.278 54.5425 151.568 54.0186Z" fill="#263238"/>
<path d="M134.5 68.191L155.14 66.7266L161.67 98.4809L141.135 99.941C141.105 99.9427 141.075 99.9337 141.05 99.9155C141.026 99.8974 141.009 99.8714 141.003 99.8423L134.5 68.191Z" fill="#FAFAFA"/>
<path d="M141.111 99.9241L127.876 97.4203L121.359 65.666L134.753 68.1998L141.247 99.7995C141.252 99.8176 141.252 99.8367 141.247 99.8548C141.242 99.8728 141.232 99.8891 141.218 99.902C141.204 99.9148 141.186 99.9236 141.167 99.9275C141.149 99.9314 141.129 99.9302 141.111 99.9241Z" fill="#FAFAFA"/>
<path d="M135.43 75.5394L123.752 73.332L122.516 67.3066L134.193 69.5184L135.43 75.5394Z" fill="#9FC6F5"/>
<path d="M130.612 81.4562L125.213 80.4341L123.977 74.4131L129.375 75.4309L130.612 81.4562Z" fill="#9FC6F5"/>
<path d="M135.772 77.2179L130.201 76.1657L130.078 75.5645L135.649 76.6209L135.772 77.2179Z" fill="#9FC6F5"/>
<path d="M136.147 79.0261L130.576 77.9739L130.453 77.377L136.024 78.4291L136.147 79.0261Z" fill="#9FC6F5"/>
<path d="M136.518 80.8347L130.944 79.7825L130.82 79.1855L136.395 80.2377L136.518 80.8347Z" fill="#9FC6F5"/>
<path d="M136.889 82.6466L131.319 81.5901L131.195 80.9932L136.766 82.0453L136.889 82.6466Z" fill="#9FC6F5"/>
<path d="M137.312 84.7116L125.639 82.5042L125.516 81.9072L137.193 84.1147L137.312 84.7116Z" fill="#9FC6F5"/>
<path d="M137.684 86.5202L126.006 84.3128L125.883 83.7158L137.56 85.9233L137.684 86.5202Z" fill="#9FC6F5"/>
<path d="M138.054 88.3288L126.377 86.1214L126.258 85.5244L137.931 87.7318L138.054 88.3288Z" fill="#9FC6F5"/>
<path d="M139.172 93.7563L136.831 93.314L135.969 89.0967L138.31 89.539L139.172 93.7563Z" fill="#9FC6F5"/>
<path d="M135.337 89.5566L126.748 87.929L126.625 87.332L135.214 88.9554L135.337 89.5566Z" fill="#9FC6F5"/>
<path d="M135.716 91.3643L127.123 89.7409L127 89.1396L135.593 90.7673L135.716 91.3643Z" fill="#9FC6F5"/>
<path d="M136.084 93.1729L127.49 91.5495L127.367 90.9482L135.96 92.5759L136.084 93.1729Z" fill="#9FC6F5"/>
<path d="M139.543 95.5651L127.865 93.3577L127.742 92.7607L139.42 94.9682L139.543 95.5651Z" fill="#9FC6F5"/>
<path d="M140.106 98.3131L128.429 96.1014L128.055 94.2891L139.732 96.4965L140.106 98.3131Z" fill="#9FC6F5"/>
<g opacity="0.6">
<path d="M135.43 75.5394L123.752 73.332L122.516 67.3066L134.193 69.5184L135.43 75.5394Z" fill="white"/>
<path d="M130.604 81.4572L125.205 80.4351L123.969 74.4141L129.368 75.4319L130.604 81.4572Z" fill="white"/>
<path d="M135.772 77.2179L130.201 76.1657L130.078 75.5645L135.649 76.6209L135.772 77.2179Z" fill="white"/>
<path d="M136.147 79.0261L130.576 77.9739L130.453 77.377L136.024 78.4291L136.147 79.0261Z" fill="white"/>
<path d="M136.518 80.8347L130.944 79.7825L130.82 79.1855L136.395 80.2377L136.518 80.8347Z" fill="white"/>
<path d="M136.881 82.6476L131.311 81.5911L131.188 80.9941L136.758 82.0463L136.881 82.6476Z" fill="white"/>
<path d="M137.304 84.7126L125.631 82.5052L125.508 81.9082L137.185 84.1156L137.304 84.7126Z" fill="white"/>
<path d="M137.684 86.5212L126.006 84.3138L125.883 83.7168L137.56 85.9242L137.684 86.5212Z" fill="white"/>
<path d="M138.054 88.3288L126.377 86.1214L126.258 85.5244L137.931 87.7318L138.054 88.3288Z" fill="white"/>
<path d="M139.164 93.7573L136.823 93.315L135.961 89.0977L138.302 89.54L139.164 93.7573Z" fill="white"/>
<path d="M135.337 89.5566L126.748 87.929L126.625 87.332L135.214 88.9554L135.337 89.5566Z" fill="white"/>
<path d="M135.709 91.3652L127.115 89.7419L126.992 89.1406L135.585 90.7683L135.709 91.3652Z" fill="white"/>
<path d="M136.076 93.1729L127.483 91.5495L127.359 90.9482L135.953 92.5759L136.076 93.1729Z" fill="white"/>
<path d="M139.535 95.5651L127.858 93.3577L127.734 92.7607L139.412 94.9682L139.535 95.5651Z" fill="white"/>
<path d="M140.098 98.3141L128.421 96.1024L128.047 94.29L139.724 96.4975L140.098 98.3141Z" fill="white"/>
</g>
<path d="M140.812 92.3521L158.804 91.0723L160.04 97.0933L142.049 98.3731L140.812 92.3521Z" fill="#9FC6F5"/>
<path d="M149.016 84.5571L157.336 83.9688L158.572 89.9898L150.256 90.5824L149.016 84.5571Z" fill="#9FC6F5"/>
<path d="M140.461 90.6733L149.05 90.0635L149.173 90.6604L140.584 91.2703L140.461 90.6733Z" fill="#9FC6F5"/>
<path d="M140.094 88.8647L148.678 88.2549L148.801 88.8518L140.217 89.4617L140.094 88.8647Z" fill="#9FC6F5"/>
<path d="M139.719 87.0532L148.308 86.4434L148.431 87.0446L139.842 87.6544L139.719 87.0532Z" fill="#9FC6F5"/>
<path d="M139.344 85.2446L147.928 84.6348L148.051 85.236L139.467 85.8458L139.344 85.2446Z" fill="#9FC6F5"/>
<path d="M138.922 83.1792L156.918 81.8994L157.037 82.4964L139.045 83.7762L138.922 83.1792Z" fill="#9FC6F5"/>
<path d="M138.547 81.3706L156.538 80.0908L156.662 80.6878L138.67 81.9676L138.547 81.3706Z" fill="#9FC6F5"/>
<path d="M138.18 79.5587L156.176 78.2832L156.294 78.8802L138.303 80.1599L138.18 79.5587Z" fill="#9FC6F5"/>
<path d="M137.062 74.1346L140.666 73.877L141.533 78.0943L137.929 78.3519L137.062 74.1346Z" fill="#9FC6F5"/>
<path d="M142.562 77.4155L155.802 76.4707L155.925 77.072L142.686 78.0125L142.562 77.4155Z" fill="#9FC6F5"/>
<path d="M142.188 75.6026L155.427 74.6621L155.546 75.2634L142.311 76.2039L142.188 75.6026Z" fill="#9FC6F5"/>
<path d="M141.812 73.795L155.052 72.8545L155.175 73.4514L141.936 74.3963L141.812 73.795Z" fill="#9FC6F5"/>
<path d="M136.688 72.3267L154.683 71.0469L154.802 71.6438L136.811 72.9236L136.688 72.3267Z" fill="#9FC6F5"/>
<path d="M136.125 69.5776L154.117 68.2979L154.491 70.1145L136.499 71.3943L136.125 69.5776Z" fill="#9FC6F5"/>
<g opacity="0.6">
<path d="M140.805 92.3521L158.796 91.0723L160.033 97.0933L142.041 98.3731L140.805 92.3521Z" fill="white"/>
<path d="M149.016 84.5571L157.336 83.9688L158.572 89.9898L150.256 90.5824L149.016 84.5571Z" fill="white"/>
<path d="M140.453 90.6733L149.042 90.0635L149.165 90.6604L140.576 91.2703L140.453 90.6733Z" fill="white"/>
<path d="M140.094 88.8647L148.678 88.2549L148.801 88.8518L140.217 89.4617L140.094 88.8647Z" fill="white"/>
<path d="M139.719 87.0522L148.308 86.4424L148.431 87.0436L139.842 87.6535L139.719 87.0522Z" fill="white"/>
<path d="M139.344 85.2446L147.928 84.6348L148.051 85.236L139.467 85.8458L139.344 85.2446Z" fill="white"/>
<path d="M138.922 83.1792L156.918 81.8994L157.037 82.4964L139.045 83.7762L138.922 83.1792Z" fill="white"/>
<path d="M138.547 81.3706L156.538 80.0908L156.662 80.6878L138.67 81.9676L138.547 81.3706Z" fill="white"/>
<path d="M138.172 79.5587L156.168 78.2832L156.287 78.8802L138.295 80.1599L138.172 79.5587Z" fill="white"/>
<path d="M137.062 74.1336L140.666 73.876L141.533 78.0933L137.929 78.351L137.062 74.1336Z" fill="white"/>
<path d="M142.562 77.4155L155.802 76.4707L155.925 77.072L142.686 78.0125L142.562 77.4155Z" fill="white"/>
<path d="M142.188 75.6026L155.427 74.6621L155.546 75.2634L142.311 76.2039L142.188 75.6026Z" fill="white"/>
<path d="M141.812 73.795L155.052 72.8545L155.175 73.4514L141.936 74.3963L141.812 73.795Z" fill="white"/>
<path d="M136.688 72.3257L154.683 71.0459L154.802 71.6429L136.811 72.9226L136.688 72.3257Z" fill="white"/>
<path d="M136.125 69.5776L154.117 68.2979L154.491 70.1145L136.499 71.3943L136.125 69.5776Z" fill="white"/>
</g>
<path d="M161.798 86.1205L158.203 83.5137L158.524 88.0445C158.524 88.0445 161.191 89.2513 162.713 88.1347L161.798 86.1205Z" fill="#EEC1BB"/>
<path d="M154.359 83.6339L154.839 87.4132L158.526 88.0445L158.209 83.5137L154.359 83.6339Z" fill="#EEC1BB"/>
<path d="M124.308 83.2217L123.719 86.988L127.094 88.5685L128.044 84.1235L124.308 83.2217Z" fill="#EEC1BB"/>
<path d="M167.44 69.1442C169.301 69.6982 171.536 75.9554 171.536 75.9554L164.312 80.9973C164.312 80.9973 161.672 75.7708 162.459 73.4216C163.273 70.9608 165.315 68.4957 167.44 69.1442Z" fill="#9FC6F5"/>
<path opacity="0.8" d="M167.44 69.1442C169.301 69.6982 171.536 75.9554 171.536 75.9554L164.312 80.9973C164.312 80.9973 161.672 75.7708 162.459 73.4216C163.273 70.9608 165.315 68.4957 167.44 69.1442Z" fill="white"/>
</svg>
