<svg width="23" height="29" viewBox="0 0 23 29" fill="none" xmlns="http://www.w3.org/2000/svg">
<path fill-rule="evenodd" clip-rule="evenodd" d="M0.551538 0.481445H3.51879C3.54576 0.482029 3.57148 0.494217 3.59056 0.515454C3.60963 0.536691 3.62058 0.565327 3.6211 0.595356V19.4771L7.64428 19.1627H7.6893H7.73842C8.16202 19.1308 8.48534 19.1035 8.70635 18.8825L9.08698 18.3881C9.12423 18.3405 9.17603 18.3099 9.23235 18.3024C9.28868 18.2948 9.34552 18.3107 9.39189 18.3471L11.3053 19.7779C11.3379 19.8033 11.3643 19.8375 11.3818 19.8773C11.3994 19.9172 11.4075 19.9614 11.4055 20.0057C11.4055 20.131 11.3666 20.1651 11.2807 20.2517C11.1962 20.3377 11.1175 20.4306 11.0454 20.5297C10.8578 20.7828 10.6525 21.0189 10.4314 21.2359C10.2051 21.4602 9.95161 21.6481 9.67838 21.7941C9.1054 22.1039 8.56311 22.1449 7.92054 22.195H7.87143H7.82846L3.6211 22.5276V28.3621C3.62009 28.392 3.60899 28.4203 3.59001 28.4414C3.57104 28.4626 3.5456 28.4749 3.51879 28.476H0.551538C0.524565 28.4755 0.498843 28.4633 0.479767 28.442C0.460691 28.4208 0.449743 28.3922 0.449219 28.3621L0.449219 0.595356C0.449219 0.565145 0.459999 0.536171 0.479187 0.514809C0.498376 0.493447 0.524401 0.481445 0.551538 0.481445V0.481445ZM9.86256 14.1302L11.7043 9.77425L11.5222 9.71729C11.2109 9.58442 10.8793 9.52095 10.546 9.53048C10.1572 9.59427 9.79298 9.85398 9.38575 10.1456C9.2159 10.2663 9.03991 10.3939 8.8496 10.5169C8.70635 10.5921 8.5406 10.7129 8.40144 10.8017L6.62109 11.9408C6.5687 11.9736 6.50675 11.982 6.44883 11.9641C6.39091 11.9461 6.34174 11.9034 6.31209 11.8451L5.19068 9.64895C5.1758 9.62014 5.16623 9.58833 5.1625 9.55536C5.15877 9.52239 5.16097 9.48893 5.16897 9.45691C5.17697 9.4249 5.1906 9.39498 5.20909 9.36889C5.22757 9.3428 5.25053 9.32106 5.27662 9.30494C5.97853 8.8493 6.79504 8.39366 7.47648 7.90612C8.29503 7.33885 8.9642 6.88548 9.73977 6.67133C10.5154 6.45718 11.3769 6.48908 12.5822 6.89915C13.016 7.03357 13.5133 7.23633 13.9226 7.40036C14.1272 7.48009 14.2909 7.55072 14.4219 7.59856C16.4396 8.34809 17.1211 9.79931 17.6511 10.9247C17.8803 11.41 18.0788 11.836 18.3346 12.0638C18.4389 12.1595 18.6763 12.1254 18.9485 12.0843C19.1274 12.0546 19.3078 12.0371 19.4887 12.032C20.3728 11.9385 21.2609 11.8816 22.149 11.8041C22.2081 11.7991 22.2666 11.8202 22.3118 11.8628C22.357 11.9055 22.3853 11.9662 22.3905 12.032L22.5501 14.5744C22.5519 14.6385 22.5318 14.701 22.4938 14.7493C22.4558 14.7975 22.4028 14.8278 22.3455 14.8341L19.8898 15.0392C18.7991 15.1258 18.0092 15.1895 16.8202 14.4765L16.7957 14.4605C16.17 13.9579 15.6636 13.2933 15.3202 12.524L13.9001 16.0644C14.2762 16.4955 14.6761 16.9003 15.0972 17.2764C16.325 18.4155 17.3482 19.3746 17.0167 21.9308C16.985 22.1561 16.9405 22.3791 16.8837 22.5983C16.8284 22.8261 16.7691 23.0311 16.7056 23.2453C16.237 24.7352 15.8421 26.3209 15.4185 27.8313C15.4061 27.8821 15.3797 27.9272 15.3429 27.9604C15.3062 27.9935 15.261 28.0129 15.2138 28.0158L12.8278 28.1935C12.8014 28.1994 12.7743 28.1994 12.7479 28.1935C12.6904 28.174 12.6421 28.1301 12.6134 28.0713C12.5847 28.0125 12.5779 27.9435 12.5945 27.8792C13.0958 26.0293 13.6177 24.1771 14.1067 22.3249C14.1771 22.1008 14.2365 21.8726 14.2848 21.6414C14.3247 21.4432 14.3303 21.2383 14.3012 21.0377V20.983C14.2958 20.802 14.2439 20.6265 14.1518 20.4773C13.5928 19.9903 12.9924 19.5653 12.3591 19.2083C11.5917 18.7367 10.8428 18.2788 10.2616 17.6136C9.84981 17.1661 9.59018 16.5735 9.52695 15.9368C9.48535 15.3115 9.60159 14.6858 9.86256 14.1302ZM16.8346 1.87799C17.4989 1.82726 18.1543 2.07195 18.6568 2.5584C19.1594 3.04485 19.4681 3.73334 19.5153 4.47286C19.5384 4.83966 19.4964 5.20792 19.3917 5.55664C19.287 5.90536 19.1216 6.2277 18.9049 6.50525C18.4674 7.0658 17.8478 7.40991 17.1825 7.46187C16.5171 7.51383 15.8604 7.2694 15.3569 6.78234C14.8534 6.29527 14.5443 5.60548 14.4976 4.86471C14.452 4.1263 14.6706 3.39777 15.1057 2.83818C15.5409 2.27859 16.1573 1.93341 16.8202 1.87799H16.8346ZM1.13271 8.45517H1.81825V12.1208H1.13271V8.45517Z" fill="#333333"/>
</svg>
